<svg id="Capa_1" data-name="Capa 1" xmlns="http://www.w3.org/2000/svg" viewBox="0 0 166.91 166.96"><defs><style>.cls-1{fill:#fff;fill-opacity:0;}.cls-2{fill:#fafafa;opacity:0.02;}.cls-10,.cls-11,.cls-12,.cls-13,.cls-14,.cls-15,.cls-16,.cls-17,.cls-18,.cls-19,.cls-2,.cls-20,.cls-21,.cls-22,.cls-23,.cls-24,.cls-25,.cls-26,.cls-27,.cls-28,.cls-29,.cls-3,.cls-30,.cls-31,.cls-32,.cls-33,.cls-34,.cls-35,.cls-36,.cls-37,.cls-38,.cls-39,.cls-4,.cls-40,.cls-41,.cls-42,.cls-43,.cls-44,.cls-45,.cls-46,.cls-47,.cls-48,.cls-49,.cls-5,.cls-50,.cls-51,.cls-6,.cls-7,.cls-8,.cls-9{isolation:isolate;}.cls-3{fill:#f5f5f5;opacity:0.04;}.cls-4{fill:#f0f0f0;opacity:0.06;}.cls-5{fill:#ebebeb;opacity:0.08;}.cls-6{fill:#e6e6e6;opacity:0.1;}.cls-7{fill:#e1e1e1;opacity:0.12;}.cls-8{fill:#dcdcdc;opacity:0.14;}.cls-9{fill:#d7d7d7;opacity:0.16;}.cls-10{fill:#d2d2d2;opacity:0.18;}.cls-11{fill:#cdcdcd;opacity:0.2;}.cls-12{fill:#c8c8c8;opacity:0.22;}.cls-13{fill:#c3c3c3;opacity:0.23;}.cls-14{fill:#bebebe;opacity:0.25;}.cls-15{fill:#b9b9b9;opacity:0.28;}.cls-16{fill:#b4b4b4;opacity:0.29;}.cls-17{fill:#afafaf;opacity:0.31;}.cls-18{fill:#aaa;opacity:0.33;}.cls-19{fill:#a5a5a5;opacity:0.35;}.cls-20{fill:#a0a0a0;opacity:0.37;}.cls-21{fill:#9b9b9b;opacity:0.39;}.cls-22{fill:#969696;opacity:0.41;}.cls-23{fill:#919191;opacity:0.43;}.cls-24{fill:#8c8c8c;opacity:0.45;}.cls-25{fill:#878787;opacity:0.47;}.cls-26{fill:#828282;opacity:0.49;}.cls-27{fill:#7d7d7d;opacity:0.51;}.cls-28{fill:#787878;opacity:0.53;}.cls-29{fill:#737373;opacity:0.55;}.cls-30{fill:#6e6e6e;opacity:0.57;}.cls-31{fill:#696969;opacity:0.59;}.cls-32{fill:#646464;opacity:0.61;}.cls-33{fill:#5f5f5f;opacity:0.63;}.cls-34{fill:#5a5a5a;opacity:0.65;}.cls-35{fill:#555;opacity:0.67;}.cls-36{fill:#505050;opacity:0.69;}.cls-37{fill:#4b4b4b;opacity:0.71;}.cls-38{fill:#464646;opacity:0.73;}.cls-39{fill:#414141;opacity:0.75;}.cls-40{fill:#3c3c3c;opacity:0.76;}.cls-41{fill:#373737;opacity:0.78;}.cls-42{fill:#323232;opacity:0.8;}.cls-43{fill:#2d2d2d;opacity:0.82;}.cls-44{fill:#282828;opacity:0.84;}.cls-45{fill:#232323;opacity:0.86;}.cls-46{fill:#1e1e1e;opacity:0.88;}.cls-47{fill:#191919;opacity:0.9;}.cls-48{fill:#141414;opacity:0.92;}.cls-49{fill:#0f0f0f;opacity:0.94;}.cls-50{fill:#0a0a0a;opacity:0.96;}.cls-51{fill:#050505;opacity:0.98;}.cls-52{fill:#231f20;}.cls-53{fill:#cd1225;}.cls-54{fill:#fbd023;}.cls-55{fill:#053891;}</style></defs><g id="Grupo_6675" data-name="Grupo 6675"><g id="Grupo_3602" data-name="Grupo 3602"><path id="Trazado_4072" data-name="Trazado 4072" class="cls-1" d="M138.38,24.36c35.21,35.21,38.27,89.44,6.85,120.89s-85.69,28.37-120.88-6.86-30-81.16,1.42-112.61S103.16-10.87,138.38,24.36Z" transform="translate(-0.02 0)"/><path id="Trazado_4073" data-name="Trazado 4073" class="cls-2" d="M137.87,24.64c35,34.94,38,88.79,6.8,120s-85.07,28.16-120-6.8S-5.26,57.14,26,25.93,102.87-10.33,137.87,24.64Z" transform="translate(-0.02 0)"/><path id="Trazado_4074" data-name="Trazado 4074" class="cls-3" d="M137.3,24.89C172,59.6,175,113.06,144.06,144.08s-84.44,28-119.19-6.75S-4.93,57.12,26.09,26.14,102.6-9.78,137.3,24.89Z" transform="translate(-0.02 0)"/><path id="Trazado_4075" data-name="Trazado 4075" class="cls-4" d="M136.76,25.22c34.45,34.45,37.46,87.5,6.7,118.29s-83.83,27.75-118.28-6.7S-4.49,57.07,26.26,26.31,102.32-9.27,136.76,25.22Z" transform="translate(-0.02 0)"/><path id="Trazado_4076" data-name="Trazado 4076" class="cls-5" d="M136.22,25.47c34.2,34.19,37.17,86.85,6.65,117.38S59.66,170.4,25.48,136.22-4.08,57,26.48,26.42,102-8.78,136.22,25.47Z" transform="translate(-0.02 0)"/><path id="Trazado_4077" data-name="Trazado 4077" class="cls-6" d="M135.68,25.72c33.93,34,36.91,86.23,6.59,116.55s-82.58,27.34-116.54-6.6-29.44-78.78.9-109.09S101.72-8.21,135.68,25.72Z" transform="translate(-0.02 0)"/><path id="Trazado_4078" data-name="Trazado 4078" class="cls-7" d="M135.14,26c33.67,33.7,36.62,85.58,6.54,115.67s-82,27.09-115.66-6.55-29.33-78.29.75-108.35S101.44-7.69,135.14,26Z" transform="translate(-0.02 0)"/><path id="Trazado_4079" data-name="Trazado 4079" class="cls-8" d="M134.59,26.29c33.41,33.41,36.34,84.88,6.49,114.78S59.71,168,26.3,134.58s-29.23-77.8.62-107.67S101.15-7.15,134.59,26.29Z" transform="translate(-0.02 0)"/><path id="Trazado_4080" data-name="Trazado 4080" class="cls-9" d="M134,26.54c33.19,33.19,36.06,84.29,6.44,113.94S59.73,167.22,26.55,134-2.54,56.7,27.06,27.07,100.87-6.64,134,26.54Z" transform="translate(-0.02 0)"/><path id="Trazado_4081" data-name="Trazado 4081" class="cls-10" d="M133.52,26.83c33,32.92,35.82,83.65,6.41,113.05s-80.13,26.54-113-6.41a72,72,0,0,1-4.1-101.74q2.16-2.34,4.52-4.48a72,72,0,0,1,101.71-4.9h0C130.6,23.78,132.09,25.28,133.52,26.83Z" transform="translate(-0.02 0)"/><path id="Trazado_4082" data-name="Trazado 4082" class="cls-11" d="M132.93,27.12c32.7,32.67,35.54,83,6.32,112.17S59.75,165.62,27.08,133A71.57,71.57,0,0,1,23,31.85h0c1.41-1.53,2.88-3,4.42-4.4a71.56,71.56,0,0,1,101.09-4.77h0Q130.8,24.81,132.93,27.12Z" transform="translate(-0.02 0)"/><path id="Trazado_4083" data-name="Trazado 4083" class="cls-12" d="M132.39,27.38c32.44,32.44,35.22,82.35,6.32,111.33s-78.84,26.12-111.32-6.32A71.19,71.19,0,0,1,23.3,31.81c1.36-1.48,2.79-2.9,4.27-4.25a71.19,71.19,0,0,1,100.57-4.42C129.61,24.49,131,25.91,132.39,27.38Z" transform="translate(-0.02 0)"/><path id="Trazado_4084" data-name="Trazado 4084" class="cls-13" d="M131.87,27.66c32.17,32.18,35,81.71,6.26,110.44S59.87,164,27.67,131.85A70.69,70.69,0,0,1,23.54,32h0c1.33-1.46,2.74-2.86,4.21-4.2a70.7,70.7,0,0,1,99.89-4.29C129.1,24.8,130.51,26.22,131.87,27.66Z" transform="translate(-0.02 0)"/><path id="Trazado_4085" data-name="Trazado 4085" class="cls-14" d="M131.31,27.94C163.23,59.86,166,109,137.51,137.51S59.87,163.22,28,131.3A70.29,70.29,0,0,1,23.86,32h0Q25.82,29.85,28,27.9a70.27,70.27,0,0,1,99.3-4l0,0C128.64,25.16,130,26.53,131.31,27.94Z" transform="translate(-0.02 0)"/><path id="Trazado_4086" data-name="Trazado 4086" class="cls-15" d="M130.76,28.22c31.66,31.65,34.43,80.43,6.16,108.7s-77,25.5-108.71-6.16A69.89,69.89,0,0,1,24.11,32q1.89-2.05,4-4a69.89,69.89,0,0,1,98.76-3.79Q128.86,26.16,130.76,28.22Z" transform="translate(-0.02 0)"/><path id="Trazado_4087" data-name="Trazado 4087" class="cls-16" d="M130.22,28.49c31.39,31.4,34.14,79.77,6.1,107.83s-76.45,25.29-107.83-6.1a69.44,69.44,0,0,1-4.12-98.11c1.24-1.34,2.52-2.64,3.86-3.88a69.44,69.44,0,0,1,98.13-3.61C127.7,25.86,129,27.15,130.22,28.49Z" transform="translate(-0.02 0)"/><path id="Trazado_4088" data-name="Trazado 4088" class="cls-17" d="M129.68,28.77c31.15,31.15,33.86,79.12,6,107s-75.86,25-106.94-6.1a69,69,0,0,1-4.16-97.49h0c1.21-1.33,2.47-2.59,3.76-3.78A69,69,0,0,1,125.92,25h0Q127.87,26.81,129.68,28.77Z" transform="translate(-0.02 0)"/><path id="Trazado_4089" data-name="Trazado 4089" class="cls-18" d="M129.13,29c30.88,30.9,33.57,78.5,6,106.09S59.94,160,29,129.13a68.62,68.62,0,0,1-4.12-97l0,0c1.16-1.26,2.35-2.47,3.59-3.63a68.64,68.64,0,0,1,97-3.12C126.79,26.57,128,27.79,129.13,29Z" transform="translate(-0.02 0)"/><path id="Trazado_4090" data-name="Trazado 4090" class="cls-19" d="M128.59,29.32c30.65,30.64,33.28,77.9,5.95,105.22S60,159.24,29.32,128.59a68.15,68.15,0,0,1-4.11-96.3h0c1.13-1.23,2.31-2.42,3.52-3.56a68.17,68.17,0,0,1,96.35-3h0Q126.87,27.48,128.59,29.32Z" transform="translate(-0.02 0)"/><path id="Trazado_4091" data-name="Trazado 4091" class="cls-20" d="M128,29.6c30.42,30.39,33.06,77.17,5.93,104.33s-74,24.5-104.34-5.89a67.73,67.73,0,0,1-4.15-95.69q1.65-1.8,3.43-3.48a67.71,67.71,0,0,1,95.72-2.73h0C125.79,27.22,126.92,28.41,128,29.6Z" transform="translate(-0.02 0)"/><path id="Trazado_4092" data-name="Trazado 4092" class="cls-21" d="M127.48,29.86c30.16,30.16,32.77,76.56,5.87,103.48S60,157.63,29.87,127.48a69,69,0,1,1,95.9-99.33c.58.57,1.15,1.14,1.71,1.72Z" transform="translate(-0.02 0)"/><path id="Trazado_4093" data-name="Trazado 4093" class="cls-22" d="M126.94,30.14c29.89,29.87,32.5,75.91,5.81,102.6s-72.7,24.12-102.63-5.82A68.45,68.45,0,1,1,123.3,26.63c.56.52,1.12,1.05,1.66,1.59s1.31,1.28,1.94,1.94Z" transform="translate(-0.02 0)"/><path id="Trazado_4094" data-name="Trazado 4094" class="cls-23" d="M126.4,30.44c29.64,29.61,32.22,75.27,5.77,101.72S60.06,156,30.44,126.39a67.87,67.87,0,1,1,94-97.92C125.1,29.11,125.75,29.77,126.4,30.44Z" transform="translate(-0.02 0)"/><path id="Trazado_4095" data-name="Trazado 4095" class="cls-24" d="M125.87,30.69c29.38,29.38,31.94,74.62,5.71,100.87s-71.5,23.66-100.89-5.72a67.31,67.31,0,0,1,91.82-98.45l.87.83c.84.8,1.66,1.62,2.47,2.47Z" transform="translate(-0.02 0)"/><path id="Trazado_4096" data-name="Trazado 4096" class="cls-25" d="M125.3,31C154.42,60.1,157,105,131,131s-70.88,23.48-100-5.66a66.73,66.73,0,1,1,90.81-97.8l.9.85C123.58,29.22,124.45,30.08,125.3,31Z" transform="translate(-0.02 0)"/><path id="Trazado_4097" data-name="Trazado 4097" class="cls-26" d="M124.76,31.22c28.9,28.89,31.38,73.33,5.62,99.11s-70.25,23.25-99.12-5.61a66.14,66.14,0,0,1,90.87-96.14C123,29.44,123.91,30.31,124.76,31.22Z" transform="translate(-0.02 0)"/><path id="Trazado_4098" data-name="Trazado 4098" class="cls-27" d="M124.22,31.52c28.61,28.63,31.12,72.7,5.56,98.26s-69.62,23-98.26-5.56A65.59,65.59,0,0,1,121.21,28.5C122.24,29.48,123.25,30.48,124.22,31.52Z" transform="translate(-0.02 0)"/><path id="Trazado_4099" data-name="Trazado 4099" class="cls-28" d="M123.68,31.8c28.34,28.37,30.83,72.05,5.51,97.38s-69,22.84-97.39-5.51a65,65,0,0,1,88.39-95.36C121.4,29.43,122.57,30.59,123.68,31.8Z" transform="translate(-0.02 0)"/><path id="Trazado_4100" data-name="Trazado 4100" class="cls-29" d="M123.13,32.08c28.09,28.12,30.54,71.39,5.42,96.5s-68.39,22.62-96.5-5.42a64.43,64.43,0,1,1,87.56-94.55l1.15,1.1Q122,30.87,123.13,32.08Z" transform="translate(-0.02 0)"/><path id="Trazado_4101" data-name="Trazado 4101" class="cls-30" d="M122.59,32.34C150.44,60.2,152.84,103.1,128,128s-67.79,22.45-95.64-5.42a63.85,63.85,0,1,1,86.78-93.69q1.8,1.66,3.46,3.45Z" transform="translate(-0.02 0)"/><path id="Trazado_4102" data-name="Trazado 4102" class="cls-31" d="M122,32.63c27.62,27.59,30,70.12,5.41,94.81S60.27,149.68,32.64,122a63.27,63.27,0,0,1,85.8-93Q120.3,30.78,122,32.63Z" transform="translate(-0.02 0)"/><path id="Trazado_4103" data-name="Trazado 4103" class="cls-32" d="M121.48,32.91c27.39,27.31,29.74,69.45,5.32,93.91s-66.54,22-93.9-5.33a62.68,62.68,0,0,1,84-93.06l.67.61c1.36,1.24,2.66,2.53,3.9,3.89Z" transform="translate(-0.02 0)"/><path id="Trazado_4104" data-name="Trazado 4104" class="cls-33" d="M120.93,33.22c27.09,27.09,29.47,68.82,5.28,93s-65.92,21.84-93-5.27A62.15,62.15,0,1,1,116.87,29,57.75,57.75,0,0,1,121,33.15Z" transform="translate(-0.02 0)"/><path id="Trazado_4105" data-name="Trazado 4105" class="cls-34" d="M120.39,33.46c26.85,26.85,29.18,68.18,5.23,92.16s-65.31,21.6-92.15-5.23a61.55,61.55,0,0,1,82.35-91.5,63.56,63.56,0,0,1,4.57,4.57Z" transform="translate(-0.02 0)"/><path id="Trazado_4106" data-name="Trazado 4106" class="cls-35" d="M119.87,33.74c26.59,26.59,28.9,67.53,5.18,91.28s-64.69,21.42-91.28-5.17a61,61,0,1,1,80.81-91.39A59.91,59.91,0,0,1,119.87,33.74Z" transform="translate(-0.02 0)"/><path id="Trazado_4107" data-name="Trazado 4107" class="cls-36" d="M119.3,34c26.33,26.33,28.63,66.91,5.12,90.42S60.31,145.62,34,119.29a60.41,60.41,0,1,1,80.54-90.06A62.87,62.87,0,0,1,119.3,34Z" transform="translate(-0.02 0)"/><path id="Trazado_4108" data-name="Trazado 4108" class="cls-37" d="M118.76,34.28c26.11,26.07,28.34,66.24,5.11,89.55s-63.46,21-89.54-5.07A59.83,59.83,0,1,1,118.8,34.29Z" transform="translate(-0.02 0)"/><path id="Trazado_4109" data-name="Trazado 4109" class="cls-38" d="M118.24,34.61c25.82,25.81,28.07,65.59,5,88.66s-62.85,20.77-88.66-5a59.27,59.27,0,1,1,83.64-83.64Z" transform="translate(-0.02 0)"/><path id="Trazado_4110" data-name="Trazado 4110" class="cls-39" d="M117.67,34.86c25.56,25.58,27.81,65,5,87.81s-62.23,20.59-87.81-5A58.69,58.69,0,0,1,112.6,29.72h0A55.9,55.9,0,0,1,117.67,34.86Z" transform="translate(-0.02 0)"/><path id="Trazado_4111" data-name="Trazado 4111" class="cls-40" d="M117.13,35.12c25.28,25.28,27.52,64.33,4.91,86.93s-61.6,20.4-86.92-4.91a58.13,58.13,0,1,1,82-82Z" transform="translate(-0.02 0)"/><path id="Trazado_4112" data-name="Trazado 4112" class="cls-41" d="M116.55,35.38c25.1,25.06,27.26,63.64,4.89,86s-61,20.19-86-4.87a57.55,57.55,0,0,1,75.2-87.14A55.44,55.44,0,0,1,116.55,35.38Z" transform="translate(-0.02 0)"/><path id="Trazado_4113" data-name="Trazado 4113" class="cls-42" d="M116,35.64c24.83,24.83,27,63,4.84,85.19s-60.37,20-85.19-4.84a57,57,0,1,1,74-86.71A57.69,57.69,0,0,1,116,35.63Z" transform="translate(-0.02 0)"/><path id="Trazado_4114" data-name="Trazado 4114" class="cls-43" d="M115.47,35.94c24.57,24.57,26.72,62.39,4.79,84.32S60.51,140,35.94,115.48a58.09,58.09,0,0,1-4.06-82q.36-.4.75-.81a58.06,58.06,0,0,1,82.07,2.48A9.65,9.65,0,0,1,115.47,35.94Z" transform="translate(-0.02 0)"/><path id="Trazado_4115" data-name="Trazado 4115" class="cls-44" d="M114.94,36.22c24.31,24.28,26.43,61.73,4.73,83.44s-59.15,19.56-83.44-4.74a57.67,57.67,0,0,1-4.1-81.45l.66-.71a57.67,57.67,0,0,1,81.51,2.76C114.52,35.75,114.73,36,114.94,36.22Z" transform="translate(-0.02 0)"/><path id="Trazado_4116" data-name="Trazado 4116" class="cls-45" d="M114.39,36.48c24,24.05,26.18,61.09,4.67,82.58s-58.52,19.37-82.58-4.68S11.48,54.38,33,33,90.33,12.45,114.39,36.48Z" transform="translate(-0.02 0)"/><path id="Trazado_4117" data-name="Trazado 4117" class="cls-46" d="M113.87,36.77c23.79,23.79,25.86,60.44,4.63,81.7s-57.91,19.17-81.71-4.63-24.9-59.46-3.61-80.72S90.05,13,113.87,36.77Z" transform="translate(-0.02 0)"/><path id="Trazado_4118" data-name="Trazado 4118" class="cls-47" d="M113.32,37.05c23.54,23.54,25.61,59.8,4.58,80.82s-57.29,19-80.82-4.58-24.81-59-3.78-80S89.76,13.49,113.32,37.05Z" transform="translate(-0.02 0)"/><path id="Trazado_4119" data-name="Trazado 4119" class="cls-48" d="M112.76,37.31c23.28,23.3,25.28,59.18,4.52,80s-56.67,18.76-80-4.51S12.63,54.29,33.43,33.5,89.46,14,112.76,37.31Z" transform="translate(-0.02 0)"/><path id="Trazado_4120" data-name="Trazado 4120" class="cls-49" d="M112.22,37.6c23,23,25,58.5,4.52,79.09s-56,18.54-79.09-4.52-24.55-58-4-78.6S89.18,14.55,112.22,37.6Z" transform="translate(-0.02 0)"/><path id="Trazado_4121" data-name="Trazado 4121" class="cls-50" d="M111.67,37.88c22.79,22.79,24.75,57.86,4.42,78.21s-55.42,18.34-78.22-4.43-24.44-57.54-4.11-77.9S88.87,15.11,111.67,37.88Z" transform="translate(-0.02 0)"/><path id="Trazado_4122" data-name="Trazado 4122" class="cls-51" d="M111.13,38.14c22.53,22.57,24.47,57.24,4.37,77.36s-54.81,18.16-77.37-4.4-24.31-57-4.19-77.17S88.57,15.61,111.13,38.14Z" transform="translate(-0.02 0)"/><path id="Trazado_4123" data-name="Trazado 4123" d="M110.57,38.43c22.29,22.26,24.23,56.58,4.34,76.48s-54.18,18-76.48-4.35S14.22,54,34.12,34.11,88.29,16.15,110.57,38.43Z" transform="translate(-0.02 0)"/></g><g id="Grupo_3603" data-name="Grupo 3603"><path id="Trazado_4124" data-name="Trazado 4124" class="cls-52" d="M74.66,142.53" transform="translate(-0.02 0)"/><path id="Trazado_4125" data-name="Trazado 4125" class="cls-53" d="M134,108.46H15.41a68.62,68.62,0,0,0,59.25,34.06h0A68.63,68.63,0,0,0,134,108.46Z" transform="translate(-0.02 0)"/><path id="Trazado_4126" data-name="Trazado 4126" class="cls-54" d="M6.07,73.93v.13H143.23v-.13A68.63,68.63,0,0,0,6,73.93Z" transform="translate(-0.02 0)"/><path id="Trazado_4127" data-name="Trazado 4127" class="cls-55" d="M15.41,108.47H133.92a68.21,68.21,0,0,0,9.31-34.41H6.07A68.12,68.12,0,0,0,15.41,108.47Z" transform="translate(-0.02 0)"/></g></g></svg>