<svg id="Capa_1" data-name="Capa 1" xmlns="http://www.w3.org/2000/svg" viewBox="0 0 52.77 53.1"><defs><style>.cls-1{fill:#f07e00;fill-rule:evenodd;}</style></defs><g id="Grupo_6708" data-name="Grupo 6708"><path id="Trazado_9813" data-name="Trazado 9813" class="cls-1" d="M668.49,410.61H642.12a6.6,6.6,0,0,1-6.6-6.59h0v-1.65a1.65,1.65,0,0,1,3.3,0V404a3.3,3.3,0,0,0,3.3,3.3h26.37a3.29,3.29,0,0,0,3.3-3.29h0V377.64a3.29,3.29,0,0,0-3.29-3.3H642.12a3.3,3.3,0,0,0-3.3,3.3h0V393.3a4.12,4.12,0,0,1-4.12,4.12h-5.76a6.59,6.59,0,0,1-6.59-6.59h0V364.45a6.6,6.6,0,0,1,6.59-6.6h24.73a1.65,1.65,0,0,1,0,3.3H628.94a3.29,3.29,0,0,0-3.3,3.29h0v26.38a3.29,3.29,0,0,0,3.29,3.3h5.39a1.23,1.23,0,0,0,1.23-1.23h0V377.65a6.6,6.6,0,0,1,6.6-6.6h26.38a6.6,6.6,0,0,1,6.59,6.6V404a6.59,6.59,0,0,1-6.59,6.59h0Z" transform="translate(-622.35 -357.52)"/><path id="Trazado_9814" data-name="Trazado 9814" class="cls-1" d="M659,357.52a2.21,2.21,0,1,1-2.21,2.21h0A2.21,2.21,0,0,1,659,357.52Z" transform="translate(-622.35 -357.52)"/></g></svg>