<svg id="Capa_1" data-name="Capa 1" xmlns="http://www.w3.org/2000/svg" viewBox="0 0 149.22 150.14"><defs><style>.cls-1{fill:#34353c;}.cls-1,.cls-2{fill-rule:evenodd;}.cls-2{fill:#fbbd06;}</style></defs><g id="Grupo_6708" data-name="Grupo 6708"><path id="Trazado_9813" data-name="Trazado 9813" class="cls-1" d="M975,458.71H900.45a18.65,18.65,0,0,1-18.65-18.63h0v-4.66a4.67,4.67,0,0,1,9.33,0v4.66a9.32,9.32,0,0,0,9.32,9.32H975a9.31,9.31,0,0,0,9.33-9.3V365.48a9.31,9.31,0,0,0-9.3-9.33H900.45a9.33,9.33,0,0,0-9.32,9.33h0v44.28a11.66,11.66,0,0,1-11.65,11.65H863.19a18.63,18.63,0,0,1-18.64-18.64h0V328.18a18.65,18.65,0,0,1,18.64-18.64h69.92a4.67,4.67,0,1,1,0,9.33H863.19a9.31,9.31,0,0,0-9.33,9.3v74.61a9.32,9.32,0,0,0,9.31,9.33h15.22a3.5,3.5,0,0,0,3.5-3.5h0V365.5a18.64,18.64,0,0,1,18.65-18.64h74.58a18.64,18.64,0,0,1,18.64,18.64v74.59a18.63,18.63,0,0,1-18.64,18.64h0Z" transform="translate(-844.55 -308.59)"/><path id="Trazado_9814" data-name="Trazado 9814" class="cls-2" d="M948.14,308.59a6.26,6.26,0,1,1-6.25,6.26h0A6.25,6.25,0,0,1,948.14,308.59Z" transform="translate(-844.55 -308.59)"/></g></svg>