<svg id="Capa_1" data-name="Capa 1" xmlns="http://www.w3.org/2000/svg" viewBox="0 0 115.87 94.15"><defs><style>.cls-1{fill:#34353c;}.cls-1,.cls-2{fill-rule:evenodd;}.cls-2{fill:#fbbd06;}</style></defs><g id="Grupo_7025" data-name="Grupo 7025"><path id="Trazado_10166" data-name="Trazado 10166" class="cls-1" d="M911.16,370.86h-3.62a3.62,3.62,0,0,1,0-7.24h3.62a7.24,7.24,0,0,0,7.24-7.24h0V345.52a3.36,3.36,0,0,0-.13-.89,1,1,0,0,0-.14-.33,1.73,1.73,0,0,0-.16-.37,7.61,7.61,0,0,0-5.32-3.75,36.3,36.3,0,0,0-12.31-1.94,35.9,35.9,0,0,0-12,1.91A8.19,8.19,0,0,0,884.2,342h0a3.33,3.33,0,1,1-3.82-5.4,26.13,26.13,0,0,1,7.23-3.64,18.09,18.09,0,0,1-5.32-11.35c0-.48-.07-1-.07-1.48V309.29a14.48,14.48,0,0,1,14.5-14.47H904a14.49,14.49,0,0,1,14.49,14.49h0v10.86a3.62,3.62,0,0,1-7.24,0V309.31a7.24,7.24,0,0,0-7.24-7.24h-7.25a7.24,7.24,0,0,0-7.24,7.24h0v10.86A10.86,10.86,0,0,0,900.34,331c14,0,25.34,6.49,25.34,14.48v10.86a14.48,14.48,0,0,1-14.48,14.48Zm-38-31.18a3.61,3.61,0,0,1-7-1.12,3.51,3.51,0,0,1,.31-1.46h0a14.44,14.44,0,0,0,1.34-6.07,13.36,13.36,0,0,0-.21-2.36,9.3,9.3,0,0,0,.21-2V311.9a9.75,9.75,0,0,0-9.65-9.83h-9.65a9.75,9.75,0,0,0-9.65,9.83v14.73a10,10,0,0,0,.21,2,14.39,14.39,0,0,0,11.71,16.64,13.75,13.75,0,0,0,2.56.21c24,0,43.48,8.92,43.48,19.92v9.05A14.48,14.48,0,0,1,882.25,389h-58a14.48,14.48,0,0,1-14.48-14.47h0v-9.05a14.18,14.18,0,0,1,7.46-11.16,3.31,3.31,0,0,1,2.05-.73,3.35,3.35,0,0,1,1.77,6.21h0a7.52,7.52,0,0,0-4.11,5.68v9.05a7.24,7.24,0,0,0,7.24,7.24h57.93a7.24,7.24,0,0,0,7.24-7.24h0v-9.05c0-7-16.21-12.67-36.21-12.67a21.75,21.75,0,0,1-18.89-11v-.06c-.32-.57-.62-1.17-.89-1.77,0-.06-.06-.13-.09-.19-.25-.57-.46-1.14-.67-1.77l-.11-.32c-.18-.55-.32-1.12-.45-1.69a2.46,2.46,0,0,0-.11-.45c-.12-.56-.2-1.13-.27-1.68a4.85,4.85,0,0,0-.08-.53c-.07-.75-.11-1.5-.11-2.26a7.71,7.71,0,0,1,.06-1.18,8.58,8.58,0,0,0-.06-1.23V311.74a16.61,16.61,0,0,1,16.3-16.86h10.85A16.61,16.61,0,0,1,875,311.74V328.6a8.51,8.51,0,0,1-.06,1.23A7.65,7.65,0,0,0,875,331a21.46,21.46,0,0,1-1.84,8.65Z" transform="translate(-809.82 -294.82)"/><path id="Trazado_10167" data-name="Trazado 10167" class="cls-2" d="M829.69,343.7a5.46,5.46,0,0,1,5.44,5.46,5.18,5.18,0,0,1-.28,1.7,5.28,5.28,0,0,1-3.44,3.43,5.43,5.43,0,1,1-3.47-10.3A5.54,5.54,0,0,1,829.69,343.7Z" transform="translate(-809.82 -294.82)"/></g></svg>