<svg id="Capa_1" data-name="Capa 1" xmlns="http://www.w3.org/2000/svg" viewBox="0 0 50.13 47.65"><defs><style>.cls-1{fill:#f07e00;fill-rule:evenodd;}</style></defs><g id="Grupo_7024" data-name="Grupo 7024"><path id="Trazado_10163" data-name="Trazado 10163" class="cls-1" d="M645,387.24a1.68,1.68,0,0,1-1.67-1.68h0v-10a5,5,0,0,1,10,0h0v13.35a4.5,4.5,0,0,1-.1,1,5.17,5.17,0,0,1-.19.64c0,.08,0,.16-.07.23a5.68,5.68,0,0,1-.39.78h0a5.41,5.41,0,0,1-.54.72,5,5,0,0,1-3.72,1.67l-.19,0a1.67,1.67,0,1,0,1.86,1.65,1.68,1.68,0,0,1,3.35,0,5,5,0,1,1-10,0,4.56,4.56,0,0,1,.29-1.65,1.87,1.87,0,0,1,.07-.22,4.73,4.73,0,0,1,.39-.78h0a4.81,4.81,0,0,1,.55-.73,5,5,0,0,1,3.71-1.67,1.58,1.58,0,0,0,.38,0l.13,0a1.67,1.67,0,0,0,1.16-1.59V375.54a1.67,1.67,0,1,0-3.34,0v10a1.68,1.68,0,0,1-1.67,1.68h0Zm18.39,20.06c-5,0-10,0-15,0s-10,0-15.08,0h5.05a1.67,1.67,0,1,1,0-3.34v0h10c4.87,0,9.75,0,14.14,0,8.8.05,9.26-2.28,4.81-10.11s-8.3-16.18-12.66-24.07-8.21-7.88-12.57,0-8.24,16.24-12.69,24.07a13.58,13.58,0,0,0-2.75,7.62,1.67,1.67,0,0,1-3.34,0v0a16.11,16.11,0,0,1,2.55-7.41c5.07-8.9,9.31-17.84,14.28-26.81s11.5-9,16.47,0,9.21,17.91,14.28,26.81,2.58,13.33-7.46,13.27Z" transform="translate(-623.32 -360.51)"/><path id="Trazado_10164" data-name="Trazado 10164" class="cls-1" d="M631.21,403.11a2.53,2.53,0,0,1,2.51,2.55,2.67,2.67,0,0,1-.12.75A2.45,2.45,0,0,1,632,408a2.53,2.53,0,0,1-1.78-4.73,2.55,2.55,0,0,1,1-.16Z" transform="translate(-623.32 -360.51)"/></g></svg>