<svg id="Capa_1" data-name="Capa 1" xmlns="http://www.w3.org/2000/svg" viewBox="0 0 76.53 72.73"><defs><style>.cls-1{fill:#34353c;}.cls-1,.cls-2{fill-rule:evenodd;}.cls-2{fill:#fbbd06;}</style></defs><g id="Grupo_7024" data-name="Grupo 7024"><path id="Trazado_10163" data-name="Trazado 10163" class="cls-1" d="M677.09,388.35a2.55,2.55,0,0,1-2.55-2.55h0V370.5a7.65,7.65,0,1,1,15.3,0h0v20.38a7.19,7.19,0,0,1-.15,1.47,8,8,0,0,1-.28,1c0,.12-.07.24-.11.35a8.84,8.84,0,0,1-.6,1.19h0a8.13,8.13,0,0,1-.83,1.1,7.58,7.58,0,0,1-5.67,2.55,1.36,1.36,0,0,0-.29,0,2.54,2.54,0,1,0,2.84,2.52,2.55,2.55,0,0,1,5.1,0,7.65,7.65,0,1,1-15.3.06,7.86,7.86,0,0,1,.15-1.53,6.63,6.63,0,0,1,.29-1c0-.11.06-.23.1-.34a7,7,0,0,1,.61-1.19h0a7.46,7.46,0,0,1,.83-1.11,7.66,7.66,0,0,1,5.67-2.55,2.3,2.3,0,0,0,.58-.07l.19-.06a2.53,2.53,0,0,0,1.78-2.42V370.5a2.55,2.55,0,1,0-5.1,0v15.3a2.55,2.55,0,0,1-2.55,2.55h0ZM705.16,419c-7.65,0-15.31,0-23,0s-15.34,0-23,0h7.7a2.55,2.55,0,1,1,0-5.1v0h15.3c7.43,0,14.88,0,21.58,0,13.44.08,14.14-3.47,7.35-15.43s-12.67-24.69-19.33-36.74-12.53-12-19.18,0-12.58,24.8-19.38,36.74A20.78,20.78,0,0,0,649,410.05a2.56,2.56,0,0,1-5.11,0v0a24.66,24.66,0,0,1,3.9-11.31c7.74-13.59,14.21-27.23,21.79-40.92s17.56-13.68,25.15,0,14,27.33,21.79,40.92,4,20.35-11.38,20.26Z" transform="translate(-643.92 -347.56)"/><path id="Trazado_10164" data-name="Trazado 10164" class="cls-2" d="M656,412.59a3.85,3.85,0,0,1,3.82,3.89,3.8,3.8,0,0,1-2.61,3.57,3.86,3.86,0,0,1-2.71-7.22,3.8,3.8,0,0,1,1.49-.25Z" transform="translate(-643.92 -347.56)"/></g></svg>