<?xml version="1.0" standalone="no"?>
<!DOCTYPE svg PUBLIC "-//W3C//DTD SVG 20010904//EN"
 "http://www.w3.org/TR/2001/REC-SVG-20010904/DTD/svg10.dtd">
<svg version="1.0" xmlns="http://www.w3.org/2000/svg"
 width="512.000000pt" height="512.000000pt" viewBox="0 0 512.000000 512.000000"
 preserveAspectRatio="xMidYMid meet">

<g transform="translate(0.000000,512.000000) scale(0.100000,-0.100000)"
fill="#000000" stroke="none">
<path d="M751 5109 c-135 -26 -287 -143 -350 -267 -66 -130 -62 27 -59 -2349
l3 -2158 23 -55 c46 -113 140 -207 249 -252 l58 -23 2022 -3 2022 -2 28 24 28
24 0 2512 0 2512 -28 24 -28 24 -1962 -1 c-1079 -1 -1982 -5 -2006 -10z m3859
-2209 l0 -2050 -1955 0 c-1955 0 -1956 0 -2017 -21 -34 -11 -74 -29 -89 -40
-15 -10 -30 -19 -33 -19 -4 0 -5 881 -4 1958 l3 1957 26 55 c47 101 126 169
228 196 36 10 473 13 1944 13 l1897 1 0 -2050z m0 -2475 l0 -255 -1933 0
c-2152 0 -1998 -5 -2079 68 -142 128 -96 360 86 429 23 9 514 12 1979 12
l1947 1 0 -255z"/>
<path d="M2355 4165 c-475 -76 -876 -391 -1055 -829 -95 -232 -125 -495 -85
-743 48 -299 214 -598 440 -795 190 -166 394 -268 635 -319 149 -31 392 -32
537 -1 306 66 568 218 760 441 244 284 356 621 332 996 -35 525 -384 991 -883
1179 -207 78 -466 105 -681 71z m115 -340 l0 -155 -130 0 -130 0 22 48 c12 26
37 68 56 94 34 48 158 168 173 168 5 0 9 -70 9 -155z m263 95 c73 -67 121
-130 155 -202 l22 -48 -130 0 -130 0 0 155 c0 85 4 155 9 155 4 0 38 -27 74
-60z m-613 -60 c-26 -44 -58 -105 -71 -135 l-23 -55 -150 0 -151 1 35 30 c106
91 219 163 330 211 36 15 68 28 72 28 3 0 -16 -36 -42 -80z m956 29 c89 -42
194 -111 270 -176 l49 -43 -151 0 -150 0 -23 55 c-13 30 -45 91 -71 135 -56
93 -57 93 76 29z m-1116 -403 c0 -8 -9 -52 -19 -98 -25 -104 -48 -264 -57
-390 l-7 -98 -253 0 c-208 0 -254 2 -254 14 0 39 34 201 57 271 27 84 88 212
130 277 l26 38 188 0 c157 0 189 -2 189 -14z m510 -286 l0 -300 -210 0 -210 0
0 23 c0 110 34 341 72 490 l23 87 162 0 163 0 0 -300z m528 213 c38 -149 72
-380 72 -490 l0 -23 -210 0 -210 0 0 300 0 300 163 0 162 0 23 -87z m565 49
c42 -65 103 -193 130 -277 23 -70 57 -232 57 -271 0 -12 -46 -14 -254 -14
l-253 0 -7 98 c-9 126 -32 286 -57 390 -10 46 -19 90 -19 98 0 12 32 14 189
14 l188 0 26 -38z m-1675 -869 c7 -76 19 -176 27 -223 9 -47 19 -100 22 -117
l6 -33 -210 0 -209 0 -28 58 c-60 122 -103 265 -121 405 l-6 47 254 0 253 0
12 -137z m582 -118 l0 -255 -175 0 -175 0 -6 28 c-3 15 -10 43 -14 62 -13 53
-38 234 -46 333 l-6 87 211 0 211 0 0 -255z m596 168 c-8 -99 -33 -280 -46
-333 -4 -19 -11 -47 -14 -62 l-6 -28 -175 0 -175 0 0 255 0 255 211 0 211 0
-6 -87z m679 40 c-18 -140 -61 -283 -121 -405 l-28 -58 -209 0 -210 0 6 33 c3
17 13 70 22 117 8 47 20 147 27 223 l12 137 253 0 254 0 -6 -47z m-1730 -698
c29 -77 90 -198 127 -252 16 -24 27 -43 25 -43 -16 0 -160 68 -219 103 -89 53
-220 159 -266 215 l-35 42 173 -2 172 -3 23 -60z m455 -135 c0 -114 -4 -200
-9 -200 -26 0 -115 88 -164 162 -49 75 -117 207 -117 229 0 5 65 9 145 9 l145
0 0 -200z m470 191 c0 -22 -68 -154 -117 -229 -49 -74 -138 -162 -164 -162 -5
0 -9 86 -9 200 l0 200 145 0 c80 0 145 -4 145 -9z m498 -33 c-46 -56 -177
-162 -266 -215 -59 -35 -203 -103 -219 -103 -2 0 9 19 25 43 46 67 106 190
145 300 6 15 24 17 178 17 l172 0 -35 -42z"/>
</g>
</svg>
