<svg id="Capa_1" data-name="Capa 1" xmlns="http://www.w3.org/2000/svg" viewBox="0 0 51.14 44.97"><defs><style>.cls-1{fill:#f07e00;fill-rule:evenodd;}</style></defs><g id="Grupo_6705" data-name="Grupo 6705"><path id="Trazado_9810" data-name="Trazado 9810" class="cls-1" d="M670.38,398.52l-17.67,7.18a12.49,12.49,0,0,1-9.16,0l-17.65-7.17a5,5,0,0,1-2.74-4.45V371.6a1.67,1.67,0,1,1,3.33,0v22.25a1.66,1.66,0,0,0,.84,1.41l17,7.19.11,0a9.6,9.6,0,0,0,7.44,0l.12,0,17-7.2a1.66,1.66,0,0,0,.83-1.41V378.26a1.67,1.67,0,1,1,3.33,0v15.82a5,5,0,0,1-2.74,4.44Zm-7-5.66-7.86,3.27h0a1.69,1.69,0,0,1-2.26-.83,1.71,1.71,0,0,1,.82-2.27l.14,0,8-3.51a1.67,1.67,0,0,0,.88-1.45V366.21a.83.83,0,0,0-.83-.83.77.77,0,0,0-.34.07h0l-11.27,4.93a1.66,1.66,0,0,0-.88,1.46v23.07a3.33,3.33,0,0,1-3.33,3.33,3,3,0,0,1-1.29-.26l-12.3-5.12a5,5,0,0,1-3.07-4.61V364.94a3.34,3.34,0,0,1,3.34-3.33,3.29,3.29,0,0,1,1.28.26l7.64,3.17h0a1.75,1.75,0,0,1-.68,3.34,1.85,1.85,0,0,1-.79-.2l-6.28-2.75h0a.83.83,0,0,0-1.1.42.77.77,0,0,0-.08.34V388a1.69,1.69,0,0,0,.89,1.46l11.26,4.92h0a.83.83,0,0,0,1.18-.75v-22a5,5,0,0,1,3.06-4.61l12.29-5.12a3.33,3.33,0,0,1,4.63,3.07v23.31a5,5,0,0,1-3.07,4.61Z" transform="translate(-623.16 -361.61)"/><path id="Trazado_9811" data-name="Trazado 9811" class="cls-1" d="M671.84,366.91a2.46,2.46,0,1,1-2.47,2.46A2.46,2.46,0,0,1,671.84,366.91Z" transform="translate(-623.16 -361.61)"/></g></svg>