<svg id="Capa_1" data-name="Capa 1" xmlns="http://www.w3.org/2000/svg" viewBox="0 0 64.63 65"><defs><style>.cls-1{fill:#34353c;}.cls-1,.cls-2{fill-rule:evenodd;}.cls-2{fill:#fbbd06;}</style></defs><path id="Trazado_10359" data-name="Trazado 10359" class="cls-1" d="M675.62,374.61h23.09a2.31,2.31,0,0,1,0,4.62H675.62a2.31,2.31,0,0,1,0-4.62Zm0,18.47h23.09a2.31,2.31,0,0,1,0,4.62H675.62a2.31,2.31,0,0,1,0-4.62Zm0-9.24h23.09a2.31,2.31,0,0,1,0,4.62H675.62a2.31,2.31,0,0,1,0-4.62Zm-9.24-9.24a2.29,2.29,0,1,1-2.28,2.28,2.28,2.28,0,0,1,2.28-2.28Zm0,18.47a2.29,2.29,0,1,1-2.28,2.29,2.28,2.28,0,0,1,2.28-2.29Zm0-9.24a2.29,2.29,0,1,1-2.28,2.29,2.29,2.29,0,0,1,2.28-2.29Zm39.26,32.33H659.46a9.24,9.24,0,0,1-9.24-9.24h0V360.74a9.24,9.24,0,0,1,9.24-9.24h3.86c.48,0,5,.41,1.71,4.25l-2.11.37h-3.46a4.62,4.62,0,0,0-4.62,4.62v46.18a4.62,4.62,0,0,0,4.62,4.62h46.18a4.62,4.62,0,0,0,4.62-4.62V360.74a4.62,4.62,0,0,0-4.62-4.62h-3.47a1.14,1.14,0,0,0-1.14,1.14v2.29a5.77,5.77,0,0,1-5.77,5.77h-25.4a5.76,5.76,0,0,1-4.09-1.71h0a2.54,2.54,0,1,1,3.61-3.58h0a2.32,2.32,0,0,0,1.62.66h23.09a2.28,2.28,0,0,0,2.28-2.28h0v-2.29A4.62,4.62,0,0,1,701,351.5h4.62a9.24,9.24,0,0,1,9.24,9.24h0v46.18a9.24,9.24,0,0,1-9.24,9.24h0Z" transform="translate(-650.22 -351.16)"/><g id="Grupo_7163" data-name="Grupo 7163"><path id="Trazado_9809" data-name="Trazado 9809" class="cls-2" d="M675.51,351.16a3.75,3.75,0,1,1-3.75,3.75h0A3.75,3.75,0,0,1,675.51,351.16Z" transform="translate(-650.22 -351.16)"/></g></svg>