<svg id="Capa_1" data-name="Capa 1" xmlns="http://www.w3.org/2000/svg" viewBox="0 0 53.51 53.82"><defs><style>.cls-1{fill:#f07e00;fill-rule:evenodd;}</style></defs><path id="Trazado_10359" data-name="Trazado 10359" class="cls-1" d="M643,376.57h19.12a1.92,1.92,0,0,1,0,3.83H643a1.92,1.92,0,0,1,0-3.83Zm0,15.3h19.12a1.91,1.91,0,1,1,0,3.82H643a1.91,1.91,0,1,1,0-3.82Zm0-7.65h19.12a1.91,1.91,0,1,1,0,3.82H643a1.91,1.91,0,1,1,0-3.82Zm-7.65-7.65a1.89,1.89,0,1,1-1.89,1.89,1.88,1.88,0,0,1,1.89-1.89Zm0,15.29a1.89,1.89,0,1,1-1.89,1.89,1.89,1.89,0,0,1,1.89-1.89Zm0-7.65a1.89,1.89,0,1,1-1.89,1.89,1.89,1.89,0,0,1,1.89-1.89ZM667.86,411H629.63a7.65,7.65,0,0,1-7.65-7.65h0V365.09a7.64,7.64,0,0,1,7.65-7.64h3.19c.4,0,4.11.34,1.42,3.51l-1.74.31h-2.87a3.82,3.82,0,0,0-3.83,3.82v38.24a3.83,3.83,0,0,0,3.83,3.83h38.23a3.84,3.84,0,0,0,3.83-3.83V365.09a3.83,3.83,0,0,0-3.83-3.82H665a.94.94,0,0,0-.94,1v1.89a4.78,4.78,0,0,1-4.78,4.78h-21a4.79,4.79,0,0,1-3.38-1.42h0a2.1,2.1,0,1,1,3-3h0a1.88,1.88,0,0,0,1.34.55H658.3a1.89,1.89,0,0,0,1.89-1.89h0v-1.89a3.82,3.82,0,0,1,3.82-3.82h3.83a7.65,7.65,0,0,1,7.65,7.64h0v38.24a7.66,7.66,0,0,1-7.65,7.65h0Z" transform="translate(-621.98 -357.16)"/><g id="Grupo_7163" data-name="Grupo 7163"><path id="Trazado_9809" data-name="Trazado 9809" class="cls-1" d="M642.92,357.16a3.11,3.11,0,1,1-3.11,3.11h0A3.11,3.11,0,0,1,642.92,357.16Z" transform="translate(-621.98 -357.16)"/></g></svg>