<svg id="Capa_1" data-name="Capa 1" xmlns="http://www.w3.org/2000/svg" viewBox="0 0 173.01 173.02"><defs><style>.cls-1{fill:#fff;}.cls-1,.cls-2{fill-rule:evenodd;}.cls-2{fill:#fbbd06;}</style></defs><g id="Grupo_3554" data-name="Grupo 3554"><path id="Trazado_3763" data-name="Trazado 3763" class="cls-1" d="M546.76,381.77a5.41,5.41,0,0,1-7.39-2c-.09-.17-.16-.36-.24-.54a53.89,53.89,0,0,1,19.55-73,5.74,5.74,0,0,1,.5-.36,5.41,5.41,0,1,1,5.49,9.33l-.07.05h0a43.17,43.17,0,0,0-16,58.93l.11.19h0a5.41,5.41,0,0,1-2,7.39Zm39.48-72.32a5.42,5.42,0,1,1,5.41-5.42,5.42,5.42,0,0,1-5.41,5.42Zm90.92,134.21a21.65,21.65,0,0,1-30.61,0h0L632.2,429.31c-12.85-12.86-8.45-22.16,0-30.61h0l-.05-.05a64.94,64.94,0,1,0-45.91,19,5.42,5.42,0,0,1,0,10.83,75.76,75.76,0,1,1,53.59-129.31,71.77,71.77,0,0,1,5,5.53c.72.88,1.36,1.83,2,2.72.81,1.07,1.64,2.13,2.39,3.24s1.35,2.2,2,3.32,1.22,2,1.83,3.05,1.1,2.29,1.66,3.45,1,2.16,1.52,3.26.84,2.27,1.22,3.42.89,2.37,1.26,3.57.61,2.3.88,3.46.67,2.48.92,3.74.42,2.67.6,4c.17,1.1.37,2.2.48,3.31.24,2.44.38,5,.38,7.48h0c0,2.16-.12,4.34-.31,6.49-.06.69-.14,1.35-.22,2-.16,1.5-.39,3-.64,4.46-.14.79-.26,1.57-.42,2.34-.32,1.53-.7,3.05-1.12,4.57s-.89,3-1.41,4.53c-.24.71-.48,1.43-.74,2.14-.52,1.36-1.07,2.71-1.66,4.05l-.33.69a75.6,75.6,0,0,1-4.6,8.61h0a75.43,75.43,0,0,1-10.75,13.65,9.65,9.65,0,0,0-1.65,13.55,9.82,9.82,0,0,0,1.38,1.43c.1.1.17.23.27.33L654.2,436a10.82,10.82,0,1,0,15.3-15.31l-10.25-10.24.23-.33a5.35,5.35,0,0,1-2.83-7,5.5,5.5,0,0,1,1.18-1.72,5.41,5.41,0,0,1,7.65,0l.06.08h0l11.61,11.61a21.65,21.65,0,0,1,0,30.61h0Z" transform="translate(-510.47 -276.98)"/><path id="Trazado_3764" data-name="Trazado 3764" class="cls-2" d="M607.81,412.26a8.12,8.12,0,1,1-8.11,8.12h0A8.12,8.12,0,0,1,607.81,412.26Z" transform="translate(-510.47 -276.98)"/></g></svg>