<svg id="Capa_1" data-name="Capa 1" xmlns="http://www.w3.org/2000/svg" viewBox="0 0 283.27 272.62"><defs><style>.cls-1,.cls-3{fill:#09c;}.cls-1,.cls-2{fill-rule:evenodd;}.cls-2{fill:#fbbd06;}.cls-4{fill:none;stroke:#fff;stroke-linecap:round;stroke-width:4px;}</style></defs><g id="Grupo_6832" data-name="Grupo 6832"><g id="Grupo_6810" data-name="Grupo 6810"><path id="Trazado_3753" data-name="Trazado 3753" class="cls-1" d="M730.9,445.21a7.6,7.6,0,1,1,7.6-7.6h0A7.61,7.61,0,0,1,730.9,445.21Zm-7.6-76h7.6a7.6,7.6,0,0,1,0,15.2h-2.57a5.06,5.06,0,0,0-5.06,5.06V392a7.6,7.6,0,1,1-15.2,0v-7.64a15.19,15.19,0,0,1,15.19-15.2h0Zm-22.8,45.6a7.6,7.6,0,0,1,0,15.2H698a5.06,5.06,0,0,0-5.07,5.06v2.53a7.6,7.6,0,0,1-15.2,0V430a15.19,15.19,0,0,1,15.2-15.2h7.6Zm-22.8-45.6h7.6a7.6,7.6,0,0,1,0,15.2h-2.54a5.06,5.06,0,0,0-5.06,5.06V392a7.6,7.6,0,0,1-15.2,0v-7.64a15.19,15.19,0,0,1,15.19-15.2Zm-22.8,45.6a7.6,7.6,0,0,1,0,15.2h-2.58a5.06,5.06,0,0,0-5.06,5.06v2.53a7.6,7.6,0,0,1-15.2,0V430a15.19,15.19,0,0,1,15.19-15.2h7.61Zm-22.8-45.6h7.6a7.6,7.6,0,0,1,0,15.2h-2.53a5.06,5.06,0,0,0-5.07,5.06V392a7.6,7.6,0,0,1-15.2,0v-7.64a15.19,15.19,0,0,1,15.19-15.2Zm-38,76a7.61,7.61,0,0,1-7.6-7.6V430a15.2,15.2,0,0,1,15.19-15.2h7.61a7.6,7.6,0,0,1,0,15.2h-2.57a5.06,5.06,0,0,0-5.07,5.06v2.54A7.61,7.61,0,0,1,594.1,445.21Zm159.6,45.6H571.31A30.42,30.42,0,0,1,540.9,460.4V354a30.41,30.41,0,0,1,30.41-30.41h190a7.6,7.6,0,0,0,7.6-7.6v-7.6a15.2,15.2,0,0,0-15.19-15.2H742.31a19,19,0,0,1-19-19v-3.8a7.6,7.6,0,0,0-15.2,0v3.84a19,19,0,0,1-19,19H635.9a19,19,0,0,1-19-19v-3.8a7.6,7.6,0,0,0-15.2,0v3.84a19,19,0,0,1-19,19H571.31a15.2,15.2,0,0,0-15.2,15.19h0a7.6,7.6,0,0,1-15.2,0A30.41,30.41,0,0,1,571.32,278h7.6a7.61,7.61,0,0,0,7.6-7.6,22.8,22.8,0,1,1,45.6-.42v.42a7.59,7.59,0,0,0,7.59,7.6H685.3a7.6,7.6,0,0,0,7.6-7.6,22.8,22.8,0,0,1,45.6,0,7.6,7.6,0,0,0,7.58,7.62h7.61a30.41,30.41,0,0,1,30.41,30.41v11.4a19,19,0,0,1-19,19H571.31A15.2,15.2,0,0,0,556.11,354h0v106.4a15.2,15.2,0,0,0,15.19,15.2H753.71a15.2,15.2,0,0,0,15.2-15.19h0V392a7.6,7.6,0,0,1,15.2,0v68.4a30.41,30.41,0,0,1-30.41,30.4Z" transform="translate(-540.9 -247.38)"/><path id="Trazado_3754" data-name="Trazado 3754" class="cls-2" d="M777.23,348.51a11.4,11.4,0,1,1-11.4,11.4A11.4,11.4,0,0,1,777.23,348.51Z" transform="translate(-540.9 -247.38)"/></g><circle id="Elipse_58-2" data-name="Elipse 58-2" class="cls-3" cx="237.96" cy="227.31" r="45.31"/><g id="icon-close"><line id="line" class="cls-4" x1="225.89" y1="215.67" x2="250.07" y2="239.85"/><line id="line-2" class="cls-4" x1="250.07" y1="215.67" x2="225.89" y2="239.85"/></g></g></svg>