<svg id="Capa_1" data-name="Capa 1" xmlns="http://www.w3.org/2000/svg" viewBox="0 0 85.42 83.86"><defs><style>.cls-1{fill:#fff;}.cls-1,.cls-2{fill-rule:evenodd;}.cls-2{fill:#f07e00;}</style></defs><g id="Grupo_6810" data-name="Grupo 6810"><path id="Trazado_3753" data-name="Trazado 3753" class="cls-1" d="M705.34,410.28a2.63,2.63,0,1,1,2.63-2.63A2.63,2.63,0,0,1,705.34,410.28Zm-2.63-26.2h2.63a2.63,2.63,0,0,1,0,5.24h-.88a1.74,1.74,0,0,0-1.74,1.74v.88a2.63,2.63,0,0,1-5.24,0v-2.63a5.24,5.24,0,0,1,5.23-5.24h0Zm-7.86,15.72a2.63,2.63,0,1,1,.4,5.24H694a1.74,1.74,0,0,0-1.74,1.74v.88a2.63,2.63,0,0,1-5.24,0V405a5.24,5.24,0,0,1,5.23-5.24h2.63ZM687,384.08h2.63a2.63,2.63,0,0,1,0,5.24h-.88a1.74,1.74,0,0,0-1.74,1.74v.88a2.63,2.63,0,0,1-5.24,0v-2.63a5.23,5.23,0,0,1,5.23-5.24h0Zm-7.86,15.72a2.63,2.63,0,1,1,.4,5.24h-1.27a1.74,1.74,0,0,0-1.75,1.74v.88a2.63,2.63,0,0,1-5.24,0V405a5.24,5.24,0,0,1,5.24-5.24h2.62Zm-7.86-15.72h2.63a2.63,2.63,0,0,1,0,5.24H673a1.74,1.74,0,0,0-1.74,1.74v.88a2.63,2.63,0,0,1-5.24,0v-2.63a5.23,5.23,0,0,1,5.23-5.24h0Zm-13.1,26.2a2.63,2.63,0,0,1-2.63-2.63V405a5.24,5.24,0,0,1,5.23-5.24h2.64a2.63,2.63,0,1,1,.4,5.24h-1.28a1.75,1.75,0,0,0-1.74,1.75v.87a2.63,2.63,0,0,1-2.63,2.63Zm55,15.72H650.32a10.48,10.48,0,0,1-10.48-10.48h0V378.84a10.48,10.48,0,0,1,10.48-10.48h65.5a2.63,2.63,0,0,0,2.63-2.63V363.1a5.25,5.25,0,0,0-5.24-5.24h-4a6.56,6.56,0,0,1-6.55-6.55V350a2.63,2.63,0,0,0-5.24,0v1.31a6.54,6.54,0,0,1-6.54,6.55H672.58a6.54,6.54,0,0,1-6.54-6.55V350a2.63,2.63,0,0,0-5.24,0v1.31a6.56,6.56,0,0,1-6.55,6.55h-4a5.25,5.25,0,0,0-5.24,5.24h0a2.63,2.63,0,0,1-5.24,0,10.48,10.48,0,0,1,10.48-10.48h2.63a2.63,2.63,0,0,0,2.63-2.63,7.86,7.86,0,0,1,15.72,0,2.63,2.63,0,0,0,2.63,2.63h15.72a2.63,2.63,0,0,0,2.63-2.63A7.86,7.86,0,0,1,708,350a2.63,2.63,0,0,0,2.63,2.63h2.62a10.48,10.48,0,0,1,10.48,10.48V367a6.54,6.54,0,0,1-6.54,6.55H650.32a5.23,5.23,0,0,0-5.24,5.24h0v36.68a5.24,5.24,0,0,0,5.23,5.24H713.2a5.24,5.24,0,0,0,5.24-5.23h0V391.93a2.63,2.63,0,0,1,5.24,0v23.58A10.48,10.48,0,0,1,713.2,426Z" transform="translate(-639.82 -342.14)"/><path id="Trazado_3754" data-name="Trazado 3754" class="cls-2" d="M721.3,376.94a3.95,3.95,0,1,1-3.94,3.95h0A4,4,0,0,1,721.3,376.94Z" transform="translate(-639.82 -342.14)"/></g></svg>