<svg id="Capa_1" data-name="Capa 1" xmlns="http://www.w3.org/2000/svg" viewBox="0 0 57.7 50.5"><defs><style>.cls-1{fill:#004a9c;fill-rule:evenodd;}</style></defs><path id="Trazado_10362" data-name="Trazado 10362" class="cls-1" d="M375.78,409.2H332.51A7.21,7.21,0,0,1,325.3,402V376.75a7.21,7.21,0,0,1,7.21-7.21h4.06a2.67,2.67,0,0,0,2.36-1.42l0,0,1.48-2.62,0,0c.44-.77.88-1.53,1.31-2.3a8,8,0,0,1,7.69-4.49h9.46a8,8,0,0,1,7.6,4.35,1.8,1.8,0,1,1-2.87,2.17l-.05-.07h0a6.55,6.55,0,0,0-5.79-2.83h-7.38a6.56,6.56,0,0,0-6.26,3.59c-.95,1.69-1.91,3.38-2.88,5a3.61,3.61,0,0,1-3.32,2.18h-4.51a4.5,4.5,0,0,0-4.5,4.51v23.44a4.5,4.5,0,0,0,4.5,4.51h41.48a4.5,4.5,0,0,0,4.5-4.51V377.65c0-2.48-2.92-4.5-5.41-4.5a1.81,1.81,0,0,1,0-3.61h.91c4,0,8.11,3.22,8.11,7.21V402a7.21,7.21,0,0,1-7.21,7.21ZM344.23,393a1.8,1.8,0,1,1-1.8,1.8A1.81,1.81,0,0,1,344.23,393Zm-4.51-5.41A14.43,14.43,0,1,1,354.15,402h0a1.8,1.8,0,1,1,0-3.6h0a10.82,10.82,0,1,0-10.82-10.82,1.81,1.81,0,0,1-3.61,0Zm28.86-16.23a1.8,1.8,0,1,1,1.8-1.8,1.8,1.8,0,0,1-1.8,1.8Z" transform="translate(-325.3 -358.7)"/></svg>