<svg id="Capa_1" data-name="Capa 1" xmlns="http://www.w3.org/2000/svg" viewBox="0 0 74 74"><defs><style>.cls-1,.cls-2{fill:#004a9c;}.cls-1{fill-rule:evenodd;}</style></defs><path id="Trazado_10323" data-name="Trazado 10323" class="cls-1" d="M673.67,404.7V381.58a2.32,2.32,0,0,1,4.63,0V404.7a2.32,2.32,0,0,1-4.63,0Zm16.19-6.93a2.31,2.31,0,0,1-2.31-2.32V381.58a2.31,2.31,0,0,1,4.62,0v13.87a2.32,2.32,0,0,1-2.31,2.32Zm0,9.25a2.32,2.32,0,1,1,2.31-2.32h0A2.31,2.31,0,0,1,689.86,407Zm20.81-37H665.58a5.78,5.78,0,0,0-5.78,5.79v34.68a5.77,5.77,0,0,0,5.78,5.78h34.68a5.78,5.78,0,0,0,5.79-5.78V390.83a2.31,2.31,0,0,1,4.62-.12v20.93a9.25,9.25,0,0,1-9.25,9.25h-37a9.25,9.25,0,0,1-9.25-9.25h0v-37a9.25,9.25,0,0,1,9.25-9.25h46.25a4.63,4.63,0,1,0,0-9.25H693.33c-2.55,0-3.22-4.62-5.78-4.62h-9.26c-2.55,0-3.22,4.62-5.78,4.62H655.17a4.62,4.62,0,0,0-4.63,4.62h0a2.31,2.31,0,1,1-4.62.11v-.11a9.25,9.25,0,0,1,9.25-9.25h12.72c2.55,0,3.22-4.63,5.78-4.63h18.5c2.55,0,3.22,4.63,5.78,4.63h12.72a9.25,9.25,0,1,1,0,18.5Z" transform="translate(-645.92 -346.89)"/><circle id="Elipse_158" data-name="Elipse 158" class="cls-2" cx="64.38" cy="34" r="3.24"/></svg>