<svg id="Capa_1" data-name="Capa 1" xmlns="http://www.w3.org/2000/svg" viewBox="0 0 25.56 44.22"><defs><style>.cls-1{fill:#2d3b89;}.cls-1,.cls-2{fill-rule:evenodd;}.cls-2{fill:#fbbd06;}</style></defs><path id="Trazado_3761" data-name="Trazado 3761" class="cls-1" d="M682.19,406.18a12.44,12.44,0,0,1-12.44-12.44c0-.35,0-.7,0-1a1.86,1.86,0,0,1,0-.34V371.63a9.68,9.68,0,0,1,19.35,0v18.66a6.91,6.91,0,0,1-13.82,0V374.4a1.38,1.38,0,1,1,2.76,0h0v15.89a4.15,4.15,0,0,0,8.29,0V371.63a6.91,6.91,0,1,0-13.81,0h0V393.7a9.67,9.67,0,1,0,19.34,0h0V379.93a1.38,1.38,0,0,1,2.76-.08.11.11,0,0,1,0,.08v13.81a12.43,12.43,0,0,1-12.43,12.44Z" transform="translate(-669.75 -361.96)"/><path id="Trazado_3762" data-name="Trazado 3762" class="cls-2" d="M693.24,372.33a2.07,2.07,0,1,1-2.07,2.07h0A2.07,2.07,0,0,1,693.24,372.33Z" transform="translate(-669.75 -361.96)"/></svg>