<svg id="Capa_1" data-name="Capa 1" xmlns="http://www.w3.org/2000/svg" viewBox="0 0 171.54 183.01"><defs><style>.cls-1{fill:#2d3b89;fill-rule:evenodd;}.cls-2{fill:#f07e00;}.cls-3{fill:none;stroke:#f07e00;}</style></defs><path id="Trazado_10340" data-name="Trazado 10340" class="cls-1" d="M745.46,440.67h-40a17.09,17.09,0,0,0-10.26,3.41L659,471.2a1.16,1.16,0,0,0-.16.11,17.15,17.15,0,0,1-27.78-13.49V446.39a5.73,5.73,0,0,0-5.73-5.72h-5.72a22.87,22.87,0,0,1-22.87-22.87V314.87A22.88,22.88,0,0,1,619.63,292h97.25a5.72,5.72,0,0,1,.37,11.44H622.52a14.31,14.31,0,0,0-14.3,14.29V415a14.31,14.31,0,0,0,14.3,14.3h5.72a14.31,14.31,0,0,1,14.3,14.3v14.29a5.72,5.72,0,0,0,9,4.7h0l36.39-27.3h0a28.49,28.49,0,0,1,17.5-6h37.17A14.29,14.29,0,0,0,756.87,415v-94.4a5.72,5.72,0,0,1,11.44,0v97.24a22.87,22.87,0,0,1-22.87,22.87Z" transform="translate(-596.76 -291.99)"/><g id="Elipse_173" data-name="Elipse 173"><circle class="cls-2" cx="157.88" cy="6.31" r="6.31"/><circle class="cls-3" cx="157.88" cy="6.31" r="3.16"/></g></svg>