<svg id="Capa_1" data-name="Capa 1" xmlns="http://www.w3.org/2000/svg" viewBox="0 0 182.27 125.26"><defs><style>.cls-1{fill:#fff;fill-rule:evenodd;}</style></defs><path id="Trazado_9885" data-name="Trazado 9885" class="cls-1" d="M591.3,457.32V377.61a22.78,22.78,0,0,1,22.78-22.78h79.71a22.78,22.78,0,0,1,22.78,22.78h0v17.08a5.7,5.7,0,0,1-11.39,0V377.61a11.38,11.38,0,0,0-11.39-11.38h-79.7a11.38,11.38,0,0,0-11.39,11.38v79.71a11.38,11.38,0,0,0,11.39,11.38h79.7a11.38,11.38,0,0,0,11.39-11.38V440.24a5.7,5.7,0,1,1,11.39-.44v17.52a22.78,22.78,0,0,1-22.78,22.78H614.08a22.78,22.78,0,0,1-22.78-22.76Zm68.33-39.86a5.7,5.7,0,1,1-5.7-5.7h0A5.7,5.7,0,0,1,659.63,417.46Zm79.71,22.78a5.7,5.7,0,0,1,5.69-5.7h0a7.1,7.1,0,0,0,5-2.07l10-10a7.09,7.09,0,0,0,0-10l-10-10-.31-.25h0a2.84,2.84,0,0,0-4.71,2.14v4.54a14.26,14.26,0,0,1-14.26,14.26h-54.1a5.69,5.69,0,0,1,0-11.38h52.67a4.27,4.27,0,0,0,4.27-4.27h0v-6.3A11.81,11.81,0,0,1,745,389v-.09a16.6,16.6,0,0,1,11.88,4.89l11.8,11.8a16.69,16.69,0,0,1,0,23.59L756.89,441a16.44,16.44,0,0,1-10.34,4.72A5.75,5.75,0,0,1,745,446a5.7,5.7,0,0,1-5.69-5.7Z" transform="translate(-591.3 -354.83)"/></svg>