<svg id="Capa_1" data-name="Capa 1" xmlns="http://www.w3.org/2000/svg" viewBox="0 0 50.95 42.17"><defs><style>.cls-1{fill:#fff;fill-rule:evenodd;}</style></defs><g id="Grupo_6713" data-name="Grupo 6713"><path id="Trazado_3767" data-name="Trazado 3767" class="cls-1" d="M665.52,396.83a1.58,1.58,0,0,1,0-2.24h0l4.5-4.5a1.59,1.59,0,0,1,2.25,2.25h0l-4.5,4.5a1.58,1.58,0,0,1-2.24,0Zm32.38,0-4.5-4.5a1.59,1.59,0,0,1,2.25-2.25h0l4.5,4.5a1.59,1.59,0,0,1-2.25,2.25Zm8.58-23.95-19.14,17.54a6.37,6.37,0,0,1-9,0l-11.23-11.23h0l-3.78-3.78h0a1.5,1.5,0,0,0-2.76.92v22.28a3.18,3.18,0,0,0,3.18,3.18H702a3.18,3.18,0,0,0,3.18-3.18v-19.1a1.6,1.6,0,0,1,3.19,0v19.1A6.37,6.37,0,0,1,702,405H663.74a6.37,6.37,0,0,1-6.37-6.36V376.33a4.78,4.78,0,0,1,4.78-4.77,4.6,4.6,0,0,1,3.18,1.38v0l15.26,15.26a3.19,3.19,0,0,0,4.5,0l19.13-17.54a3.13,3.13,0,0,0,.92-2.25h0c0-1.76-1.42-1.6-3.18-1.6H668.51a1.57,1.57,0,0,1-1.65-1.52,1.6,1.6,0,0,1,1.53-1.66h33.55c2.92,0,5.38.87,6.12,3.18h.05a6.36,6.36,0,0,1-1.63,6.1Z" transform="translate(-657.37 -362.8)"/><path id="Trazado_3768" data-name="Trazado 3768" class="cls-1" d="M659.76,362.8a2.39,2.39,0,1,1-2.39,2.39h0A2.39,2.39,0,0,1,659.76,362.8Z" transform="translate(-657.37 -362.8)"/></g></svg>