<svg id="Capa_1" data-name="Capa 1" xmlns="http://www.w3.org/2000/svg" viewBox="0 0 117.17 117.15"><defs><style>.cls-1,.cls-53{fill:#fff;}.cls-1{fill-opacity:0;}.cls-2{fill:#fafafa;opacity:0.02;}.cls-10,.cls-11,.cls-12,.cls-13,.cls-14,.cls-15,.cls-16,.cls-17,.cls-18,.cls-19,.cls-2,.cls-20,.cls-21,.cls-22,.cls-23,.cls-24,.cls-25,.cls-26,.cls-27,.cls-28,.cls-29,.cls-3,.cls-30,.cls-31,.cls-32,.cls-33,.cls-34,.cls-35,.cls-36,.cls-37,.cls-38,.cls-39,.cls-4,.cls-40,.cls-41,.cls-42,.cls-43,.cls-44,.cls-45,.cls-46,.cls-47,.cls-48,.cls-49,.cls-5,.cls-50,.cls-51,.cls-6,.cls-7,.cls-8,.cls-9{isolation:isolate;}.cls-3{fill:#f5f5f5;opacity:0.04;}.cls-4{fill:#f0f0f0;opacity:0.06;}.cls-5{fill:#ebebeb;opacity:0.08;}.cls-6{fill:#e6e6e6;opacity:0.1;}.cls-7{fill:#e1e1e1;opacity:0.12;}.cls-8{fill:#dcdcdc;opacity:0.14;}.cls-9{fill:#d7d7d7;opacity:0.16;}.cls-10{fill:#d2d2d2;opacity:0.18;}.cls-11{fill:#cdcdcd;opacity:0.2;}.cls-12{fill:#c8c8c8;opacity:0.22;}.cls-13{fill:#c3c3c3;opacity:0.23;}.cls-14{fill:#bebebe;opacity:0.25;}.cls-15{fill:#b9b9b9;opacity:0.28;}.cls-16{fill:#b4b4b4;opacity:0.29;}.cls-17{fill:#afafaf;opacity:0.31;}.cls-18{fill:#aaa;opacity:0.33;}.cls-19{fill:#a5a5a5;opacity:0.35;}.cls-20{fill:#a0a0a0;opacity:0.37;}.cls-21{fill:#9b9b9b;opacity:0.39;}.cls-22{fill:#969696;opacity:0.41;}.cls-23{fill:#919191;opacity:0.43;}.cls-24{fill:#8c8c8c;opacity:0.45;}.cls-25{fill:#878787;opacity:0.47;}.cls-26{fill:#828282;opacity:0.49;}.cls-27{fill:#7d7d7d;opacity:0.51;}.cls-28{fill:#787878;opacity:0.53;}.cls-29{fill:#737373;opacity:0.55;}.cls-30{fill:#6e6e6e;opacity:0.57;}.cls-31{fill:#696969;opacity:0.59;}.cls-32{fill:#646464;opacity:0.61;}.cls-33{fill:#5f5f5f;opacity:0.63;}.cls-34{fill:#5a5a5a;opacity:0.65;}.cls-35{fill:#555;opacity:0.67;}.cls-36{fill:#505050;opacity:0.69;}.cls-37{fill:#4b4b4b;opacity:0.71;}.cls-38{fill:#464646;opacity:0.73;}.cls-39{fill:#414141;opacity:0.75;}.cls-40{fill:#3c3c3c;opacity:0.76;}.cls-41{fill:#373737;opacity:0.78;}.cls-42{fill:#323232;opacity:0.8;}.cls-43{fill:#2d2d2d;opacity:0.82;}.cls-44{fill:#282828;opacity:0.84;}.cls-45{fill:#232323;opacity:0.86;}.cls-46{fill:#1e1e1e;opacity:0.88;}.cls-47{fill:#191919;opacity:0.9;}.cls-48{fill:#141414;opacity:0.92;}.cls-49{fill:#0f0f0f;opacity:0.94;}.cls-50{fill:#0a0a0a;opacity:0.96;}.cls-51{fill:#050505;opacity:0.98;}.cls-52{fill:#042b7d;}.cls-54{fill:#cd1225;}</style></defs><g id="Grupo_6679" data-name="Grupo 6679"><g id="Grupo_4795" data-name="Grupo 4795"><path id="Trazado_5603" data-name="Trazado 5603" class="cls-1" d="M97.12,17.1c24.71,24.71,26.87,62.77,4.81,84.84s-60.15,19.91-84.85-4.81-21.08-57,1-79S72.41-7.67,97.12,17.1Z" transform="translate(0.01 -0.03)"/><path id="Trazado_5604" data-name="Trazado 5604" class="cls-2" d="M96.73,17.27c24.54,24.55,26.67,62.34,4.77,84.25s-59.7,19.77-84.23-4.77-21-56.64.91-78.58S72.19-7.25,96.73,17.27Z" transform="translate(0.01 -0.03)"/><path id="Trazado_5605" data-name="Trazado 5605" class="cls-3" d="M96.35,17.48c24.36,24.36,26.48,61.86,4.74,83.64s-59.27,19.65-83.65-4.74-20.91-56.29.86-78S72-6.89,96.35,17.48Z" transform="translate(0.01 -0.03)"/><path id="Trazado_5606" data-name="Trazado 5606" class="cls-4" d="M96,17.67c24.18,24.18,26.29,61.41,4.7,83s-58.83,19.48-83-4.7-20.84-56,.76-77.56S71.79-6.51,96,17.67Z" transform="translate(0.01 -0.03)"/><path id="Trazado_5607" data-name="Trazado 5607" class="cls-5" d="M95.59,17.85c24,24,26.08,61,4.66,82.41S41.85,119.6,17.87,95.6-2.87,40,18.54,18.54,71.59-6.15,95.59,17.85Z" transform="translate(0.01 -0.03)"/><path id="Trazado_5608" data-name="Trazado 5608" class="cls-6" d="M95.21,18.05C119,41.89,121.1,78.58,99.84,99.85S41.84,119,18,95.22s-20.66-55.29.6-76.55S71.38-5.76,95.21,18.05Z" transform="translate(0.01 -0.03)"/><path id="Trazado_5609" data-name="Trazado 5609" class="cls-7" d="M94.83,18.26c23.64,23.63,25.7,60.06,4.59,81.18s-57.54,19-81.18-4.6-20.58-54.94.53-76S71.17-5.43,94.83,18.26Z" transform="translate(0.01 -0.03)"/><path id="Trazado_5610" data-name="Trazado 5610" class="cls-8" d="M94.44,18.45C117.89,41.9,120,78,99,99s-57.1,18.9-80.54-4.55-20.52-54.61.43-75.57S71-5,94.44,18.45Z" transform="translate(0.01 -0.03)"/><path id="Trazado_5611" data-name="Trazado 5611" class="cls-9" d="M94.05,18.64c23.29,23.28,25.35,59.16,4.54,80s-56.67,18.77-80-4.53-20.44-54.26.35-75S70.76-4.67,94.05,18.64Z" transform="translate(0.01 -0.03)"/><path id="Trazado_5612" data-name="Trazado 5612" class="cls-10" d="M93.66,18.83c23.13,23.11,25.13,58.71,4.5,79.35s-56.23,18.62-79.34-4.5A50.52,50.52,0,0,1,16,22.33q1.51-1.65,3.18-3.16a50.52,50.52,0,0,1,71.36-3.44h0C91.6,16.69,92.65,17.74,93.66,18.83Z" transform="translate(0.01 -0.03)"/><path id="Trazado_5613" data-name="Trazado 5613" class="cls-11" d="M93.28,19c23,22.92,25,58.25,4.44,78.73S41.92,116.24,19,93.33a50.23,50.23,0,0,1-2.92-71l0,0c1-1.07,2-2.1,3.1-3.09a50.24,50.24,0,0,1,71-3.37l0,0C91.24,16.92,92.29,18,93.28,19Z" transform="translate(0.01 -0.03)"/><path id="Trazado_5614" data-name="Trazado 5614" class="cls-12" d="M92.9,19.22C115.67,42,117.62,77,97.34,97.35S42,115.68,19.21,92.91a50,50,0,0,1-2.86-70.6l3-3a50,50,0,0,1,70.58-3.09C91,17.2,92,18.19,92.9,19.22Z" transform="translate(0.01 -0.03)"/><path id="Trazado_5615" data-name="Trazado 5615" class="cls-13" d="M92.52,19.42C115.11,42,117.07,76.76,96.91,96.93S42,115.12,19.4,92.54a49.62,49.62,0,0,1-2.9-70.11h0c.94-1,1.92-2,3-3a49.62,49.62,0,0,1,70.11-3h0C90.6,17.41,91.58,18.39,92.52,19.42Z" transform="translate(0.01 -0.03)"/><path id="Trazado_5616" data-name="Trazado 5616" class="cls-14" d="M92.14,19.62c22.4,22.4,24.34,56.89,4.36,76.9s-54.5,18-76.9-4.36a49.35,49.35,0,0,1-2.9-69.72c.91-1,1.87-2,2.86-2.86a49.34,49.34,0,0,1,69.72-2.83h0C90.27,17.67,91.23,18.62,92.14,19.62Z" transform="translate(0.01 -0.03)"/><path id="Trazado_5617" data-name="Trazado 5617" class="cls-15" d="M91.76,19.8C114,42,115.92,76.25,96.08,96.09S42,114,19.78,91.77a49.05,49.05,0,0,1-2.87-69.31h0c.89-1,1.81-1.89,2.76-2.77A49.05,49.05,0,0,1,89,17,38.25,38.25,0,0,1,91.76,19.8Z" transform="translate(0.01 -0.03)"/><path id="Trazado_5618" data-name="Trazado 5618" class="cls-16" d="M91.38,20c22,22,24,56,4.28,75.68S42,113.42,20,91.4a48.74,48.74,0,0,1-2.93-68.86c.88-.95,1.79-1.87,2.74-2.75a48.74,48.74,0,0,1,68.87-2.52C89.6,18.14,90.51,19.05,91.38,20Z" transform="translate(0.01 -0.03)"/><path id="Trazado_5619" data-name="Trazado 5619" class="cls-17" d="M91,20.2c21.86,21.86,23.77,55.53,4.25,75.06S42,112.87,20.17,91a48.45,48.45,0,0,1-2.91-68.44c.84-.92,1.72-1.8,2.63-2.65a48.44,48.44,0,0,1,68.46-2.38C89.28,18.4,90.16,19.33,91,20.2Z" transform="translate(0.01 -0.03)"/><path id="Trazado_5620" data-name="Trazado 5620" class="cls-18" d="M90.63,20.38c21.67,21.69,23.56,55.09,4.21,74.46s-52.77,17.49-74.46-4.21a48.16,48.16,0,0,1-2.87-68h0c.8-.88,1.64-1.72,2.51-2.54a48.16,48.16,0,0,1,68.07-2.22C89,18.64,89.82,19.5,90.63,20.38Z" transform="translate(0.01 -0.03)"/><path id="Trazado_5621" data-name="Trazado 5621" class="cls-19" d="M90.22,20.58c21.51,21.52,23.4,54.65,4.19,73.85s-52.34,17.32-73.84-4.18a47.85,47.85,0,0,1-2.89-67.61h0c.79-.86,1.62-1.69,2.47-2.5a47.84,47.84,0,0,1,67.61-2h0C88.62,18.9,89.43,19.73,90.22,20.58Z" transform="translate(0.01 -0.03)"/><path id="Trazado_5622" data-name="Trazado 5622" class="cls-20" d="M89.84,20.78C111.18,42.11,113,75,94,94s-51.9,17.19-73.23-4.16a47.53,47.53,0,0,1-2.9-67.15q1.16-1.26,2.4-2.43a47.53,47.53,0,0,1,67.18-1.94C88.27,19.12,89.07,19.94,89.84,20.78Z" transform="translate(0.01 -0.03)"/><path id="Trazado_5623" data-name="Trazado 5623" class="cls-21" d="M89.46,21c21.16,21.17,23,53.73,4.11,72.63s-51.46,17-72.62-4.12a47.26,47.26,0,0,1-2.86-66.76h0c.73-.79,1.48-1.56,2.26-2.3a47.27,47.27,0,0,1,66.81-1.76C88,19.39,88.72,20.16,89.46,21Z" transform="translate(0.01 -0.03)"/><path id="Trazado_5624" data-name="Trazado 5624" class="cls-22" d="M89.07,21.16c21,21,22.81,53.28,4.09,72s-51,16.9-72-4.09a47,47,0,0,1-2.88-66.34c.71-.78,1.45-1.53,2.21-2.25A47,47,0,0,1,86.88,18.9C87.62,19.63,88.36,20.38,89.07,21.16Z" transform="translate(0.01 -0.03)"/><path id="Trazado_5625" data-name="Trazado 5625" class="cls-23" d="M88.69,21.33c20.81,20.79,22.62,52.83,4,71.4s-50.61,16.75-71.39-4A46.63,46.63,0,0,1,18.37,22.8h0c.69-.76,1.41-1.49,2.15-2.2a46.64,46.64,0,0,1,65.94-1.48C87.27,19.86,88,20.6,88.69,21.33Z" transform="translate(0.01 -0.03)"/><path id="Trazado_5626" data-name="Trazado 5626" class="cls-24" d="M88.31,21.54c20.62,20.62,22.42,52.37,4,70.8s-50.18,16.6-70.8-4a46.35,46.35,0,0,1-2.87-65.49h0c.66-.72,1.35-1.43,2.06-2.11a46.36,46.36,0,0,1,65.54-1.29h0A29.16,29.16,0,0,1,88.31,21.54Z" transform="translate(0.01 -0.03)"/><path id="Trazado_5627" data-name="Trazado 5627" class="cls-25" d="M88,21.74c20.44,20.44,22.22,51.92,4,70.18s-49.74,16.48-70.18-4a46.08,46.08,0,0,1-2.87-65.1c.63-.69,1.29-1.36,2-2A46.09,46.09,0,0,1,86,19.72Z" transform="translate(0.01 -0.03)"/><path id="Trazado_5628" data-name="Trazado 5628" class="cls-26" d="M87.55,21.94c20.28,20.28,22,51.47,3.94,69.56s-49.3,16.32-69.56-3.94A45.74,45.74,0,0,1,19,22.94h0c.62-.68,1.27-1.34,1.93-2a45.75,45.75,0,0,1,64.68-1C86.28,20.59,86.93,21.26,87.55,21.94Z" transform="translate(0.01 -0.03)"/><path id="Trazado_5629" data-name="Trazado 5629" class="cls-27" d="M87.17,22.12c20.07,20.1,21.83,51,3.9,69s-48.85,16.15-69-3.91A45.48,45.48,0,0,1,19.19,23h0c.59-.65,1.2-1.27,1.82-1.88a45.48,45.48,0,0,1,64.31-.81A24.71,24.71,0,0,1,87.17,22.12Z" transform="translate(0.01 -0.03)"/><path id="Trazado_5630" data-name="Trazado 5630" class="cls-28" d="M86.76,22.33c19.89,19.91,21.64,50.57,3.86,68.34s-48.43,16-68.34-3.86A45.63,45.63,0,1,1,82.68,18.4c.54.48,1.08,1,1.6,1.48A31.85,31.85,0,0,1,86.76,22.33Z" transform="translate(0.01 -0.03)"/><path id="Trazado_5631" data-name="Trazado 5631" class="cls-29" d="M86.4,22.52c19.72,19.71,21.44,50.1,3.8,67.73s-48,15.89-67.73-3.8A45.22,45.22,0,0,1,85,21.12,18.83,18.83,0,0,1,86.4,22.52Z" transform="translate(0.01 -0.03)"/><path id="Trazado_5632" data-name="Trazado 5632" class="cls-30" d="M86,22.7c19.55,19.55,21.25,49.67,3.8,67.13S42.2,105.57,22.65,86A44.82,44.82,0,0,1,83.47,20.19c.86.8,1.7,1.63,2.5,2.5Z" transform="translate(0.01 -0.03)"/><path id="Trazado_5633" data-name="Trazado 5633" class="cls-31" d="M85.63,22.9C105,42.27,106.7,72.11,89.43,89.44s-47.14,15.61-66.54-3.8a44.4,44.4,0,0,1,60-65.47h0C83.84,21,84.76,22,85.63,22.9Z" transform="translate(0.01 -0.03)"/><path id="Trazado_5634" data-name="Trazado 5634" class="cls-32" d="M85.24,23.1C104.45,42.29,106.12,71.84,89,89s-46.71,15.47-65.9-3.74A44,44,0,0,1,81.37,19.33l.93.85c1,.93,2,1.91,2.93,2.93Z" transform="translate(0.01 -0.03)"/><path id="Trazado_5635" data-name="Trazado 5635" class="cls-33" d="M84.86,23.33c19,19,20.68,48.31,3.7,65.27S42.3,103.92,23.29,84.9A43.63,43.63,0,0,1,82,20.33c1,.94,2,1.92,3,3Z" transform="translate(0.01 -0.03)"/><path id="Trazado_5636" data-name="Trazado 5636" class="cls-34" d="M84.47,23.48C103.31,42.33,105,71.33,88.14,88.17S42.31,103.34,23.46,84.5A43.21,43.21,0,1,1,81.34,20.33,44.29,44.29,0,0,1,84.47,23.48Z" transform="translate(0.01 -0.03)"/><path id="Trazado_5637" data-name="Trazado 5637" class="cls-35" d="M84.1,23.68c18.66,18.66,20.28,47.4,3.63,64.06s-45.4,15-64.06-3.63A42.79,42.79,0,1,1,80.91,20.49,43.64,43.64,0,0,1,84.1,23.68Z" transform="translate(0.01 -0.03)"/><path id="Trazado_5638" data-name="Trazado 5638" class="cls-36" d="M83.71,23.86c18.48,18.48,20.1,47,3.6,63.47s-45,14.88-63.47-3.59A42.4,42.4,0,1,1,80.4,20.55h0A43.07,43.07,0,0,1,83.71,23.86Z" transform="translate(0.01 -0.03)"/><path id="Trazado_5639" data-name="Trazado 5639" class="cls-37" d="M83.33,24.06c18.3,18.3,19.9,46.49,3.55,62.84S42.33,101.64,24,83.35a42.53,42.53,0,0,1-2.85-60.08h0c.32-.35.65-.7,1-1.05A42.52,42.52,0,0,1,82.33,23h0C82.67,23.33,83,23.7,83.33,24.06Z" transform="translate(0.01 -0.03)"/><path id="Trazado_5640" data-name="Trazado 5640" class="cls-38" d="M83,24.26c18.12,18.12,19.7,46,3.52,62.23S42.39,101.07,24.27,83a42.25,42.25,0,0,1-2.88-59.64l.92-1a42.24,42.24,0,0,1,59.73,1h0C82.35,23.6,82.66,23.93,83,24.26Z" transform="translate(0.01 -0.03)"/><path id="Trazado_5641" data-name="Trazado 5641" class="cls-39" d="M82.57,24.45c17.94,18,19.5,45.62,3.49,61.62s-43.68,14.45-61.63-3.48a41.94,41.94,0,0,1-2.86-59.24l0,0c.28-.31.56-.61.85-.91a42,42,0,0,1,59.29,1.11C82,23.85,82.3,24.14,82.57,24.45Z" transform="translate(0.01 -0.03)"/><path id="Trazado_5642" data-name="Trazado 5642" class="cls-40" d="M82.17,24.64c17.75,17.75,19.34,45.15,3.47,61S42.4,100,24.64,82.19a41.65,41.65,0,0,1-2.85-58.83c.25-.28.5-.55.76-.82a41.63,41.63,0,0,1,58.86,1.25C81.66,24.09,81.92,24.33,82.17,24.64Z" transform="translate(0.01 -0.03)"/><path id="Trazado_5643" data-name="Trazado 5643" class="cls-41" d="M81.79,24.87c17.61,17.59,19.14,44.68,3.43,60.4s-42.8,14.18-60.4-3.43A41.35,41.35,0,0,1,22,23.45l.7-.75a41.35,41.35,0,0,1,58.46,1.43h0C81.34,24.38,81.57,24.62,81.79,24.87Z" transform="translate(0.01 -0.03)"/><path id="Trazado_5644" data-name="Trazado 5644" class="cls-42" d="M81.41,25.05c17.43,17.43,18.94,44.24,3.4,59.79s-42.4,14-59.8-3.39a41,41,0,0,1-3-57.91l.08-.09.64-.69a41,41,0,0,1,58,1.54l0,0C81,24.59,81.21,24.82,81.41,25.05Z" transform="translate(0.01 -0.03)"/><path id="Trazado_5645" data-name="Trazado 5645" class="cls-43" d="M81,25.23C98.28,42.47,99.77,69,84.39,84.41S42.46,98.29,25.21,81.05A40.75,40.75,0,0,1,22.34,23.5c.18-.2.36-.4.55-.59a40.74,40.74,0,0,1,57.59,1.72h0Z" transform="translate(0.01 -0.03)"/><path id="Trazado_5646" data-name="Trazado 5646" class="cls-44" d="M80.65,25.41C97.72,42.46,99.21,68.74,84,84S42.46,97.72,25.41,80.65a40.48,40.48,0,0,1-2.87-57.17L23,23a40.48,40.48,0,0,1,57.21,1.94Z" transform="translate(0.01 -0.03)"/><path id="Trazado_5647" data-name="Trazado 5647" class="cls-45" d="M80.27,25.59c16.88,16.88,18.37,42.87,3.28,58s-41.08,13.65-58-3.27S8,38.24,23.08,23.18,63.39,8.73,80.27,25.59Z" transform="translate(0.01 -0.03)"/><path id="Trazado_5648" data-name="Trazado 5648" class="cls-46" d="M79.89,25.81C96.58,42.51,98,68.24,83.14,83.15S42.49,96.61,25.79,79.9,8.31,38.15,23.26,23.24,63.19,9.11,79.89,25.81Z" transform="translate(0.01 -0.03)"/><path id="Trazado_5649" data-name="Trazado 5649" class="cls-47" d="M79.51,26c16.52,16.52,18,42,3.21,56.72S42.51,96,26,79.52,8.58,38.12,23.34,23.36,63,9.47,79.51,26Z" transform="translate(0.01 -0.03)"/><path id="Trazado_5650" data-name="Trazado 5650" class="cls-48" d="M79.12,26.19c16.34,16.36,17.74,41.53,3.17,56.13S42.52,95.48,26.16,79.15,8.84,38.08,23.46,23.49,62.76,9.85,79.12,26.19Z" transform="translate(0.01 -0.03)"/><path id="Trazado_5651" data-name="Trazado 5651" class="cls-49" d="M78.75,26.39C94.91,42.56,96.32,67.45,81.91,81.9s-39.34,13-55.51-3.17S9.17,38,23.61,23.56,62.57,10.21,78.75,26.39Z" transform="translate(0.01 -0.03)"/><path id="Trazado_5652" data-name="Trazado 5652" class="cls-50" d="M78.37,26.59c16,16,17.37,40.61,3.1,54.9s-38.9,12.87-54.9-3.11S9.42,38,23.69,23.71,62.37,10.59,78.37,26.59Z" transform="translate(0.01 -0.03)"/><path id="Trazado_5653" data-name="Trazado 5653" class="cls-51" d="M78,26.77c15.84,15.85,17.19,40.17,3.09,54.3S42.58,93.81,26.77,78s-17.06-40.06-3-54.17S62.15,11,78,26.77Z" transform="translate(0.01 -0.03)"/><path id="Trazado_5654" data-name="Trazado 5654" d="M77.58,27c15.65,15.63,17,39.72,3,53.68s-38,12.6-53.68-3.05-17-39.71-3-53.67S62,11.33,77.58,27Z" transform="translate(0.01 -0.03)"/></g><g id="Grupo_4798" data-name="Grupo 4798"><g id="Grupo_4796" data-name="Grupo 4796"><path id="Trazado_5655" data-name="Trazado 5655" class="cls-52" d="M88.23,19.8H16.52A48.07,48.07,0,0,1,84.39,16,49.69,49.69,0,0,1,88.23,19.8Z" transform="translate(0.01 -0.03)"/><path id="Trazado_5656" data-name="Trazado 5656" class="cls-53" d="M97.76,67.94a47.69,47.69,0,0,1-9.5,16H16.54A48,48,0,0,1,7,67.94Z" transform="translate(0.01 -0.03)"/><path id="Trazado_5657" data-name="Trazado 5657" class="cls-52" d="M88.23,84a48.13,48.13,0,0,1-68,3.75A47.39,47.39,0,0,1,16.52,84Z" transform="translate(0.01 -0.03)"/><path id="Trazado_5658" data-name="Trazado 5658" class="cls-54" d="M100.53,51.89a47.69,47.69,0,0,1-2.76,16H7a48.29,48.29,0,0,1,0-32.1H97.76A47.45,47.45,0,0,1,100.53,51.89Z" transform="translate(0.01 -0.03)"/><path id="Trazado_5659" data-name="Trazado 5659" class="cls-53" d="M97.76,35.84H7a48,48,0,0,1,9.55-16H88.25A47.71,47.71,0,0,1,97.76,35.84Z" transform="translate(0.01 -0.03)"/></g></g></g></svg>