<svg id="Capa_1" data-name="Capa 1" xmlns="http://www.w3.org/2000/svg" viewBox="0 0 51.46 62.42"><defs><style>.cls-1{fill:#f07e00;fill-rule:evenodd;}</style></defs><g id="Grupo_7162" data-name="Grupo 7162"><path id="Trazado_9812" data-name="Trazado 9812" class="cls-1" d="M669.64,408.52h-3.81a1.94,1.94,0,0,0-1.6.85l-2.54,3.84-.07.09a4.54,4.54,0,0,1-7,.74,5.18,5.18,0,0,1-.71-.91l-.1-.16-3.12-5.41h0A1.95,1.95,0,1,1,654,405.4a1.13,1.13,0,0,1,.12.21h0l2.74,4.75a1.46,1.46,0,0,0,2,.27,1.41,1.41,0,0,0,.39-.45L661,407a4.88,4.88,0,0,1,4.19-2.39h4.68a1,1,0,0,0,.93-1,.94.94,0,0,0-.12-.49h0l-3.19-5.53h0a1.85,1.85,0,0,1,3.13-1.95h0l3.1,5.48v0a4.86,4.86,0,0,1-4.18,7.3Zm-16-39.09a1.94,1.94,0,0,1,1.94-1.95,2,2,0,0,1,1.39.58h0a11.72,11.72,0,1,1-8.28-3.41,1.95,1.95,0,1,1,0,3.89,7.82,7.82,0,1,0,5.58,2.35,1.93,1.93,0,0,1-.64-1.44Zm17.77,9.51a8.87,8.87,0,0,1-4.8,11.6h0l-1.26.53-.49.24a2.17,2.17,0,0,0-1.2,1.2h0l-.7,1.71a8.89,8.89,0,0,1-11.61,4.8l-1.22-.49a3.69,3.69,0,0,1-.56-.19,2.27,2.27,0,0,0-1.7,0h-.05l-1.69.7a8.87,8.87,0,0,1-11.6-4.8l-.34-.83a1,1,0,0,0-1.27-.54.92.92,0,0,0-.5.45h0l-5.69,9.86h0a1,1,0,0,0,.35,1.33,1.06,1.06,0,0,0,.47.13h4.67A4.88,4.88,0,0,1,636.4,407l1.76,3.17a1.45,1.45,0,0,0,2,.57,1.41,1.41,0,0,0,.45-.39l4.41-7.64h0a1.95,1.95,0,0,1,3.62,1.45,2.82,2.82,0,0,1-.21.38h0l0,.06-.08.13L643.56,413a1.11,1.11,0,0,0-.11.16,4.31,4.31,0,0,1-.69.9,4.53,4.53,0,0,1-7-.72c0-.05,0-.06-.07-.1l-2.54-3.84a1.94,1.94,0,0,0-1.6-.85h-3.82a4.87,4.87,0,0,1-4.83-4.9,4.93,4.93,0,0,1,.65-2.4v-.05l5.53-9.74h0a4.86,4.86,0,0,1,8.65.42l.49,1.19a4.57,4.57,0,0,0,6,2.48l2-.85.19-.05a5.73,5.73,0,0,1,4.38,0,2.07,2.07,0,0,0,.33.1l2,.8a4.57,4.57,0,0,0,6-2.48l.87-2.12.06-.1a5.71,5.71,0,0,1,3.09-3.09,1.3,1.3,0,0,0,.26-.14l2-.82a4.58,4.58,0,0,0,2.47-6l-.91-2.21v0a5.67,5.67,0,0,1,0-4.39.58.58,0,0,1,0-.16l.87-2.1a4.58,4.58,0,0,0-2.47-6l-2.26-.94a5.67,5.67,0,0,1-3.08-3.08l0-.05-.91-2.21a4.59,4.59,0,0,0-6-2.48l-2.23.93h0a5.73,5.73,0,0,1-4.38,0h0l-2.25-.93a4.57,4.57,0,0,0-6,2.48l-.89,2.15-.06.1a5.67,5.67,0,0,1-3.09,3.09h0l-2.19.91a4.58,4.58,0,0,0-2.48,6l.67,1.61h0a2,2,0,0,1-3.58,1.68,1.17,1.17,0,0,0-.05-.11l-.56-1.36a8.88,8.88,0,0,1,4.8-11.61l1.63-.67.13-.05a2.21,2.21,0,0,0,1.19-1.21h0l.72-1.73a8.88,8.88,0,0,1,11.61-4.81l1.76.73h0a2.2,2.2,0,0,0,1.67,0l1.78-.74a8.87,8.87,0,0,1,11.6,4.81l.69,1.65,0,.12a2.19,2.19,0,0,0,1.14,1.16l1.81.75a8.88,8.88,0,0,1,4.81,11.6h0l-.57,1.36a2.89,2.89,0,0,1-.16.42,2.32,2.32,0,0,0,0,1.68l.73,1.76Z" transform="translate(-622.93 -352.94)"/><g id="Grupo_6703" data-name="Grupo 6703"><path id="Trazado_9809" data-name="Trazado 9809" class="cls-1" d="M628.91,379.33a3.2,3.2,0,1,1-3.2,3.19h0A3.21,3.21,0,0,1,628.91,379.33Z" transform="translate(-622.93 -352.94)"/></g></g></svg>