<svg id="Capa_1" data-name="Capa 1" xmlns="http://www.w3.org/2000/svg" viewBox="0 0 52.79 64.02"><defs><style>.cls-1{fill:#34353c;}.cls-1,.cls-2{fill-rule:evenodd;}.cls-2{fill:#fbbd06;}</style></defs><g id="Grupo_7162" data-name="Grupo 7162"><path id="Trazado_9812" data-name="Trazado 9812" class="cls-1" d="M704,408.74h-3.91a2,2,0,0,0-1.65.86l-2.6,3.94-.08.1a3.89,3.89,0,0,1-.6.74,4.62,4.62,0,0,1-6.54,0,4.71,4.71,0,0,1-.72-.93l-.11-.16-3.2-5.55h0a2,2,0,0,1,3.33-2.21.94.94,0,0,1,.12.22h0l2.81,4.86a1.5,1.5,0,0,0,2.1.28,1.36,1.36,0,0,0,.4-.46l1.8-3.25a5,5,0,0,1,4.3-2.45h4.8a1,1,0,0,0,1-1,1,1,0,0,0-.12-.5h0l-3.28-5.67h0a1.9,1.9,0,0,1,3.21-2h0l3.19,5.62v.05a5,5,0,0,1-1.83,6.82,4.94,4.94,0,0,1-2.46.67Zm-16.42-40.09a2,2,0,0,1,3.41-1.42h0a12,12,0,1,1-8.48-3.49,2,2,0,0,1,0,4,8,8,0,1,0,5.71,2.41,2,2,0,0,1-.65-1.47Zm18.22,9.74a9.09,9.09,0,0,1-4.92,11.9h0l-1.3.54c-.17.09-.33.17-.5.24a2.28,2.28,0,0,0-1.23,1.23h0l-.72,1.76A9.12,9.12,0,0,1,685.21,399L684,398.5a4.77,4.77,0,0,1-.57-.2,2.28,2.28,0,0,0-1.74,0h-.06l-1.73.71a9.1,9.1,0,0,1-11.9-4.92l-.35-.85a1,1,0,0,0-1.3-.56,1,1,0,0,0-.52.47h0L660,403.26h0a1,1,0,0,0,.36,1.36,1,1,0,0,0,.48.14h4.79a5,5,0,0,1,4.3,2.45l1.8,3.25a1.5,1.5,0,0,0,2,.58,1.46,1.46,0,0,0,.46-.4l4.52-7.84h0a2,2,0,0,1,3.71,1.49,3,3,0,0,1-.21.4h0l0,.06-.07.13-4.87,8.43a1.26,1.26,0,0,0-.11.17,5.25,5.25,0,0,1-.71.92,4.65,4.65,0,0,1-6.55,0,6.06,6.06,0,0,1-.6-.74.43.43,0,0,0-.07-.1l-2.6-3.94a2,2,0,0,0-1.65-.87H661a5,5,0,0,1-5-5,5.07,5.07,0,0,1,.67-2.46v-.05l5.67-10h0a5,5,0,0,1,8.88.43l.5,1.22a4.68,4.68,0,0,0,6.13,2.54l2.1-.87a.73.73,0,0,0,.2-.05,5.83,5.83,0,0,1,4.49,0,1.33,1.33,0,0,0,.34.1l2,.82a4.68,4.68,0,0,0,6.13-2.54l.9-2.17.06-.1a5.8,5.8,0,0,1,3.17-3.17,1.74,1.74,0,0,0,.26-.15l2-.84a4.7,4.7,0,0,0,2.54-6.13l-.94-2.27v0a5.83,5.83,0,0,1,0-4.49.55.55,0,0,1,0-.17l.89-2.16a4.7,4.7,0,0,0-2.53-6.13l-2.32-1a5.83,5.83,0,0,1-3.16-3.16l0-.05-.94-2.27a4.7,4.7,0,0,0-6.13-2.54l-2.29.95h0a5.85,5.85,0,0,1-4.5,0h0l-2.3-.95a4.69,4.69,0,0,0-6.13,2.54l-.92,2.21-.06.1a5.8,5.8,0,0,1-3.17,3.17h0l-2.25.93a4.7,4.7,0,0,0-2.54,6.13l.69,1.66h0a2,2,0,0,1-3.67,1.72.61.61,0,0,1-.05-.12l-.58-1.39a9.1,9.1,0,0,1,4.93-11.9l1.67-.69.12-.06a2.25,2.25,0,0,0,1.23-1.23h0l.74-1.78a9.12,9.12,0,0,1,11.9-4.94l1.81.75h0a2.21,2.21,0,0,0,1.71,0l1.83-.76a9.11,9.11,0,0,1,11.9,4.94l.7,1.69.06.12a2.27,2.27,0,0,0,1.16,1.2l1.87.77a9.12,9.12,0,0,1,4.93,11.9h0l-.57,1.39a4.31,4.31,0,0,1-.17.44,2.32,2.32,0,0,0,0,1.72l.75,1.8Z" transform="translate(-656.07 -351.73)"/><g id="Grupo_6703" data-name="Grupo 6703"><path id="Trazado_9809" data-name="Trazado 9809" class="cls-2" d="M662.21,378.79a3.28,3.28,0,1,1-3.28,3.28h0A3.29,3.29,0,0,1,662.21,378.79Z" transform="translate(-656.07 -351.73)"/></g></g></svg>