<svg id="Capa_1" data-name="Capa 1" xmlns="http://www.w3.org/2000/svg" viewBox="0 0 63.6 55.59"><defs><style>.cls-1{fill:#fbbd06;}.cls-1,.cls-2{fill-rule:evenodd;}.cls-2{fill:#34353c;}</style></defs><g id="Grupo_7160" data-name="Grupo 7160"><g id="Grupo_3559" data-name="Grupo 3559"><path id="Trazado_9809" data-name="Trazado 9809" class="cls-1" d="M698.7,358.3a2.82,2.82,0,1,1-2.82,2.81h0A2.82,2.82,0,0,1,698.7,358.3Z" transform="translate(-650.72 -355.87)"/></g></g><path id="Trazado_10358" data-name="Trazado 10358" class="cls-2" d="M712.06,387.13l-25.31,10.65a11.75,11.75,0,0,1-8.46,0L653,387.13a3.56,3.56,0,0,1-1.14-.78,3.78,3.78,0,0,1,0-5.34,3.82,3.82,0,0,1,1.18-.81l3.19-1.34a1.92,1.92,0,0,1,1-.28,2,2,0,0,1,.57,3.82l-1,.41a1,1,0,0,0-.39,1.33,1,1,0,0,0,.39.38l22.53,9.4.17.06a7.9,7.9,0,0,0,6,0l.19-.06,22.53-9.4a1,1,0,0,0,.39-1.33,1,1,0,0,0-.39-.39l-1-.41a2,2,0,0,1,.57-3.82,2,2,0,0,1,1,.28L712,380.2a3.72,3.72,0,0,1,1.17.79,3.78,3.78,0,0,1,0,5.35h0a3.6,3.6,0,0,1-1.15.78Zm0-12.91-25.31,10.65a11.75,11.75,0,0,1-8.46,0L653,374.22a3.56,3.56,0,0,1-1.14-.78A3.77,3.77,0,0,1,653,367.3l25.28-10.64a11.75,11.75,0,0,1,8.46,0l2.34,1a2,2,0,0,1-1.18,3.78,2.17,2.17,0,0,1-.35-.15l-1.84-.77-.2-.07a8,8,0,0,0-6,0l-.17.06-22.52,9.4a1,1,0,0,0,0,1.72l22.53,9.4.17.06a8,8,0,0,0,6,0l.19-.07,22.53-9.4a1,1,0,0,0,.39-1.33,1,1,0,0,0-.39-.39l-3-1.28a2,2,0,0,1,.66-3.8,1.88,1.88,0,0,1,1,.29l5.15,2.17a3.77,3.77,0,0,1,0,6.93ZM653,393.1l3.19-1.34a1.9,1.9,0,0,1,1-.28,2,2,0,0,1,.57,3.82l-1,.4a1,1,0,0,0-.39,1.33,1,1,0,0,0,.39.39l22.53,9.4.17.06a8,8,0,0,0,6,0l.19-.07,22.53-9.4a1,1,0,0,0,.39-1.33,1,1,0,0,0-.39-.38l-1-.41a2,2,0,0,1,.57-3.82,1.92,1.92,0,0,1,1,.28l3.19,1.34a3.71,3.71,0,0,1,1.16.8,3.79,3.79,0,0,1,0,5.35h0a3.73,3.73,0,0,1-1.14.78l-25.31,10.65a11.75,11.75,0,0,1-8.46,0L653,400a3.77,3.77,0,0,1-1.15-6.13h0a3.75,3.75,0,0,1,1.17-.8Z" transform="translate(-650.72 -355.87)"/></svg>