<svg id="Capa_1" data-name="Capa 1" xmlns="http://www.w3.org/2000/svg" viewBox="0 0 95.19 83.7"><defs><style>.cls-1{fill:#34353c;}.cls-1,.cls-2{fill-rule:evenodd;}.cls-2{fill:#fbbd06;}</style></defs><g id="Grupo_6705" data-name="Grupo 6705"><path id="Trazado_9810" data-name="Trazado 9810" class="cls-1" d="M722.83,410.54l-32.89,13.37a23.24,23.24,0,0,1-17.05,0L640,410.56a9.27,9.27,0,0,1-5.1-8.28V360.43a3.1,3.1,0,1,1,6.2,0v41.41a3.1,3.1,0,0,0,1.55,2.63l31.62,13.38.21.07a17.91,17.91,0,0,0,13.86,0l.22-.08,31.66-13.39a3.1,3.1,0,0,0,1.54-2.63v-29a3.1,3.1,0,1,1,6.2,0v29.45a9.29,9.29,0,0,1-5.09,8.26Zm-13-10.54-14.62,6.09h0a3.18,3.18,0,0,1-2.69-5.76l.27-.11,14.9-6.52a3.11,3.11,0,0,0,1.64-2.71V350.4a1.54,1.54,0,0,0-1.55-1.55,1.52,1.52,0,0,0-.63.14h0l-21,9.18a3.09,3.09,0,0,0-1.64,2.7v43a6.21,6.21,0,0,1-6.2,6.2,6.07,6.07,0,0,1-2.41-.49L653,400a9.3,9.3,0,0,1-5.7-8.58V348a6.19,6.19,0,0,1,8.6-5.71l14.2,5.91h0a3.25,3.25,0,0,1-1.25,6.2,3.29,3.29,0,0,1-1.47-.36l-11.7-5.13h0a1.54,1.54,0,0,0-2.18,1.41V391a3.09,3.09,0,0,0,1.64,2.7l21,9.18h0a1.74,1.74,0,0,0,.63.14,1.55,1.55,0,0,0,1.55-1.55v-41a9.31,9.31,0,0,1,5.7-8.58l22.89-9.53a6.21,6.21,0,0,1,8.61,5.71v43.4a9.31,9.31,0,0,1-5.71,8.58Z" transform="translate(-634.94 -341.83)"/><path id="Trazado_9811" data-name="Trazado 9811" class="cls-2" d="M725.54,351.69a4.59,4.59,0,1,1-4.58,4.59A4.59,4.59,0,0,1,725.54,351.69Z" transform="translate(-634.94 -341.83)"/></g></svg>