<svg id="Capa_1" data-name="Capa 1" xmlns="http://www.w3.org/2000/svg" viewBox="0 0 92.54 92.55"><defs><style>.cls-1,.cls-54{fill:#fff;}.cls-1{fill-opacity:0;}.cls-2{fill:#fafafa;opacity:0.02;}.cls-10,.cls-11,.cls-12,.cls-13,.cls-14,.cls-15,.cls-16,.cls-17,.cls-18,.cls-19,.cls-2,.cls-20,.cls-21,.cls-22,.cls-23,.cls-24,.cls-25,.cls-26,.cls-27,.cls-28,.cls-29,.cls-3,.cls-30,.cls-31,.cls-32,.cls-33,.cls-34,.cls-35,.cls-36,.cls-37,.cls-38,.cls-39,.cls-4,.cls-40,.cls-41,.cls-42,.cls-43,.cls-44,.cls-45,.cls-46,.cls-47,.cls-48,.cls-49,.cls-5,.cls-50,.cls-51,.cls-6,.cls-7,.cls-8,.cls-9{isolation:isolate;}.cls-3{fill:#f5f5f5;opacity:0.04;}.cls-4{fill:#f0f0f0;opacity:0.06;}.cls-5{fill:#ebebeb;opacity:0.08;}.cls-6{fill:#e6e6e6;opacity:0.1;}.cls-7{fill:#e1e1e1;opacity:0.12;}.cls-8{fill:#dcdcdc;opacity:0.14;}.cls-9{fill:#d7d7d7;opacity:0.16;}.cls-10{fill:#d2d2d2;opacity:0.18;}.cls-11{fill:#cdcdcd;opacity:0.2;}.cls-12{fill:#c8c8c8;opacity:0.22;}.cls-13{fill:#c3c3c3;opacity:0.23;}.cls-14{fill:#bebebe;opacity:0.25;}.cls-15{fill:#b9b9b9;opacity:0.28;}.cls-16{fill:#b4b4b4;opacity:0.29;}.cls-17{fill:#afafaf;opacity:0.31;}.cls-18{fill:#aaa;opacity:0.33;}.cls-19{fill:#a5a5a5;opacity:0.35;}.cls-20{fill:#a0a0a0;opacity:0.37;}.cls-21{fill:#9b9b9b;opacity:0.39;}.cls-22{fill:#969696;opacity:0.41;}.cls-23{fill:#919191;opacity:0.43;}.cls-24{fill:#8c8c8c;opacity:0.45;}.cls-25{fill:#878787;opacity:0.47;}.cls-26{fill:#828282;opacity:0.49;}.cls-27{fill:#7d7d7d;opacity:0.51;}.cls-28{fill:#787878;opacity:0.53;}.cls-29{fill:#737373;opacity:0.55;}.cls-30{fill:#6e6e6e;opacity:0.57;}.cls-31{fill:#696969;opacity:0.59;}.cls-32{fill:#646464;opacity:0.61;}.cls-33{fill:#5f5f5f;opacity:0.63;}.cls-34{fill:#5a5a5a;opacity:0.65;}.cls-35{fill:#555;opacity:0.67;}.cls-36{fill:#505050;opacity:0.69;}.cls-37{fill:#4b4b4b;opacity:0.71;}.cls-38{fill:#464646;opacity:0.73;}.cls-39{fill:#414141;opacity:0.75;}.cls-40{fill:#3c3c3c;opacity:0.76;}.cls-41{fill:#373737;opacity:0.78;}.cls-42{fill:#323232;opacity:0.8;}.cls-43{fill:#2d2d2d;opacity:0.82;}.cls-44{fill:#282828;opacity:0.84;}.cls-45{fill:#232323;opacity:0.86;}.cls-46{fill:#1e1e1e;opacity:0.88;}.cls-47{fill:#191919;opacity:0.9;}.cls-48{fill:#141414;opacity:0.92;}.cls-49{fill:#0f0f0f;opacity:0.94;}.cls-50{fill:#0a0a0a;opacity:0.96;}.cls-51{fill:#050505;opacity:0.98;}.cls-52{fill:#006a3f;}.cls-53{fill:#fbd022;}.cls-55{fill:#d31c2f;}.cls-56{fill:#9b4903;}.cls-57{fill:#9461c7;}</style></defs><g id="Grupo_6680" data-name="Grupo 6680"><g id="Grupo_4810" data-name="Grupo 4810"><path id="Trazado_5759" data-name="Trazado 5759" class="cls-1" d="M76.73,13.5C96.25,33,98,63.08,80.51,80.5S33,96.24,13.51,76.7s-16.65-45,.79-62.43S57.21-6,76.73,13.5Z" transform="translate(-0.02 0.01)"/><path id="Trazado_5760" data-name="Trazado 5760" class="cls-2" d="M76.42,13.64C95.81,33,97.48,62.88,80.18,80.21S33,95.83,13.64,76.44s-16.58-44.74.73-62.07S57-5.73,76.42,13.64Z" transform="translate(-0.02 0.01)"/><path id="Trazado_5761" data-name="Trazado 5761" class="cls-3" d="M76.12,13.8C95.37,33,97,62.67,79.85,79.87S33,95.39,13.77,76.13s-16.52-44.47.66-61.65S56.88-5.45,76.12,13.8Z" transform="translate(-0.02 0.01)"/><path id="Trazado_5762" data-name="Trazado 5762" class="cls-4" d="M75.82,14c19.1,19.1,20.76,48.52,3.7,65.58S33.06,94.91,13.94,75.81s-16.46-44.21.6-61.26S56.68-5.15,75.82,14Z" transform="translate(-0.02 0.01)"/><path id="Trazado_5763" data-name="Trazado 5763" class="cls-5" d="M75.52,14.09c19,19,20.61,48.17,3.67,65.11S33.07,94.47,14.11,75.51s-16.38-43.94.55-60.87S56.55-4.86,75.52,14.09Z" transform="translate(-0.02 0.01)"/><path id="Trazado_5764" data-name="Trazado 5764" class="cls-6" d="M75.21,14.25C94,33.08,95.66,62.06,78.86,78.87S33.07,94,14.25,75.21s-16.33-43.68.48-60.47S56.39-4.56,75.21,14.25Z" transform="translate(-0.02 0.01)"/><path id="Trazado_5765" data-name="Trazado 5765" class="cls-7" d="M74.9,14.41c18.68,18.67,20.32,47.46,3.63,64.13s-45.44,15-64.12-3.63-16.27-43.41.42-60.07S56.23-4.29,74.9,14.41Z" transform="translate(-0.02 0.01)"/><path id="Trazado_5766" data-name="Trazado 5766" class="cls-8" d="M74.6,14.57c18.52,18.52,20.17,47.08,3.6,63.64s-45.1,14.93-63.64-3.6-16.19-43.13.36-59.7S56.07-4,74.6,14.57Z" transform="translate(-0.02 0.01)"/><path id="Trazado_5767" data-name="Trazado 5767" class="cls-9" d="M74.3,14.72c18.4,18.39,20,46.73,3.57,63.17S33.12,92.71,14.72,74.3-1.41,31.44,15,15,55.9-3.68,74.3,14.72Z" transform="translate(-0.02 0.01)"/><path id="Trazado_5768" data-name="Trazado 5768" class="cls-10" d="M74,14.87c18.25,18.25,19.84,46.38,3.54,62.68S33.12,92.26,14.86,74A41.81,41.81,0,0,1,74,14.87Z" transform="translate(-0.02 0.01)"/><path id="Trazado_5769" data-name="Trazado 5769" class="cls-11" d="M73.68,15c18.11,18.11,19.68,46,3.5,62.19s-44,14.6-62.2-3.5A41.5,41.5,0,1,1,73.68,15Z" transform="translate(-0.02 0.01)"/><path id="Trazado_5770" data-name="Trazado 5770" class="cls-12" d="M73.4,15.17c18,18,19.52,45.66,3.5,61.72s-43.72,14.49-61.7-3.5A41.17,41.17,0,0,1,73.42,15.17h0Z" transform="translate(-0.02 0.01)"/><path id="Trazado_5771" data-name="Trazado 5771" class="cls-13" d="M73.1,15.33c17.84,17.84,19.38,45.3,3.45,61.23S33.16,90.94,15.33,73.1A40.85,40.85,0,0,1,73.09,15.33Z" transform="translate(-0.02 0.01)"/><path id="Trazado_5772" data-name="Trazado 5772" class="cls-14" d="M72.79,15.49C90.49,33.18,92,60.43,76.22,76.23s-43,14.26-60.74-3.44A40.54,40.54,0,0,1,71,13.69h0c.62.58,1.22,1.18,1.8,1.79Z" transform="translate(-0.02 0.01)"/><path id="Trazado_5773" data-name="Trazado 5773" class="cls-15" d="M72.49,15.63c17.56,17.55,19.07,44.6,3.4,60.27S33.19,90,15.68,72.49A40.21,40.21,0,0,1,72.54,15.63Z" transform="translate(-0.02 0.01)"/><path id="Trazado_5774" data-name="Trazado 5774" class="cls-16" d="M72.19,15.79C89.6,33.2,91.12,60,75.56,75.57s-42.36,14-59.77-3.38A39.88,39.88,0,0,1,72,15.64h0Z" transform="translate(-0.02 0.01)"/><path id="Trazado_5775" data-name="Trazado 5775" class="cls-17" d="M71.87,16c17.28,17.26,18.79,43.86,3.36,59.3s-42,13.91-59.3-3.36A39.56,39.56,0,0,1,71,15.11Z" transform="translate(-0.02 0.01)"/><path id="Trazado_5776" data-name="Trazado 5776" class="cls-18" d="M71.57,16.09C88.71,33.22,90.2,59.61,74.9,74.91s-41.67,13.8-58.8-3.33A39.24,39.24,0,0,1,69.49,14.06c.53.49,1.05,1,1.55,1.52q.27.26.54.54Z" transform="translate(-0.02 0.01)"/><path id="Trazado_5777" data-name="Trazado 5777" class="cls-19" d="M71.29,16.25c17,17,18.47,43.16,3.3,58.34s-41.33,13.68-58.32-3.3a38.92,38.92,0,0,1,55-55.06Z" transform="translate(-0.02 0.01)"/><path id="Trazado_5778" data-name="Trazado 5778" class="cls-20" d="M71,16.41C87.82,33.25,89.3,59.2,74.24,74.26S33.24,87.84,16.39,71A38.61,38.61,0,1,1,69.55,15a18.49,18.49,0,0,1,1.4,1.4Z" transform="translate(-0.02 0.01)"/><path id="Trazado_5779" data-name="Trazado 5779" class="cls-21" d="M70.68,16.55C87.38,33.27,88.85,59,73.92,73.93S33.26,87.39,16.56,70.67A38.27,38.27,0,1,1,69.49,15.39l.42.4C70.16,16,70.42,16.29,70.68,16.55Z" transform="translate(-0.02 0.01)"/><path id="Trazado_5780" data-name="Trazado 5780" class="cls-22" d="M70.37,16.71C87,33.27,88.37,58.79,73.59,73.6S33.28,87,16.68,70.37A38,38,0,0,1,69.17,15.53C69.6,15.91,70,16.31,70.37,16.71Z" transform="translate(-0.02 0.01)"/><path id="Trazado_5781" data-name="Trazado 5781" class="cls-23" d="M70.07,16.87c16.43,16.41,17.85,41.72,3.18,56.4s-40,13.23-56.4-3.2A37.63,37.63,0,1,1,68.9,15.7Q69.5,16.27,70.07,16.87Z" transform="translate(-0.02 0.01)"/><path id="Trazado_5782" data-name="Trazado 5782" class="cls-24" d="M69.77,17C86.06,33.31,87.48,58.39,72.92,73S33.3,86.07,17,69.78a37.32,37.32,0,0,1,51.51-54C68.94,16.17,69.36,16.58,69.77,17Z" transform="translate(-0.02 0.01)"/><path id="Trazado_5783" data-name="Trazado 5783" class="cls-25" d="M69.47,17.17C85.62,33.31,87,58.17,72.6,72.6s-39.28,13-55.43-3.13a37,37,0,0,1,51-53.57c.43.41.85.84,1.26,1.27Z" transform="translate(-0.02 0.01)"/><path id="Trazado_5784" data-name="Trazado 5784" class="cls-26" d="M69.16,17.33c16,16,17.4,40.65,3.1,55s-38.93,12.89-55-3.11A36.71,36.71,0,0,1,67.68,15.81C68.16,16.3,68.68,16.81,69.16,17.33Z" transform="translate(-0.02 0.01)"/><path id="Trazado_5785" data-name="Trazado 5785" class="cls-27" d="M68.87,17.47C84.72,33.34,86.1,57.78,71.93,71.94S33.35,84.72,17.47,68.86A36.36,36.36,0,1,1,67.13,15.73h0Q68,16.57,68.87,17.47Z" transform="translate(-0.02 0.01)"/><path id="Trazado_5786" data-name="Trazado 5786" class="cls-28" d="M68.55,17.62c15.73,15.73,17.11,40,3,54s-38.26,12.67-54-3A36,36,0,1,1,66.48,15.68,16.56,16.56,0,0,1,68.55,17.62Z" transform="translate(-0.02 0.01)"/><path id="Trazado_5787" data-name="Trazado 5787" class="cls-29" d="M68.23,17.78c15.59,15.57,17,39.58,3,53.5s-37.91,12.55-53.5-3A35.72,35.72,0,0,1,66.5,16.08l.63.6C67.5,17,67.87,17.41,68.23,17.78Z" transform="translate(-0.02 0.01)"/><path id="Trazado_5788" data-name="Trazado 5788" class="cls-30" d="M68,17.93c15.44,15.44,16.79,39.23,3,53s-37.57,12.43-53-3a35.4,35.4,0,1,1,48-52l.35.32c.56.52,1.1,1.07,1.63,1.63Z" transform="translate(-0.02 0.01)"/><path id="Trazado_5789" data-name="Trazado 5789" class="cls-31" d="M67.68,18.09C83,33.39,84.32,57,70.68,70.65S33.46,83,18.15,67.65a35.07,35.07,0,1,1,47.4-51.71,27.51,27.51,0,0,1,2.16,2.16Z" transform="translate(-0.02 0.01)"/><path id="Trazado_5790" data-name="Trazado 5790" class="cls-32" d="M67.34,18.24C82.5,33.39,83.83,56.74,70.28,70.3s-36.88,12.22-52.06-3A34.76,34.76,0,0,1,65.14,16c.77.7,1.5,1.43,2.2,2.19Z" transform="translate(-0.02 0.01)"/><path id="Trazado_5791" data-name="Trazado 5791" class="cls-33" d="M67,18.38c15,15,16.33,38.16,2.91,51.56S33.41,82,18.39,67A34.44,34.44,0,0,1,64.68,16c.82.74,1.6,1.52,2.34,2.33Z" transform="translate(-0.02 0.01)"/><path id="Trazado_5792" data-name="Trazado 5792" class="cls-34" d="M66.74,18.54c14.89,14.89,16.17,37.81,2.88,51.1s-36.19,12-51.06-2.9A34.13,34.13,0,0,1,64.39,16.16a33.26,33.26,0,0,1,2.37,2.38Z" transform="translate(-0.02 0.01)"/><path id="Trazado_5793" data-name="Trazado 5793" class="cls-35" d="M66.44,18.7c14.75,14.74,16,37.44,2.86,50.61S33.43,81.18,18.69,66.44A33.83,33.83,0,1,1,63.81,16h0A31.66,31.66,0,0,1,66.44,18.7Z" transform="translate(-0.02 0.01)"/><path id="Trazado_5794" data-name="Trazado 5794" class="cls-36" d="M66.14,18.84C80.73,33.44,82,55.94,69,69S33.42,80.73,18.84,66.14a33.5,33.5,0,0,1,44.55-50A33.38,33.38,0,0,1,66.14,18.84Z" transform="translate(-0.02 0.01)"/><path id="Trazado_5795" data-name="Trazado 5795" class="cls-37" d="M65.84,19c14.45,14.45,15.72,36.73,2.8,49.64S33.46,80.31,19,65.86A33.18,33.18,0,0,1,63,16.22,33.63,33.63,0,0,1,65.84,19Z" transform="translate(-0.02 0.01)"/><path id="Trazado_5796" data-name="Trazado 5796" class="cls-38" d="M65.52,19.16C79.84,33.47,81.09,55.52,68.3,68.31S33.47,79.83,19.14,65.53A32.86,32.86,0,0,1,62.55,16.19,34.68,34.68,0,0,1,65.52,19.16Z" transform="translate(-0.02 0.01)"/><path id="Trazado_5797" data-name="Trazado 5797" class="cls-39" d="M65.22,19.3C79.4,33.48,80.64,55.3,68,68S33.49,79.4,19.3,65.24A32.54,32.54,0,0,1,62.37,16.45,31.94,31.94,0,0,1,65.22,19.3Z" transform="translate(-0.02 0.01)"/><path id="Trazado_5798" data-name="Trazado 5798" class="cls-40" d="M64.92,19.46c14,14,15.27,35.66,2.72,48.2S33.5,79,19.46,64.94A32.23,32.23,0,1,1,61.74,16.28a34.09,34.09,0,0,1,3.18,3.18Z" transform="translate(-0.02 0.01)"/><path id="Trazado_5799" data-name="Trazado 5799" class="cls-41" d="M64.62,19.64c13.9,13.89,15.11,35.29,2.7,47.71s-33.8,11.2-47.71-2.71a31.91,31.91,0,1,1,45-45Z" transform="translate(-0.02 0.01)"/><path id="Trazado_5800" data-name="Trazado 5800" class="cls-42" d="M64.32,19.78C78.07,33.54,79.32,54.72,67,67S33.52,78.1,19.77,64.33a31.6,31.6,0,1,1,41.1-48h0a32,32,0,0,1,3.45,3.44Z" transform="translate(-0.02 0.01)"/><path id="Trazado_5801" data-name="Trazado 5801" class="cls-43" d="M64,19.92c13.62,13.62,14.79,34.59,2.63,46.75S33.53,77.67,19.92,64A31.28,31.28,0,0,1,60.48,16.38,32,32,0,0,1,64,19.92Z" transform="translate(-0.02 0.01)"/><path id="Trazado_5802" data-name="Trazado 5802" class="cls-44" d="M63.68,20c13.48,13.47,14.65,34.23,2.6,46.27S33.5,77.14,20,63.66a31,31,0,1,1,38-49c.68.53,1.34,1.09,2,1.67A30.13,30.13,0,0,1,63.68,20Z" transform="translate(-0.02 0.01)"/><path id="Trazado_5803" data-name="Trazado 5803" class="cls-45" d="M63.42,20.2C76.75,33.54,77.93,54.08,66,66s-32.44,10.74-45.77-2.6-13.87-33.24-2-45.14A31.76,31.76,0,0,1,63.1,19.89Z" transform="translate(-0.02 0.01)"/><path id="Trazado_5804" data-name="Trazado 5804" class="cls-46" d="M63.11,20.38c13.2,13.19,14.35,33.54,2.56,45.3S33.58,76.31,20.38,63.11s-13.81-33-2-44.75S49.92,7.18,63.11,20.38Z" transform="translate(-0.02 0.01)"/><path id="Trazado_5805" data-name="Trazado 5805" class="cls-47" d="M62.79,20.54C75.79,33.59,77,53.69,65.3,65.35S33.55,75.86,20.49,62.81,6.75,30.1,18.41,18.44,49.74,7.48,62.79,20.54Z" transform="translate(-0.02 0.01)"/><path id="Trazado_5806" data-name="Trazado 5806" class="cls-48" d="M62.51,20.68C75.41,33.6,76.51,53.49,65,65s-31.4,10.4-44.32-2.5S7,30.08,18.53,18.52,49.59,7.77,62.51,20.68Z" transform="translate(-0.02 0.01)"/><path id="Trazado_5807" data-name="Trazado 5807" class="cls-49" d="M62.19,20.84C75,33.61,76.09,53.27,64.7,64.69S33.68,75,20.86,62.18,7.23,30,18.68,18.6,49.43,8,62.19,20.84Z" transform="translate(-0.02 0.01)"/><path id="Trazado_5808" data-name="Trazado 5808" class="cls-50" d="M61.89,21c12.64,12.63,13.74,32.07,2.46,43.36S33.62,74.55,21,61.93,7.43,30,18.68,18.71,49.26,8.36,61.89,21Z" transform="translate(-0.02 0.01)"/><path id="Trazado_5809" data-name="Trazado 5809" class="cls-51" d="M61.59,21.14C74.11,33.66,75.17,52.88,64,64S33.63,74.1,21.14,61.61,7.62,30,18.8,18.82,49.1,8.65,61.59,21.14Z" transform="translate(-0.02 0.01)"/><path id="Trazado_5810" data-name="Trazado 5810" d="M61.29,21.3c12.39,12.35,13.39,31.37,2.39,42.4s-30,10-42.39-2.41S7.87,29.93,18.89,18.9,48.94,9,61.29,21.3Z" transform="translate(-0.02 0.01)"/></g><g id="Grupo_4830" data-name="Grupo 4830"><g id="Grupo_4826" data-name="Grupo 4826"><g id="Grupo_4814" data-name="Grupo 4814"><g id="Grupo_4813" data-name="Grupo 4813"><path id="Trazado_5811" data-name="Trazado 5811" class="cls-52" d="M79.42,41v1a18.57,18.57,0,0,1-.13,2.24c-.05.74-.14,1.5-.24,2.19L79,47c-.07.5-.16,1-.25,1.44v.21h0l-.06.23c-.11.59-.26,1.19-.41,1.78A38,38,0,0,1,44.62,79c-1,.08-2.11.13-3.17.13s-2.14,0-3.18-.13a38,38,0,0,1-26.5-14.13A38.6,38.6,0,0,1,8.5,60.09a37.44,37.44,0,0,1-3.87-9.48c-.12-.45-.22-.88-.32-1.32l0-.23v-.22a37.5,37.5,0,0,1-.63-4.21v-.38h0c-.06-.74-.1-1.49-.13-2.24V40c0-.74.06-1.5.13-2.24v-.25l.09-.76v-.2a40.92,40.92,0,0,1,1-5.14A37.44,37.44,0,0,1,8.59,22a38.6,38.6,0,0,1,3.27-4.76A38,38,0,0,1,32,4.14a36.9,36.9,0,0,1,6.36-1.07c1-.09,2.11-.13,3.18-.13a25.69,25.69,0,0,1,3.17.13,37,37,0,0,1,6.35,1.07A38.11,38.11,0,0,1,74.48,22a37.47,37.47,0,0,1,3.88,9.48l.22.89v.2c.2.88.37,1.76.5,2.64v.19c.11.8.21,1.62.27,2.43s.11,1.51.13,2.24v.17Z" transform="translate(-0.02 0.01)"/><g id="Grupo_4811" data-name="Grupo 4811"><path id="Trazado_5812" data-name="Trazado 5812" class="cls-53" d="M79.28,37.8H3.49v-.26l.09-.76v-.2a40.77,40.77,0,0,1,1-5.13H78.23l.22.89v.2c.2.87.37,1.75.5,2.64v.18A16.64,16.64,0,0,1,79.28,37.8Z" transform="translate(-0.02 0.01)"/><path id="Trazado_5813" data-name="Trazado 5813" d="M79.42,41v.95a18.57,18.57,0,0,1-.13,2.24H3.49c-.06-.75-.1-1.49-.13-2.24V40c0-.75.06-1.5.13-2.24H79.28c.07.74.11,1.49.13,2.24V41Z" transform="translate(-0.02 0.01)"/><path id="Trazado_5814" data-name="Trazado 5814" class="cls-54" d="M79.28,44.17c-.06.74-.15,1.5-.25,2.19l-.07.5c-.07.5-.16,1-.24,1.43v.22h0v.23c-.12.58-.26,1.19-.42,1.77H4.57c-.12-.44-.22-.87-.32-1.32l0-.23v-.21a37.33,37.33,0,0,1-.63-4.22v-.37H79.28Z" transform="translate(-0.02 0.01)"/></g><g id="Grupo_4812" data-name="Grupo 4812"><path id="Trazado_5815" data-name="Trazado 5815" class="cls-54" d="M50.91,4.16V77.81a38,38,0,0,1-6.35,1.08V3.09A37,37,0,0,1,50.91,4.16Z" transform="translate(-0.02 0.01)"/><path id="Trazado_5816" data-name="Trazado 5816" d="M44.56,3.09v75.8c-1,.08-2.11.13-3.17.13s-2.14,0-3.18-.13V3.09C39.21,3,40.32,3,41.39,3S43.49,3,44.56,3.09Z" transform="translate(-0.02 0.01)"/><path id="Trazado_5817" data-name="Trazado 5817" class="cls-53" d="M38.21,3.09v75.8a38.08,38.08,0,0,1-6.36-1.08V4.16A36.9,36.9,0,0,1,38.21,3.09Z" transform="translate(-0.02 0.01)"/></g></g><circle id="Elipse_16" data-name="Elipse 16" class="cls-55" cx="41.36" cy="41" r="18.94"/></g><g id="Grupo_4825" data-name="Grupo 4825"><g id="Grupo_4815" data-name="Grupo 4815"><path id="Trazado_5818" data-name="Trazado 5818" class="cls-52" d="M41.41,24.08l.6,1.86h2l-1.57,1.14.6,1.85-1.58-1.14-1.58,1.14.6-1.85-1.57-1.14h2Z" transform="translate(-0.02 0.01)"/><path id="Trazado_5819" data-name="Trazado 5819" d="M44.16,25.9H42.05l-.64-2-.65,2H38.68l1.71,1.23-.65,2,1.7-1.23,1.69,1.23-.65-2ZM41.4,27.73,40,28.79l.54-1.7L39.06,26h1.79l.56-1.73L42,26h1.79l-1.44,1.06.56,1.7Z" transform="translate(-0.02 0.01)"/></g><g id="Grupo_4816" data-name="Grupo 4816"><path id="Trazado_5820" data-name="Trazado 5820" class="cls-52" d="M31.46,27.3,33,28.44l1.58-1.14L34,29.15l1.57,1.15H33.68l-.6,1.85-.61-1.85H30.53l1.57-1.15Z" transform="translate(-0.02 0.01)"/><path id="Trazado_5821" data-name="Trazado 5821" d="M34.09,29.12l.65-2-1.69,1.23-1.22-.84-.5-.36.5,1.55.15.44-.15.1-1.56,1.14h2.11l.36,1.09.29.9.3-.9.34-1.09h2.09Zm-1,2.83-.16-.5-.41-1.22H30.68l1.16-.85.29-.22-.29-.89-.27-.81.27.2,1.2.86,1.46-1.06-.56,1.7,1.44,1.07H33.59l-.4,1.22Z" transform="translate(-0.02 0.01)"/></g><g id="Grupo_4817" data-name="Grupo 4817"><path id="Trazado_5822" data-name="Trazado 5822" class="cls-52" d="M25.32,35.74h2l.6-1.85.6,1.85h2L29,36.89l.6,1.85L28,37.59l-1.58,1.15.6-1.85Z" transform="translate(-0.02 0.01)"/><path id="Trazado_5823" data-name="Trazado 5823" d="M27.87,37.52l-.4.28h.11l.29-.2.28.2h.12Zm0,0-.4.28h.11l.29-.2.28.2h.12Zm0,0-.4.28h.11l.29-.2.28.2h.12Zm0,0-.4.28h.11l.29-.2.28.2h.12Zm1-.6,1.7-1.23h-2.1l-.65-2-.65,2h-2.1l1.7,1.23-.3.89-.34,1.11,1.5-1.11.18-.13.17.13,1.51,1.11-.36-1.11Zm-.65.89-.4-.29-.4.29-1.06.78.26-.78.3-.93-1.45-1.06h1.79l.56-1.72.57,1.72h1.79l-1.45,1.06.3.93.26.78Zm-.4-.29-.4.29h.11l.29-.2.28.2h.12Zm0,0-.4.29h.11l.29-.2.28.2h.12Zm0,0-.4.29h.11l.29-.2.28.2h.12Z" transform="translate(-0.02 0.01)"/></g><g id="Grupo_4818" data-name="Grupo 4818"><path id="Trazado_5824" data-name="Trazado 5824" class="cls-52" d="M25.3,46.19,26.88,45l-.6-1.85,1.57,1.15,1.58-1.15L28.83,45l1.58,1.15h-2L27.8,48l-.6-1.86Z" transform="translate(-0.02 0.01)"/><path id="Trazado_5825" data-name="Trazado 5825" d="M28.9,45l.27-.84L29.54,43,28,44.18l-.13.08-.13-.08L26.16,43l.36,1.15.28.84-1.69,1.23H27.2l.65,2,.65-2h2.1Zm-1,2.83-.56-1.73H25.5l1.45-1-.29-.9-.27-.81,1.12.82.34.24.35-.24,1.12-.82-.27.82-.29.9,1.45,1H28.42Z" transform="translate(-0.02 0.01)"/></g><g id="Grupo_4819" data-name="Grupo 4819"><path id="Trazado_5826" data-name="Trazado 5826" class="cls-52" d="M31.44,54.65l.6-1.86-1.58-1.14h2l.61-1.86.6,1.86h1.95L34,52.79l.6,1.86L33.07,53.5Z" transform="translate(-0.02 0.01)"/><path id="Trazado_5827" data-name="Trazado 5827" d="M35.75,51.59H33.68l-.36-1.07-.3-.93-.3.93-.35,1.07H30.28l1.59,1.16.1.07-.1.34-.54,1.65.54-.39L33,53.58l1.71,1.23-.65-2ZM33,53.42l-1.15.85-.3.21.3-.91.26-.79-.26-.19-1.2-.87h1.8l.39-1.2L33,50l.17.53.39,1.2h1.8L33.9,52.78l.56,1.7Z" transform="translate(-0.02 0.01)"/></g><g id="Grupo_4820" data-name="Grupo 4820"><path id="Trazado_5828" data-name="Trazado 5828" class="cls-52" d="M41.38,57.89,40.78,56h-2l1.55-1.15L39.73,53l1.57,1.14L42.88,53l-.6,1.85L43.85,56H41.91Z" transform="translate(-0.02 0.01)"/><path id="Trazado_5829" data-name="Trazado 5829" d="M42.41,54.87l.65-2-1.7,1.23-1.68-1.23.65,2L38.62,56.1h2.06l.64,2,.65-2h2.11Zm-1,2.81L40.8,56H39l1.45-1.06L39.9,53.2l1.46,1.06,1.46-1.06-.56,1.71L43.68,56H41.89Z" transform="translate(-0.02 0.01)"/></g><g id="Grupo_4821" data-name="Grupo 4821"><path id="Trazado_5830" data-name="Trazado 5830" class="cls-52" d="M51.31,54.67l-1.58-1.14-1.58,1.14.6-1.85-1.57-1.14h2l.6-1.86.6,1.86h2l-1.7,1.14Z" transform="translate(-0.02 0.01)"/><path id="Trazado_5831" data-name="Trazado 5831" d="M50.77,52.85l.15-.1,1.56-1.13H50.37L50,50.52l-.3-.9-.28.9-.36,1.1H47l1.69,1.23-.65,2,1.65-1.23,1.2.87.5.36-.5-1.56Zm.15,1.5-1.2-.88-1.44,1.06.54-1.7-1.44-1.06h1.79l.4-1.22.16-.5.17.5.39,1.22h1.8l-1.17.84-.29.22.29.89.27.81Z" transform="translate(-0.02 0.01)"/></g><g id="Grupo_4822" data-name="Grupo 4822"><path id="Trazado_5832" data-name="Trazado 5832" class="cls-52" d="M57.46,46.23h-2l-.6,1.86-.61-1.86h-2l1.58-1.15-.6-1.85,1.58,1.15,1.57-1.15-.6,1.85Z" transform="translate(-0.02 0.01)"/><path id="Trazado_5833" data-name="Trazado 5833" d="M55.19,44.17l-.29.2-.28-.2h-.11l.39.29.4-.29Zm.76.89.3-.89.36-1.1-1.5,1.1-.19.13-.17-.13-1.5-1.1.36,1.1.28.89L52.2,46.29h2.09l.65,2,.65-2h2.09Zm-1,2.83-.56-1.73H52.6L54,45.1l-.3-.93-.24-.78,1.06.78.39.28.4-.28,1.06-.78-.26.78-.3.93,1.45,1.06H55.51Zm.29-3.72-.29.2-.28-.2h-.11l.39.29.4-.29Z" transform="translate(-0.02 0.01)"/></g><g id="Grupo_4823" data-name="Grupo 4823"><path id="Trazado_5834" data-name="Trazado 5834" class="cls-52" d="M57.47,35.78l-1.58,1.15.6,1.85-1.57-1.15-1.58,1.15.6-1.85-1.58-1.15h2L55,33.93l.6,1.85Z" transform="translate(-0.02 0.01)"/><path id="Trazado_5835" data-name="Trazado 5835" d="M56,37l1.72-1.23h-2.1l-.64-2-.65,2H52.18L53.89,37l-.27.85L53.25,39l1.56-1.15.13-.09.13.09L56.63,39l-.36-1.15Zm-.7.85-.34-.25-.35.25-1.11.82.26-.82.29-.9-1.45-1h1.79l.57-1.72.56,1.72h1.79l-1.45,1,.29.9.27.82Z" transform="translate(-0.02 0.01)"/></g><g id="Grupo_4824" data-name="Grupo 4824"><path id="Trazado_5836" data-name="Trazado 5836" class="cls-52" d="M51.36,27.32l-.6,1.85,1.57,1.15H50.38l-.6,1.85-.61-1.85H47.23l1.57-1.15-.6-1.85,1.57,1.15Z" transform="translate(-0.02 0.01)"/><path id="Trazado_5837" data-name="Trazado 5837" d="M50.92,29.23l-.1-.07.1-.33.54-1.66-.54.38-1.15.85-1.71-1.23.65,2L47,30.4h2.09l.36,1.06.3.93.3-.93.35-1.06h2.09ZM49.77,32l-.17-.5-.39-1.19h-1.8l1.46-1.07-.56-1.7,1.46,1.06,1.15-.85.3-.21-.3.91-.26.79.26.19,1.2.88h-1.8l-.39,1.19Z" transform="translate(-0.02 0.01)"/></g></g></g><g id="Grupo_4829" data-name="Grupo 4829"><g id="Grupo_4828" data-name="Grupo 4828"><g id="Grupo_4827" data-name="Grupo 4827"><path id="Trazado_5838" data-name="Trazado 5838" class="cls-56" d="M46.17,49.42H46c-.48-.66-.1-1.06,0-1.13h.12a.22.22,0,0,1,.16,0,.55.55,0,0,1,.28.56C46.54,49.32,46.37,49.39,46.17,49.42Z" transform="translate(-0.02 0.01)"/><path id="Trazado_5839" data-name="Trazado 5839" class="cls-56" d="M45.84,49.41H43.25A1.17,1.17,0,0,1,43,49a1,1,0,0,1,.29-.67h2.5A.92.92,0,0,0,45.84,49.41Z" transform="translate(-0.02 0.01)"/><path id="Trazado_5840" data-name="Trazado 5840" class="cls-56" d="M36.52,47.85c.11-.26.27-.58,1-.54a1,1,0,0,1,1,.71.34.34,0,0,0,.33.26h1.6a1.34,1.34,0,0,0-.16.56,2.79,2.79,0,0,0,.07.58H37s-.73,0-1.09-1.16h.14a.71.71,0,0,0,.35-.13A1.31,1.31,0,0,0,36.52,47.85Z" transform="translate(-0.02 0.01)"/><path id="Trazado_5841" data-name="Trazado 5841" class="cls-52" d="M46.18,46.87v1.29h-.5v-2A5.54,5.54,0,0,1,46.18,46.87Z" transform="translate(-0.02 0.01)"/><path id="Trazado_5842" data-name="Trazado 5842" class="cls-52" d="M46.07,42.17a6.9,6.9,0,0,0-.64-.89h0a1.23,1.23,0,0,0,.1-.57A3.09,3.09,0,0,1,46.07,42.17Z" transform="translate(-0.02 0.01)"/><path id="Trazado_5843" data-name="Trazado 5843" class="cls-52" d="M45.68,50.67a.28.28,0,0,1-.32.17,9.44,9.44,0,0,0,.17-1.3h.54A2.82,2.82,0,0,1,45.68,50.67Z" transform="translate(-0.02 0.01)"/><path id="Trazado_5844" data-name="Trazado 5844" class="cls-52" d="M44.89,51.75s-.18-.13-.37-.79c-.1-.37-.21-.86-.31-1.42h1.23c-.06.53-.12,1-.17,1.34-.12.58-.23.78-.3.84Z" transform="translate(-0.02 0.01)"/><path id="Trazado_5845" data-name="Trazado 5845" class="cls-52" d="M46.1,42.48a13.57,13.57,0,0,1,.69,1.5v.73a13.76,13.76,0,0,0-2.1-2.93,2.51,2.51,0,0,0,0-.67.8.8,0,0,0,.48.3h0l.13,0A5.86,5.86,0,0,1,46.1,42.48Z" transform="translate(-0.02 0.01)"/><path id="Trazado_5846" data-name="Trazado 5846" class="cls-52" d="M46.8,46a5,5,0,0,0-.68-1.22c-.48-.63-.93-1.3-1.35-1.89l-.47-.69a.38.38,0,0,0,.24-.13l.13-.19A14.54,14.54,0,0,1,46.83,45C46.83,45.39,46.81,45.74,46.8,46Z" transform="translate(-0.02 0.01)"/><path id="Trazado_5847" data-name="Trazado 5847" class="cls-52" d="M44.28,46.8a.92.92,0,0,1-.16-.53.72.72,0,0,0,.25-.32,2.5,2.5,0,0,0,.23-.7,5.39,5.39,0,0,0,.5.33v.05c-.13.81-.33,1.23-.62,1.25A.32.32,0,0,1,44.28,46.8Z" transform="translate(-0.02 0.01)"/><path id="Trazado_5848" data-name="Trazado 5848" class="cls-52" d="M44.46,47h0c.53,0,.69-1,.73-1.35h.07l.22.23v2.21H43.94v-.33a2.56,2.56,0,0,0,.5-.86Z" transform="translate(-0.02 0.01)"/><path id="Trazado_5849" data-name="Trazado 5849" class="cls-57" d="M42.08,33.22a2.49,2.49,0,0,0,1.58.74h.15a2.4,2.4,0,0,0,.53-.12,3.32,3.32,0,0,0,1.16.5,1.41,1.41,0,0,1-.66.43,2.13,2.13,0,0,1-.94,0,4,4,0,0,1-2-1.5Z" transform="translate(-0.02 0.01)"/><path id="Trazado_5850" data-name="Trazado 5850" class="cls-52" d="M44.24,38.51a1.63,1.63,0,0,0,0-.54,6.14,6.14,0,0,1,.9,1.41,3.07,3.07,0,0,1,.31,1.11h0a1.63,1.63,0,0,1-.08.73h0l-.1.05c-.13,0-.5-.17-1-1.45h.11l.1,0v-.42A3.1,3.1,0,0,0,44.24,38.51Z" transform="translate(-0.02 0.01)"/><path id="Trazado_5851" data-name="Trazado 5851" class="cls-52" d="M43.68,46.17a1.15,1.15,0,0,1-.22-.8,2.29,2.29,0,0,0,.33-.79,6.3,6.3,0,0,0,.68.58,2.57,2.57,0,0,1-.23.71.76.76,0,0,1-.23.3.25.25,0,0,1-.27,0h-.06Z" transform="translate(-0.02 0.01)"/><path id="Trazado_5852" data-name="Trazado 5852" class="cls-52" d="M43.85,49.64l-.12-.08h.36c.1.5.2,1,.29,1.34a1,1,0,0,1-.5-.61h0a.25.25,0,0,0,.13-.22A.53.53,0,0,0,43.85,49.64Z" transform="translate(-0.02 0.01)"/><path id="Trazado_5853" data-name="Trazado 5853" class="cls-52" d="M44.16,37.73a5.89,5.89,0,0,0-.47-1.23l.28.17A12.69,12.69,0,0,1,45.42,39a12.16,12.16,0,0,1,1.09,2.85v.28a10.06,10.06,0,0,1,.17,1.45,12.22,12.22,0,0,0-.54-1.16c-.38-1-.71-2.06-1-3.1A5.73,5.73,0,0,0,44.16,37.73Z" transform="translate(-0.02 0.01)"/><path id="Trazado_5854" data-name="Trazado 5854" class="cls-57" d="M44.49,32.64a11.28,11.28,0,0,1-1.56-1.19l-.07-.07L42.4,31a3.13,3.13,0,0,0-1.28-.72,2.91,2.91,0,0,0-2,.35,1.09,1.09,0,0,0-.53.84v.07h.2l.2.1a.53.53,0,0,1,.26.39.37.37,0,0,1,0,.21.56.56,0,0,1,0,.79l0,0,.12.06a4.18,4.18,0,0,0,1.89.17h0A3.79,3.79,0,0,0,42.35,33a4.91,4.91,0,0,0,.5-.28l.09-.07c.21-.17.21-.17.24-.17h0a1.54,1.54,0,0,0,1,.24h.26Zm-4-.76c-.29,0-.5-.16-.5-.36v-.07a.51.51,0,0,1,.5-.29c.27,0,.47.12.5.29v.07c0,.2-.23.36-.54.36Z" transform="translate(-0.02 0.01)"/><path id="Trazado_5855" data-name="Trazado 5855" class="cls-52" d="M43.56,39l-.06-.09h0a.24.24,0,0,0,.13-.11.69.69,0,0,0,0-.35.72.72,0,0,0,.41.22h.09a3.73,3.73,0,0,1,.15.81.62.62,0,0,1,0,.33c-.08,0-.2-.13-.26-.17C43.86,39.45,43.7,39.24,43.56,39Z" transform="translate(-0.02 0.01)"/><path id="Trazado_5856" data-name="Trazado 5856" class="cls-52" d="M43.89,43.59a3.6,3.6,0,0,1-.32-.69h.11a.33.33,0,0,0,.23-.1s.15-.17,0-1c.23.29.5.72.84,1.2s.88,1.27,1.35,1.9a4.35,4.35,0,0,1,.75,1.45h0A4.37,4.37,0,0,1,47,48a8.11,8.11,0,0,0-1.36-2.35l-.15-.23c-.1-.15-.3-.39-.54-.68A14.53,14.53,0,0,1,43.89,43.59Z" transform="translate(-0.02 0.01)"/><path id="Trazado_5857" data-name="Trazado 5857" class="cls-52" d="M43.46,48c-.12-.05-.2-.27-.25-.61l.07-.2.09-.33a1.28,1.28,0,0,0,.31-.51H44a.9.9,0,0,0,.18.54l.12.08a1.84,1.84,0,0,1-.73,1A.19.19,0,0,1,43.46,48Z" transform="translate(-0.02 0.01)"/><path id="Trazado_5858" data-name="Trazado 5858" class="cls-52" d="M43.76,41.53c-.1-.36-.23-.77-.37-1.17h.11l.13,0c.14-.16,0-.72-.07-1.11a3.73,3.73,0,0,0,.36.43h0a6.4,6.4,0,0,0,.61,1.23A1.46,1.46,0,0,1,44.4,42a.24.24,0,0,1-.24.08C44,41.91,43.89,41.67,43.76,41.53Z" transform="translate(-0.02 0.01)"/><path id="Trazado_5859" data-name="Trazado 5859" class="cls-57" d="M43.23,32.56a1.81,1.81,0,0,0,.5.2,3.92,3.92,0,0,0,1.18.53,1,1,0,0,1-.59.4,2.4,2.4,0,0,1-.53.12,2.19,2.19,0,0,1-1.57-.65l.23-.1a5.09,5.09,0,0,0,.5-.3l.1-.09Z" transform="translate(-0.02 0.01)"/><path id="Trazado_5860" data-name="Trazado 5860" class="cls-52" d="M43.14,43.87a6.2,6.2,0,0,0,.55.6,2.11,2.11,0,0,1-.33.84c-.07.1-.2.27-.33.25a.25.25,0,0,1-.16-.12,1.14,1.14,0,0,1-.14-.54A2.57,2.57,0,0,0,43.14,43.87Z" transform="translate(-0.02 0.01)"/><path id="Trazado_5861" data-name="Trazado 5861" class="cls-52" d="M43.36,45.53a1.21,1.21,0,0,0,.21.71,1,1,0,0,1-.28.5.15.15,0,0,1-.2,0c-.23-.11-.29-.5-.3-.79l.07-.33.14.07h.06A.45.45,0,0,0,43.36,45.53Z" transform="translate(-0.02 0.01)"/><path id="Trazado_5862" data-name="Trazado 5862" class="cls-52" d="M43.39,38.94a2.53,2.53,0,0,1,.18,1.33h0a1.16,1.16,0,0,1-.55-.5,2.33,2.33,0,0,0-.16-.6,1.8,1.8,0,0,0-.07-.73,1.29,1.29,0,0,0,.62.43Z" transform="translate(-0.02 0.01)"/><path id="Trazado_5863" data-name="Trazado 5863" class="cls-52" d="M43.08,37.61a3.42,3.42,0,0,1,.33.59c.16.33.16.46.13.5v.06c-.19.07-.5-.15-.82-.59l-.08-.3h0a.64.64,0,0,0,0-.43.66.66,0,0,0,.44.21h0Z" transform="translate(-0.02 0.01)"/><path id="Trazado_5864" data-name="Trazado 5864" class="cls-52" d="M43.46,36.32A7.57,7.57,0,0,1,44,37.77h0a2.35,2.35,0,0,1,.07.7c-.08.05-.28,0-.58-.36-.09-.17-.2-.36-.35-.59.13-.28-.53-1.53-.66-1.79h-.05l.16-.15A5.85,5.85,0,0,0,43.46,36.32Z" transform="translate(-0.02 0.01)"/><path id="Trazado_5865" data-name="Trazado 5865" class="cls-53" d="M43.17,49.51a.33.33,0,0,0,.27.09.25.25,0,0,1,.17,0h0l.1.07c.12.11.19.21.17.3l-.07.1h-.08A1.36,1.36,0,0,1,43.2,50a1,1,0,0,1-.48-.3,1,1,0,0,1-.26-.36,1.35,1.35,0,0,1-.14-.86l.14-.34.17-.36h0a.35.35,0,0,0,.24-.1.76.76,0,0,0,.17-.23,1.07,1.07,0,0,0,.22.47l-.13.15a1.13,1.13,0,0,0-.32.8,1,1,0,0,0,.3.54Z" transform="translate(-0.02 0.01)"/><path id="Trazado_5866" data-name="Trazado 5866" class="cls-52" d="M42.32,46.62a.74.74,0,0,0,.36-.42.84.84,0,0,0,.35.65l.16,0h0l-.07.24-.07.2a.89.89,0,0,1-.23.38.22.22,0,0,1-.17.05h-.07a.68.68,0,0,1-.17-.21A1.68,1.68,0,0,1,42.32,46.62Z" transform="translate(-0.02 0.01)"/><path id="Trazado_5867" data-name="Trazado 5867" class="cls-57" d="M43.24,35.38a3.5,3.5,0,0,0,1.58.47h.33l.24.18a1.84,1.84,0,0,0,.51.19H46a1.53,1.53,0,0,1-.65.41,1.75,1.75,0,0,1-1.33-.05A7,7,0,0,1,42.29,35a1,1,0,0,0,.07-.34A3.68,3.68,0,0,0,43.24,35.38Z" transform="translate(-0.02 0.01)"/><path id="Trazado_5868" data-name="Trazado 5868" class="cls-52" d="M42.34,42.61a8,8,0,0,0,.7,1.11,2.41,2.41,0,0,1-.43,1.09.55.55,0,0,1-.23.17.19.19,0,0,1-.18,0,.4.4,0,0,1-.17-.3,3.19,3.19,0,0,1,.31-2.08Z" transform="translate(-0.02 0.01)"/><path id="Trazado_5869" data-name="Trazado 5869" class="cls-52" d="M43.61,42.76c-.22,0-.6-.37-1-1.25a4.65,4.65,0,0,1-.39-1.46c.23.33.5.62.75.63h0s.1-.08,0-.58l.19.17c.15.43.31.91.43,1.33.18.71.2,1,.14,1.12A.17.17,0,0,1,43.61,42.76Z" transform="translate(-0.02 0.01)"/><path id="Trazado_5870" data-name="Trazado 5870" class="cls-57" d="M42.17,33.82a3.47,3.47,0,0,0,1.7,1.11h.48a2.08,2.08,0,0,0,.5-.07,2.84,2.84,0,0,0,.77.36h.12a1,1,0,0,1-.58.37h0a2.82,2.82,0,0,1-1.86-.41,3.45,3.45,0,0,1-.94-.8l-.3-.37L42,33.89Z" transform="translate(-0.02 0.01)"/><path id="Trazado_5871" data-name="Trazado 5871" class="cls-52" d="M42,47.36a3.1,3.1,0,0,1-.09-.61.49.49,0,0,0,.2-.18l.12.07a1.74,1.74,0,0,0,.11.93l.16.22a.48.48,0,0,1-.2.07.27.27,0,0,1-.17-.13A1,1,0,0,1,42,47.36Z" transform="translate(-0.02 0.01)"/><path id="Trazado_5872" data-name="Trazado 5872" class="cls-53" d="M42.5,47.91l-.13.27a1.28,1.28,0,0,0,0,1.31,1.09,1.09,0,0,0,.27.4,1.21,1.21,0,0,0,.43.27.54.54,0,0,1-.25.06l-.26,0a1.16,1.16,0,0,1-.77-.74,1.76,1.76,0,0,1-.13-.5,1.07,1.07,0,0,1,.13-.72,3,3,0,0,1,.24-.38.31.31,0,0,0,.2.11h.06Z" transform="translate(-0.02 0.01)"/><path id="Trazado_5873" data-name="Trazado 5873" class="cls-52" d="M41.9,35.08,41.75,35a1.07,1.07,0,0,0,.26-.26,1.09,1.09,0,0,0,.1-.25v-.13l.15.16a1,1,0,0,1-.09.48C42.12,35.08,42.07,35.15,41.9,35.08Z" transform="translate(-0.02 0.01)"/><path id="Trazado_5874" data-name="Trazado 5874" class="cls-52" d="M42.44,45.12l.17-.1a1.08,1.08,0,0,0,.15.5,3.2,3.2,0,0,1-.1.42c-.1.33-.27.57-.39.58h-.1a.86.86,0,0,1-.23-.5,1.57,1.57,0,0,1,0-.53L42,45c.06.07.1.15.17.17h.13Z" transform="translate(-0.02 0.01)"/><path id="Trazado_5875" data-name="Trazado 5875" class="cls-52" d="M42.08,33.71a.49.49,0,0,1-.24.16.89.89,0,0,1-.51,0,.87.87,0,0,0,.05-.48l.37-.07Z" transform="translate(-0.02 0.01)"/><path id="Trazado_5876" data-name="Trazado 5876" class="cls-53" d="M41.47,47.83a.78.78,0,0,0,.41-.3l.09.21a2.66,2.66,0,0,0-.29.45,1.28,1.28,0,0,0-.14.79,2,2,0,0,0,.14.53,1.31,1.31,0,0,0,.75.76.59.59,0,0,1-.65,0,1.9,1.9,0,0,1-.66-.8V49.4h0a1.2,1.2,0,0,1,.08-1.12A3.35,3.35,0,0,1,41.47,47.83Z" transform="translate(-0.02 0.01)"/><path id="Trazado_5877" data-name="Trazado 5877" class="cls-52" d="M42.52,39.26a2.25,2.25,0,0,1-.8-1.14.69.69,0,0,0,.45.24h0a1.1,1.1,0,0,0,0-.51.8.8,0,0,0,.3.09l.08.3h0c.19.68.17,1,.09,1.06A.17.17,0,0,1,42.52,39.26Z" transform="translate(-0.02 0.01)"/><path id="Trazado_5878" data-name="Trazado 5878" class="cls-55" d="M43.79,44.41a6.89,6.89,0,0,1-.62-.7h0a7.42,7.42,0,0,1-.75-1.16v0a10.86,10.86,0,0,1-1-3.14,17.79,17.79,0,0,0,1.64,3.77v.07c.7.85,1.29,1.55,1.85,2.14a7.72,7.72,0,0,1-1.1-.88Z" transform="translate(-0.02 0.01)"/><path id="Trazado_5879" data-name="Trazado 5879" class="cls-52" d="M41.25,34h.57l.1.13a.91.91,0,0,1,0,.33l-.08.2a.65.65,0,0,1-.26.26h0a.7.7,0,0,1-.68-.13l.16-.2a.26.26,0,0,0-.07-.31l.23-.25Z" transform="translate(-0.02 0.01)"/><path id="Trazado_5880" data-name="Trazado 5880" class="cls-52" d="M40.85,46.75a1,1,0,0,0,.36-.42c.1.23.21.39.36.43h.19a5.81,5.81,0,0,0,.09.58c-.19.32-.39.42-.62.3l-.1-.07A1.33,1.33,0,0,1,40.85,46.75Z" transform="translate(-0.02 0.01)"/><path id="Trazado_5881" data-name="Trazado 5881" class="cls-52" d="M41.16,37.4V35.76l.16-.09a.93.93,0,0,0,.43-.54l.15.07h.17a.26.26,0,0,0,.2-.1l.4.43-.16.16h0v.08a4.29,4.29,0,0,1,.66,1.68c-.1,0-.27-.06-.55-.35a2.94,2.94,0,0,0-.5-1H42v.09a3.13,3.13,0,0,1,.5,1h0c.13.38.12.53.1.54a.58.58,0,0,1-.38-.13,2.4,2.4,0,0,0-.66-1h-.09v.09a2.15,2.15,0,0,1,.72,1.5,1.15,1.15,0,0,1-.5-.45h0a2.34,2.34,0,0,1-.29-.41h-.09Z" transform="translate(-0.02 0.01)"/><path id="Trazado_5882" data-name="Trazado 5882" class="cls-52" d="M45,45.17c-.54-.57-1.11-1.26-1.8-2.09L43.1,43a18,18,0,0,1-1.63-3.8h0V39.1l-.15-.5c0-.39-.08-.79-.1-1.18h0c.1.15.2.29.31.43.21.59.56,1.33,1,1.5l.13,0,.13-.06h0l.11.48a2.13,2.13,0,0,1,.09.71c-.45-.08-1-1.29-1.25-1.76h-.08v.09c.15.34.32.67.5,1a4.68,4.68,0,0,0,.42,1.73,2.79,2.79,0,0,0,.93,1.27,4.09,4.09,0,0,0,.34.81,12.2,12.2,0,0,0,1,1.25Z" transform="translate(-0.02 0.01)"/><path id="Trazado_5883" data-name="Trazado 5883" class="cls-52" d="M41.12,45.53c.2.14.43.3.66.44a.91.91,0,0,0,.22.5.27.27,0,0,1-.2.17.21.21,0,0,1-.19,0c-.13,0-.25-.2-.35-.5A4.15,4.15,0,0,1,41.12,45.53Z" transform="translate(-0.02 0.01)"/><path id="Trazado_5884" data-name="Trazado 5884" class="cls-53" d="M40.54,48.24a1.91,1.91,0,0,1,.53-.53l.09.06h.14c-.09.12-.18.24-.26.37A1.37,1.37,0,0,0,41,49.37h0v.07a2.17,2.17,0,0,0,.54.73,1.18,1.18,0,0,1-1.1-.77,2.57,2.57,0,0,1-.08-.62A1.17,1.17,0,0,1,40.54,48.24Z" transform="translate(-0.02 0.01)"/><path id="Trazado_5885" data-name="Trazado 5885" class="cls-52" d="M40.83,35.62a.83.83,0,0,1-.27-.57.61.61,0,0,0,.26-.15,1.05,1.05,0,0,0,.56.22h.2a.82.82,0,0,1-.37.47l-.16.09h0A.23.23,0,0,1,40.83,35.62Z" transform="translate(-0.02 0.01)"/><path id="Trazado_5886" data-name="Trazado 5886" d="M40.26,31.52c0-.07.08-.13.18-.13s.2.06.2.13-.08.13-.2.13S40.26,31.59,40.26,31.52Z" transform="translate(-0.02 0.01)"/><path id="Trazado_5887" data-name="Trazado 5887" class="cls-52" d="M40.48,35a.88.88,0,0,1-.48-.06.47.47,0,0,0,.13-.39.51.51,0,0,0,.2-.28.86.86,0,0,1,.39,0l.15.11a.21.21,0,0,1,.09.23,2,2,0,0,1-.19.22A1.05,1.05,0,0,1,40.48,35Z" transform="translate(-0.02 0.01)"/><path id="Trazado_5888" data-name="Trazado 5888" class="cls-52" d="M40.77,34.11a.72.72,0,0,0-.41,0V34h0a1.11,1.11,0,0,0,.28-.55h.07a2.09,2.09,0,0,0,.5,0,.64.64,0,0,1-.11.55l-.23.25Z" transform="translate(-0.02 0.01)"/><path id="Trazado_5889" data-name="Trazado 5889" class="cls-55" d="M40.83,31.45a.45.45,0,0,0-.38-.16.44.44,0,0,0-.37.16v.07c0,.13.17.25.38.25s.4-.12.4-.25Zm-.38.2c-.1,0-.19,0-.19-.13v-.06h.25c0,.05-.07.11-.19.11Z" transform="translate(-0.02 0.01)"/><path id="Trazado_5890" data-name="Trazado 5890" class="cls-52" d="M40.21,45a1.61,1.61,0,0,1,0-.31l.4.38.31.26a.92.92,0,0,1-.56-.16Z" transform="translate(-0.02 0.01)"/><path id="Trazado_5891" data-name="Trazado 5891" class="cls-52" d="M40.13,45.7a1.06,1.06,0,0,1,0-.5l.06.07a1,1,0,0,0,.64.2h.1a2.84,2.84,0,0,0,.16.7.9.9,0,0,1-.38.5.21.21,0,0,1-.19,0A1.32,1.32,0,0,1,40.13,45.7Z" transform="translate(-0.02 0.01)"/><path id="Trazado_5892" data-name="Trazado 5892" d="M41,31.45a.49.49,0,0,0-.5-.29.51.51,0,0,0-.5.29v.07c0,.2.23.36.5.36s.53-.16.53-.36Zm-.5.31c-.22,0-.39-.11-.39-.24v-.07a.38.38,0,0,1,.37-.16.42.42,0,0,1,.39.16v.07c0,.12-.17.24-.39.24Z" transform="translate(-0.02 0.01)"/><path id="Trazado_5893" data-name="Trazado 5893" class="cls-52" d="M39.34,33.58a1,1,0,0,1,.09-.33,4.17,4.17,0,0,0,1.11.19,1,1,0,0,1-.24.48h-.06a.49.49,0,0,1-.44.07.69.69,0,0,1-.45-.31Z" transform="translate(-0.02 0.01)"/><path id="Trazado_5894" data-name="Trazado 5894" class="cls-52" d="M39.45,34.69h.13a1,1,0,0,0,.42-.12.36.36,0,0,1-.15.27,1,1,0,0,1-.58.22.56.56,0,0,1-.47-.36v-.16a.61.61,0,0,1,.25-.38A.59.59,0,0,0,39.45,34.69Z" transform="translate(-0.02 0.01)"/><path id="Trazado_5895" data-name="Trazado 5895" class="cls-52" d="M39.24,33.77a.84.84,0,0,0,.53.39H40a.58.58,0,0,0,.26-.06h0a.5.5,0,0,1-.2.29.71.71,0,0,1-.53.13.49.49,0,0,1-.37-.5h0a.34.34,0,0,1,.1-.33Z" transform="translate(-0.02 0.01)"/><path id="Trazado_5896" data-name="Trazado 5896" class="cls-57" d="M39.28,35.19a1.1,1.1,0,0,0,.63-.2.86.86,0,0,0,.41.1h.13a1.13,1.13,0,0,0,.33.66H41a14.6,14.6,0,0,0,1.28,6.71,3.25,3.25,0,0,0-.39,1.12,3.45,3.45,0,0,0,0,1.11,4.67,4.67,0,0,0-.13.65,3.23,3.23,0,0,0,0,.44,12.7,12.7,0,0,1-1-.76A8.46,8.46,0,0,1,38,37.51a9.87,9.87,0,0,1,.78-2.6A.63.63,0,0,0,39.28,35.19Z" transform="translate(-0.02 0.01)"/><path id="Trazado_5897" data-name="Trazado 5897" class="cls-53" d="M38.68,33.27a.44.44,0,0,1-.45-.09,3,3,0,0,1,.37-.34l.22-.16a1.52,1.52,0,0,0,.37-.3h0a.43.43,0,0,1,0,.67A1.19,1.19,0,0,1,38.68,33.27Z" transform="translate(-0.02 0.01)"/><path id="Trazado_5898" data-name="Trazado 5898" class="cls-53" d="M39,31.73l-.17-.07h-.16a1,1,0,0,0-.41.09h0a.79.79,0,0,0-.5.43,2.28,2.28,0,0,0,.13,1.5,1.77,1.77,0,0,1,.27-.53h0l.12-.15.3-.27.23-.15a1.58,1.58,0,0,0,.34-.29.31.31,0,0,0,.09-.26A.59.59,0,0,0,39,31.73Zm-.3.42a.14.14,0,0,1-.17,0,.22.22,0,0,1,.05-.17.11.11,0,0,1,.15,0l0,0h0s0,.13,0,.17Z" transform="translate(-0.02 0.01)"/><path id="Trazado_5899" data-name="Trazado 5899" d="M38.48,32.16a.23.23,0,0,1,.05-.17.11.11,0,0,1,.15,0l0,0h0v.16a.16.16,0,0,1-.21,0Z" transform="translate(-0.02 0.01)"/><path id="Trazado_5900" data-name="Trazado 5900" d="M46.89,46.36a10.29,10.29,0,0,0,0-1.36h0a5.47,5.47,0,0,0,0-.81V44c0-.41,0-.8-.08-1.13s-.07-.51-.12-.76l-.07-.27A12.44,12.44,0,0,0,45.51,39c-.21-.42-.41-.8-.61-1.14l-.36-.54-.35-.5a1.36,1.36,0,0,0,.35.07h.2a1.89,1.89,0,0,0,.67-.12,1.31,1.31,0,0,0,.75-.53v0h0l-.2-.06a2.21,2.21,0,0,1-.51-.18l-.16-.1a1.26,1.26,0,0,0,.61-.48h0V35.3l-.21-.07a2.12,2.12,0,0,1-.67-.3,1.54,1.54,0,0,0,.63-.44v-.11h0a3.52,3.52,0,0,1-1.08-.4h0a.94.94,0,0,0,.5-.46h0a3,3,0,0,1-.48-.16,3.65,3.65,0,0,1-.53-.25H45V33l-.33-.15h0a9.35,9.35,0,0,1-1.43-1.07L43,31.66l-.46-.4a3.15,3.15,0,0,0-1.33-.75,3,3,0,0,0-2,.35,1.25,1.25,0,0,0-.6,1v.08l-.28.06h-.09a.92.92,0,0,0-.56.5,2.58,2.58,0,0,0,.2,1.79l.06.05h0v-.05a1.61,1.61,0,0,1,.27-.63h.06a.56.56,0,0,0,.31.09h.1a1.38,1.38,0,0,0,.5-.25l.12.06a1,1,0,0,0-.1.34.49.49,0,0,0-.23.47.81.81,0,0,0-.36.54v.19a9.79,9.79,0,0,0-.46,1.17,8.4,8.4,0,0,0-.36,1.56v.32a8.6,8.6,0,0,0,.4,3.7,8.28,8.28,0,0,0,1.46,2.67c.11.14.22.27.34.4a1.51,1.51,0,0,0,.09.47,1.14,1.14,0,0,0-.09.68,1.53,1.53,0,0,0,.48,1l.18.06h0a1.32,1.32,0,0,0,.27.81,2,2,0,0,0-.53.55H38.68a.2.2,0,0,1-.2-.16,1,1,0,0,0-.37-.58,1.12,1.12,0,0,0-.7-.24,1,1,0,0,0-1.11.61l-.13.19a.39.39,0,0,1-.27.11l-.23.06h0c.37,1.28,1.14,1.31,1.23,1.31h3.38a1.34,1.34,0,0,0,1.34.83h0a.8.8,0,0,0,.4.11.58.58,0,0,0,.36-.1l.09-.05h.24a.57.57,0,0,0,.4-.13,1.59,1.59,0,0,0,.48.07h0l.12.22c.17.3.34.47.54.5.06.2.12.35.16.46.13.29.22.36.29.37h0l.13,0a1.54,1.54,0,0,0,.33-.85h.07a.46.46,0,0,0,.38-.23l.14-.23a4.35,4.35,0,0,0,.27-1c.3-.06.45-.26.45-.66a.7.7,0,0,0-.32-.66V47.12a5.45,5.45,0,0,1,.55,1.29v.05l.07-.05A5.45,5.45,0,0,0,46.89,46.36Zm-1.24-.26a6.52,6.52,0,0,1,.51.78v1.29h-.59a15.9,15.9,0,0,0,0-2.07Zm.15,2.18a1,1,0,0,0,0,1.13H43.22A.88.88,0,0,1,43,49a1,1,0,0,1,.28-.67Zm-2.78-4v-.15l.07-.3.26.3.29.3a2.22,2.22,0,0,1-.33.85c-.06.1-.2.27-.33.24a.21.21,0,0,1-.16-.11,1.19,1.19,0,0,1-.14-.56l.11-.17.06-.12.08-.18Zm-.17,1.3.14.07h.06a.44.44,0,0,0,.3-.15,1.21,1.21,0,0,0,.21.71,1,1,0,0,1-.28.5.15.15,0,0,1-.2,0c-.23-.13-.29-.5-.3-.79Zm.61-.24a2.29,2.29,0,0,0,.33-.79c.22.2.44.39.68.57a2.63,2.63,0,0,1-.23.72.76.76,0,0,1-.23.3.26.26,0,0,1-.27,0h-.06a1.22,1.22,0,0,1-.21-.81Zm.75-.58-.09-.07h0l-.33-.28h0l-.23-.25L43.4,44l-.23-.27v-.05a6.76,6.76,0,0,1-.75-1.16h0a10.86,10.86,0,0,1-1-3.14,18,18,0,0,0,1.64,3.77v.07l.22.26.21.26.07.08.25.29.08.11c.25.27.46.53.68.76l.34.38-.34-.23h0ZM43,43.7l-.1.43-.11.3-.06.13-.07.12h0l-.07.08a.48.48,0,0,1-.23.17.15.15,0,0,1-.18,0,.4.4,0,0,1-.17-.3,2.48,2.48,0,0,1-.06-.54v-.55a3.56,3.56,0,0,1,.33-1,8.29,8.29,0,0,0,.7,1.14Zm-.9,1.39h.3l.17-.1a1.08,1.08,0,0,0,.15.5,2.73,2.73,0,0,1-.1.41c-.1.33-.27.58-.39.59h-.1a.86.86,0,0,1-.23-.5,1.63,1.63,0,0,1,0-.54L42,45c.06.07.1.14.17.17ZM42,46.42a.27.27,0,0,1-.2.17.21.21,0,0,1-.19,0c-.13,0-.25-.2-.35-.5a4.15,4.15,0,0,1-.14-.61c.2.14.43.3.66.44a.86.86,0,0,0,.23.5Zm.08.1.12.07a1.78,1.78,0,0,0,.11.94l.16.21a.31.31,0,0,1-.2.07c-.07,0-.11-.05-.17-.14A1,1,0,0,1,42,47.3a3.81,3.81,0,0,1-.07-.59.49.49,0,0,0,.2-.18Zm.35,1a1.51,1.51,0,0,1-.09-.89.9.9,0,0,0,.35-.42.8.8,0,0,0,.34.65l.16,0h0l-.07.24-.07.2a1,1,0,0,1-.23.37.27.27,0,0,1-.17.06h-.07a.47.47,0,0,1-.19-.25Zm.86-.36.08-.33a1.16,1.16,0,0,0,.32-.5H44a.86.86,0,0,0,.19.53l.11.09a1.84,1.84,0,0,1-.73,1h-.11a1.38,1.38,0,0,1-.25-.62Zm.57,1h-.47v0h.2l.21-.15h0Zm1.66,0H44v-.33a2.68,2.68,0,0,0,.47-.86h.27l.07-.07.07-.09.1-.19V46h0v-.25l.07.05h0l.21.23a10.2,10.2,0,0,1,.08,2.21Zm-.43-2.55a4.26,4.26,0,0,1-.15.69v.17l-.06.11h0l-.08.12-.16.12h-.09a.25.25,0,0,1-.2-.09.89.89,0,0,1-.15-.5.7.7,0,0,0,.24-.32l.09-.2V45.6l.06-.19v-.2l.5.33Zm-.53-.86-.5-.58-.21-.26-.4-.47-.29-.36,0-.07a18.25,18.25,0,0,1-1.64-3.8h0v-.12l-.14-.5,0-.43h0V35.78l.14-.08a.91.91,0,0,0,.45-.55l.15.07.17.05a.26.26,0,0,0,.2-.1l.4.43a10.09,10.09,0,0,0,.83.77,6.1,6.1,0,0,1,.57,1.43h0v.7c-.08,0-.28,0-.58-.36L43.53,38l-.07-.11-.05-.09-.07-.13-.08-.13c.13-.28-.53-1.53-.66-1.79h-.06v.1a3.81,3.81,0,0,1,.65,1.68c-.09,0-.26-.06-.53-.35a3.35,3.35,0,0,0-.5-1h-.09v.09a3.35,3.35,0,0,1,.5,1h0c.15.38.13.53.12.54a.61.61,0,0,1-.39-.13,2.4,2.4,0,0,0-.66-1h-.09v.09l.07.07.07,0,.06.09.1.11.09.15h0v.13l.07.14.12.29h0v.4h0l-.1-.07-.1-.09-.22-.23h0a3.13,3.13,0,0,1-.29-.42h-.08v.18c.08.13.17.25.26.37V38c.22.59.57,1.33,1,1.5h.26L43,40a2.19,2.19,0,0,1,.09.72c-.43-.09-1-1.29-1.25-1.76h-.08V39a7.18,7.18,0,0,0,.5,1,5,5,0,0,0,.41,1.75A2.91,2.91,0,0,0,43.57,43a4.93,4.93,0,0,0,.35.82,5.86,5.86,0,0,0,.37.5l.41.5.19.21.21.27ZM41.38,33.43l.37-.08.33.39a.66.66,0,0,1-.23.17,1.06,1.06,0,0,1-.5,0,1.05,1.05,0,0,0,0-.5Zm.25.62h.21l.1.13a.91.91,0,0,1,0,.33l-.09.22a.67.67,0,0,1-.26.24h0a.7.7,0,0,1-.68-.13l.14-.2a.23.23,0,0,0,0-.31l.23-.25V34a1.93,1.93,0,0,0,.34,0Zm.37.72a.8.8,0,0,0,.11-.25v-.14l.15.17a1,1,0,0,1-.09.47c0,.07-.1.15-.27.07L41.76,35a.78.78,0,0,0,.24-.27ZM41.13,34l-.23.25-.13-.09a.72.72,0,0,0-.41,0V34h0a1.08,1.08,0,0,0,.29-.56h.07a2.73,2.73,0,0,0,.5-.05.69.69,0,0,1-.09.61Zm-.83-.07V34a.55.55,0,0,1-.45.07.71.71,0,0,1-.44-.32V33.6a1.32,1.32,0,0,1,.08-.33,4.23,4.23,0,0,0,1.12.18,1,1,0,0,1-.31.45Zm0,.32a.86.86,0,0,1,.39,0l.16.11a.19.19,0,0,1,.08.23,1.84,1.84,0,0,1-.17.22,1.14,1.14,0,0,1-.31.16A.73.73,0,0,1,40,34.9a.45.45,0,0,0,.13-.38.57.57,0,0,0,.23-.3Zm.5.69a1,1,0,0,0,.56.21h.21a.91.91,0,0,1-.38.48l-.17.07h0a.23.23,0,0,1-.2,0,1,1,0,0,1-.27-.58.55.55,0,0,0,.24-.12Zm4.51,6.31h0l-.1,0H45.1a1.65,1.65,0,0,1-.5-.58l-.07-.14-.13-.25-.09-.18-.1-.25h.22v-.42a3.16,3.16,0,0,0-.2-.91,1.57,1.57,0,0,0,0-.53c.11.13.23.28.36.46l.14.21.13.22.13.21.15.3a3.07,3.07,0,0,1,.31,1.11h0a1.79,1.79,0,0,1-.07.69Zm-2.58-2.75a1.27,1.27,0,0,0,.61.43v0a2.39,2.39,0,0,1,.19,1.32h0a1.14,1.14,0,0,1-.54-.5,2.44,2.44,0,0,0-.16-.6,2.17,2.17,0,0,0,0-.72Zm-.59-.1.07-.06a1.4,1.4,0,0,0,0-.5.9.9,0,0,0,.28.08l.1.31h0c.19.67.17,1,.09,1.06a.15.15,0,0,1-.13,0,2.13,2.13,0,0,1-.8-1.15.7.7,0,0,0,.44.25Zm.5-.19-.08-.3h0v-.08h0a1.49,1.49,0,0,0-.05-.36.66.66,0,0,0,.45.23h0l.11.19h0V38l.09.17c.16.33.16.46.13.5v0c-.08.07-.38-.15-.71-.59Zm.82.72h0a.37.37,0,0,0,.13-.12.5.5,0,0,0,0-.34.73.73,0,0,0,.42.21h.08a3.39,3.39,0,0,1,.16.83.62.62,0,0,1,0,.33c-.08,0-.2-.13-.26-.17a7.37,7.37,0,0,1-.5-.61Zm-.89,2.62a4.65,4.65,0,0,1-.39-1.46c.23.34.5.61.75.63h0s.1-.09,0-.6l.19.18c.15.43.31.92.43,1.33.18.72.2,1.05.14,1.12a.18.18,0,0,1-.17.06c-.21,0-.58-.39-1-1.27Zm1.14,0c-.1-.36-.23-.78-.37-1.18l.13,0h0l.13-.06c.15-.16,0-.71-.07-1.1.11.15.24.29.36.43h0a6.24,6.24,0,0,0,.59,1.22h0a2.81,2.81,0,0,1,0,.58v.43h0l0,.07a.25.25,0,0,1-.25.09c-.19-.22-.34-.44-.46-.58Zm.79.6h0l.12-.17a12.84,12.84,0,0,1,1.66,2.22,7.12,7.12,0,0,1,.48.85v1a5.15,5.15,0,0,0-.68-1.21l-.5-.68-.85-1.21-.21-.3-.26-.39a.38.38,0,0,0,.26-.14Zm2.26,2v.56c-.1-.19-.22-.39-.32-.56h0l-.17-.29-.2-.3a16.46,16.46,0,0,0-1.38-1.74,2.51,2.51,0,0,0,0-.67.84.84,0,0,0,.48.3h0l.13,0a6.29,6.29,0,0,1,.75,1.1,13.57,13.57,0,0,1,.69,1.5Zm-1.37-2.89h0a1.59,1.59,0,0,0,.1-.57,3.09,3.09,0,0,1,.51,1.5,5.79,5.79,0,0,0-.6-.89Zm-.87-3.78.2.3.08.14.17.29.2.36.2.4a12.64,12.64,0,0,1,1.1,2.85l.07.29a11.87,11.87,0,0,1,.17,1.46,12.47,12.47,0,0,0-.55-1.17,3.17,3.17,0,0,0-.68-2,2.81,2.81,0,0,0-.31-1.13,6,6,0,0,0-.5-.89l-.16-.21a3.39,3.39,0,0,0-.33-.42l-.07-.07a6.54,6.54,0,0,0-.48-1.23l.29.17.14.18c.16.2.29.4.47.66Zm.83-1.5a1.58,1.58,0,0,0,.53.18H46a1.35,1.35,0,0,1-.63.42,2.13,2.13,0,0,1-.83.1l-.26-.06h-.1l-.15,0A7.47,7.47,0,0,1,42.28,35a.8.8,0,0,0,.07-.34,3.72,3.72,0,0,0,.88.7,3.92,3.92,0,0,0,1.32.46h.26a1.26,1.26,0,0,0,.33-.05,1.21,1.21,0,0,0,.24.21Zm.23-.73h.11a1,1,0,0,1-.57.38h-.69l-.17,0a2.76,2.76,0,0,1-.79-.28l-.21-.1a3.36,3.36,0,0,1-1-.8L42,34l-.08-.12a1,1,0,0,0,.2-.16,3.53,3.53,0,0,0,1.72,1.11,3.91,3.91,0,0,0,.48,0h.21l.29-.06a2.15,2.15,0,0,0,.76.33Zm-1-1.22.26.13.2.09h.23l.24.06a1.36,1.36,0,0,1-.66.44l-.16,0h-.34a2.3,2.3,0,0,1-.45,0,4,4,0,0,1-2-1.5l.2-.07a2.38,2.38,0,0,0,1.56.73h.16a1.93,1.93,0,0,0,.53-.11Zm-.37-1,.18.09.19.07.36.11a.71.71,0,0,1-.36.3h0l-.2.09a2.4,2.4,0,0,1-.53.12,2.1,2.1,0,0,1-1.58-.67l.23-.08a5.09,5.09,0,0,0,.5-.3l.1-.09.16-.13a1.5,1.5,0,0,0,.5.22L44,33Zm-6.09.12h0a1.77,1.77,0,0,0-.27.53,2.22,2.22,0,0,1-.13-1.5.77.77,0,0,1,.5-.43h0a1,1,0,0,1,.42-.09h.16l.17.07a.54.54,0,0,1,.21.3.35.35,0,0,1-.08.26,1.39,1.39,0,0,1-.35.29l-.23.15-.3.27Zm1.06-.13a1.22,1.22,0,0,1-.5.24.44.44,0,0,1-.45-.08,3.06,3.06,0,0,1,.37-.35l.22-.16a1.52,1.52,0,0,0,.37-.3h0a.54.54,0,0,1,.14.36.55.55,0,0,1-.14.32Zm.14,0a.6.6,0,0,0,.16-.33.56.56,0,0,0-.2-.5.41.41,0,0,0,0-.22.52.52,0,0,0-.26-.38l-.2-.1h-.2v-.07a1.11,1.11,0,0,1,.53-.85,2.88,2.88,0,0,1,2-.34,3,3,0,0,1,1.28.71l.46.4.07.07a9.46,9.46,0,0,0,1.56,1.19l.07,0h-.26a1.53,1.53,0,0,1-1-.25h0l-.25.17-.08.07c-.17.11-.33.2-.5.29a4.19,4.19,0,0,1-1.1.31h0a4.18,4.18,0,0,1-1.89-.17Zm-.07.66v.06a.86.86,0,0,0,.53.38h.19a.47.47,0,0,0,.26,0h0a.54.54,0,0,1-.19.28.74.74,0,0,1-.56.13.47.47,0,0,1-.36-.5h0a.37.37,0,0,1,.14-.32Zm-.23.46a.59.59,0,0,0,.46.5h.13a.88.88,0,0,0,.42-.11.41.41,0,0,1-.15.27,1,1,0,0,1-.58.2.5.5,0,0,1-.48-.35v-.17a.61.61,0,0,1,.25-.34Zm.83,10h0l-.21-.28v0l-.11-.17-.13-.17-.12-.17-.11-.2L39,43l-.1-.2-.18-.39-.12-.27v-.05l-.07-.18v-.06l-.11-.31h0l-.12-.39-.07-.28h0a2.5,2.5,0,0,0-.13-.56V40l0-.36v-.37h0v-.44h0V37.58l.07-.4h0l.08-.41.07-.26h0a8.61,8.61,0,0,1,.53-1.5.61.61,0,0,0,.53.31,1.08,1.08,0,0,0,.63-.21,1,1,0,0,0,.42.1h.13a1,1,0,0,0,.33.66H41v2.58l.05.45v.17l.09.53.13.58.07.3a4.5,4.5,0,0,0,.17.6l.1.3a5.5,5.5,0,0,0,.25.63l.13.27.14.31a3.27,3.27,0,0,0-.38,1.1v.57a2.62,2.62,0,0,0,0,.56,5.13,5.13,0,0,0-.13.66,3.09,3.09,0,0,0,0,.43,11.45,11.45,0,0,1-1.11-.83l-.28-.26-.07,0c-.22-.28-.38-.44-.52-.61Zm1,1.18a.86.86,0,0,1-.56-.16l-.1-.16a1,1,0,0,1-.06-.33c.13.13.26.26.4.38Zm-.32,1.27a1.33,1.33,0,0,1-.43-.91,1.06,1.06,0,0,1,0-.5v.07a1,1,0,0,0,.65.2h.1a5.47,5.47,0,0,0,.16.7.85.85,0,0,1-.39.5.21.21,0,0,1-.18-.07Zm.29.14a1,1,0,0,0,.36-.42c.1.24.21.39.36.43h.19a5.81,5.81,0,0,0,.09.58c-.19.31-.39.41-.61.3l-.11-.07a1.34,1.34,0,0,1-.27-.84Zm-.55,2.66H37s-.73,0-1.09-1.16H36a.57.57,0,0,0,.33-.13.81.81,0,0,0,.17-.24c.11-.26.27-.59,1-.55a1,1,0,0,1,.71.29.89.89,0,0,1,.25.43.34.34,0,0,0,.33.26h1.6a1.34,1.34,0,0,0-.16.56,3.43,3.43,0,0,0,.08.56Zm.15,0a2.16,2.16,0,0,1-.09-.62,1.41,1.41,0,0,1,.19-.6,1.5,1.5,0,0,1,.53-.53l.08.06h.15c-.09.12-.18.24-.26.37A1.34,1.34,0,0,0,41,49.34h0l0,.07a2.53,2.53,0,0,0,.53.73,1.15,1.15,0,0,1-1.09-.77Zm1.33.79a1.9,1.9,0,0,1-.66-.8v-.07h0a1.2,1.2,0,0,1,.08-1.12,3.91,3.91,0,0,1,.3-.41.68.68,0,0,0,.42-.32l.09.23a2.66,2.66,0,0,0-.29.45,1.35,1.35,0,0,0-.15.79,2.46,2.46,0,0,0,.15.53,1.31,1.31,0,0,0,.75.76.57.57,0,0,1-.65-.06Zm1,0-.25,0a1.17,1.17,0,0,1-.79-.74,1.76,1.76,0,0,1-.13-.5,1.2,1.2,0,0,1,.13-.72,2.26,2.26,0,0,1,.25-.38.31.31,0,0,0,.2.11h.06l.2-.07-.13.27a1.32,1.32,0,0,0-.15.39,1.37,1.37,0,0,0,.15.93,1.56,1.56,0,0,0,.27.4,1.21,1.21,0,0,0,.43.27.45.45,0,0,1-.23,0Zm1-.06h-.05a1.36,1.36,0,0,1-.53-.07,1.08,1.08,0,0,1-.47-.28,1.41,1.41,0,0,1-.27-.37,1.43,1.43,0,0,1-.13-.86l.14-.35.17-.36h0a.31.31,0,0,0,.24-.1.66.66,0,0,0,.17-.23,1,1,0,0,0,.22.48l-.13.16a1.1,1.1,0,0,0-.32.79,1,1,0,0,0,.3.54.33.33,0,0,0,.27.09.17.17,0,0,1,.17,0h0l.09.07c.13.11.2.21.18.3l-.07.11Zm.5.68-.09-.09h0l-.08-.08v-.16L44,50.27h0a.25.25,0,0,0,.13-.22.52.52,0,0,0-.21-.38l-.12-.1h.36c.07.37.13.7.2,1l.1.37Zm1,0c-.12.58-.23.78-.32.85H44.9v-.11l0-.08-.07-.19v-.16L44.73,51l-.11-.45L44.5,50v-.42h1.23v.37h0v.3h0v.23Zm.79-1.17v.18a4.57,4.57,0,0,1-.22.62l-.1.16a.29.29,0,0,1-.31.17v-.33c0-.28.07-.61.12-1h.5Zm.5-.85c0,.45-.17.5-.37.53H46c-.48-.66-.1-1.06,0-1.13h.29a.57.57,0,0,1,.22.53Zm.35-.79a7.92,7.92,0,0,0-1.37-2.35l-.14-.23c-.17-.24-.36-.46-.55-.68l-.27-.34-.26-.32-.14-.18L44,43.67l-.08-.15a4.32,4.32,0,0,1-.32-.69h.09a.25.25,0,0,0,.23-.1s.15-.17,0-1l.24.33.09.13.16.22.23.33h0l.11.16c.25.36.5.74.8,1.14s.36.5.55.76a4.35,4.35,0,0,1,.75,1.45h0a4.48,4.48,0,0,1,.1,1.67Z" transform="translate(-0.02 0.01)"/></g></g></g></g></g></svg>