<svg id="Capa_1" data-name="Capa 1" xmlns="http://www.w3.org/2000/svg" viewBox="0 0 113.43 113.44"><defs><style>.cls-1,.cls-52{fill:#fff;}.cls-1{fill-opacity:0;}.cls-2{fill:#fafafa;opacity:0.02;}.cls-10,.cls-11,.cls-12,.cls-13,.cls-14,.cls-15,.cls-16,.cls-17,.cls-18,.cls-19,.cls-2,.cls-20,.cls-21,.cls-22,.cls-23,.cls-24,.cls-25,.cls-26,.cls-27,.cls-28,.cls-29,.cls-3,.cls-30,.cls-31,.cls-32,.cls-33,.cls-34,.cls-35,.cls-36,.cls-37,.cls-38,.cls-39,.cls-4,.cls-40,.cls-41,.cls-42,.cls-43,.cls-44,.cls-45,.cls-46,.cls-47,.cls-48,.cls-49,.cls-5,.cls-50,.cls-51,.cls-6,.cls-7,.cls-8,.cls-9{isolation:isolate;}.cls-3{fill:#f5f5f5;opacity:0.04;}.cls-4{fill:#f0f0f0;opacity:0.06;}.cls-5{fill:#ebebeb;opacity:0.08;}.cls-6{fill:#e6e6e6;opacity:0.1;}.cls-7{fill:#e1e1e1;opacity:0.12;}.cls-8{fill:#dcdcdc;opacity:0.14;}.cls-9{fill:#d7d7d7;opacity:0.16;}.cls-10{fill:#d2d2d2;opacity:0.18;}.cls-11{fill:#cdcdcd;opacity:0.2;}.cls-12{fill:#c8c8c8;opacity:0.22;}.cls-13{fill:#c3c3c3;opacity:0.23;}.cls-14{fill:#bebebe;opacity:0.25;}.cls-15{fill:#b9b9b9;opacity:0.28;}.cls-16{fill:#b4b4b4;opacity:0.29;}.cls-17{fill:#afafaf;opacity:0.31;}.cls-18{fill:#aaa;opacity:0.33;}.cls-19{fill:#a5a5a5;opacity:0.35;}.cls-20{fill:#a0a0a0;opacity:0.37;}.cls-21{fill:#9b9b9b;opacity:0.39;}.cls-22{fill:#969696;opacity:0.41;}.cls-23{fill:#919191;opacity:0.43;}.cls-24{fill:#8c8c8c;opacity:0.45;}.cls-25{fill:#878787;opacity:0.47;}.cls-26{fill:#828282;opacity:0.49;}.cls-27{fill:#7d7d7d;opacity:0.51;}.cls-28{fill:#787878;opacity:0.53;}.cls-29{fill:#737373;opacity:0.55;}.cls-30{fill:#6e6e6e;opacity:0.57;}.cls-31{fill:#696969;opacity:0.59;}.cls-32{fill:#646464;opacity:0.61;}.cls-33{fill:#5f5f5f;opacity:0.63;}.cls-34{fill:#5a5a5a;opacity:0.65;}.cls-35{fill:#555;opacity:0.67;}.cls-36{fill:#505050;opacity:0.69;}.cls-37{fill:#4b4b4b;opacity:0.71;}.cls-38{fill:#464646;opacity:0.73;}.cls-39{fill:#414141;opacity:0.75;}.cls-40{fill:#3c3c3c;opacity:0.76;}.cls-41{fill:#373737;opacity:0.78;}.cls-42{fill:#323232;opacity:0.8;}.cls-43{fill:#2d2d2d;opacity:0.82;}.cls-44{fill:#282828;opacity:0.84;}.cls-45{fill:#232323;opacity:0.86;}.cls-46{fill:#1e1e1e;opacity:0.88;}.cls-47{fill:#191919;opacity:0.9;}.cls-48{fill:#141414;opacity:0.92;}.cls-49{fill:#0f0f0f;opacity:0.94;}.cls-50{fill:#0a0a0a;opacity:0.96;}.cls-51{fill:#050505;opacity:0.98;}.cls-53{fill:#b12233;}.cls-54{fill:#3c3b6d;}</style></defs><g id="Grupo_6696" data-name="Grupo 6696"><g id="Grupo_6654" data-name="Grupo 6654"><path id="Trazado_9495" data-name="Trazado 9495" class="cls-1" d="M719.92,366.08c23.93,23.94,26,60.77,4.66,82.15s-58.22,19.27-82.15-4.65-20.4-55.13,1-76.51S696,342.16,719.92,366.08Z" transform="translate(-625.89 -349.54)"/><path id="Trazado_9496" data-name="Trazado 9496" class="cls-2" d="M719.54,366.27c23.76,23.76,25.81,60.32,4.62,81.53s-57.79,19.13-81.54-4.62-20.32-54.8.89-76S695.79,342.51,719.54,366.27Z" transform="translate(-625.89 -349.54)"/><path id="Trazado_9497" data-name="Trazado 9497" class="cls-3" d="M719.16,366.45c23.58,23.58,25.64,59.89,4.59,80.94s-57.39,19-81-4.58-20.25-54.49.83-75.55S695.6,342.88,719.16,366.45Z" transform="translate(-625.89 -349.54)"/><path id="Trazado_9498" data-name="Trazado 9498" class="cls-4" d="M718.79,366.64c23.4,23.4,25.45,59.46,4.55,80.36s-57,18.85-80.36-4.55-20.18-54.16.74-75.08S695.4,343.24,718.79,366.64Z" transform="translate(-625.89 -349.54)"/><path id="Trazado_9499" data-name="Trazado 9499" class="cls-5" d="M718.44,366.83c23.24,23.23,25.26,59,4.51,79.76s-56.52,18.7-79.75-4.51-20.09-53.84.65-74.58S695.21,343.6,718.44,366.83Z" transform="translate(-625.89 -349.54)"/><path id="Trazado_9500" data-name="Trazado 9500" class="cls-6" d="M718.08,367c23.07,23.07,25.06,58.57,4.5,79.16s-56.11,18.57-79.19-4.5-20-53.51.57-74.1S695,343.94,718.08,367Z" transform="translate(-625.89 -349.54)"/><path id="Trazado_9501" data-name="Trazado 9501" class="cls-7" d="M717.71,367.19c22.88,22.9,24.88,58.15,4.44,78.59s-55.7,18.45-78.58-4.45-19.93-53.19.51-73.63S694.81,344.32,717.71,367.19Z" transform="translate(-625.89 -349.54)"/><path id="Trazado_9502" data-name="Trazado 9502" class="cls-8" d="M717.34,367.38c22.7,22.72,24.68,57.71,4.41,78s-55.29,18.31-78-4.41-19.86-52.86.42-73.15S694.62,344.67,717.34,367.38Z" transform="translate(-625.89 -349.54)"/><path id="Trazado_9503" data-name="Trazado 9503" class="cls-9" d="M717,367.57c22.55,22.55,24.52,57.27,4.4,77.39s-54.86,18.17-77.41-4.38-19.77-52.54.35-72.66S694.4,345.07,717,367.57Z" transform="translate(-625.89 -349.54)"/><path id="Trazado_9504" data-name="Trazado 9504" class="cls-10" d="M716.59,367.75c22.38,22.37,24.32,56.83,4.36,76.81s-54.44,18-76.81-4.34-19.69-52.2.28-72.18S694.22,345.39,716.59,367.75Z" transform="translate(-625.89 -349.54)"/><path id="Trazado_9505" data-name="Trazado 9505" class="cls-11" d="M716.21,367.94c22.21,22.2,24.14,56.4,4.32,76.22s-54,17.89-76.21-4.31-19.63-51.87.19-71.71A48.63,48.63,0,0,1,713.22,365C714.26,365.92,715.26,366.91,716.21,367.94Z" transform="translate(-625.89 -349.54)"/><path id="Trazado_9506" data-name="Trazado 9506" class="cls-12" d="M715.84,368.13c22,22,24,55.95,4.29,75.62s-53.59,17.78-75.63-4.25a48.4,48.4,0,0,1-2.74-68.38c.91-1,1.87-1.94,2.86-2.84a48.33,48.33,0,0,1,68.29-3.07C713.93,366.14,714.91,367.11,715.84,368.13Z" transform="translate(-625.89 -349.54)"/><path id="Trazado_9507" data-name="Trazado 9507" class="cls-13" d="M715.47,368.31c21.86,21.86,23.76,55.54,4.26,75s-53.18,17.61-75-4.26a48,48,0,0,1-2.8-67.87q1.36-1.49,2.85-2.85a48,48,0,0,1,67.89-2.89C713.62,366.38,714.57,367.33,715.47,368.31Z" transform="translate(-625.89 -349.54)"/><path id="Trazado_9508" data-name="Trazado 9508" class="cls-14" d="M715.11,368.5c21.68,21.68,23.56,55.07,4.22,74.44s-52.75,17.44-74.44-4.22a47.76,47.76,0,0,1-2.76-67.49c.87-1,1.78-1.86,2.72-2.73a47.78,47.78,0,0,1,67.51-2.75C713.31,366.63,714.23,367.55,715.11,368.5Z" transform="translate(-625.89 -349.54)"/><path id="Trazado_9509" data-name="Trazado 9509" class="cls-15" d="M714.74,368.69c21.51,21.51,23.39,54.63,4.18,73.84s-52.33,17.33-73.86-4.18a47.46,47.46,0,0,1-2.8-67.06c.86-.94,1.76-1.84,2.69-2.71A47.49,47.49,0,0,1,712.06,366C713,366.87,713.88,367.76,714.74,368.69Z" transform="translate(-625.89 -349.54)"/><path id="Trazado_9510" data-name="Trazado 9510" class="cls-16" d="M714.37,368.87c21.34,21.35,23.2,54.21,4.15,73.26s-51.93,17.19-73.26-4.14a47.17,47.17,0,0,1-2.79-66.66c.84-.91,1.7-1.78,2.6-2.62a47.19,47.19,0,0,1,66.69-2.46C712.66,367.09,713.53,368,714.37,368.87Z" transform="translate(-625.89 -349.54)"/><path id="Trazado_9511" data-name="Trazado 9511" class="cls-17" d="M714,369.06c21.15,21.15,23,53.77,4.11,72.66s-51.48,17.09-72.66-4.09a46.88,46.88,0,0,1-2.82-66.24c.82-.89,1.67-1.75,2.55-2.57a46.91,46.91,0,0,1,66.31-2.29C712.36,367.34,713.19,368.18,714,369.06Z" transform="translate(-625.89 -349.54)"/><path id="Trazado_9512" data-name="Trazado 9512" class="cls-18" d="M713.63,369.28c21,21,22.81,53.31,4.08,72.06s-51.09,16.92-72.09-4.07a46.6,46.6,0,0,1-2.8-65.83c.79-.86,1.62-1.69,2.47-2.5a46.62,46.62,0,0,1,65.88-2.15Q712.45,368,713.63,369.28Z" transform="translate(-625.89 -349.54)"/><path id="Trazado_9513" data-name="Trazado 9513" class="cls-19" d="M713.25,369.42c20.81,20.82,22.65,52.89,4,71.49s-50.63,16.78-71.49-4a46.3,46.3,0,0,1-2.8-65.42q1.15-1.26,2.4-2.43a46.3,46.3,0,0,1,65.44-2C711.68,367.77,712.48,368.58,713.25,369.42Z" transform="translate(-625.89 -349.54)"/><path id="Trazado_9514" data-name="Trazado 9514" class="cls-20" d="M712.87,369.65c20.67,20.65,22.46,52.45,4,70.89s-50.24,16.64-70.89-4a46,46,0,0,1-2.81-65c.74-.81,1.52-1.6,2.32-2.35a46,46,0,0,1,65.05-1.85C711.36,368.06,712.13,368.84,712.87,369.65Z" transform="translate(-625.89 -349.54)"/><path id="Trazado_9515" data-name="Trazado 9515" class="cls-21" d="M712.5,369.84c20.49,20.47,22.27,52,4,70.29s-49.82,16.5-70.33-4a45.75,45.75,0,0,1-2.77-64.63c.71-.78,1.45-1.53,2.21-2.25a45.72,45.72,0,0,1,64.63-1.76C711,368.27,711.77,369,712.5,369.84Z" transform="translate(-625.89 -349.54)"/><path id="Trazado_9516" data-name="Trazado 9516" class="cls-22" d="M712.14,370c20.31,20.32,22.07,51.58,3.94,69.71s-49.4,16.34-69.7-3.91a45.47,45.47,0,0,1-2.78-64.23q1-1.11,2.13-2.16A45.44,45.44,0,0,1,710,367.83C710.73,368.53,711.45,369.26,712.14,370Z" transform="translate(-625.89 -349.54)"/><path id="Trazado_9517" data-name="Trazado 9517" class="cls-23" d="M711.77,370.21c20.13,20.14,21.89,51.14,3.93,69.11s-49,16.23-69.11-3.93a45.15,45.15,0,0,1-2.8-63.79c.66-.72,1.35-1.43,2.06-2.11a45.15,45.15,0,0,1,63.83-1.41C710.4,368.77,711.1,369.48,711.77,370.21Z" transform="translate(-625.89 -349.54)"/><path id="Trazado_9518" data-name="Trazado 9518" class="cls-24" d="M711.39,370.4c20,20,21.71,50.7,3.89,68.52s-48.57,16.07-68.53-3.87a44.87,44.87,0,0,1-2.78-63.4c.65-.71,1.32-1.39,2-2.06a44.89,44.89,0,0,1,63.46-1.2Q710.45,369.37,711.39,370.4Z" transform="translate(-625.89 -349.54)"/><path id="Trazado_9519" data-name="Trazado 9519" class="cls-25" d="M711,370.58c19.79,19.79,21.51,50.28,3.85,67.94s-48.15,15.93-67.94-3.84a44.58,44.58,0,0,1-2.79-63c.62-.68,1.26-1.34,1.92-2a44.59,44.59,0,0,1,63-1.13Q710.1,369.56,711,370.58Z" transform="translate(-625.89 -349.54)"/><path id="Trazado_9520" data-name="Trazado 9520" class="cls-26" d="M710.66,370.77c19.61,19.62,21.32,49.82,3.81,67.34s-47.73,15.81-67.33-3.81a44.27,44.27,0,0,1-2.82-62.56c.6-.66,1.22-1.3,1.87-1.92a44.29,44.29,0,0,1,62.62-.95C709.45,369.49,710.06,370.12,710.66,370.77Z" transform="translate(-625.89 -349.54)"/><path id="Trazado_9521" data-name="Trazado 9521" class="cls-27" d="M710.29,371c19.43,19.44,21.14,49.38,3.78,66.74s-47.31,15.68-66.76-3.78a44,44,0,0,1-2.77-62.2c.57-.61,1.15-1.22,1.75-1.8a44,44,0,0,1,62.23-.79Q709.44,370,710.29,371Z" transform="translate(-625.89 -349.54)"/><path id="Trazado_9522" data-name="Trazado 9522" class="cls-28" d="M709.93,371.14c19.25,19.27,20.94,48.95,3.74,66.16s-46.89,15.53-66.16-3.75a43.72,43.72,0,0,1-2.82-61.76c.54-.6,1.11-1.18,1.69-1.75a43.74,43.74,0,0,1,61.86-.64C708.82,370,709.38,370.54,709.93,371.14Z" transform="translate(-625.89 -349.54)"/><path id="Trazado_9523" data-name="Trazado 9523" class="cls-29" d="M709.55,371.33c19.09,19.13,20.76,48.52,3.71,65.56s-46.48,15.4-65.56-3.73A43.77,43.77,0,1,1,707,368.8C707.9,369.61,708.75,370.45,709.55,371.33Z" transform="translate(-625.89 -349.54)"/><path id="Trazado_9524" data-name="Trazado 9524" class="cls-30" d="M709.17,371.53c18.92,18.92,20.57,48.06,3.69,65s-46.08,15.26-65-3.67a43.37,43.37,0,0,1,58.92-63.67C707.61,369.91,708.41,370.71,709.17,371.53Z" transform="translate(-625.89 -349.54)"/><path id="Trazado_9525" data-name="Trazado 9525" class="cls-31" d="M708.8,371.7c18.76,18.77,20.4,47.64,3.65,64.39s-45.63,15.11-64.39-3.64a43,43,0,0,1,58.25-63.25c.86.8,1.69,1.62,2.49,2.48Z" transform="translate(-625.89 -349.54)"/><path id="Trazado_9526" data-name="Trazado 9526" class="cls-32" d="M708.43,371.89c18.57,18.57,20.21,47.2,3.62,63.79s-45.22,15-63.79-3.6a42.59,42.59,0,1,1,57.56-62.8c.9.83,1.77,1.7,2.6,2.6Z" transform="translate(-625.89 -349.54)"/><path id="Trazado_9527" data-name="Trazado 9527" class="cls-33" d="M708.06,372.08c18.42,18.4,20,46.76,3.59,63.19s-44.79,14.84-63.21-3.56A42.19,42.19,0,1,1,706,370c.73.67,1.43,1.38,2.1,2.1Z" transform="translate(-625.89 -349.54)"/><path id="Trazado_9528" data-name="Trazado 9528" class="cls-34" d="M707.69,372.26c18.24,18.24,19.82,46.33,3.55,62.61s-44.37,14.69-62.61-3.55a41.82,41.82,0,0,1,56.27-61.88c1,.89,1.92,1.83,2.81,2.81Z" transform="translate(-625.89 -349.54)"/><path id="Trazado_9529" data-name="Trazado 9529" class="cls-35" d="M707.33,372.46c18.06,18.07,19.64,45.88,3.51,62S666.9,449,648.83,431a41.43,41.43,0,0,1,55.6-61.43q1.53,1.39,2.91,2.91Z" transform="translate(-625.89 -349.54)"/><path id="Trazado_9530" data-name="Trazado 9530" class="cls-36" d="M707,372.65c17.89,17.89,19.45,45.45,3.47,61.42s-43.54,14.45-61.43-3.48a41,41,0,1,1,54.65-61.25,42.81,42.81,0,0,1,3.3,3.3Z" transform="translate(-625.89 -349.54)"/><path id="Trazado_9531" data-name="Trazado 9531" class="cls-37" d="M706.58,372.83c17.72,17.73,19.26,45,3.45,60.83S666.9,448,649.19,430.22a41.15,41.15,0,0,1-2.76-58.13c.32-.35.64-.69,1-1a41.16,41.16,0,0,1,58.2.72C705.93,372.12,706.26,372.47,706.58,372.83Z" transform="translate(-625.89 -349.54)"/><path id="Trazado_9532" data-name="Trazado 9532" class="cls-38" d="M706.21,373c17.54,17.55,19.07,44.56,3.41,60.24s-42.7,14.14-60.24-3.41a40.87,40.87,0,0,1-2.78-57.73c.29-.33.6-.65.9-1a40.87,40.87,0,0,1,57.8.89C705.61,372.37,705.91,372.69,706.21,373Z" transform="translate(-625.89 -349.54)"/><path id="Trazado_9533" data-name="Trazado 9533" class="cls-39" d="M705.85,373.22c17.36,17.37,18.87,44.12,3.37,59.63s-42.28,14-59.64-3.37-17.44-42.71-1.93-58.22S688.47,355.84,705.85,373.22Z" transform="translate(-625.89 -349.54)"/><path id="Trazado_9534" data-name="Trazado 9534" class="cls-40" d="M705.46,373.39c17.2,17.2,18.71,43.7,3.37,59.08s-41.86,13.86-59.07-3.34-17.38-42.37-2-57.73S688.27,356.18,705.46,373.39Z" transform="translate(-625.89 -349.54)"/><path id="Trazado_9535" data-name="Trazado 9535" class="cls-41" d="M705.09,373.58c17,17,18.52,43.27,3.32,58.46s-41.44,13.73-58.47-3.3-17.3-42.05-2.11-57.25S688.06,356.56,705.09,373.58Z" transform="translate(-625.89 -349.54)"/><path id="Trazado_9536" data-name="Trazado 9536" class="cls-42" d="M704.72,373.78c16.88,16.88,18.33,42.8,3.29,57.86s-41,13.59-57.89-3.26S632.9,386.66,648,371.6,687.87,356.91,704.72,373.78Z" transform="translate(-625.89 -349.54)"/><path id="Trazado_9537" data-name="Trazado 9537" class="cls-43" d="M704.35,374c16.69,16.7,18.13,42.39,3.25,57.29S667,444.68,650.31,428s-17.15-41.4-2.25-56.3S687.67,357.28,704.35,374Z" transform="translate(-625.89 -349.54)"/><path id="Trazado_9538" data-name="Trazado 9538" class="cls-44" d="M704,374.15c16.52,16.52,18,41.94,3.22,56.69s-40.19,13.3-56.69-3.2-17.08-41.07-2.33-55.81S687.47,357.63,704,374.15Z" transform="translate(-625.89 -349.54)"/><path id="Trazado_9539" data-name="Trazado 9539" class="cls-45" d="M703.61,374.33c16.32,16.32,17.77,41.51,3.18,56.1s-39.76,13.16-56.11-3.18-17-40.73-2.39-55.32S687.27,358,703.61,374.33Z" transform="translate(-625.89 -349.54)"/><path id="Trazado_9540" data-name="Trazado 9540" class="cls-46" d="M703.25,374.51c16.16,16.17,17.57,41.08,3.14,55.51s-39.34,13-55.51-3.14S634,386.48,648.41,372,687.08,358.34,703.25,374.51Z" transform="translate(-625.89 -349.54)"/><path id="Trazado_9541" data-name="Trazado 9541" class="cls-47" d="M702.88,374.71c16,16,17.38,40.62,3.11,54.91s-38.93,12.9-54.92-3.11-16.87-40.08-2.56-54.35S686.88,358.72,702.88,374.71Z" transform="translate(-625.89 -349.54)"/><path id="Trazado_9542" data-name="Trazado 9542" class="cls-48" d="M702.5,374.9c15.82,15.82,17.21,40.19,3.08,54.32s-38.5,12.76-54.33-3.08-16.77-39.75-2.62-53.88S686.67,359.07,702.5,374.9Z" transform="translate(-625.89 -349.54)"/><path id="Trazado_9543" data-name="Trazado 9543" class="cls-49" d="M702.14,375.08c15.64,15.66,17,39.76,3,53.73s-38.08,12.62-53.74-3-16.68-39.42-2.71-53.41S686.48,359.44,702.14,375.08Z" transform="translate(-625.89 -349.54)"/><path id="Trazado_9544" data-name="Trazado 9544" class="cls-50" d="M701.77,375.27c15.46,15.48,16.81,39.33,3,53.14s-37.65,12.48-53.14-3-16.61-39.09-2.81-52.88S686.28,359.78,701.77,375.27Z" transform="translate(-625.89 -349.54)"/><path id="Trazado_9545" data-name="Trazado 9545" class="cls-51" d="M701.39,375.47c15.32,15.3,16.64,38.87,3,52.54s-37.25,12.34-52.56-3S635.29,386.27,649,372.6,686.08,360.16,701.39,375.47Z" transform="translate(-625.89 -349.54)"/><path id="Trazado_9546" data-name="Trazado 9546" d="M701,375.63c15.15,15.15,16.47,38.45,3,52s-36.83,12.2-52-2.94-16.44-38.45-2.93-52S685.88,360.51,701,375.63Z" transform="translate(-625.89 -349.54)"/></g><g id="Grupo_6667" data-name="Grupo 6667"><g id="Grupo_6655" data-name="Grupo 6655"><path id="Trazado_9547" data-name="Trazado 9547" class="cls-52" d="M719.64,417.72a47,47,0,0,1-3.76,7.17H637.33a44.9,44.9,0,0,1-3.76-7.17Z" transform="translate(-625.89 -349.54)"/><path id="Trazado_9548" data-name="Trazado 9548" class="cls-53" d="M722,410.56a46,46,0,0,1-2.33,7.16H633.57a42.77,42.77,0,0,1-2.33-7.16Z" transform="translate(-625.89 -349.54)"/><path id="Trazado_9549" data-name="Trazado 9549" class="cls-52" d="M723.09,403.37a47.05,47.05,0,0,1-1.13,7.18H631.24a45.85,45.85,0,0,1-1.13-7.18Z" transform="translate(-625.89 -349.54)"/><path id="Trazado_9550" data-name="Trazado 9550" class="cls-53" d="M715.88,424.89a45.83,45.83,0,0,1-5.68,7.19H643a46.17,46.17,0,0,1-5.66-7.19Z" transform="translate(-625.89 -349.54)"/><path id="Trazado_9551" data-name="Trazado 9551" class="cls-53" d="M701.42,439.25a46.54,46.54,0,0,1-49.64,0Z" transform="translate(-625.89 -349.54)"/><path id="Trazado_9552" data-name="Trazado 9552" class="cls-52" d="M710.21,432.08a47.28,47.28,0,0,1-8.79,7.17H651.78a47,47,0,0,1-8.79-7.17Z" transform="translate(-625.89 -349.54)"/><path id="Trazado_9553" data-name="Trazado 9553" class="cls-52" d="M710.21,367.52H643a46.67,46.67,0,0,1,8.79-7.19h49.64A46.67,46.67,0,0,1,710.21,367.52Z" transform="translate(-625.89 -349.54)"/><path id="Trazado_9554" data-name="Trazado 9554" class="cls-53" d="M701.42,360.33H651.78a47.2,47.2,0,0,1,4.62-2.56l.44-.2c.54-.26,1.08-.5,1.63-.73l.73-.3a46.28,46.28,0,0,1,17.38-3.38h0A46.46,46.46,0,0,1,701.42,360.33Z" transform="translate(-625.89 -349.54)"/><path id="Trazado_9555" data-name="Trazado 9555" class="cls-53" d="M715.88,374.69H637.34c.4-.65.84-1.28,1.28-1.9l.1-.15a45.53,45.53,0,0,1,4.28-5.12h67.21A46.2,46.2,0,0,1,715.88,374.69Z" transform="translate(-625.89 -349.54)"/><path id="Trazado_9556" data-name="Trazado 9556" class="cls-53" d="M722,389H631.24a42.77,42.77,0,0,1,2.33-7.16h86.08A46.4,46.4,0,0,1,722,389Z" transform="translate(-625.89 -349.54)"/><path id="Trazado_9557" data-name="Trazado 9557" class="cls-52" d="M719.64,381.86H633.57c.18-.46.39-.94.6-1.39.49-1.09,1-2.18,1.63-3.24.47-.86,1-1.72,1.53-2.55h78.55A48.06,48.06,0,0,1,719.64,381.86Z" transform="translate(-625.89 -349.54)"/><path id="Trazado_9558" data-name="Trazado 9558" class="cls-52" d="M723.09,396.2h-93l.07-.88c.09-.88.19-1.74.33-2.62a36,36,0,0,1,.72-3.67H722A45.68,45.68,0,0,1,723.09,396.2Z" transform="translate(-625.89 -349.54)"/><path id="Trazado_9559" data-name="Trazado 9559" class="cls-53" d="M723.25,399.78c0,1.21,0,2.41-.14,3.59h-93c-.09-1.18-.14-2.38-.14-3.59s0-2.39.14-3.58h93C723.18,397.39,723.25,398.59,723.25,399.78Z" transform="translate(-625.89 -349.54)"/></g><g id="Grupo_6666" data-name="Grupo 6666"><path id="Trazado_9560" data-name="Trazado 9560" class="cls-54" d="M676.59,353.16v50.21H630.11c-.09-1.18-.14-2.38-.14-3.59s0-2.39.14-3.58l.07-.88c.09-.88.19-1.74.33-2.62a36,36,0,0,1,.72-3.67,43.22,43.22,0,0,1,2.34-7.17c.17-.45.38-.93.59-1.39.49-1.09,1-2.17,1.63-3.23.48-.86,1-1.72,1.53-2.55.41-.65.85-1.28,1.29-1.9l.1-.15a46.53,46.53,0,0,1,4.27-5.12,47.12,47.12,0,0,1,8.81-7.19,49.64,49.64,0,0,1,4.62-2.56l.44-.2c.55-.26,1.09-.5,1.63-.73l.74-.3A46.19,46.19,0,0,1,676.59,353.16Z" transform="translate(-625.89 -349.54)"/><g id="Grupo_6665" data-name="Grupo 6665"><g id="Grupo_6656" data-name="Grupo 6656"><path id="Trazado_9561" data-name="Trazado 9561" class="cls-52" d="M670.69,355.54l.66,2h2.12l-1.69,1.25.65,2-1.71-1.25L669,360.83l.65-2-1.71-1.25h2.12Z" transform="translate(-625.89 -349.54)"/><path id="Trazado_9562" data-name="Trazado 9562" class="cls-52" d="M660.44,360.34l.15.51-.68-.51-1-.76-1,.74-.69.51.16-.51.49-1.51-1.42-1.06.44-.19h1.39l.24-.73.74-.3.33,1h2.13L660,358.81Z" transform="translate(-625.89 -349.54)"/></g><g id="Grupo_6657" data-name="Grupo 6657"><path id="Trazado_9563" data-name="Trazado 9563" class="cls-52" d="M670.69,365.59l.66,2h2.12l-1.69,1.24.65,2-1.71-1.24L669,370.87l.65-2-1.71-1.24h2.12Z" transform="translate(-625.89 -349.54)"/><path id="Trazado_9564" data-name="Trazado 9564" class="cls-52" d="M658.88,365.59l.65,2h2.16L660,368.85l.66,2-1.78-1.24-1.69,1.24.65-2-1.71-1.24h2.12Z" transform="translate(-625.89 -349.54)"/><path id="Trazado_9565" data-name="Trazado 9565" class="cls-52" d="M647.09,365.59l.65,2h2.12l-1.72,1.24.66,2-1.71-1.24-1.72,1.24.65-2-1.71-1.24h2.12Z" transform="translate(-625.89 -349.54)"/></g><g id="Grupo_6658" data-name="Grupo 6658"><path id="Trazado_9566" data-name="Trazado 9566" class="cls-52" d="M670.69,375.63l.66,2h2.12l-1.69,1.24.65,2-1.71-1.25L669,380.91l.65-2-1.74-1.27H670Z" transform="translate(-625.89 -349.54)"/><path id="Trazado_9567" data-name="Trazado 9567" class="cls-52" d="M658.87,375.63l.66,2h2.16L660,378.89l.66,2-1.79-1.25-1.69,1.25.66-2-1.73-1.27h2.12Z" transform="translate(-625.89 -349.54)"/><path id="Trazado_9568" data-name="Trazado 9568" class="cls-52" d="M647.09,375.63l.65,2h2.12l-1.72,1.24.66,2-1.71-1.25-1.72,1.25.65-2-1.71-1.27h2.12Z" transform="translate(-625.89 -349.54)"/><path id="Trazado_9569" data-name="Trazado 9569" class="cls-52" d="M636.34,378.89l.66,2-1.72-1.25-1.13.81c.49-1.09,1-2.17,1.63-3.23l.13.4h2.14Z" transform="translate(-625.89 -349.54)"/></g><g id="Grupo_6659" data-name="Grupo 6659"><path id="Trazado_9570" data-name="Trazado 9570" class="cls-52" d="M670.69,385.67l.65,2h2.12l-1.69,1.25.66,2-1.72-1.24L669,391l.66-2-1.72-1.25h2.12Z" transform="translate(-625.89 -349.54)"/><path id="Trazado_9571" data-name="Trazado 9571" class="cls-52" d="M658.87,385.67l.66,2h2.16L660,388.94l.66,2-1.79-1.25L657.18,391l.66-2-1.72-1.24h2.12Z" transform="translate(-625.89 -349.54)"/><path id="Trazado_9572" data-name="Trazado 9572" class="cls-52" d="M647.08,385.67l.65,2h2.12l-1.71,1.25.66,2-1.72-1.24L645.36,391l.66-2-1.72-1.25h2.12Z" transform="translate(-625.89 -349.54)"/><path id="Trazado_9573" data-name="Trazado 9573" class="cls-52" d="M635.28,385.67l.65,2h2.13l-1.72,1.25.66,2-1.72-1.24L633.57,391l.64-2-1.71-1.25h2.12Z" transform="translate(-625.89 -349.54)"/></g><g id="Grupo_6660" data-name="Grupo 6660"><path id="Trazado_9574" data-name="Trazado 9574" class="cls-52" d="M670.69,395.71l.65,2h2.12L671.77,399l.66,2-1.72-1.25L669,401l.66-2-1.72-1.25h2.12Z" transform="translate(-625.89 -349.54)"/><path id="Trazado_9575" data-name="Trazado 9575" class="cls-52" d="M658.87,395.71l.66,2h2.16L660,399l.66,2-1.79-1.25L657.18,401l.66-2-1.72-1.25h2.12Z" transform="translate(-625.89 -349.54)"/><path id="Trazado_9576" data-name="Trazado 9576" class="cls-52" d="M647.08,395.71l.65,2h2.12L648.14,399l.66,2-1.72-1.25L645.36,401l.66-2-1.72-1.25h2.12Z" transform="translate(-625.89 -349.54)"/><path id="Trazado_9577" data-name="Trazado 9577" class="cls-52" d="M635.28,395.71l.65,2h2.13L636.34,399l.66,2-1.72-1.25L633.57,401l.65-2-1.72-1.25h2.12Z" transform="translate(-625.89 -349.54)"/></g><g id="Grupo_6661" data-name="Grupo 6661"><path id="Trazado_9578" data-name="Trazado 9578" class="cls-52" d="M664.79,390.68l.65,2h2.12l-1.69,1.24.65,2-1.71-1.25L663.09,396l.66-2L662,392.7h2.12Z" transform="translate(-625.89 -349.54)"/><path id="Trazado_9579" data-name="Trazado 9579" class="cls-52" d="M653,390.68l.65,2h2.13l-1.69,1.24.66,2L653,394.71,651.29,396l.66-2-1.71-1.24h2.09Z" transform="translate(-625.89 -349.54)"/><path id="Trazado_9580" data-name="Trazado 9580" class="cls-52" d="M641.18,390.68l.65,2H644l-1.71,1.24.65,2-1.71-1.25L639.46,396l.65-2-1.72-1.23h2.12Z" transform="translate(-625.89 -349.54)"/><path id="Trazado_9581" data-name="Trazado 9581" class="cls-52" d="M630.44,394l.68,2-.91-.65c.09-.88.19-1.74.33-2.61h1.63Z" transform="translate(-625.89 -349.54)"/></g><g id="Grupo_6662" data-name="Grupo 6662"><path id="Trazado_9582" data-name="Trazado 9582" class="cls-52" d="M664.79,380.65l.65,2h2.12l-1.69,1.25.65,2-1.71-1.25-1.72,1.25.66-2L662,382.67h2.12Z" transform="translate(-625.89 -349.54)"/><path id="Trazado_9583" data-name="Trazado 9583" class="cls-52" d="M653,380.65l.65,2h2.13l-1.69,1.25.66,2L653,384.69l-1.72,1.25.66-2-1.71-1.25h2.09Z" transform="translate(-625.89 -349.54)"/><path id="Trazado_9584" data-name="Trazado 9584" class="cls-52" d="M641.18,380.65l.65,2H644l-1.71,1.25.65,2-1.71-1.25-1.72,1.25.65-2-1.72-1.25h2.12Z" transform="translate(-625.89 -349.54)"/></g><g id="Grupo_6663" data-name="Grupo 6663"><path id="Trazado_9585" data-name="Trazado 9585" class="cls-52" d="M664.79,370.61l.65,2h2.12l-1.69,1.25.65,2-1.71-1.25-1.72,1.25.66-2L662,372.63h2.12Z" transform="translate(-625.89 -349.54)"/><path id="Trazado_9586" data-name="Trazado 9586" class="cls-52" d="M653,370.61l.65,2h2.13l-1.69,1.25.66,2L653,374.65l-1.72,1.25.66-2-1.71-1.25h2.09Z" transform="translate(-625.89 -349.54)"/><path id="Trazado_9587" data-name="Trazado 9587" class="cls-52" d="M642.48,374.68l.4,1.21-1.69-1.21-.05,0,0,0-1.69,1.21.4-1.21.26-.8-1.5-1.09.11-.15h1.79l.66-2,.65,2h2.13l-1.72,1.24Z" transform="translate(-625.89 -349.54)"/></g><g id="Grupo_6664" data-name="Grupo 6664"><path id="Trazado_9588" data-name="Trazado 9588" class="cls-52" d="M664.79,360.57l.65,2h2.13l-1.69,1.25.65,2-1.72-1.24-1.71,1.24.65-2L662,362.59h2.13Z" transform="translate(-625.89 -349.54)"/><path id="Trazado_9589" data-name="Trazado 9589" class="cls-52" d="M653,360.57l.65,2h2.13l-1.69,1.25.66,2L653,364.62l-1.72,1.24.66-2-1.71-1.25h2.09Z" transform="translate(-625.89 -349.54)"/></g></g></g></g></g></svg>