<svg id="Capa_1" data-name="Capa 1" xmlns="http://www.w3.org/2000/svg" viewBox="0 0 156.62 156.65"><defs><style>.cls-1{fill:#2d3b89;fill-rule:evenodd;isolation:isolate;}.cls-1,.cls-2{opacity:0.3;}.cls-3{fill:#f07e00;}.cls-4{fill:none;stroke:#f07e00;}</style></defs><path id="Trazado_10311" data-name="Trazado 10311" class="cls-1" d="M755.75,379,729.55,399a9.74,9.74,0,0,0-3.54,7.48,10.36,10.36,0,0,0,.33,2.48l10.47,35.27c-.27-.23-.36-.07-.15.58a13.12,13.12,0,0,1-20.08,14.63l-4.55-3.2h0a5.4,5.4,0,0,1,3-9.91,5.31,5.31,0,0,1,3.37,1.21h0l1.39,1a3.5,3.5,0,0,0,1.93.58,3.67,3.67,0,0,0,3.67-3.67h0a3.39,3.39,0,0,0-.12-1,.32.32,0,0,1,0-.19l-9.68-33.53a19.52,19.52,0,0,1,7-20.81s.06-.07.1-.1l25-19.28a3.67,3.67,0,0,0-2.22-6.59c-.25,0-.34,0-.29,0H714.22a19.56,19.56,0,0,1-18.06-13.11l-10.39-29.65a3.07,3.07,0,0,0-.68-1.12,3.24,3.24,0,0,0-4.59,0,3.16,3.16,0,0,0-.8,1.29c0,.08,0,0-.05.05l-10.3,29.44A19.58,19.58,0,0,1,651.29,364H620.41s0,0-.3,0a3.67,3.67,0,0,0-2.21,6.6l25,19.27a.94.94,0,0,1,.1.1,19.53,19.53,0,0,1,7,20.81l-9.68,33.53a.46.46,0,0,1,0,.2,3,3,0,0,0-.12.94,3.67,3.67,0,0,0,3.67,3.67h0a3.5,3.5,0,0,0,1.93-.58l25.55-18.21h0a19.49,19.49,0,0,1,11.22-3.65h.18a5.08,5.08,0,0,1,0,10.16h0a4.84,4.84,0,0,0-2.75.86l-31,21.83a13.12,13.12,0,0,1-20.68-10.72,13.34,13.34,0,0,1,.58-3.92c.21-.65.12-.79-.15-.57l10.46-35.28a9.44,9.44,0,0,0,.33-2.48,9.72,9.72,0,0,0-3.54-7.48l-26.2-20.05a13.84,13.84,0,0,1,8.48-24.78h.16l32,0a9.76,9.76,0,0,0,8.77-6.36l13-37.06c-.67,2.62-1.06,4.13-.4,2.26a11.58,11.58,0,0,1,21.83-.1c.58,1.69.39.66-.14-1.42l12.78,36.33a9.78,9.78,0,0,0,8.78,6.37l32,0h.17a13.84,13.84,0,0,1,8.48,24.78Z" transform="translate(-604.38 -305.31)"/><g id="Elipse_142" data-name="Elipse 142" class="cls-2"><circle class="cls-3" cx="98.98" cy="133.54" r="5.79"/><circle class="cls-4" cx="98.98" cy="133.54" r="2.9"/></g></svg>