<svg id="Capa_1" data-name="Capa 1" xmlns="http://www.w3.org/2000/svg" viewBox="0 0 154.62 154.64"><defs><style>.cls-1{fill:#2d3b89;fill-rule:evenodd;}.cls-2{fill:#f07e00;}.cls-3{fill:none;stroke:#f07e00;}</style></defs><path id="Trazado_10254" data-name="Trazado 10254" class="cls-1" d="M754.82,379,729,398.84a9.64,9.64,0,0,0-3.49,7.39,10.1,10.1,0,0,0,.33,2.44l10.33,34.83c-.27-.23-.35-.08-.15.57a13,13,0,0,1-19.83,14.44l-4.48-3.15h0a5.33,5.33,0,1,1,6.28-8.6h0l1.36,1a3.53,3.53,0,0,0,1.91.57,3.62,3.62,0,0,0,3.63-3.62h0a3.59,3.59,0,0,0-.12-.93.48.48,0,0,1,0-.2l-9.55-33.1A19.29,19.29,0,0,1,722,389.9s.06-.06.1-.09l24.69-19a3.63,3.63,0,0,0-2.19-6.51c-.25,0-.33,0-.29,0H713.82A19.3,19.3,0,0,1,696,351.3L685.73,322a2.93,2.93,0,0,0-.67-1.11,3.22,3.22,0,0,0-4.54,0,3.12,3.12,0,0,0-.78,1.28c0,.07,0,0,0,.05L669.52,351.3a19.32,19.32,0,0,1-17.83,12.95H621.2s0,0-.29,0a3.63,3.63,0,0,0-2.18,6.52l24.68,19a.94.94,0,0,1,.1.1,19.27,19.27,0,0,1,6.86,20.54l-9.56,33.1a.34.34,0,0,1,0,.2,3.63,3.63,0,0,0,3.5,4.55h0a3.5,3.5,0,0,0,1.91-.57l25.22-18h0a19.28,19.28,0,0,1,11.09-3.6h.17a5,5,0,0,1,0,10h0A4.78,4.78,0,0,0,680,437l-30.63,21.55a13,13,0,0,1-19.84-14.45c.2-.64.12-.79-.16-.57l10.34-34.82a10.11,10.11,0,0,0,.33-2.45,9.61,9.61,0,0,0-3.5-7.38l-25.87-19.81a13.66,13.66,0,0,1,8.38-24.46h.15l31.58,0a9.66,9.66,0,0,0,8.66-6.29l12.86-36.58c-.65,2.58-1,4.08-.39,2.23a11.43,11.43,0,0,1,21.55-.09c.58,1.66.38.64-.13-1.41l12.61,35.86a9.63,9.63,0,0,0,8.66,6.29l31.57,0h.16a13.66,13.66,0,0,1,8.38,24.46Z" transform="translate(-605.38 -306.31)"/><g id="Elipse_88" data-name="Elipse 88"><circle class="cls-2" cx="96.28" cy="131.83" r="5.72"/><circle class="cls-3" cx="96.28" cy="131.83" r="2.86"/></g></svg>