<svg id="Capa_1" data-name="Capa 1" xmlns="http://www.w3.org/2000/svg" viewBox="0 0 348.93 65.08"><defs><style>.cls-1{fill:#09c;}.cls-2{fill:#f07e00;}</style></defs><g id="Trazado_9865" data-name="Trazado 9865"><path class="cls-1" d="M849.81,415H651.52c-1.64,0-3.21-1-4.41-2.91a14,14,0,0,1-2-7.48V363.07a15.13,15.13,0,0,1,2-7.71c1.22-2,2.79-3.11,4.4-3.11L849.81,352c1.6,0,3.16,1.14,4.4,3.22a15.8,15.8,0,0,1,2,7.83V404.6a14,14,0,0,1-2,7.48C853,414,851.45,415,849.81,415Z" transform="translate(-508.07 -351.12)"/><path class="cls-1" d="M849.81,352.82h0l-198.29.23c-1.31,0-2.66,1-3.72,2.72a14.39,14.39,0,0,0-1.87,7.3V404.6a13.23,13.23,0,0,0,1.85,7c.61,1,1.91,2.54,3.74,2.54H849.81c1.83,0,3.13-1.59,3.74-2.54a13.23,13.23,0,0,0,1.85-7V363.07a14.92,14.92,0,0,0-1.88-7.43c-1.07-1.79-2.42-2.82-3.71-2.82m0-1.6c4,0,7.19,5.67,7.19,11.85V404.6c0,6.18-3.22,11.19-7.19,11.19H651.52c-4,0-7.19-5-7.19-11.19V363.07c0-6.18,3.22-11.62,7.19-11.62Z" transform="translate(-508.07 -351.12)"/></g><path id="Trazado_9858" data-name="Trazado 9858" class="cls-2" d="M508.07,416.2V351.12H665l-18.16,32.32L665,416.2Z" transform="translate(-508.07 -351.12)"/></svg>