<svg id="Capa_1" data-name="Capa 1" xmlns="http://www.w3.org/2000/svg" viewBox="0 0 47.03 47.01"><defs><style>.cls-1{fill:#fff;fill-rule:evenodd;}</style></defs><path id="Trazado_10461" data-name="Trazado 10461" class="cls-1" d="M705.59,379.91V380a6.75,6.75,0,0,1-.14.76c-.05.18-.1.36-.16.54s-.07.21-.12.31a5.51,5.51,0,0,1-.47.9l0,0a5.69,5.69,0,0,1-1,1.18l-22.58,22.57a5.87,5.87,0,0,1-8.3,0l-12.46-12.46a5.87,5.87,0,0,1,0-8.31l17.07-17.06,0,0a1.47,1.47,0,0,1,2.09,2.06h0l-10.07,10.07-6.51,6.51a3.67,3.67,0,0,0,0,5.19h0l.45.46.06.06,10.38,10.39.07.05.46.46a3.68,3.68,0,0,0,5.19,0h0l5.71-5.71,16.12-16.12a4.34,4.34,0,0,0,1.22-2.46,3.39,3.39,0,0,0,.09-.78v-11a3.66,3.66,0,0,0-3.67-3.66H688a1.48,1.48,0,0,1-1.41-1.53A1.46,1.46,0,0,1,688,361h11.74a5.87,5.87,0,0,1,5.88,5.87V379a7.23,7.23,0,0,1,0,.93Zm-11.71-4.24a1.47,1.47,0,0,1,0,2.94,5.87,5.87,0,1,1,5.87-5.87h0a1.47,1.47,0,0,1-2.94,0,2.94,2.94,0,1,0-2.93,2.93Zm-11.75-8.81a1.47,1.47,0,1,1,1.47-1.47h0A1.47,1.47,0,0,1,682.13,366.86Z" transform="translate(-658.6 -360.99)"/></svg>