<svg id="Capa_1" data-name="Capa 1" xmlns="http://www.w3.org/2000/svg" viewBox="0 0 79.24 77.38"><defs><style>.cls-1{fill:#34353c;}.cls-1,.cls-2{fill-rule:evenodd;}.cls-2{fill:#fbbd06;}</style></defs><g id="Grupo_3664" data-name="Grupo 3664"><path id="Trazado_3753" data-name="Trazado 3753" class="cls-1" d="M703.68,407.76a2.43,2.43,0,1,1,2.43-2.43h0A2.43,2.43,0,0,1,703.68,407.76Zm-2.43-24.31h2.43a2.43,2.43,0,1,1,0,4.86h-.81a1.63,1.63,0,0,0-1.62,1.62v.81a2.43,2.43,0,1,1-4.86,0v-2.43a4.87,4.87,0,0,1,4.86-4.86ZM694,398a2.43,2.43,0,0,1,0,4.86h-.81a1.62,1.62,0,0,0-1.62,1.62v.81a2.43,2.43,0,1,1-4.86,0v-2.43a4.86,4.86,0,0,1,4.86-4.86H694Zm-7.29-14.56h2.43a2.43,2.43,0,0,1,0,4.86h-.81a1.62,1.62,0,0,0-1.62,1.62v.81a2.43,2.43,0,1,1-4.86,0v-2.43a4.86,4.86,0,0,1,4.86-4.86ZM679.38,398a2.43,2.43,0,0,1,0,4.86h-.81a1.61,1.61,0,0,0-1.62,1.62v.81a2.43,2.43,0,0,1-4.86,0v-2.43A4.85,4.85,0,0,1,677,398h2.43Zm-7.29-14.56h2.43a2.43,2.43,0,1,1,0,4.86h-.81a1.62,1.62,0,0,0-1.62,1.62v.81a2.44,2.44,0,0,1-4.87,0v-2.43a4.87,4.87,0,0,1,4.87-4.86Zm-12.16,24.31a2.43,2.43,0,0,1-2.43-2.43V402.9a4.87,4.87,0,0,1,4.86-4.86h2.43a2.43,2.43,0,1,1,0,4.86H664a1.63,1.63,0,0,0-1.62,1.62v.81a2.43,2.43,0,0,1-2.43,2.43ZM711,422.32H652.64a9.72,9.72,0,0,1-9.72-9.7v-34a9.72,9.72,0,0,1,9.72-9.72h60.77a2.43,2.43,0,0,0,2.43-2.44V364a4.87,4.87,0,0,0-4.87-4.86h-3.64a6.08,6.08,0,0,1-6.08-6.07v-1.22a2.43,2.43,0,1,0-4.86,0v1.22a6.08,6.08,0,0,1-6.08,6.07h-17a6.08,6.08,0,0,1-6.08-6.07h0v-1.22a2.43,2.43,0,0,0-4.86,0v1.22a6.07,6.07,0,0,1-6.07,6.07h-3.65a4.87,4.87,0,0,0-4.86,4.86h0a2.43,2.43,0,1,1-4.86,0,9.73,9.73,0,0,1,9.72-9.72h2.43a2.43,2.43,0,0,0,2.43-2.43,7.29,7.29,0,0,1,14.56,0,2.43,2.43,0,0,0,2.43,2.43h14.56a2.43,2.43,0,0,0,2.43-2.43,7.29,7.29,0,0,1,14.56,0,2.43,2.43,0,0,0,2.43,2.43h2.43a9.73,9.73,0,0,1,9.72,9.72v3.65a6.08,6.08,0,0,1-6.08,6.08h-62a4.86,4.86,0,0,0-4.87,4.86h0v34a4.86,4.86,0,0,0,4.87,4.86H710.9a4.86,4.86,0,0,0,4.86-4.86h0V390.77a2.43,2.43,0,1,1,4.86,0h0v21.88a9.72,9.72,0,0,1-9.72,9.72h0Z" transform="translate(-642.92 -344.99)"/><path id="Trazado_3754" data-name="Trazado 3754" class="cls-2" d="M718.51,376.83a3.65,3.65,0,1,1-3.65,3.65h0A3.65,3.65,0,0,1,718.51,376.83Z" transform="translate(-642.92 -344.99)"/></g></svg>