<svg id="Capa_1" data-name="Capa 1" xmlns="http://www.w3.org/2000/svg" viewBox="0 0 52.12 50.9"><defs><style>.cls-1{fill:#f07e00;fill-rule:evenodd;}</style></defs><g id="Grupo_3664" data-name="Grupo 3664"><path id="Trazado_3753" data-name="Trazado 3753" class="cls-1" d="M662.64,399.93a1.6,1.6,0,1,1,1.6-1.6h0A1.6,1.6,0,0,1,662.64,399.93Zm-1.6-16h1.6a1.6,1.6,0,1,1,0,3.19h-.53A1.07,1.07,0,0,0,661,388.2v.53a1.6,1.6,0,1,1-3.19,0v-1.6a3.19,3.19,0,0,1,3.19-3.19Zm-4.79,9.57a1.6,1.6,0,0,1,0,3.2h-.54a1.07,1.07,0,0,0-1.06,1.07v.53a1.6,1.6,0,0,1-3.2,0v-1.6a3.2,3.2,0,0,1,3.2-3.2h1.6Zm-4.8-9.57h1.6a1.6,1.6,0,1,1,0,3.19h-.53a1.07,1.07,0,0,0-1.07,1.07v.53a1.6,1.6,0,1,1-3.2,0v-1.6a3.2,3.2,0,0,1,3.2-3.19Zm-4.79,9.57a1.6,1.6,0,0,1,0,3.2h-.54a1.06,1.06,0,0,0-1.06,1.07v.53a1.6,1.6,0,1,1-3.2,0v-1.6a3.2,3.2,0,0,1,3.2-3.2h1.6Zm-4.8-9.57h1.6a1.6,1.6,0,1,1,0,3.19h-.54a1.07,1.07,0,0,0-1.06,1.07v.53a1.6,1.6,0,1,1-3.2,0v-1.6a3.19,3.19,0,0,1,3.2-3.19Zm-8,16a1.6,1.6,0,0,1-1.6-1.6v-1.6a3.19,3.19,0,0,1,3.19-3.2h1.6a1.6,1.6,0,0,1,0,3.2h-.53a1.07,1.07,0,0,0-1.07,1.07v.53a1.6,1.6,0,0,1-1.59,1.6Zm33.57,9.57H629.07a6.39,6.39,0,0,1-6.4-6.37V380.74a6.41,6.41,0,0,1,6.4-6.4h40a1.6,1.6,0,0,0,1.6-1.59v-1.6a3.2,3.2,0,0,0-3.2-3.2H665a4,4,0,0,1-4-4v-.8a1.6,1.6,0,1,0-3.19,0v.8a4,4,0,0,1-4,4H642.66a4,4,0,0,1-4-4h0v-.8a1.6,1.6,0,0,0-3.2,0v.8a4,4,0,0,1-4,4h-2.4a3.2,3.2,0,0,0-3.2,3.2h0a1.6,1.6,0,1,1-3.2,0,6.41,6.41,0,0,1,6.4-6.4h1.6a1.6,1.6,0,0,0,1.6-1.6,4.79,4.79,0,0,1,9.57,0,1.6,1.6,0,0,0,1.6,1.6H653a1.59,1.59,0,0,0,1.59-1.6,4.8,4.8,0,0,1,9.58,0,1.6,1.6,0,0,0,1.6,1.6h1.6a6.4,6.4,0,0,1,6.39,6.4v2.39a4,4,0,0,1-4,4H629a3.19,3.19,0,0,0-3.19,3.2h0v22.39a3.19,3.19,0,0,0,3.19,3.19h38.38a3.2,3.2,0,0,0,3.2-3.19h0V388.75a1.6,1.6,0,1,1,3.19,0h0v14.39a6.4,6.4,0,0,1-6.39,6.4h0Z" transform="translate(-622.67 -358.64)"/><path id="Trazado_3754" data-name="Trazado 3754" class="cls-1" d="M672.39,379.59A2.4,2.4,0,1,1,670,382h0A2.39,2.39,0,0,1,672.39,379.59Z" transform="translate(-622.67 -358.64)"/></g></svg>