<svg id="Capa_1" data-name="Capa 1" xmlns="http://www.w3.org/2000/svg" viewBox="0 0 170.93 119.38"><defs><style>.cls-1{fill:#949494;}.cls-2{fill:#fff;}.cls-2,.cls-3{fill-rule:evenodd;}.cls-3{fill:#f07e00;}</style></defs><path id="Trazado_10013" data-name="Trazado 10013" class="cls-1" d="M654.05,324h57a57,57,0,0,1,57,57v5.43a57,57,0,0,1-57,57h-57a57,57,0,0,1-57-57V381A57,57,0,0,1,654.05,324Z" transform="translate(-597.07 -323.97)"/><g id="Grupo_6810" data-name="Grupo 6810"><path id="Trazado_3753" data-name="Trazado 3753" class="cls-2" d="M705.14,410.84a2.71,2.71,0,1,1,2.71-2.71A2.71,2.71,0,0,1,705.14,410.84Zm-2.71-27h2.71a2.71,2.71,0,0,1,0,5.41h-.9a1.81,1.81,0,0,0-1.81,1.8v.9a2.71,2.71,0,0,1-5.41,0v-2.71a5.41,5.41,0,0,1,5.41-5.41h0ZM694.31,400a2.71,2.71,0,0,1,.42,5.41h-1.32a1.8,1.8,0,0,0-1.8,1.8v.9a2.71,2.71,0,0,1-5.41,0v-2.71a5.4,5.4,0,0,1,5.4-5.41h2.71Zm-8.11-16.23h2.71a2.71,2.71,0,0,1,0,5.41H688a1.81,1.81,0,0,0-1.8,1.8v.9a2.71,2.71,0,0,1-5.41,0v-2.71a5.41,5.41,0,0,1,5.41-5.41h0ZM678.08,400a2.71,2.71,0,0,1,.42,5.41h-1.32a1.8,1.8,0,0,0-1.8,1.8v.9a2.71,2.71,0,0,1-5.41,0v-2.71a5.41,5.41,0,0,1,5.4-5.41h2.71ZM670,383.79h2.72a2.71,2.71,0,0,1,0,5.41h-.91A1.81,1.81,0,0,0,670,391v.9a2.71,2.71,0,0,1-5.41,0v-2.71a5.41,5.41,0,0,1,5.41-5.41h0Zm-13.52,27a2.71,2.71,0,0,1-2.71-2.71v-2.71a5.4,5.4,0,0,1,5.4-5.41h2.72a2.71,2.71,0,0,1,.42,5.41H661a1.79,1.79,0,0,0-1.8,1.8v.9a2.71,2.71,0,0,1-2.72,2.71Zm56.8,16.23h-64.9a10.81,10.81,0,0,1-10.82-10.82h0V378.38a10.82,10.82,0,0,1,10.82-10.82H716a2.71,2.71,0,0,0,2.71-2.71v-2.71a5.41,5.41,0,0,0-5.4-5.41h-4.08a6.77,6.77,0,0,1-6.76-6.77v-1.35a2.71,2.71,0,0,0-5.41,0V350a6.77,6.77,0,0,1-6.76,6.77H671.32a6.77,6.77,0,0,1-6.76-6.77v-1.35a2.71,2.71,0,0,0-5.41,0V350a6.77,6.77,0,0,1-6.76,6.77h-4.07a5.4,5.4,0,0,0-5.41,5.4h0a2.71,2.71,0,0,1-5.41,0,10.82,10.82,0,0,1,10.82-10.82H651a2.72,2.72,0,0,0,2.72-2.72,8.12,8.12,0,0,1,16.23,0,2.71,2.71,0,0,0,2.71,2.72h16.23a2.71,2.71,0,0,0,2.71-2.72,8.12,8.12,0,0,1,16.23,0,2.72,2.72,0,0,0,2.72,2.72h2.71a10.81,10.81,0,0,1,10.82,10.82v4.07a6.76,6.76,0,0,1-6.76,6.76h-69a5.4,5.4,0,0,0-5.41,5.4h0v37.86a5.39,5.39,0,0,0,5.4,5.41h64.92a5.39,5.39,0,0,0,5.41-5.4h0V391.9a2.71,2.71,0,0,1,5.41,0v24.34a10.81,10.81,0,0,1-10.82,10.82Z" transform="translate(-597.07 -323.97)"/><path id="Trazado_3754" data-name="Trazado 3754" class="cls-3" d="M721.62,376.43a4.07,4.07,0,1,1-4.07,4.07h0A4.07,4.07,0,0,1,721.62,376.43Z" transform="translate(-597.07 -323.97)"/></g></svg>