<svg id="Capa_1" data-name="Capa 1" xmlns="http://www.w3.org/2000/svg" viewBox="0 0 161.04 161"><defs><style>.cls-1{fill:#004a9c;}.cls-1,.cls-2{fill-rule:evenodd;}.cls-2{fill:#fbbd06;}</style></defs><g id="Grupo_3570" data-name="Grupo 3570"><path id="Trazado_3795" data-name="Trazado 3795" class="cls-1" d="M758.13,383.66a5,5,0,0,1-5-5V363.54A10.05,10.05,0,0,0,743,353.49H712.87a20.12,20.12,0,0,1-20.12-20.12V323.32a10.05,10.05,0,0,0-10-10.06h0v-.1a10,10,0,0,0-7.08,2.95l-60.45,60.45a10,10,0,0,0,0,14.2l0,0,60.45,60.45a10,10,0,0,0,7.07,2.94v-.1a10.05,10.05,0,0,0,10-10.05h0V434a20.12,20.12,0,0,1,20.12-20.12H738a5,5,0,0,1,0,10.06H712.86A10.05,10.05,0,0,0,702.81,434h0V444a20.11,20.11,0,0,1-20.1,20.11h1.08a20,20,0,0,1-15.32-5.78L608,397.88a20.12,20.12,0,0,1,0-28.44L668.47,309a19.94,19.94,0,0,1,15.31-5.79h-1.09a20.12,20.12,0,0,1,20.12,20.12v10.05a10.06,10.06,0,0,0,10.05,10.06H743a20.11,20.11,0,0,1,20.12,20.11v15.13a5,5,0,0,1-5,5Z" transform="translate(-602.13 -303.16)"/><path id="Trazado_3796" data-name="Trazado 3796" class="cls-2" d="M755.61,398.75a7.55,7.55,0,1,1-7.54,7.54,7.55,7.55,0,0,1,7.54-7.54Z" transform="translate(-602.13 -303.16)"/></g></svg>