<svg id="Capa_1" data-name="Capa 1" xmlns="http://www.w3.org/2000/svg" xmlns:xlink="http://www.w3.org/1999/xlink" viewBox="0 0 122.1 122.11"><defs><style>.cls-1{fill:#fff;fill-opacity:0;}.cls-2{fill:#fafafa;opacity:0.02;}.cls-10,.cls-11,.cls-12,.cls-13,.cls-14,.cls-15,.cls-16,.cls-17,.cls-18,.cls-19,.cls-2,.cls-20,.cls-21,.cls-22,.cls-23,.cls-24,.cls-25,.cls-26,.cls-27,.cls-28,.cls-29,.cls-3,.cls-30,.cls-31,.cls-32,.cls-33,.cls-34,.cls-35,.cls-36,.cls-37,.cls-38,.cls-39,.cls-4,.cls-40,.cls-41,.cls-42,.cls-43,.cls-44,.cls-45,.cls-46,.cls-47,.cls-48,.cls-49,.cls-5,.cls-50,.cls-51,.cls-6,.cls-7,.cls-8,.cls-9{isolation:isolate;}.cls-3{fill:#f5f5f5;opacity:0.04;}.cls-4{fill:#f0f0f0;opacity:0.06;}.cls-5{fill:#ebebeb;opacity:0.08;}.cls-6{fill:#e6e6e6;opacity:0.1;}.cls-7{fill:#e1e1e1;opacity:0.12;}.cls-8{fill:#dcdcdc;opacity:0.14;}.cls-9{fill:#d7d7d7;opacity:0.16;}.cls-10{fill:#d2d2d2;opacity:0.18;}.cls-11{fill:#cdcdcd;opacity:0.2;}.cls-12{fill:#c8c8c8;opacity:0.22;}.cls-13{fill:#c3c3c3;opacity:0.23;}.cls-14{fill:#bebebe;opacity:0.25;}.cls-15{fill:#b9b9b9;opacity:0.28;}.cls-16{fill:#b4b4b4;opacity:0.29;}.cls-17{fill:#afafaf;opacity:0.31;}.cls-18{fill:#aaa;opacity:0.33;}.cls-19{fill:#a5a5a5;opacity:0.35;}.cls-20{fill:#a0a0a0;opacity:0.37;}.cls-21{fill:#9b9b9b;opacity:0.39;}.cls-22{fill:#969696;opacity:0.41;}.cls-23{fill:#919191;opacity:0.43;}.cls-24{fill:#8c8c8c;opacity:0.45;}.cls-25{fill:#878787;opacity:0.47;}.cls-26{fill:#828282;opacity:0.49;}.cls-27{fill:#7d7d7d;opacity:0.51;}.cls-28{fill:#787878;opacity:0.53;}.cls-29{fill:#737373;opacity:0.55;}.cls-30{fill:#6e6e6e;opacity:0.57;}.cls-31{fill:#696969;opacity:0.59;}.cls-32{fill:#646464;opacity:0.61;}.cls-33{fill:#5f5f5f;opacity:0.63;}.cls-34{fill:#5a5a5a;opacity:0.65;}.cls-35{fill:#555;opacity:0.67;}.cls-36{fill:#505050;opacity:0.69;}.cls-37{fill:#4b4b4b;opacity:0.71;}.cls-38{fill:#464646;opacity:0.73;}.cls-39{fill:#414141;opacity:0.75;}.cls-40{fill:#3c3c3c;opacity:0.76;}.cls-41{fill:#373737;opacity:0.78;}.cls-42{fill:#323232;opacity:0.8;}.cls-43{fill:#2d2d2d;opacity:0.82;}.cls-44{fill:#282828;opacity:0.84;}.cls-45{fill:#232323;opacity:0.86;}.cls-46{fill:#1e1e1e;opacity:0.88;}.cls-47{fill:#191919;opacity:0.9;}.cls-48{fill:#141414;opacity:0.92;}.cls-49{fill:#0f0f0f;opacity:0.94;}.cls-50{fill:#0a0a0a;opacity:0.96;}.cls-51{fill:#050505;opacity:0.98;}.cls-52{fill:url(#Degradado_sin_nombre_3);}.cls-53{fill:url(#Degradado_sin_nombre_2);}.cls-54{fill:#fbd023;}.cls-55{fill:#00795e;}.cls-56{fill:#cd1225;}</style><linearGradient id="Degradado_sin_nombre_3" x1="-293.17" y1="748.52" x2="-286.57" y2="748.52" gradientTransform="matrix(15.2, 0, 0, -15.2, 248.51, 11774.88)" gradientUnits="userSpaceOnUse"><stop offset="0" stop-color="#939598"/><stop offset="0.13" stop-color="#a8a9ac"/><stop offset="0.39" stop-color="#cdced0"/><stop offset="0.63" stop-color="#e8e9e9"/><stop offset="0.84" stop-color="#f9f9f9"/><stop offset="1" stop-color="#fff"/></linearGradient><linearGradient id="Degradado_sin_nombre_2" x1="-110.57" y1="887.61" x2="-105.96" y2="883.01" gradientTransform="matrix(14.36, 0, 0, -14.36, 249.77, 11129.71)" gradientUnits="userSpaceOnUse"><stop offset="0" stop-color="#999"/><stop offset="0.1" stop-color="#a8a8a8"/><stop offset="0.36" stop-color="#cdcdcd"/><stop offset="0.61" stop-color="#e8e8e8"/><stop offset="0.83" stop-color="#f9f9f9"/><stop offset="1" stop-color="#fff"/></linearGradient></defs><g id="Grupo_6676" data-name="Grupo 6676"><g id="Grupo_3910" data-name="Grupo 3910"><path id="Trazado_4690" data-name="Trazado 4690" class="cls-1" d="M722.77,363c25.75,25.75,28,65.41,5,88.41s-62.65,20.76-88.41-5-21.94-59.36,1-82.36S697,337.26,722.77,363Z" transform="translate(-621.55 -345.21)"/><path id="Trazado_4691" data-name="Trazado 4691" class="cls-2" d="M722.35,363.23c25.58,25.55,27.81,64.93,5,87.77s-62.19,20.6-87.76-5-21.87-59,1-81.87S696.79,337.65,722.35,363.23Z" transform="translate(-621.55 -345.21)"/><path id="Trazado_4692" data-name="Trazado 4692" class="cls-3" d="M722,363.41c25.38,25.38,27.6,64.49,4.94,87.16s-61.76,20.47-87.13-4.94S618,387,640.67,364.32,696.59,338,722,363.41Z" transform="translate(-621.55 -345.21)"/><path id="Trazado_4693" data-name="Trazado 4693" class="cls-4" d="M721.55,363.62c25.2,25.2,27.39,64,4.9,86.5s-61.3,20.3-86.5-4.9-21.7-58.31.79-80.8S696.36,338.43,721.55,363.62Z" transform="translate(-621.55 -345.21)"/><path id="Trazado_4694" data-name="Trazado 4694" class="cls-5" d="M721.16,363.83c25,25,27.2,63.53,4.86,85.85s-60.86,20.14-85.84-4.86-21.62-58,.72-80.3S696.14,338.81,721.16,363.83Z" transform="translate(-621.55 -345.21)"/><path id="Trazado_4695" data-name="Trazado 4695" class="cls-6" d="M720.76,364c24.84,24.83,27,63.07,4.82,85.23s-60.4,20-85.21-4.82-21.55-57.62.63-79.79S695.94,339.21,720.76,364Z" transform="translate(-621.55 -345.21)"/><path id="Trazado_4696" data-name="Trazado 4696" class="cls-7" d="M720.36,364.23c24.65,24.65,26.78,62.59,4.79,84.59s-59.95,19.85-84.6-4.78-21.45-57.26.55-79.24S695.72,339.58,720.36,364.23Z" transform="translate(-621.55 -345.21)"/><path id="Trazado_4697" data-name="Trazado 4697" class="cls-8" d="M720,364.44c24.43,24.43,26.58,62.06,4.75,83.94s-59.49,19.69-84-4.75-21.37-56.9.46-78.75S695.51,340,720,364.44Z" transform="translate(-621.55 -345.21)"/><path id="Trazado_4698" data-name="Trazado 4698" class="cls-9" d="M719.57,364.63c24.27,24.26,26.41,61.64,4.71,83.32s-59,19.54-83.3-4.73-21.31-56.54.37-78.21S695.3,340.36,719.57,364.63Z" transform="translate(-621.55 -345.21)"/><path id="Trazado_4699" data-name="Trazado 4699" class="cls-10" d="M719.17,364.83c24.08,24.08,26.18,61.17,4.67,82.68s-58.6,19.41-82.67-4.69a55.16,55.16,0,0,1,78-78Z" transform="translate(-621.55 -345.21)"/><path id="Trazado_4700" data-name="Trazado 4700" class="cls-11" d="M718.77,365c23.89,23.89,26,60.71,4.63,82s-58.15,19.25-82-4.62A54.74,54.74,0,0,1,718.77,365Z" transform="translate(-621.55 -345.21)"/><path id="Trazado_4701" data-name="Trazado 4701" class="cls-12" d="M718.38,365.23c23.7,23.72,25.75,60.23,4.62,81.42s-57.69,19.1-81.4-4.62a54.31,54.31,0,0,1,76.78-76.8Z" transform="translate(-621.55 -345.21)"/><path id="Trazado_4702" data-name="Trazado 4702" class="cls-13" d="M718,365.44c23.54,23.53,25.6,59.75,4.58,80.77s-57.24,19-80.77-4.58A53.87,53.87,0,1,1,718,365.44Z" transform="translate(-621.55 -345.21)"/><path id="Trazado_4703" data-name="Trazado 4703" class="cls-14" d="M717.57,365.65c23.34,23.34,25.38,59.28,4.54,80.13s-56.79,18.8-80.13-4.54a53.45,53.45,0,0,1,75.59-75.59Z" transform="translate(-621.55 -345.21)"/><path id="Trazado_4704" data-name="Trazado 4704" class="cls-15" d="M717.16,365.84c23.15,23.15,25.18,58.82,4.51,79.5s-56.34,18.65-79.49-4.51a53,53,0,0,1,74.25-75.73c.25.24.5.49.74.74Z" transform="translate(-621.55 -345.21)"/><path id="Trazado_4705" data-name="Trazado 4705" class="cls-16" d="M716.77,366.05c23,23,25,58.34,4.46,78.86s-55.88,18.49-78.86-4.47a52.61,52.61,0,1,1,74.2-74.59Z" transform="translate(-621.55 -345.21)"/><path id="Trazado_4706" data-name="Trazado 4706" class="cls-17" d="M716.37,366.26c22.79,22.77,24.78,57.86,4.42,78.21s-55.42,18.35-78.21-4.42a52.18,52.18,0,1,1,73.79-73.79Z" transform="translate(-621.55 -345.21)"/><path id="Trazado_4707" data-name="Trazado 4707" class="cls-18" d="M716,366.44c22.61,22.61,24.57,57.41,4.39,77.6s-55,18.19-77.57-4.39a51.76,51.76,0,0,1,72-74.42c.41.4.82.8,1.21,1.21Z" transform="translate(-621.55 -345.21)"/><path id="Trazado_4708" data-name="Trazado 4708" class="cls-19" d="M715.58,366.65c22.42,22.42,24.36,56.94,4.35,76.94s-54.54,18.07-76.95-4.35a51.34,51.34,0,0,1,71.9-73.3l.7.7Z" transform="translate(-621.55 -345.21)"/><path id="Trazado_4709" data-name="Trazado 4709" class="cls-20" d="M715.18,366.86c22.23,22.23,24.16,56.44,4.31,76.3s-54.08,17.92-76.3-4.31A50.91,50.91,0,0,1,713.31,365c.64.6,1.25,1.22,1.85,1.85Z" transform="translate(-621.55 -345.21)"/><path id="Trazado_4710" data-name="Trazado 4710" class="cls-21" d="M714.79,367.05c22,22.05,24,56,4.27,75.69s-53.63,17.76-75.67-4.3a50.49,50.49,0,1,1,70-72.78c.47.46.94.92,1.4,1.4Z" transform="translate(-621.55 -345.21)"/><path id="Trazado_4711" data-name="Trazado 4711" class="cls-22" d="M714.4,367.26c21.85,21.84,23.77,55.51,4.23,75s-53.17,17.61-75-4.26A50.06,50.06,0,0,1,713,365.86C713.48,366.32,713.94,366.78,714.4,367.26Z" transform="translate(-621.55 -345.21)"/><path id="Trazado_4712" data-name="Trazado 4712" class="cls-23" d="M714,367.47c21.65,21.65,23.55,55,4.2,74.39s-52.72,17.46-74.4-4.22a49.64,49.64,0,0,1,68.65-71.72C713,366.43,713.48,366.94,714,367.47Z" transform="translate(-621.55 -345.21)"/><path id="Trazado_4713" data-name="Trazado 4713" class="cls-24" d="M713.58,367.65c21.48,21.49,23.36,54.58,4.18,73.77s-52.27,17.31-73.75-4.18a49.21,49.21,0,1,1,68-71.14C712.55,366.6,713.07,367.12,713.58,367.65Z" transform="translate(-621.55 -345.21)"/><path id="Trazado_4714" data-name="Trazado 4714" class="cls-25" d="M713.17,367.86c21.31,21.3,23.15,54.1,4.14,73.13s-51.82,17.17-73.13-4.14A48.8,48.8,0,0,1,711.25,366q1,.93,1.92,1.92Z" transform="translate(-621.55 -345.21)"/><path id="Trazado_4715" data-name="Trazado 4715" class="cls-26" d="M712.78,368.07c21.13,21.13,23,53.63,4.11,72.49s-51.38,17-72.49-4.11a48.37,48.37,0,0,1,66.14-70.61C711.31,366.56,712.06,367.31,712.78,368.07Z" transform="translate(-621.55 -345.21)"/><path id="Trazado_4716" data-name="Trazado 4716" class="cls-27" d="M712.38,368.26c20.94,20.94,22.76,53.17,4.07,71.86s-50.92,16.85-71.84-4.07A48,48,0,1,1,710.08,366C710.87,366.7,711.64,367.46,712.38,368.26Z" transform="translate(-621.55 -345.21)"/><path id="Trazado_4717" data-name="Trazado 4717" class="cls-28" d="M712,368.46c20.75,20.76,22.55,52.7,4,71.22s-50.46,16.7-71.21-4a47.54,47.54,0,0,1,64.63-69.74C710.32,366.73,711.17,367.58,712,368.46Z" transform="translate(-621.55 -345.21)"/><path id="Trazado_4718" data-name="Trazado 4718" class="cls-29" d="M711.59,368.67c20.56,20.57,22.34,52.21,4,70.58s-50,16.55-70.57-4a47.11,47.11,0,1,1,65.15-68.07C710.63,367.69,711.11,368.18,711.59,368.67Z" transform="translate(-621.55 -345.21)"/><path id="Trazado_4719" data-name="Trazado 4719" class="cls-30" d="M711.19,368.87c20.37,20.37,22.15,51.75,4,69.95s-49.56,16.42-69.94-4a46.7,46.7,0,0,1,63.37-68.61c.91.83,1.78,1.71,2.61,2.61Z" transform="translate(-621.55 -345.21)"/><path id="Trazado_4720" data-name="Trazado 4720" class="cls-31" d="M710.79,369.07c20.19,20.19,21.94,51.28,3.92,69.33s-49.11,16.27-69.34-4A46.27,46.27,0,0,1,707.69,366q1.59,1.46,3,3.05Z" transform="translate(-621.55 -345.21)"/><path id="Trazado_4721" data-name="Trazado 4721" class="cls-32" d="M710.39,369.28c20,20,21.73,50.79,3.87,68.67s-48.67,16.12-68.67-3.9a45.85,45.85,0,0,1,61.82-67.74c1,.95,2,1.94,3,3Z" transform="translate(-621.55 -345.21)"/><path id="Trazado_4722" data-name="Trazado 4722" class="cls-33" d="M710,369.47c19.81,19.81,21.52,50.34,3.84,68s-48.2,16-68-3.86a45.43,45.43,0,1,1,61.1-67.26q1.61,1.45,3.08,3.08Z" transform="translate(-621.55 -345.21)"/><path id="Trazado_4723" data-name="Trazado 4723" class="cls-34" d="M709.58,369.68c19.64,19.64,21.36,49.86,3.83,67.4s-47.77,15.81-67.4-3.83a45,45,0,1,1,60.31-66.84A43.73,43.73,0,0,1,709.58,369.68Z" transform="translate(-621.55 -345.21)"/><path id="Trazado_4724" data-name="Trazado 4724" class="cls-35" d="M709.18,369.88c19.45,19.45,21.13,49.39,3.78,66.75s-47.31,15.67-66.75-3.78a44.59,44.59,0,1,1,63-63Z" transform="translate(-621.55 -345.21)"/><path id="Trazado_4725" data-name="Trazado 4725" class="cls-36" d="M708.78,370.07C728,389.33,729.72,419,712.53,436.2s-46.89,15.52-66.11-3.74a44.18,44.18,0,1,1,62.36-62.39Z" transform="translate(-621.55 -345.21)"/><path id="Trazado_4726" data-name="Trazado 4726" class="cls-37" d="M708.39,370.28c19.08,19.07,20.73,48.44,3.7,65.48s-46.4,15.36-65.48-3.7a43.77,43.77,0,0,1,58-65.55A44.71,44.71,0,0,1,708.39,370.28Z" transform="translate(-621.55 -345.21)"/><path id="Trazado_4727" data-name="Trazado 4727" class="cls-38" d="M708,370.52c18.9,18.88,20.54,48,3.67,64.84s-45.94,15.19-64.84-3.67a43.34,43.34,0,0,1,57.26-65.08A42.44,42.44,0,0,1,708,370.52Z" transform="translate(-621.55 -345.21)"/><path id="Trazado_4728" data-name="Trazado 4728" class="cls-39" d="M707.59,370.7c18.71,18.71,20.34,47.54,3.64,64.22S665.72,450,647,431.29a42.92,42.92,0,1,1,56.79-64.37A42.14,42.14,0,0,1,707.59,370.7Z" transform="translate(-621.55 -345.21)"/><path id="Trazado_4729" data-name="Trazado 4729" class="cls-40" d="M707.2,370.89c18.49,18.49,20.12,47,3.59,63.58s-45.06,14.92-63.57-3.59A42.52,42.52,0,0,1,703,366.7,43.61,43.61,0,0,1,707.2,370.89Z" transform="translate(-621.55 -345.21)"/><path id="Trazado_4730" data-name="Trazado 4730" class="cls-41" d="M706.78,371.08c18.33,18.34,19.92,46.56,3.55,62.94s-44.6,14.77-62.93-3.56a42.1,42.1,0,0,1,54.94-63.81A43.18,43.18,0,0,1,706.78,371.08Z" transform="translate(-621.55 -345.21)"/><path id="Trazado_4731" data-name="Trazado 4731" class="cls-42" d="M706.41,371.27c18.13,18.16,19.73,46.1,3.52,62.31S665.78,448.2,647.64,430a41.68,41.68,0,1,1,54.23-63.31,42.31,42.31,0,0,1,4.54,4.54Z" transform="translate(-621.55 -345.21)"/><path id="Trazado_4732" data-name="Trazado 4732" class="cls-43" d="M706,371.49c18,18,19.52,45.63,3.48,61.67s-43.69,14.47-61.66-3.5a41.27,41.27,0,0,1,53.51-62.84A42,42,0,0,1,706,371.49Z" transform="translate(-621.55 -345.21)"/><path id="Trazado_4733" data-name="Trazado 4733" class="cls-44" d="M705.61,371.71c17.77,17.76,19.32,45.15,3.44,61s-43.24,14.33-61-3.46a40.85,40.85,0,0,1,52.82-62.32A39.71,39.71,0,0,1,705.61,371.71Z" transform="translate(-621.55 -345.21)"/><path id="Trazado_4734" data-name="Trazado 4734" class="cls-45" d="M705.19,371.88c17.59,17.59,19.15,44.68,3.43,60.4s-42.79,14.17-60.38-3.42S630,385,645.65,369.31a41.88,41.88,0,0,1,59.17,2.16Z" transform="translate(-621.55 -345.21)"/><path id="Trazado_4735" data-name="Trazado 4735" class="cls-46" d="M704.79,372.1c17.4,17.4,18.94,44.21,3.39,59.75s-42.33,14-59.75-3.38-18.2-43.49-2.64-59S687.39,354.7,704.79,372.1Z" transform="translate(-621.55 -345.21)"/><path id="Trazado_4736" data-name="Trazado 4736" class="cls-47" d="M704.4,372.31c17.23,17.21,18.72,43.73,3.35,59.11s-41.9,13.86-59.11-3.35-18.12-43.14-2.75-58.52S687.18,355.08,704.4,372.31Z" transform="translate(-621.55 -345.21)"/><path id="Trazado_4737" data-name="Trazado 4737" class="cls-48" d="M704,372.5c17,17,18.49,43.27,3.3,58.49s-41.44,13.71-58.47-3.3-18-42.79-2.84-58S687,355.47,704,372.5Z" transform="translate(-621.55 -345.21)"/><path id="Trazado_4738" data-name="Trazado 4738" class="cls-49" d="M703.6,372.7c16.85,16.85,18.31,42.79,3.3,57.85s-41,13.56-57.84-3.31-18-42.44-2.91-57.48S686.75,355.85,703.6,372.7Z" transform="translate(-621.55 -345.21)"/><path id="Trazado_4739" data-name="Trazado 4739" class="cls-50" d="M703.18,372.91c16.67,16.67,18.12,42.32,3.24,57.21s-40.54,13.41-57.2-3.24-17.88-42.09-3-57S686.54,356.27,703.18,372.91Z" transform="translate(-621.55 -345.21)"/><path id="Trazado_4740" data-name="Trazado 4740" class="cls-51" d="M702.81,373.1c16.5,16.51,17.91,41.86,3.19,56.57s-40.08,13.28-56.55-3.21-17.83-41.73-3.09-56.44S686.33,356.62,702.81,373.1Z" transform="translate(-621.55 -345.21)"/><path id="Trazado_4741" data-name="Trazado 4741" d="M702.41,373.31c16.28,16.28,17.7,41.39,3.16,55.94s-39.62,13.12-55.94-3.18-17.7-41.37-3.15-55.92S686.11,357,702.41,373.31Z" transform="translate(-621.55 -345.21)"/></g><g id="Grupo_3911" data-name="Grupo 3911"><path id="Trazado_4742" data-name="Trazado 4742" class="cls-52" d="M711.62,363.8a50.18,50.18,0,1,1-71,0h0A50.22,50.22,0,0,1,711.62,363.8Z" transform="translate(-621.55 -345.21)"/><path id="Trazado_4743" data-name="Trazado 4743" class="cls-53" d="M676.14,351.88a47.41,47.41,0,1,1-47.4,47.41A47.41,47.41,0,0,1,676.14,351.88Z" transform="translate(-621.55 -345.21)"/></g><g id="Grupo_3923" data-name="Grupo 3923"><g id="Grupo_3921" data-name="Grupo 3921"><g id="Grupo_3914" data-name="Grupo 3914"><g id="Grupo_3912" data-name="Grupo 3912"><path id="Trazado_4744" data-name="Trazado 4744" class="cls-54" d="M704.33,371.08c-.34-.35-.66-.66-1-1a40,40,0,0,0-54.32,0c-.35.33-.7.66-1.05,1l28.2,28.2Z" transform="translate(-621.55 -345.21)"/><path id="Trazado_4745" data-name="Trazado 4745" class="cls-55" d="M647.93,371.08h0a39.93,39.93,0,0,0,0,56.4l28.2-28.2Z" transform="translate(-621.55 -345.21)"/><path id="Trazado_4746" data-name="Trazado 4746" class="cls-55" d="M711.53,380.9a39.24,39.24,0,0,0-7.19-9.82h0l-28.2,28.2,28.2,28.2a39.16,39.16,0,0,0,7.19-9.84A40,40,0,0,0,711.53,380.9Z" transform="translate(-621.55 -345.21)"/><path id="Trazado_4747" data-name="Trazado 4747" class="cls-54" d="M647.93,427.49h0c.34.34.66.66,1,1a39.93,39.93,0,0,0,54.35,0c.34-.32.66-.66,1-1h0l-28.21-28.18Z" transform="translate(-621.55 -345.21)"/></g><g id="Grupo_3913" data-name="Grupo 3913"><path id="Trazado_4748" data-name="Trazado 4748" class="cls-56" d="M685.88,399.28a9.79,9.79,0,1,1-1.1-4.46A9.73,9.73,0,0,1,685.88,399.28Z" transform="translate(-621.55 -345.21)"/><path id="Trazado_4749" data-name="Trazado 4749" class="cls-54" d="M676.14,390.37l2,6.16h6.48l-5.24,3.8,2,6.15-5.24-3.8-5.23,3.8,2-6.15-5.24-3.8h6.47Z" transform="translate(-621.55 -345.21)"/></g></g><g id="Grupo_3915" data-name="Grupo 3915"><path id="Trazado_4750" data-name="Trazado 4750" class="cls-54" d="M652.91,402.58l-.46,1.15a3.2,3.2,0,0,1-.87-1.1,10.73,10.73,0,0,0-.92-1.2l-.42-.42a6.25,6.25,0,0,0-1-.85,13.44,13.44,0,0,0-1.89-.87,9.26,9.26,0,0,0,.15,3.06l.06.23c.11.52.26,1.05.41,1.57a12.65,12.65,0,0,1,.67,1.81,6.06,6.06,0,0,1-3.26-1.09,5.52,5.52,0,0,1-2.27-2.46,13.65,13.65,0,0,1,.07-7c.11-.72.25-1.42.3-2.14a4.83,4.83,0,0,0,.08-1.08,18.58,18.58,0,0,0,2.44,1.23,18,18,0,0,1,5.18,2.9A5.82,5.82,0,0,1,652.91,402.58Z" transform="translate(-621.55 -345.21)"/><path id="Trazado_4751" data-name="Trazado 4751" class="cls-56" d="M650.6,404.94a11.06,11.06,0,0,1-3-2.36l-.06-.23a9.26,9.26,0,0,1-.15-3.06,13.44,13.44,0,0,1,1.89.87,6.25,6.25,0,0,1,1,.85A11.83,11.83,0,0,1,650.6,404.94Z" transform="translate(-621.55 -345.21)"/></g><g id="Grupo_3920" data-name="Grupo 3920"><path id="Trazado_4752" data-name="Trazado 4752" class="cls-56" d="M711.62,363.8a50.18,50.18,0,1,0,0,71h0A50.22,50.22,0,0,0,711.62,363.8Zm-.09,53.87a39.24,39.24,0,0,1-7.19,9.82c-.34.34-.66.66-1,1a39.93,39.93,0,0,1-54.35,0l-1-1a39.9,39.9,0,0,1,0-56.41c.34-.34.7-.66,1-1a40,40,0,0,1,54.33,0c.35.32.7.66,1,1a39.88,39.88,0,0,1,7.18,46.59Z" transform="translate(-621.55 -345.21)"/><g id="Grupo_3917" data-name="Grupo 3917"><path id="Trazado_4753" data-name="Trazado 4753" class="cls-54" d="M676.14,349.54l1.19,3.64h3.83l-3.1,2.26,1.18,3.64-3.1-2.25L673,359.08l1.19-3.64-3.1-2.26H675Z" transform="translate(-621.55 -345.21)"/><g id="Grupo_3916" data-name="Grupo 3916"><path id="Trazado_4754" data-name="Trazado 4754" class="cls-54" d="M643.26,361.89l3.3,2,2.89-2.51-.86,3.74,3.3,2-3.82.33-.86,3.74-1.5-3.53-3.82.33,2.9-2.51Z" transform="translate(-621.55 -345.21)"/><path id="Trazado_4755" data-name="Trazado 4755" class="cls-54" d="M709,361.89l-3.3,2-2.9-2.51.87,3.74-3.3,2,3.81.33.87,3.74,1.5-3.53,3.81.33-2.89-2.51Z" transform="translate(-621.55 -345.21)"/></g></g><g id="Grupo_3919" data-name="Grupo 3919"><path id="Trazado_4756" data-name="Trazado 4756" class="cls-54" d="M676.14,449,675,445.34h-3.83l3.1-2.25L673,439.44l3.1,2.25,3.11-2.25-1.18,3.65,3.1,2.25h-3.84Z" transform="translate(-621.55 -345.21)"/><g id="Grupo_3918" data-name="Grupo 3918"><path id="Trazado_4757" data-name="Trazado 4757" class="cls-54" d="M709,436.62l-3.3-2-2.9,2.52.87-3.74-3.3-2,3.81-.33.87-3.74,1.5,3.53,3.81-.33-2.89,2.51Z" transform="translate(-621.55 -345.21)"/><path id="Trazado_4758" data-name="Trazado 4758" class="cls-54" d="M643.26,436.62l3.3-2,2.89,2.52-.86-3.74,3.3-2-3.82-.33-.86-3.74-1.5,3.53-3.82-.33,2.9,2.51Z" transform="translate(-621.55 -345.21)"/></g></g></g></g></g></g></svg>