<svg xmlns="http://www.w3.org/2000/svg" width="55.382" height="37.824" viewBox="0 0 55.382 37.824">
    <g>
        <path fill="none" stroke="#004a9c" stroke-width="2px" d="M-69.754-131.408c-.316 0-.633.01-.949.032a14.844 14.844 0 0 0-4.868-6.215 15.014 15.014 0 0 0-8.994-2.949 14.82 14.82 0 0 0-14.951 14.652v.235a10.58 10.58 0 0 0-10.009 10.458 10.593 10.593 0 0 0 10.681 10.479h29.086a13.5 13.5 0 0 0 13.618-13.346 13.5 13.5 0 0 0-13.614-13.346zm0 23.476h-29.087a7.375 7.375 0 0 1-7.466-7.262 7.375 7.375 0 0 1 7.466-7.263 7.751 7.751 0 0 1 .889.06 1.6 1.6 0 0 0 1.339-.477 1.606 1.606 0 0 0 .438-1.352 11.548 11.548 0 0 1-.125-1.663 11.6 11.6 0 0 1 11.735-11.435 11.77 11.77 0 0 1 11.245 8.163 1.605 1.605 0 0 0 1.8 1.115 10.69 10.69 0 0 1 1.762-.146 10.279 10.279 0 0 1 10.4 10.131 10.277 10.277 0 0 1-10.396 10.129z" transform="translate(110.522 141.54)"/>
        <path fill="#004a9c" d="M-71.807-127.479a.989.989 0 0 0-.674-.279l-6.643-.03a.957.957 0 0 0-.956.952.945.945 0 0 0 .277.672.947.947 0 0 0 .671.283l4.34.019-10.91 10.821a.951.951 0 0 0-.285.675.946.946 0 0 0 .279.676.946.946 0 0 0 .674.285.95.95 0 0 0 .672-.278l10.91-10.821-.019 4.34a.958.958 0 0 0 .273.677.929.929 0 0 0 .661.279h.019a.952.952 0 0 0 .673-.275.952.952 0 0 0 .282-.676l.029-6.643a.953.953 0 0 0-.273-.677z" transform="translate(110.522 141.54) translate(-5.165 .285)"/>
    </g>
</svg>
