<svg id="Capa_1" data-name="Capa 1" xmlns="http://www.w3.org/2000/svg" viewBox="0 0 137.27 137.29"><defs><style>.cls-1,.cls-53{fill:#fff;}.cls-1{fill-opacity:0;}.cls-2{fill:#fafafa;opacity:0.02;}.cls-10,.cls-11,.cls-12,.cls-13,.cls-14,.cls-15,.cls-16,.cls-17,.cls-18,.cls-19,.cls-2,.cls-20,.cls-21,.cls-22,.cls-23,.cls-24,.cls-25,.cls-26,.cls-27,.cls-28,.cls-29,.cls-3,.cls-30,.cls-31,.cls-32,.cls-33,.cls-34,.cls-35,.cls-36,.cls-37,.cls-38,.cls-39,.cls-4,.cls-40,.cls-41,.cls-42,.cls-43,.cls-44,.cls-45,.cls-46,.cls-47,.cls-48,.cls-49,.cls-5,.cls-50,.cls-51,.cls-6,.cls-7,.cls-8,.cls-9{isolation:isolate;}.cls-3{fill:#f5f5f5;opacity:0.04;}.cls-4{fill:#f0f0f0;opacity:0.06;}.cls-5{fill:#ebebeb;opacity:0.08;}.cls-6{fill:#e6e6e6;opacity:0.1;}.cls-7{fill:#e1e1e1;opacity:0.12;}.cls-8{fill:#dcdcdc;opacity:0.14;}.cls-9{fill:#d7d7d7;opacity:0.16;}.cls-10{fill:#d2d2d2;opacity:0.18;}.cls-11{fill:#cdcdcd;opacity:0.2;}.cls-12{fill:#c8c8c8;opacity:0.22;}.cls-13{fill:#c3c3c3;opacity:0.23;}.cls-14{fill:#bebebe;opacity:0.25;}.cls-15{fill:#b9b9b9;opacity:0.28;}.cls-16{fill:#b4b4b4;opacity:0.29;}.cls-17{fill:#afafaf;opacity:0.31;}.cls-18{fill:#aaa;opacity:0.33;}.cls-19{fill:#a5a5a5;opacity:0.35;}.cls-20{fill:#a0a0a0;opacity:0.37;}.cls-21{fill:#9b9b9b;opacity:0.39;}.cls-22{fill:#969696;opacity:0.41;}.cls-23{fill:#919191;opacity:0.43;}.cls-24{fill:#8c8c8c;opacity:0.45;}.cls-25{fill:#878787;opacity:0.47;}.cls-26{fill:#828282;opacity:0.49;}.cls-27{fill:#7d7d7d;opacity:0.51;}.cls-28{fill:#787878;opacity:0.53;}.cls-29{fill:#737373;opacity:0.55;}.cls-30{fill:#6e6e6e;opacity:0.57;}.cls-31{fill:#696969;opacity:0.59;}.cls-32{fill:#646464;opacity:0.61;}.cls-33{fill:#5f5f5f;opacity:0.63;}.cls-34{fill:#5a5a5a;opacity:0.65;}.cls-35{fill:#555;opacity:0.67;}.cls-36{fill:#505050;opacity:0.69;}.cls-37{fill:#4b4b4b;opacity:0.71;}.cls-38{fill:#464646;opacity:0.73;}.cls-39{fill:#414141;opacity:0.75;}.cls-40{fill:#3c3c3c;opacity:0.76;}.cls-41{fill:#373737;opacity:0.78;}.cls-42{fill:#323232;opacity:0.8;}.cls-43{fill:#2d2d2d;opacity:0.82;}.cls-44{fill:#282828;opacity:0.84;}.cls-45{fill:#232323;opacity:0.86;}.cls-46{fill:#1e1e1e;opacity:0.88;}.cls-47{fill:#191919;opacity:0.9;}.cls-48{fill:#141414;opacity:0.92;}.cls-49{fill:#0f0f0f;opacity:0.94;}.cls-50{fill:#0a0a0a;opacity:0.96;}.cls-51{fill:#050505;opacity:0.98;}.cls-52{fill:#009d4a;}.cls-54{fill:#fbd023;}.cls-55{fill:#cd1225;}</style></defs><g id="Grupo_6692" data-name="Grupo 6692"><g id="Grupo_6276" data-name="Grupo 6276"><path id="Trazado_8635" data-name="Trazado 8635" class="cls-1" d="M727.76,357.64c29,28.95,31.46,73.55,5.63,99.41s-70.46,23.33-99.4-5.64-24.72-66.73,1.17-92.6S698.81,328.68,727.76,357.64Z" transform="translate(-613.96 -337.62)"/><path id="Trazado_8636" data-name="Trazado 8636" class="cls-2" d="M727.31,357.88c28.75,28.73,31.26,73,5.59,98.68S663,479.72,634.22,451s-24.61-66.35,1.06-92S698.57,329.12,727.31,357.88Z" transform="translate(-613.96 -337.62)"/><path id="Trazado_8637" data-name="Trazado 8637" class="cls-3" d="M726.89,358.09c28.54,28.54,31,72.5,5.55,98s-69.44,23-98-5.56-24.5-65.91,1-91.43S698.32,329.53,726.89,358.09Z" transform="translate(-613.96 -337.62)"/><path id="Trazado_8638" data-name="Trazado 8638" class="cls-4" d="M726.42,358.33c28.33,28.33,30.79,71.91,5.5,97.26S663,478.4,634.66,450.08s-24.4-65.57.89-90.85S698.09,330,726.42,358.33Z" transform="translate(-613.96 -337.62)"/><path id="Trazado_8639" data-name="Trazado 8639" class="cls-5" d="M726,358.56c28.11,28.11,30.56,71.42,5.46,96.53S663,477.74,634.9,449.62s-24.31-65.17.79-90.27S697.85,330.42,726,358.56Z" transform="translate(-613.96 -337.62)"/><path id="Trazado_8640" data-name="Trazado 8640" class="cls-6" d="M725.52,358.77c27.9,27.92,30.34,70.91,5.42,95.83s-67.91,22.47-95.83-5.43-24.2-64.78.75-89.71S697.58,330.87,725.52,358.77Z" transform="translate(-613.96 -337.62)"/><path id="Trazado_8641" data-name="Trazado 8641" class="cls-7" d="M725.07,359c27.71,27.72,30.11,70.38,5.38,95.13s-67.42,22.31-95.14-5.38-24.12-64.37.62-89.14S697.36,331.28,725.07,359Z" transform="translate(-613.96 -337.62)"/><path id="Trazado_8642" data-name="Trazado 8642" class="cls-8" d="M724.63,359.23c27.47,27.48,29.88,69.82,5.34,94.39s-66.91,22.14-94.39-5.35-24-64,.51-88.54S697.13,331.73,724.63,359.23Z" transform="translate(-613.96 -337.62)"/><path id="Trazado_8643" data-name="Trazado 8643" class="cls-9" d="M724.18,359.44c27.29,27.29,29.64,69.31,5.29,93.69s-66.4,22-93.68-5.32-23.93-63.57.42-87.94S696.89,332.16,724.18,359.44Z" transform="translate(-613.96 -337.62)"/><path id="Trazado_8644" data-name="Trazado 8644" class="cls-10" d="M723.71,359.68c27.1,27.07,29.46,68.78,5.25,93S663,474.46,636,447.4a62,62,0,0,1,87.68-87.69Z" transform="translate(-613.96 -337.62)"/><path id="Trazado_8645" data-name="Trazado 8645" class="cls-11" d="M723.26,359.91c26.89,26.87,29.22,68.25,5.25,92.25s-65.38,21.64-92.24-5.25a61.52,61.52,0,0,1,87-87Z" transform="translate(-613.96 -337.62)"/><path id="Trazado_8646" data-name="Trazado 8646" class="cls-12" d="M722.84,360.12c26.66,26.67,29,67.72,5.19,91.54s-64.87,21.48-91.54-5.19a61.06,61.06,0,0,1,86.35-86.35Z" transform="translate(-613.96 -337.62)"/><path id="Trazado_8647" data-name="Trazado 8647" class="cls-13" d="M722.37,360.36c26.46,26.46,28.76,67.19,5.15,90.81s-64.36,21.31-90.81-5.14a60.58,60.58,0,0,1,85.66-85.67Z" transform="translate(-613.96 -337.62)"/><path id="Trazado_8648" data-name="Trazado 8648" class="cls-14" d="M721.93,360.6c26.22,26.21,28.54,66.66,5.1,90.09s-63.84,21.14-90.09-5.1a60.09,60.09,0,0,1,85-85Z" transform="translate(-613.96 -337.62)"/><path id="Trazado_8649" data-name="Trazado 8649" class="cls-15" d="M721.48,360.81c26,26,28.31,66.15,5.06,89.39s-63.35,21-89.38-5.06a59.63,59.63,0,0,1,83.9-84.75Z" transform="translate(-613.96 -337.62)"/><path id="Trazado_8650" data-name="Trazado 8650" class="cls-16" d="M721,361.05c25.82,25.82,28.08,65.58,5,88.66s-62.85,20.8-88.67-5a59.18,59.18,0,1,1,81-86.33c.92.87,1.82,1.77,2.69,2.69Z" transform="translate(-613.96 -337.62)"/><path id="Trazado_8651" data-name="Trazado 8651" class="cls-17" d="M720.58,361.28c25.6,25.6,27.84,65.05,5,87.94s-62.33,20.63-87.94-5a58.67,58.67,0,0,1,82.58-83.35Z" transform="translate(-613.96 -337.62)"/><path id="Trazado_8652" data-name="Trazado 8652" class="cls-18" d="M720.14,361.49c25.39,25.41,27.6,64.54,4.94,87.23s-61.83,20.46-87.24-4.93a58.2,58.2,0,1,1,81.57-83l.74.73Z" transform="translate(-613.96 -337.62)"/><path id="Trazado_8653" data-name="Trazado 8653" class="cls-19" d="M719.69,361.73c25.18,25.2,27.39,64,4.89,86.51s-61.31,20.31-86.52-4.89a57.74,57.74,0,1,1,81.65-81.65Z" transform="translate(-613.96 -337.62)"/><path id="Trazado_8654" data-name="Trazado 8654" class="cls-20" d="M719.22,362c25,25,27.18,63.46,4.87,85.79s-60.8,20.14-85.79-4.85a57.24,57.24,0,1,1,79-82.85c.65.62,1.29,1.26,1.91,1.91Z" transform="translate(-613.96 -337.62)"/><path id="Trazado_8655" data-name="Trazado 8655" class="cls-21" d="M718.77,362.17c24.79,24.8,27,62.92,4.82,85.09s-60.29,20-85.09-4.82a56.76,56.76,0,1,1,79.22-81.32Z" transform="translate(-613.96 -337.62)"/><path id="Trazado_8656" data-name="Trazado 8656" class="cls-22" d="M718.33,362.4c24.59,24.56,26.72,62.42,4.79,84.37s-59.78,19.8-84.37-4.79a56.28,56.28,0,1,1,77.89-81.27C717.22,361.26,717.78,361.82,718.33,362.4Z" transform="translate(-613.96 -337.62)"/><path id="Trazado_8657" data-name="Trazado 8657" class="cls-23" d="M717.88,362.64c24.38,24.35,26.51,61.89,4.75,83.65s-59.3,19.63-83.65-4.74A55.81,55.81,0,0,1,716,360.8c.63.6,1.24,1.22,1.84,1.85Z" transform="translate(-613.96 -337.62)"/><path id="Trazado_8658" data-name="Trazado 8658" class="cls-24" d="M717.44,362.85c24.16,24.16,26.26,61.36,4.7,82.95s-58.78,19.47-82.95-4.7a55.34,55.34,0,0,1,76.3-80.18c.67.63,1.31,1.28,1.94,1.94Z" transform="translate(-613.96 -337.62)"/><path id="Trazado_8659" data-name="Trazado 8659" class="cls-25" d="M717,363.09c24,24,26,60.83,4.66,82.22s-58.27,19.29-82.22-4.66a54.86,54.86,0,0,1,75.64-79.49c.66.63,1.3,1.27,1.93,1.93Z" transform="translate(-613.96 -337.62)"/><path id="Trazado_8660" data-name="Trazado 8660" class="cls-26" d="M716.54,363.32c23.74,23.74,25.8,60.3,4.62,81.5s-57.76,19.12-81.5-4.61A54.39,54.39,0,1,1,714.24,361c.79.74,1.56,1.51,2.3,2.3Z" transform="translate(-613.96 -337.62)"/><path id="Trazado_8661" data-name="Trazado 8661" class="cls-27" d="M716.09,363.53c23.52,23.55,25.59,59.79,4.57,80.8s-57.25,18.95-80.79-4.57a53.93,53.93,0,0,1,73.53-78.92C714.33,361.71,715.23,362.6,716.09,363.53Z" transform="translate(-613.96 -337.62)"/><path id="Trazado_8662" data-name="Trazado 8662" class="cls-28" d="M715.65,363.76C739,387.1,741,423,720.15,443.84s-56.75,18.78-80.08-4.49a53.45,53.45,0,0,1,73.07-78c.85.79,1.68,1.62,2.47,2.47Z" transform="translate(-613.96 -337.62)"/><path id="Trazado_8663" data-name="Trazado 8663" class="cls-29" d="M715.22,364c23.1,23.11,25.12,58.69,4.5,79.35s-56.23,18.6-79.35-4.5a53,53,0,0,1,72-77.73c1,.92,1.94,1.88,2.86,2.87Z" transform="translate(-613.96 -337.62)"/><path id="Trazado_8664" data-name="Trazado 8664" class="cls-30" d="M714.76,364.21c22.91,22.91,24.88,58.19,4.44,78.66s-55.74,18.45-78.65-4.45a52.51,52.51,0,1,1,71.29-77.11q1.51,1.4,2.91,2.91Z" transform="translate(-613.96 -337.62)"/><path id="Trazado_8665" data-name="Trazado 8665" class="cls-31" d="M714.29,364.45c22.71,22.69,24.72,57.67,4.43,77.9s-55.23,18.29-77.91-4.43A52,52,0,1,1,711,361.15c1.14,1,2.23,2.14,3.27,3.27Z" transform="translate(-613.96 -337.62)"/><path id="Trazado_8666" data-name="Trazado 8666" class="cls-32" d="M713.85,364.68c22.47,22.47,24.45,57.1,4.38,77.2S663.51,460,641,437.5a51.55,51.55,0,0,1,69.48-76.16C711.67,362.4,712.79,363.52,713.85,364.68Z" transform="translate(-613.96 -337.62)"/><path id="Trazado_8667" data-name="Trazado 8667" class="cls-33" d="M713.4,364.89c22.28,22.28,24.22,56.59,4.33,76.5s-54.21,18-76.5-4.34A51.09,51.09,0,0,1,709.8,361.3q1.88,1.71,3.59,3.6Z" transform="translate(-613.96 -337.62)"/><path id="Trazado_8668" data-name="Trazado 8668" class="cls-34" d="M713,365.13c22.07,22.07,24,56.06,4.3,75.77s-53.7,17.79-75.78-4.3a50.61,50.61,0,1,1,67.7-75.25,50.06,50.06,0,0,1,3.79,3.78Z" transform="translate(-613.96 -337.62)"/><path id="Trazado_8669" data-name="Trazado 8669" class="cls-35" d="M712.51,365.36c21.86,21.87,23.77,55.53,4.25,75.05s-53.18,17.61-75-4.26a50.13,50.13,0,1,1,67-74.56,49.4,49.4,0,0,1,3.76,3.76Z" transform="translate(-613.96 -337.62)"/><path id="Trazado_8670" data-name="Trazado 8670" class="cls-36" d="M712.06,365.58c21.64,21.65,23.54,55,4.21,74.35s-52.69,17.44-74.36-4.21a49.68,49.68,0,1,1,70.15-70.14Z" transform="translate(-613.96 -337.62)"/><path id="Trazado_8671" data-name="Trazado 8671" class="cls-37" d="M711.61,365.81c21.44,21.44,23.31,54.46,4.16,73.63s-52.19,17.26-73.62-4.17a49.2,49.2,0,1,1,65.25-73.66A47.68,47.68,0,0,1,711.61,365.81Z" transform="translate(-613.96 -337.62)"/><path id="Trazado_8672" data-name="Trazado 8672" class="cls-38" d="M711.14,366c21.23,21.22,23.08,53.93,4.13,72.91s-51.69,17.1-72.91-4.13A48.73,48.73,0,1,1,711.14,366Z" transform="translate(-613.96 -337.62)"/><path id="Trazado_8673" data-name="Trazado 8673" class="cls-39" d="M710.72,366.25c21,21,22.86,53.43,4.09,72.2s-51.17,16.93-72.21-4.08a48.28,48.28,0,0,1,63.53-72.71A47.35,47.35,0,0,1,710.72,366.25Z" transform="translate(-613.96 -337.62)"/><path id="Trazado_8674" data-name="Trazado 8674" class="cls-40" d="M710.27,366.48c20.82,20.83,22.63,52.9,4,71.48s-50.66,16.78-71.47-4a47.8,47.8,0,0,1,62.33-72.49,46.86,46.86,0,0,1,5.08,5.08Z" transform="translate(-613.96 -337.62)"/><path id="Trazado_8675" data-name="Trazado 8675" class="cls-41" d="M709.8,366.72c20.63,20.61,22.41,52.34,4,70.76s-50.15,16.61-70.75-4a47.33,47.33,0,1,1,61.78-71.71A48.19,48.19,0,0,1,709.8,366.72Z" transform="translate(-613.96 -337.62)"/><path id="Trazado_8676" data-name="Trazado 8676" class="cls-42" d="M709.36,366.94c20.42,20.42,22.18,51.83,4,70.05s-49.64,16.45-70.06-4a46.87,46.87,0,0,1,61-71.19A47.41,47.41,0,0,1,709.36,366.94Z" transform="translate(-613.96 -337.62)"/><path id="Trazado_8677" data-name="Trazado 8677" class="cls-43" d="M708.91,367.17c20.23,20.22,22,51.29,3.93,69.33s-49.13,16.27-69.33-3.93a46.39,46.39,0,1,1,65.39-65.4Z" transform="translate(-613.96 -337.62)"/><path id="Trazado_8678" data-name="Trazado 8678" class="cls-44" d="M708.47,367.41c20,20,21.72,50.76,3.89,68.6s-48.63,16.1-68.6-3.89a45.93,45.93,0,1,1,64.72-64.72Z" transform="translate(-613.96 -337.62)"/><path id="Trazado_8679" data-name="Trazado 8679" class="cls-45" d="M708,367.61c19.78,19.78,21.5,50.24,3.85,67.92s-48.13,15.93-67.91-3.85-20.56-49.3-2.89-67S688.24,347.85,708,367.61Z" transform="translate(-613.96 -337.62)"/><path id="Trazado_8680" data-name="Trazado 8680" class="cls-46" d="M707.58,367.85c19.57,19.56,21.27,49.7,3.81,67.18s-47.62,15.73-67.18-3.8-20.48-48.9-3-66.38S688,348.28,707.58,367.85Z" transform="translate(-613.96 -337.62)"/><path id="Trazado_8681" data-name="Trazado 8681" class="cls-47" d="M707.12,368.1c19.36,19.36,21.06,49.17,3.75,66.46s-47.11,15.59-66.46-3.75S624,382.3,641.3,365,687.76,348.71,707.12,368.1Z" transform="translate(-613.96 -337.62)"/><path id="Trazado_8682" data-name="Trazado 8682" class="cls-48" d="M706.68,368.33c19.14,19.16,20.82,48.69,3.74,65.76s-46.6,15.41-65.76-3.75-20.27-48.1-3.17-65.17S687.52,349.16,706.68,368.33Z" transform="translate(-613.96 -337.62)"/><path id="Trazado_8683" data-name="Trazado 8683" class="cls-49" d="M706.23,368.53c18.93,19,20.58,48.1,3.68,65s-46.09,15.25-65-3.67-20.18-47.73-3.27-64.63S687.28,349.58,706.23,368.53Z" transform="translate(-613.96 -337.62)"/><path id="Trazado_8684" data-name="Trazado 8684" class="cls-50" d="M705.78,368.74c18.73,18.73,20.35,47.57,3.64,64.31s-45.57,15.08-64.32-3.63S625,382.1,641.73,365.36,687,350,705.78,368.74Z" transform="translate(-613.96 -337.62)"/><path id="Trazado_8685" data-name="Trazado 8685" class="cls-51" d="M705.34,369c18.52,18.55,20.12,47.06,3.59,63.61s-45.06,14.93-63.61-3.62-20-46.91-3.44-63.46S686.79,350.45,705.34,369Z" transform="translate(-613.96 -337.62)"/><path id="Trazado_8686" data-name="Trazado 8686" d="M704.87,369.21c18.33,18.31,19.92,46.53,3.57,62.92s-44.58,14.76-62.92-3.57-19.91-46.51-3.55-62.87S686.56,350.9,704.87,369.21Z" transform="translate(-613.96 -337.62)"/></g><g id="Grupo_6278" data-name="Grupo 6278"><path id="Trazado_8687" data-name="Trazado 8687" class="cls-52" d="M716,359.32a56.33,56.33,0,0,0-79.65-1.61c-.55.53-1.09,1.07-1.61,1.61a56.46,56.46,0,0,0-6.42,8c-.64.93-1.24,1.89-1.79,2.87s-1.16,2.08-1.67,3.15-1,2-1.43,3.08a56.5,56.5,0,0,0,0,44c.45,1,.94,2.06,1.43,3.09s1.08,2.06,1.65,3.06,1.15,1.93,1.79,2.85a56.37,56.37,0,0,0,94.14-62.05,55.21,55.21,0,0,0-6.46-8.07Z" transform="translate(-613.96 -337.62)"/><g id="Grupo_6277" data-name="Grupo 6277"><path id="Trazado_8688" data-name="Trazado 8688" class="cls-53" d="M731.76,398.41l-103.47,31c-.64-.92-1.24-1.88-1.79-2.85s-1.12-2-1.65-3.06-1-2-1.42-3.09a56.5,56.5,0,0,1,0-44c.42-1,.91-2.06,1.42-3.08s1.09-2.13,1.68-3.15,1.14-1.93,1.78-2.87Z" transform="translate(-613.96 -337.62)"/><path id="Trazado_8689" data-name="Trazado 8689" class="cls-54" d="M720.42,398.41,626.5,426.59q-.86-1.5-1.65-3.06c-.49-1-1-2-1.42-3.09a56.5,56.5,0,0,1,0-44c.42-1,.91-2.06,1.42-3.08s1.09-2.13,1.68-3.15Z" transform="translate(-613.96 -337.62)"/><path id="Trazado_8690" data-name="Trazado 8690" d="M666.62,398.57l-41.79,25c-.49-1-1-2-1.43-3.08a56.5,56.5,0,0,1,0-44c.43-1,.92-2.06,1.43-3.09Z" transform="translate(-613.96 -337.62)"/><path id="Trazado_8691" data-name="Trazado 8691" class="cls-55" d="M660.3,398.54l-36.88,21.9a56.5,56.5,0,0,1,0-44Z" transform="translate(-613.96 -337.62)"/></g></g></g></svg>