<svg id="Capa_1" data-name="Capa 1" xmlns="http://www.w3.org/2000/svg" viewBox="0 0 118.55 118.54"><defs><style>.cls-1{fill:#fff;fill-rule:evenodd;}</style></defs><path id="Trazado_10374" data-name="Trazado 10374" class="cls-1" d="M630,383.87a3.71,3.71,0,1,1-3.71,3.7h0A3.71,3.71,0,0,1,630,383.87Zm62.94,44.46H678.07a7.4,7.4,0,0,0-7.4,7.4h0v14.82a14.83,14.83,0,0,1-14.82,14.83H641a14.82,14.82,0,0,1-14.82-14.83h0V435.73h0a7.4,7.4,0,0,0-7.41-7.4H604a14.83,14.83,0,0,1-14.82-14.82h0V398.69A14.82,14.82,0,0,1,604,383.87h11.11a3.7,3.7,0,0,1,.34,7.4h-9.6a9.26,9.26,0,0,0-9.26,9.26h0v11.11a9.27,9.27,0,0,0,9.26,9.26h14.82a13,13,0,0,1,13,13h0v14.82a9.25,9.25,0,0,0,9.26,9.26H654a9.25,9.25,0,0,0,9.25-9.26h0V433.85a13,13,0,0,1,13-13H691a9.26,9.26,0,0,0,9.26-9.26h0V400.53a9.25,9.25,0,0,0-9.26-9.26H676.19a13,13,0,0,1-13-13h0V363.49a9.26,9.26,0,0,0-9.25-9.26H642.87a9.26,9.26,0,0,0-9.26,9.26h0v9.26a3.7,3.7,0,1,1-7.4.34,1.93,1.93,0,0,1,0-.34V361.66A14.81,14.81,0,0,1,641,346.84h14.82a14.82,14.82,0,0,1,14.82,14.82h0v14.82h0a7.4,7.4,0,0,0,7.4,7.4h14.82a14.82,14.82,0,0,1,14.82,14.82h0v14.82a14.82,14.82,0,0,1-14.82,14.83h0Z" transform="translate(-589.16 -346.84)"/></svg>