<svg id="Capa_1" data-name="Capa 1" xmlns="http://www.w3.org/2000/svg" viewBox="0 0 152.37 123.78"><defs><style>.cls-1{fill:#fff;fill-rule:evenodd;}</style></defs><path id="Trazado_10459" data-name="Trazado 10459" class="cls-1" d="M619.56,455.84a1.5,1.5,0,0,1-.18.24l-.35.43a9.6,9.6,0,0,1-1,1.26,11.77,11.77,0,0,1-16.65.19h0l-4.18-4.19h0a7.11,7.11,0,0,0-9.78-.49,61.87,61.87,0,0,1-99.09-28.6,3.54,3.54,0,0,1-.14-.39h0a4.61,4.61,0,0,1-.27-1.56,4.75,4.75,0,0,1,9.26-1.49h.06a52.35,52.35,0,0,0,83.91,24.87h0a16.66,16.66,0,0,1,22.72.78l4,4a2.34,2.34,0,0,0,3.31.06l.06-.06h0a9.52,9.52,0,0,0,2.79-6.74v-19a9.53,9.53,0,0,0-9.53-9.53H585.41a9.47,9.47,0,0,0-6.74,2.8h0a2.38,2.38,0,0,0,0,3.36h0l3.8,3.81h0a4.79,4.79,0,0,1-6.64,6.9l-.19-.18-4-4.05a11.78,11.78,0,0,1,.18-16.65,11.07,11.07,0,0,1,1.13-.92l.69-.57.06,0a18.88,18.88,0,0,1,11.7-4h19.06a19.05,19.05,0,0,1,19,19.06v19.05a18.94,18.94,0,0,1-4,11.64Zm-19.89-66.41a4.77,4.77,0,1,1,4.76-4.77h0A4.77,4.77,0,0,1,599.67,389.43Zm-7.15-23.74a4.77,4.77,0,0,1-8.16,3.34,52.25,52.25,0,0,0-70.75-2.92s0-.06-.05-.05a16.67,16.67,0,0,1-22.71-.78l-4-4a2.34,2.34,0,0,0-3.31,0l-.06,0h0a9.5,9.5,0,0,0-2.79,6.73v19.06a9.53,9.53,0,0,0,9.53,9.52h19.05A9.55,9.55,0,0,0,516,393.8h0a2.38,2.38,0,0,0,0-3.37l-3.76-3.77a4.79,4.79,0,1,1,6.49-7,4,4,0,0,1,.29.29l4,4a11.78,11.78,0,0,1-.18,16.65,11.18,11.18,0,0,1-1.14.92c-.23.21-.45.39-.68.57,0,0,0,0-.06,0a18.88,18.88,0,0,1-11.7,4H490.21a19.05,19.05,0,0,1-19.07-19V368a18.94,18.94,0,0,1,4-11.64c.05-.08.12-.16.18-.24l.35-.43a12.31,12.31,0,0,1,1-1.26,11.78,11.78,0,0,1,16.65-.17l4.19,4.18h0a7.1,7.1,0,0,0,9.77.5,61.85,61.85,0,0,1,83.82,3.4h0a4.76,4.76,0,0,1,1.4,3.37Z" transform="translate(-471.14 -344.23)"/></svg>