<svg id="Capa_1" data-name="Capa 1" xmlns="http://www.w3.org/2000/svg" viewBox="0 0 99.91 99.94"><defs><style>.cls-1{fill:#fff;}</style></defs><g id="Grupo_7359" data-name="Grupo 7359"><path id="Trazado_10422" data-name="Trazado 10422" class="cls-1" d="M576.42,393.75v16.54h-8.25v-8.21h-8.33v16.54H543.21V427h16.52V456.1h-8.22V435.42H534.88v-25h16.54V393.77Z" transform="translate(-497.37 -356.23)"/><path id="Trazado_10423" data-name="Trazado 10423" class="cls-1" d="M526.41,356.25V385.3h-29V356.25Zm-20.73,8.31V377h12.37V364.56Z" transform="translate(-497.37 -356.23)"/><path id="Trazado_10424" data-name="Trazado 10424" class="cls-1" d="M568.18,385.27v-29h29v29Zm8.36-20.71v12.37h12.38V364.56Z" transform="translate(-497.37 -356.23)"/><path id="Trazado_10425" data-name="Trazado 10425" class="cls-1" d="M534.81,393.75V372.93H543V402H505.65v16.65h-8.26v-24.9Z" transform="translate(-497.37 -356.23)"/><path id="Trazado_10426" data-name="Trazado 10426" class="cls-1" d="M526.41,427.09v29.08h-29V427.09Zm-8.33,8.34H505.7V447.8h12.4Z" transform="translate(-497.37 -356.23)"/><path id="Trazado_10427" data-name="Trazado 10427" class="cls-1" d="M597.22,427H568.15v-8.25h20.77v-25h8.27Z" transform="translate(-497.37 -356.23)"/><path id="Trazado_10428" data-name="Trazado 10428" class="cls-1" d="M589,443.74H576.5v12.37h-8.3V435.43h29.08v20.68H589Z" transform="translate(-497.37 -356.23)"/><path id="Trazado_10429" data-name="Trazado 10429" class="cls-1" d="M559.72,385.3h-8.24V364.55H534.87v-8.32h24.87Z" transform="translate(-497.37 -356.23)"/><path id="Trazado_10430" data-name="Trazado 10430" class="cls-1" d="M526.41,410.43v8.2H514v-8.2Z" transform="translate(-497.37 -356.23)"/><path id="Trazado_10431" data-name="Trazado 10431" class="cls-1" d="M543.05,456.14h-8.21V443.78h8.21Z" transform="translate(-497.37 -356.23)"/></g></svg>