<svg id="Capa_1" data-name="Capa 1" xmlns="http://www.w3.org/2000/svg" viewBox="0 0 53.96 53.99"><defs><style>.cls-1{fill:#004a9c;fill-rule:evenodd;}.cls-2{fill:#f07e00;}.cls-3{fill:none;stroke:#f07e00;}</style></defs><path id="Trazado_10011" data-name="Trazado 10011" class="cls-1" d="M702.79,411.07H662.3a6.75,6.75,0,0,1-6.75-6.75v-5.06c0-2.76,2.14-5.27,5.7-7.27h0a1.49,1.49,0,0,1,.74-.2,1.57,1.57,0,0,1,.78,2.94v0c-2.43,1.33-3.85,2.89-3.85,4.49v5.07a3.36,3.36,0,0,0,3.36,3.37h40.5a3.37,3.37,0,0,0,3.38-3.37h0v-5.07c0-4.65-10.58-8.43-23.62-8.43a13.4,13.4,0,0,1-8.23-2.82h0a13.42,13.42,0,0,1-5.21-9.63c0-.35-.06-.69-.06-1V367.2a10.13,10.13,0,0,1,10.13-10.13h6.74A10.13,10.13,0,0,1,696,367.2h0v10.12a9.07,9.07,0,0,1-.06,1,13.14,13.14,0,0,1-1.62,5.4,1.68,1.68,0,0,1-3.2-1l.12-.27h0a10,10,0,0,0,1.4-5.12V367.2a6.75,6.75,0,0,0-6.75-6.74h-6.74a6.75,6.75,0,0,0-6.75,6.74v10.13a10.11,10.11,0,0,0,9.67,10.1l.45,0a59.44,59.44,0,0,1,8.22.56c.67.09,1.32.2,2,.3h.07c.63.11,1.24.24,1.84.36l.16,0c1.19.27,2.33.57,3.41.9l.16.05c.53.17,1,.35,1.55.53l.1,0c.5.19,1,.37,1.44.58h.06c.46.2.9.41,1.33.63l.18.09c.42.21.83.44,1.2.66h0q.57.33,1.08.69l.15.1c.33.24.64.47.94.72l.14.11c.28.25.55.49.79.74l0,0a8.44,8.44,0,0,1,.68.78l.12.16a7.33,7.33,0,0,1,.54.79l0,.11a5.17,5.17,0,0,1,.36.75l.06.15a4.63,4.63,0,0,1,.23.83,1.35,1.35,0,0,0,0,.18,5.14,5.14,0,0,1,.09.87v5.06a6.75,6.75,0,0,1-6.75,6.75Z" transform="translate(-655.55 -357.07)"/><g id="Elipse_42" data-name="Elipse 42"><circle class="cls-2" cx="12.05" cy="33.13" r="3.01"/><circle class="cls-3" cx="12.05" cy="33.13" r="1.51"/></g></svg>