<svg id="Capa_1" data-name="Capa 1" xmlns="http://www.w3.org/2000/svg" viewBox="0 0 142.66 124.79"><defs><style>.cls-1{fill:#fff;fill-rule:evenodd;}</style></defs><path id="Trazado_10460" data-name="Trazado 10460" class="cls-1" d="M493.82,366.08a4.46,4.46,0,1,1,4.46,4.46,4.46,4.46,0,0,1-4.46-4.46Zm17.83,0a4.46,4.46,0,1,1,4.45,4.46,4.45,4.45,0,0,1-4.45-4.46Zm17.82,0a4.46,4.46,0,1,1,4.46,4.46,4.46,4.46,0,0,1-4.46-4.46Zm89.15,24.52v60.17a17.83,17.83,0,0,1-17.83,17.82h-107A17.82,17.82,0,0,1,476,450.77v-49a4.46,4.46,0,1,1,8.91-.06v49.09a8.91,8.91,0,0,0,8.91,8.91h107a8.91,8.91,0,0,0,8.91-8.91h0V392.83a4.46,4.46,0,0,0-4.45-4.46H487.14A11.14,11.14,0,0,1,476,377.23h0v-15.6a17.82,17.82,0,0,1,17.82-17.83h107a17.83,17.83,0,0,1,17.83,17.83v4.45a4.46,4.46,0,0,1-8.92,0v-4.45a8.91,8.91,0,0,0-8.91-8.92h-107a8.91,8.91,0,0,0-8.91,8.92h0V375a4.46,4.46,0,0,0,4.46,4.45H607.51a11.15,11.15,0,0,1,11.14,11.15h0Z" transform="translate(-476 -343.8)"/></svg>