<svg id="Capa_1" data-name="Capa 1" xmlns="http://www.w3.org/2000/svg" viewBox="0 0 54.43 58.98"><defs><style>.cls-01{fill:#fff;}.cls-01,.cls-02{fill-rule:evenodd;}.cls-02{fill:#fbbd06;}</style></defs><g id="Grupo_6709" data-name="Grupo 6709"><path id="Trazado_9815" data-name="Trazado 9815" class="cls-01" d="M691.25,382.9a2.26,2.26,0,0,1-4.42-.71,2.22,2.22,0,0,1,.19-.91h0a8.87,8.87,0,0,0,.71-5.28,6,6,0,0,0,.13-1.27v-9.22a6.1,6.1,0,0,0-6.05-6.15h-6a6.09,6.09,0,0,0-6,6.15v9.22a6,6,0,0,0,.13,1.27,9,9,0,0,0,7.34,10.43,9.51,9.51,0,0,0,1.6.13c15,0,27.21,5.59,27.21,12.47v5.67a9.07,9.07,0,0,1-9.07,9.07H660.64a9.07,9.07,0,0,1-9.07-9.07V399a8.91,8.91,0,0,1,4.68-7,2.06,2.06,0,0,1,1.29-.45,2.1,2.1,0,0,1,2.1,2.1,2.12,2.12,0,0,1-1,1.77v0a4.73,4.73,0,0,0-2.58,3.55v5.67a4.53,4.53,0,0,0,4.53,4.54H697a4.54,4.54,0,0,0,4.54-4.54V399c0-4.38-10.16-7.93-22.68-7.93A13.64,13.64,0,0,1,667,384.18l0,0c-.2-.37-.37-.73-.56-1.1a.61.61,0,0,0,0-.12c-.15-.37-.29-.74-.41-1.1,0-.07,0-.14-.07-.2-.11-.35-.2-.7-.28-1.06,0-.09-.06-.19-.08-.28-.07-.35-.12-.71-.16-1.06a2.1,2.1,0,0,0-.06-.33c0-.47-.07-.94-.07-1.42,0-.24,0-.49,0-.73s0-.51,0-.77V365.38a10.4,10.4,0,0,1,10.21-10.58h6.79a10.38,10.38,0,0,1,10.2,10.58V376c0,.26,0,.51,0,.77s0,.49,0,.73a13.37,13.37,0,0,1-1.15,5.43Z" transform="translate(-651.57 -354.8)"/><path id="Trazado_9816" data-name="Trazado 9816" class="cls-02" d="M664.06,385.42a3.41,3.41,0,0,1,3.41,3.41,3.21,3.21,0,0,1-.18,1.07,3.32,3.32,0,0,1-2.15,2.15,3.4,3.4,0,1,1-2.12-6.47,3.29,3.29,0,0,1,1-.17Z" transform="translate(-651.57 -354.8)"/></g></svg>
