<svg id="Capa_1" data-name="Capa 1" xmlns="http://www.w3.org/2000/svg" viewBox="0 0 50.43 49.98"><defs><style>.cls-01{fill:#fff;}.cls-01,.cls-02{fill-rule:evenodd;}.cls-02{fill:#fbbd06;}</style></defs><path id="Trazado_9817" data-name="Trazado 9817" class="cls-01" d="M677.46,399.9a1.56,1.56,0,1,1-1.56,1.56,1.56,1.56,0,0,1,1.56-1.56ZM675.9,389a1.56,1.56,0,0,1,3.12,0v6.25a1.56,1.56,0,0,1-3.12,0Zm21.85,20.29H660.29a6.24,6.24,0,0,1-6.24-6.24h0V389a1.56,1.56,0,0,1,3.12,0v13.29a3.9,3.9,0,0,0,3.9,3.9H697a3.91,3.91,0,0,0,3.91-3.9h0V388.21A3.91,3.91,0,0,0,697,384.3H668.09a4.68,4.68,0,0,1-4.68-4.68h0v-4.68a15.61,15.61,0,0,1,31.22-.06v1.62a1.56,1.56,0,1,1-3.12,0v-1.56a12.49,12.49,0,0,0-25-.39,2.54,2.54,0,0,0,0,.39v3.9a2.34,2.34,0,0,0,2.34,2.34h28.88a6.26,6.26,0,0,1,6.24,6.25V403a6.25,6.25,0,0,1-6.24,6.24Z" transform="translate(-653.57 -359.3)"/><path id="Trazado_9818" data-name="Trazado 9818" class="cls-02" d="M656.38,377.6a2.81,2.81,0,1,1-2.81,2.81h0A2.81,2.81,0,0,1,656.38,377.6Z" transform="translate(-653.57 -359.3)"/></svg>
