<svg id="Capa_1" data-name="Capa 1" xmlns="http://www.w3.org/2000/svg" viewBox="0 0 134.31 125.93"><defs><style>.cls-1{fill:#fff;fill-rule:evenodd;}</style></defs><path id="Trazado_10457" data-name="Trazado 10457" class="cls-1" d="M610.28,444a4.2,4.2,0,0,1-4.19-4.2V372.62a4.21,4.21,0,0,0-4.2-4.2H593.5a4.21,4.21,0,0,0-4.2,4.2v86a10.5,10.5,0,0,1-10.5,10.5h-4.19a10.49,10.49,0,0,1-10.49-10.49V414.6a4.21,4.21,0,0,0-4.2-4.2h-8.4a4.2,4.2,0,0,0-4.19,4.2v44.07a10.5,10.5,0,0,1-10.5,10.49h-4.19a10.49,10.49,0,0,1-10.49-10.49V431.38a4.2,4.2,0,0,0-4.2-4.19h-8.4a4.2,4.2,0,0,0-4.19,4.19v29.38a8.39,8.39,0,0,1-8.39,8.4h0a16.79,16.79,0,0,1-16.78-16.79h0V347.43a4.2,4.2,0,1,1,8.39,0V452.37c0,4.64,3.24,8.39,6.3,8.39a2.08,2.08,0,0,0,2.1-2.08v-29.4a10.49,10.49,0,0,1,10.49-10.49H520a10.5,10.5,0,0,1,10.5,10.49v27.29a4.2,4.2,0,1,0,8.39,0h0V412.49A10.51,10.51,0,0,1,549.42,402H562a10.5,10.5,0,0,1,10.49,10.49v44.08a4.2,4.2,0,1,0,8.4,0h0V370.52A10.49,10.49,0,0,1,591.4,360H604a10.5,10.5,0,0,1,10.49,10.49v69.26a4.2,4.2,0,0,1-4.19,4.2Zm0,8.39a4.2,4.2,0,1,1-4.19,4.2h0A4.2,4.2,0,0,1,610.28,452.37Z" transform="translate(-480.17 -343.23)"/></svg>