<svg id="Capa_1" data-name="Capa 1" xmlns="http://www.w3.org/2000/svg" viewBox="0 0 54.3 54.32"><defs><style>.cls-1{fill:#004a9c;fill-rule:evenodd;}.cls-2{fill:#f07e00;}.cls-3{fill:none;stroke:#f07e00;}</style></defs><path id="Trazado_10012" data-name="Trazado 10012" class="cls-1" d="M681.88,411.23A27.12,27.12,0,0,1,658.11,371a6.78,6.78,0,1,1,12.23,5.85c-.08.16-.16.32-.26.48h0a13.57,13.57,0,1,0,23.53,13.52,13.32,13.32,0,0,0,.9-1.91l.09-.23c.14-.39.26-.78.37-1.18l.09-.36a11.08,11.08,0,0,0,.21-1.15c0-.13.05-.26.06-.4a11.42,11.42,0,0,0,.1-1.55,12.78,12.78,0,0,0-.11-1.64v0h0a13.23,13.23,0,0,0-1.76-5.18,2.54,2.54,0,0,0-4.91.92v2.55a6.9,6.9,0,0,1-.49,2.53,7.16,7.16,0,0,1-.43.88l0,.06a6.94,6.94,0,0,1-1.17,1.47l-.1.09a7.46,7.46,0,0,1-.7.56h0a6.25,6.25,0,0,1-.79.46l-.16.08a6.38,6.38,0,0,1-.82.33h0c-.29.08-.59.15-.88.2l-.22,0a6.76,6.76,0,0,1-7.65-5.73,6.59,6.59,0,0,1-.07-1v-17a6.79,6.79,0,0,1,13.57,0v1.7a1.7,1.7,0,1,1-3.39,0h0v-1.7a3.4,3.4,0,0,0-6.79,0v17a3.4,3.4,0,0,0,6.79,0v-2.54a5.47,5.47,0,0,1,.11-1.07c0-.11,0-.21.07-.32a5.68,5.68,0,0,1,.22-.7c0-.11.07-.22.12-.33a5.62,5.62,0,0,1,.44-.8c.09-.15.2-.27.29-.41a3.39,3.39,0,0,1,.28-.34,5.51,5.51,0,0,1,.42-.42l.21-.17a5.43,5.43,0,0,1,1.22-.79h0a5.74,5.74,0,0,1,2.54-.59,5.94,5.94,0,0,1,5.45,3.57h0a17,17,0,1,1-31.75,8.31c0-.54,0-1.07.08-1.59a2.58,2.58,0,0,1,0-.29c.07-.53.14-1.05.25-1.57a17,17,0,0,1,1.89-5l0,0a3.35,3.35,0,0,0,.48-1.71,3.39,3.39,0,0,0-6.53-1.27,23.6,23.6,0,0,0-2.76,8.37.86.86,0,0,1,0,.23c0,.42-.1.84-.13,1.27s0,1,0,1.55A23.75,23.75,0,0,0,705.55,386c.05-.63.09-1.25.09-1.89s0-1.18-.07-1.74c0-.19,0-.38-.05-.59,0-.38-.08-.75-.13-1.12l-.12-.68c-.06-.33-.12-.66-.19-1s-.11-.47-.17-.7-.17-.63-.26-.94l-.2-.68-.37-1c-.1-.24-.19-.48-.3-.71-.18-.42-.36-.84-.56-1.25-.1-.2-.21-.39-.3-.59s-.22-.43-.33-.65l0,0a1.67,1.67,0,0,1-.38-1.05,1.7,1.7,0,0,1,3.29-.59h0a27.13,27.13,0,0,1-23.66,40.45Z" transform="translate(-654.73 -356.91)"/><g id="Elipse_43" data-name="Elipse 43"><circle class="cls-2" cx="44.09" cy="8.85" r="2.94"/><circle class="cls-3" cx="44.09" cy="8.85" r="1.47"/></g></svg>