<svg id="Capa_1" data-name="Capa 1" xmlns="http://www.w3.org/2000/svg" viewBox="0 0 88.09 88.07"><defs><style>.cls-1{fill:#c80000;fill-rule:evenodd;}</style></defs><path id="Trazado_10323" data-name="Trazado 10323" class="cls-1" d="M536.3,431V403.45a2.74,2.74,0,0,1,5.48,0V431a2.74,2.74,0,0,1-5.48,0Zm19.26-8.26a2.74,2.74,0,0,1-2.74-2.74V403.46a2.75,2.75,0,0,1,5.49,0V420A2.75,2.75,0,0,1,555.56,422.72Zm0,11a2.75,2.75,0,1,1,2.75-2.74A2.74,2.74,0,0,1,555.56,433.73Zm24.77-44H526.66a6.89,6.89,0,0,0-6.89,6.88h0v41.28a6.89,6.89,0,0,0,6.89,6.89h41.28a6.88,6.88,0,0,0,6.89-6.89h0v-23.4a2.74,2.74,0,1,1,5.48,0v24.78a11,11,0,0,1-11,11h-44a11,11,0,0,1-11-11v-44a11,11,0,0,1,11-11h55.05a5.51,5.51,0,0,0,0-11H559.67c-3,0-3.84-5.49-6.88-5.49h-11c-3,0-3.84,5.49-6.88,5.49H514.25a5.48,5.48,0,0,0-5.48,5.48,2.75,2.75,0,1,1-5.49,0,11,11,0,0,1,11-11h15.14c3,0,3.84-5.49,6.88-5.49h22c3,0,3.84,5.49,6.89,5.49h15.14a11,11,0,0,1,0,22Z" transform="translate(-503.28 -362.16)"/></svg>