<svg id="Capa_1" data-name="Capa 1" xmlns="http://www.w3.org/2000/svg" viewBox="0 0 59.75 76.57"><defs><style>.cls-1{fill:#fff;}</style></defs><path id="Trazado_10443" data-name="Trazado 10443" class="cls-1" d="M569.73,400l7.19,2L571,423.27h2.3c2.59,0,5.19,0,7.78,0,.69,0,.92-.23,1.09-.85q3-10.87,6-21.74l.24-.73,7.18,2-5.9,21.3h12.47v7.46H587.64l-4.16,15H602.2v7.52h-20a.89.89,0,0,0-1,.72.22.22,0,0,0,0,.08q-3,10.88-6,21.73c-.07.23-.15.47-.25.77l-7.18-2,5.9-21.31H563.55a.94.94,0,0,0-1.1.85q-3,10.88-6,21.73c-.07.22-.14.42-.24.74l-7.19-2,5.91-21.3H542.45v-7.5H557l4.16-15H542.45v-7.48h20c.65,0,.88-.22,1-.82l6.12-22.05Zm6,45.71,4.13-14.89H568.92l-4.13,14.89Z" transform="translate(-542.45 -399.95)"/></svg>