<svg id="Capa_1" data-name="Capa 1" xmlns="http://www.w3.org/2000/svg" viewBox="0 0 123.59 130.34"><defs><style>.cls-1{fill:#fff;}</style></defs><g id="Grupo_7371" data-name="Grupo 7371"><path id="Trazado_10445" data-name="Trazado 10445" class="cls-1" d="M534.18,375.05V348.73a7,7,0,0,1,6.24-7.73,6.27,6.27,0,0,1,1.5,0h11.21a6.94,6.94,0,0,1,7.34,6.51c0,.26,0,.53,0,.79V375h2.64a70.69,70.69,0,0,1,8.73.29,13.61,13.61,0,0,1,11.44,13.38c.07,7.89,0,15.79,0,23.69a1.93,1.93,0,0,0,.94,1.8c3.61,2.52,7.18,5,10.76,7.61a4.31,4.31,0,0,1,1.94,5.25l-8.65,34.35c-.1.37-.16.76-.27,1.22a12,12,0,0,0,8.45-2.45A20.25,20.25,0,0,1,608,456h.7a2,2,0,0,1,.42.07v8.24c-.69.07-1.41.08-2.13.2a12.54,12.54,0,0,0-5.42,2.28,21.51,21.51,0,0,1-25.78.17A13.1,13.1,0,0,0,560,467a21.53,21.53,0,0,1-25.41,0,13.51,13.51,0,0,0-15.91.13,21.08,21.08,0,0,1-25.21,0,13.1,13.1,0,0,0-8-2.72v-8.53c1.84.28,3.67.44,5.45.84a19.34,19.34,0,0,1,7.29,3.54,11.35,11.35,0,0,0,8.41,2.32c-.8-3.12-1.59-6.23-2.39-9.34L497.57,427a4.16,4.16,0,0,1,1.83-5c3.61-2.57,7.22-5.15,10.86-7.68a1.92,1.92,0,0,0,.94-1.79q-.06-11.62,0-23.23a13.83,13.83,0,0,1,9.64-13.56,19,19,0,0,1,4.92-.71C528.49,375,531.25,375.05,534.18,375.05Zm17.37,43.33v43.88c1.47-.89,2.79-1.61,4-2.47a21.46,21.46,0,0,1,23.53-.7c.29.18.58.33.94.53.13-.47.26-.84.35-1.19,1.28-5.13,2.52-10.26,3.85-15.37a1.55,1.55,0,0,0-.74-2q-15.42-10.92-30.8-21.9Zm-8.52,0a3.83,3.83,0,0,0-.46.26Q526.66,430,510.74,441.26c-.68.48-.62.94-.44,1.58q2.06,7.89,4.08,15.79c.09.32.21.62.35,1,.45-.28.84-.51,1.16-.73a20,20,0,0,1,8.78-2.88,21.34,21.34,0,0,1,15,4.2,32.91,32.91,0,0,0,3.36,1.94Zm-23.4-10.68c.64-.44,1-.65,1.27-.84L544,390.44a4.66,4.66,0,0,1,6.58-.24l.24.24,23,16.35,1.24.84c0-6.45.07-12.67,0-18.88a5.44,5.44,0,0,0-5.6-5.27h-44a5.57,5.57,0,0,0-5.88,5.22q0,.33,0,.66c0,2.46,0,4.9,0,7.35Zm23.52-6.33-5,3.57-30.75,21.72c-.32.23-.84.64-.78.84.36,1.8.84,3.57,1.3,5.46l6.36-4.48,28-19.79a2.21,2.21,0,0,0,.9-1.18c0-1.93,0-3.91,0-6.14Zm8.4.05c0,2,.05,3.8,0,5.6a1.79,1.79,0,0,0,.89,1.68q16.71,11.83,33.37,23.68c.3.22.62.41,1.06.68.4-1.59.7-3.07,1.14-4.51a1.45,1.45,0,0,0-.72-1.89Q570,414.45,552.77,402.18a12.78,12.78,0,0,1-1.22-.75ZM552,363h-9.35V375H552Zm0-13.57h-9.35v5H552Z" transform="translate(-485.53 -340.96)"/></g></svg>