<svg id="Capa_1" data-name="Capa 1" xmlns="http://www.w3.org/2000/svg" viewBox="0 0 121.31 121.37"><defs><style>.cls-1{fill:#f07e00;}.cls-2{fill:#004a9c;}</style></defs><g id="Grupo_7116" data-name="Grupo 7116"><circle id="Elipse_157" data-name="Elipse 157" class="cls-1" cx="34.28" cy="45.94" r="7.63"/><path id="Trazado_10321" data-name="Trazado 10321" class="cls-2" d="M568.19,428.23h0a58.4,58.4,0,0,1,8.85-7.05,6,6,0,0,0,.43-7.84C575,410.65,567.08,413,565,415l-37.1,37.09a11.43,11.43,0,0,1-9.18,3.28c-.17,0-.32,0-.48,0h-8.66A11.54,11.54,0,0,1,498,443.92v-8.66c0-.17,0-.32,0-.48a11.5,11.5,0,0,1,3.28-9.18l12-12a5.76,5.76,0,0,0-7.64-8.61l-.18.16h0l-12.27,12.25a23,23,0,0,0-6.37,12.28,11.34,11.34,0,0,0-.34,2.66v23.09A11.54,11.54,0,0,0,498.05,467h23.06a11.88,11.88,0,0,0,2.66-.33,22.94,22.94,0,0,0,12.28-6.38l32.07-32.07A.14.14,0,0,0,568.19,428.23Z" transform="translate(-486.52 -345.66)"/><path id="Trazado_10322" data-name="Trazado 10322" class="cls-2" d="M601.09,362.64l-10.21-10.21a23.1,23.1,0,0,0-32.67,0h0l-13.13,13.13c-1,1-5.61,4.9-6.65,5.94-2.87,2.9-5.88,4.52-6.67,7.69s3.5,5,3.5,5a32.16,32.16,0,0,0,17.86-10.38l13.25-13.26a11.55,11.55,0,0,1,16.33,0h0l10.2,10.21a11.53,11.53,0,0,1,0,16.32h0l-.34.35h-.11a2.9,2.9,0,0,1-4.08,0h0l-12.56-12.57a5.78,5.78,0,1,0-8.17,8.18L582.51,398a11.54,11.54,0,0,0,16.08-.21l0,0,2.44-2.44A23.11,23.11,0,0,0,601.09,362.64Z" transform="translate(-486.52 -345.66)"/></g></svg>