<svg id="Capa_1" data-name="Capa 1" xmlns="http://www.w3.org/2000/svg" viewBox="0 0 89.19 89.16"><defs><style>.cls-1{fill:#fff;fill-rule:evenodd;}</style></defs><path id="Trazado_10461" data-name="Trazado 10461" class="cls-1" d="M627.33,432.74v.12a11.59,11.59,0,0,1-.27,1.45c-.09.35-.19.69-.31,1s-.13.39-.22.58a9.47,9.47,0,0,1-.89,1.7l0,.09a11.38,11.38,0,0,1-1.93,2.23l-42.81,42.81a11.15,11.15,0,0,1-15.76,0l-23.63-23.63a11.14,11.14,0,0,1,0-15.75L573.85,411l0-.06a2.78,2.78,0,0,1,4,3.9h0L558.75,434l-12.36,12.36a7,7,0,0,0,0,9.84h0l.86.87.11.13,19.69,19.69a1.27,1.27,0,0,0,.13.11l.87.87a7,7,0,0,0,9.84,0h0L588.73,467l30.56-30.57a8.3,8.3,0,0,0,2.33-4.66,6.83,6.83,0,0,0,.17-1.5V409.38a7,7,0,0,0-7-7H594a2.79,2.79,0,0,1,0-5.57h22.28A11.13,11.13,0,0,1,627.37,408v23a11.73,11.73,0,0,1,0,1.78Zm-22.22-8a2.78,2.78,0,0,1,0,5.56,11.14,11.14,0,1,1,11.14-11.13h0a2.79,2.79,0,0,1-5.57,0,5.57,5.57,0,1,0-5.57,5.57ZM582.83,408a2.79,2.79,0,1,1,2.79-2.79h0A2.79,2.79,0,0,1,582.83,408Z" transform="translate(-538.2 -396.85)"/></svg>