<svg id="Capa_1" data-name="Capa 1" xmlns="http://www.w3.org/2000/svg" viewBox="0 0 93.1 93.1"><defs><style>.cls-1{fill:#fff;}.cls-2{fill:#004a9c;}</style></defs><g id="Grupo_7369" data-name="Grupo 7369"><path id="Trazado_10433" data-name="Trazado 10433" class="cls-1" d="M584.9,397.23a46.55,46.55,0,1,1-46.54,46.55h0a46.5,46.5,0,0,1,46.48-46.54Zm-14.88,63a5.17,5.17,0,1,0-5.26,5.08A5.17,5.17,0,0,0,570,460.24Zm4.48-.1a5.16,5.16,0,1,0,5.16-5.19,5.16,5.16,0,0,0-5.16,5.19Zm25.12,0a5.15,5.15,0,1,0-5.19,5.14,5.16,5.16,0,0,0,5.19-5.14h0Zm-34.77-22.24a5.16,5.16,0,1,0,5.14,5.19,5.16,5.16,0,0,0-5.14-5.19Zm49.55,5.12a4.17,4.17,0,1,0,0,.07v-.07Zm-34.77-11.87a5.15,5.15,0,1,0-.08,0h.08Zm0,17.06a5.16,5.16,0,1,0-5.19-5.13,5.16,5.16,0,0,0,5.19,5.13h0Zm19.93-5.19a3.92,3.92,0,1,0,0,.07v-.07Zm-34.77-11.87a5.15,5.15,0,1,0-5.18-5.14,5.15,5.15,0,0,0,5.18,5.14h0Z" transform="translate(-538.36 -397.23)"/><path id="Trazado_10434" data-name="Trazado 10434" class="cls-2" d="M570,460.24a5.17,5.17,0,1,1-5.07-5.26A5.16,5.16,0,0,1,570,460.24Z" transform="translate(-538.36 -397.23)"/><path id="Trazado_10435" data-name="Trazado 10435" class="cls-2" d="M574.5,460.14a5.15,5.15,0,1,1,5.15,5.19A5.15,5.15,0,0,1,574.5,460.14Z" transform="translate(-538.36 -397.23)"/><path id="Trazado_10436" data-name="Trazado 10436" class="cls-2" d="M599.61,460.18a5.15,5.15,0,1,1-5.12-5.19A5.15,5.15,0,0,1,599.61,460.18Z" transform="translate(-538.36 -397.23)"/><path id="Trazado_10437" data-name="Trazado 10437" class="cls-2" d="M564.87,437.93a5.16,5.16,0,1,1-5.19,5.14,5.14,5.14,0,0,1,5.19-5.14Z" transform="translate(-538.36 -397.23)"/><path id="Trazado_10438" data-name="Trazado 10438" class="cls-2" d="M614.42,443.06a5.09,5.09,0,1,1,0-.07Z" transform="translate(-538.36 -397.23)"/><path id="Trazado_10439" data-name="Trazado 10439" class="cls-2" d="M579.69,431.19a5.1,5.1,0,1,1,.07,0Z" transform="translate(-538.36 -397.23)"/><path id="Trazado_10440" data-name="Trazado 10440" class="cls-2" d="M579.69,448.25a5.16,5.16,0,1,1,5.13-5.19,5.17,5.17,0,0,1-5.13,5.19Z" transform="translate(-538.36 -397.23)"/><path id="Trazado_10441" data-name="Trazado 10441" class="cls-2" d="M599.61,443.06a5.09,5.09,0,1,1,0-.07Z" transform="translate(-538.36 -397.23)"/><path id="Trazado_10442" data-name="Trazado 10442" class="cls-2" d="M564.86,431.19A5.14,5.14,0,1,1,570,426a5.15,5.15,0,0,1-5.15,5.15Z" transform="translate(-538.36 -397.23)"/></g></svg>