<svg id="Capa_1" data-name="Capa 1" xmlns="http://www.w3.org/2000/svg" viewBox="0 0 127.54 127.57"><defs><style>.cls-1{fill:#fff;fill-rule:evenodd;}</style></defs><path id="Trazado_10458" data-name="Trazado 10458" class="cls-1" d="M503.62,446a4,4,0,1,1,4,4h0A4,4,0,0,1,503.62,446ZM571.43,422h-4a4,4,0,0,1,0-8h4a31.9,31.9,0,0,0,31.88-31.46,2,2,0,0,0-2-1.87,2,2,0,0,0-1.27.53l-3.11,3.12a19.62,19.62,0,0,1-27.74-27.74l3-3a2,2,0,0,0-1.29-3.35,31.86,31.86,0,0,0-31.27,30,15,15,0,0,0-.09,1.89h0a22.58,22.58,0,0,1-6.17,15.5l-37,37a16,16,0,0,0,22.56,22.56l13.78-13.77a3.19,3.19,0,0,1,.26-.26l.87-.87.17.18a3.92,3.92,0,0,1,1.65-.36,4,4,0,0,1,4,4.06,4,4,0,0,1-.34,1.59l.18.18-.91.89a1.8,1.8,0,0,1-.19.2l-13.8,13.81A23.94,23.94,0,0,1,490.74,429l36.52-36.52h0a14.5,14.5,0,0,0,4.27-10.31,39.88,39.88,0,0,1,39.87-39.88,9.6,9.6,0,0,1,6.86,16.33l-3.57,3.58a11.76,11.76,0,1,0,16.63,16.64l3.63-3.62A9.61,9.61,0,0,1,611.27,382v.18A39.87,39.87,0,0,1,571.39,422Zm-23.93,8a4,4,0,1,1-4,4h0A4,4,0,0,1,547.5,430Z" transform="translate(-483.73 -342.24)"/></svg>