<svg id="Capa_1" data-name="Capa 1" xmlns="http://www.w3.org/2000/svg" viewBox="0 0 54.31 47.47"><defs><style>.cls-1{fill:#f07e00;fill-rule:evenodd;}</style></defs><g id="Grupo_7160" data-name="Grupo 7160"><g id="Grupo_3559" data-name="Grupo 3559"><path id="Trazado_9809" data-name="Trazado 9809" class="cls-1" d="M662.54,362.41a2.41,2.41,0,1,1-2.41,2.4h0A2.41,2.41,0,0,1,662.54,362.41Z" transform="translate(-621.56 -360.34)"/></g></g><path id="Trazado_10358" data-name="Trazado 10358" class="cls-1" d="M674,387l-21.62,9.1a10.1,10.1,0,0,1-7.22,0L623.49,387a3.19,3.19,0,0,1-1-.66,3.24,3.24,0,0,1,0-4.57,3.16,3.16,0,0,1,1-.68l2.72-1.15a1.7,1.7,0,0,1,.85-.24,1.67,1.67,0,0,1,.49,3.26l-.83.35a.84.84,0,0,0-.34,1.14.9.9,0,0,0,.34.33l19.23,8,.15.05a6.78,6.78,0,0,0,5.16,0l.16-.05,19.24-8a.84.84,0,0,0,.33-1.13.9.9,0,0,0-.33-.34l-.83-.34a1.67,1.67,0,1,1,1.33-3l2.72,1.15a3.23,3.23,0,0,1,1,5.25h0a3.16,3.16,0,0,1-1,.67Zm0-11-21.62,9.09a10,10,0,0,1-7.22,0L623.49,376a3.23,3.23,0,0,1-1-5.23,3.36,3.36,0,0,1,1-.69L645.09,361a10,10,0,0,1,7.23,0l2,.84a1.69,1.69,0,1,1-1,3.22L653,365l-1.57-.66-.17-.06a6.85,6.85,0,0,0-5.15,0l-.15,0-19.23,8a.83.83,0,0,0-.34,1.13.92.92,0,0,0,.34.34l19.23,8,.15.05a6.78,6.78,0,0,0,5.16,0l.16-.05,19.24-8a.85.85,0,0,0,.33-1.14.87.87,0,0,0-.33-.33l-2.6-1.1a1.66,1.66,0,0,1,.56-3.23,1.64,1.64,0,0,1,.86.24l4.39,1.85a3.23,3.23,0,0,1,1.68,4.25,3.11,3.11,0,0,1-.68,1,3,3,0,0,1-1,.67Zm-50.41,16.12,2.72-1.15a1.69,1.69,0,0,1,.85-.23,1.67,1.67,0,0,1,.49,3.26l-.84.34a.85.85,0,0,0-.33,1.14.87.87,0,0,0,.33.33l19.24,8,.15,0a6.87,6.87,0,0,0,5.16,0l.16-.06,19.24-8a.84.84,0,0,0,.33-1.13.81.81,0,0,0-.33-.33l-.83-.35a1.67,1.67,0,0,1,.48-3.26,1.58,1.58,0,0,1,.85.24l2.72,1.14a3.61,3.61,0,0,1,1,.68,3.24,3.24,0,0,1,0,4.57h0a3.16,3.16,0,0,1-1,.67l-21.61,9.09a10,10,0,0,1-7.23,0L623.5,398a3.16,3.16,0,0,1-1-.67,3.23,3.23,0,0,1,0-4.57h0a3.56,3.56,0,0,1,1-.68Z" transform="translate(-621.56 -360.34)"/></svg>