<svg id="Capa_1" data-name="Capa 1" xmlns="http://www.w3.org/2000/svg" viewBox="0 0 77.12 77.14"><defs><style>.cls-1{fill:#004a9c;}</style></defs><circle id="Elipse_157" data-name="Elipse 157" class="cls-1" cx="21.79" cy="29.21" r="4.85"/><path id="Trazado_10321" data-name="Trazado 10321" class="cls-1" d="M695.79,398.29h0a36.8,36.8,0,0,1,5.63-4.48,3.78,3.78,0,0,0,.27-5c-1.56-1.71-6.6-.21-7.92,1.08L670.2,413.47a7.32,7.32,0,0,1-5.84,2.09l-.3,0h-5.5a7.34,7.34,0,0,1-7.34-7.34h0v-5.51c0-.1,0-.2,0-.3a7.31,7.31,0,0,1,2.08-5.83l7.6-7.6a3.66,3.66,0,0,0-4.75-5.57l-.21.2h0l-7.8,7.79a14.63,14.63,0,0,0-4.06,7.81,7.38,7.38,0,0,0-.21,1.69V415.6a7.34,7.34,0,0,0,7.34,7.34H665.9a7.39,7.39,0,0,0,1.69-.22,14.55,14.55,0,0,0,7.81-4.05l20.39-20.38Z" transform="translate(-643.88 -345.8)"/><path id="Trazado_10322" data-name="Trazado 10322" class="cls-1" d="M716.71,356.58l-6.49-6.49a14.68,14.68,0,0,0-20.76,0l-8.35,8.35c-.63.61-3.57,3.11-4.23,3.78-1.82,1.84-3.74,2.87-4.24,4.89s2.23,3.2,2.23,3.2c4,0,8.71-4,11.35-6.6l8.42-8.42a7.34,7.34,0,0,1,10.38,0h0l6.48,6.49a7.33,7.33,0,0,1,0,10.37h0l-.22.22s0,0-.07,0a1.84,1.84,0,0,1-2.59,0h0l-8-8a3.67,3.67,0,0,0-5.2,5.19l9.46,9.47a7.34,7.34,0,0,0,10.22-.13s0,0,0,0l1.55-1.55a14.69,14.69,0,0,0,0-20.77Z" transform="translate(-643.88 -345.8)"/></svg>