<?xml version="1.0" standalone="no"?>
<!DOCTYPE svg PUBLIC "-//W3C//DTD SVG 20010904//EN"
 "http://www.w3.org/TR/2001/REC-SVG-20010904/DTD/svg10.dtd">
<svg version="1.0" xmlns="http://www.w3.org/2000/svg"
 width="360.000000pt" height="409.000000pt" viewBox="0 0 360.000000 409.000000"
 preserveAspectRatio="xMidYMid meet">

<g transform="translate(0.000000,409.000000) scale(0.100000,-0.100000)"
fill="#000000" stroke="none">
<path d="M222 3939 c-29 -15 -51 -36 -70 -68 l-27 -46 0 -1785 0 -1785 27 -47
c19 -32 41 -52 71 -67 l43 -21 1377 0 c1217 0 1382 2 1414 15 83 35 106 77
113 210 l5 100 100 5 c118 6 157 24 195 92 l25 43 0 330 c0 182 -3 342 -8 357
-10 38 -65 98 -104 114 -19 8 -69 14 -123 14 l-90 0 0 80 0 80 78 0 c104 0
149 14 193 60 54 57 59 91 59 420 0 329 -5 363 -59 420 -44 46 -89 60 -193 60
l-78 0 0 79 0 79 104 4 c99 3 106 4 143 34 79 65 78 56 78 439 l0 340 -25 43
c-38 68 -77 86 -195 92 l-100 5 -5 100 c-7 133 -30 175 -113 210 -32 13 -197
15 -1414 15 l-1378 0 -43 -21z m306 -243 c1 -90 7 -155 14 -163 15 -18 58 -16
80 4 16 14 18 33 18 165 l0 148 1185 0 1186 0 24 -25 25 -24 0 -1761 0 -1761
-25 -24 -24 -25 -1186 0 -1185 0 0 1544 c0 849 -3 1552 -6 1561 -11 27 -53 38
-80 20 l-24 -15 -2 -1553 -3 -1552 -128 0 c-116 0 -130 2 -143 19 -12 17 -14
277 -14 1785 0 971 4 1771 8 1777 18 27 51 34 162 31 l115 -2 3 -149z m2832
-196 c19 -19 20 -33 20 -344 l0 -325 -26 -20 c-22 -17 -41 -21 -105 -21 l-79
0 0 365 0 365 85 0 c72 0 88 -3 105 -20z m1 -1119 c18 -22 19 -43 19 -341 0
-385 7 -363 -124 -369 l-86 -3 0 372 0 372 86 -3 c76 -4 88 -7 105 -28z m-7
-1112 l26 -20 0 -325 c0 -389 9 -364 -125 -364 l-85 0 0 365 0 365 79 0 c64 0
83 -4 105 -21z"/>
<path d="M1759 2992 c-34 -23 -748 -534 -872 -625 -34 -26 -67 -93 -67 -138 1
-47 31 -110 69 -142 34 -28 101 -51 129 -43 9 2 27 7 40 11 l22 6 0 -335 0
-336 -47 0 c-117 -1 -173 -63 -173 -193 0 -81 18 -120 73 -161 28 -21 31 -21
907 -21 876 0 879 0 907 21 56 42 73 80 73 163 0 54 -5 86 -18 111 -24 46 -90
80 -154 80 l-48 0 0 114 c0 107 -1 116 -22 130 -30 21 -44 20 -68 -4 -18 -18
-20 -33 -20 -130 l0 -110 -180 0 -180 0 0 288 c0 394 9 382 -286 382 -197 0
-231 -8 -265 -64 -17 -28 -19 -55 -19 -318 l0 -288 -185 0 -185 0 0 374 0 374
318 228 c174 126 326 229 337 229 11 0 161 -101 333 -225 l312 -225 0 -156 c0
-138 2 -158 18 -172 23 -21 56 -22 76 -1 13 12 16 39 16 130 0 63 3 114 8 114
4 0 24 -5 44 -10 103 -29 217 68 218 183 0 86 -5 90 -507 451 -452 325 -469
336 -513 336 -33 0 -58 -8 -91 -28z m521 -387 c234 -168 437 -316 453 -329 32
-29 34 -54 6 -90 -40 -50 -49 -45 -457 248 -210 151 -394 277 -409 280 -16 4
-42 2 -60 -3 -17 -5 -201 -131 -409 -281 -411 -295 -414 -297 -457 -238 -16
22 -19 33 -11 53 6 17 150 127 454 345 244 176 449 320 455 320 6 0 202 -137
435 -305z m-276 -661 c14 -5 16 -40 16 -280 l0 -274 -175 0 -175 0 0 274 c0
210 3 276 13 279 18 8 302 8 321 1z m690 -680 c19 -19 22 -104 4 -122 -17 -17
-1699 -17 -1716 0 -18 18 -15 103 4 122 14 14 105 16 854 16 749 0 840 -2 854
-16z"/>
</g>
</svg>
