<svg id="Capa_1" data-name="Capa 1" xmlns="http://www.w3.org/2000/svg" viewBox="0 0 15.88 22.17"><defs><style>.cls-1{fill:none;}.cls-1,.cls-2{stroke:#f07e00;}.cls-2{fill:#f3f3f3;}</style></defs><g id="Grupo_3595" data-name="Grupo 3595"><path id="Trazado_3880" data-name="Trazado 3880" class="cls-1" d="M1021.05,373.08c.3,0,.6.07.89.13a7.29,7.29,0,0,1,5.17,3.8,7.55,7.55,0,0,1,.84,4.5,15,15,0,0,1-2.35,6.5,30.93,30.93,0,0,1-5,6l-.11.09-.92-1a29.34,29.34,0,0,1-4.34-5.52,15.28,15.28,0,0,1-1.88-4.69,9.74,9.74,0,0,1-.16-3.61,7.43,7.43,0,0,1,5.73-6c.32-.07.65-.1,1-.15l.14,0Zm-.49,4.81a2.63,2.63,0,1,0,2.62,2.63h0a2.63,2.63,0,0,0-2.61-2.62Z" transform="translate(-1012.62 -372.58)"/><path id="Trazado_3881" data-name="Trazado 3881" class="cls-2" d="M1020.56,377.89a2.63,2.63,0,1,1-2.63,2.62h0a2.62,2.62,0,0,1,2.62-2.62Z" transform="translate(-1012.62 -372.58)"/></g></svg>