<svg id="Capa_1" data-name="Capa 1" xmlns="http://www.w3.org/2000/svg" viewBox="0 0 90.07 126.8"><defs><style>.cls-1{fill:none;stroke:#f07e00;}</style></defs><g id="Grupo_3595" data-name="Grupo 3595"><path id="Trazado_3880" data-name="Trazado 3880" class="cls-1" d="M1023.45,320.76c1.8.26,3.6.45,5.35.81a43.74,43.74,0,0,1,30.94,22.71,45.36,45.36,0,0,1,5,26.93,89.68,89.68,0,0,1-14.07,38.92,186.34,186.34,0,0,1-29.75,35.75c-.12.11-.26.21-.63.51-1.83-1.93-3.65-3.85-5.5-5.74a173.6,173.6,0,0,1-26-33,92.58,92.58,0,0,1-11.27-28.07,58.8,58.8,0,0,1-.93-21.6,44.47,44.47,0,0,1,34.29-36.1c1.93-.42,3.92-.6,5.87-.89.27,0,.54-.12.8-.18Zm-2.92,28.82a15.69,15.69,0,1,0,15.68,15.7v0a15.64,15.64,0,0,0-15.6-15.68Z" transform="translate(-975.53 -320.26)"/><path id="Trazado_3881" data-name="Trazado 3881" class="cls-1" d="M1020.53,349.58a15.69,15.69,0,1,1-15.7,15.68h0a15.65,15.65,0,0,1,15.63-15.67Z" transform="translate(-975.53 -320.26)"/></g></svg>