<svg xmlns="http://www.w3.org/2000/svg" xmlns:xlink="http://www.w3.org/1999/xlink" viewBox="0 0 130.096 149.24" xmlns:v="https://vecta.io/nano"><g fill="#fff" stroke="#fff" stroke-miterlimit="10"><path d="M45.23 53.146l-7.929-.007a4.82 4.82 0 0 0-4.797 4.873v11.525a1.64 1.64 0 0 0 2.46 1.42 1.64 1.64 0 0 0 .82-1.42V59h.776l.008 46.6h4.368l-.009-34.493h.753l.009 34.493h4.463L46.069 59h.759v10.537a1.63 1.63 0 0 0 2.461 1.465 1.63 1.63 0 0 0 .795-1.465V58.083c.013-1.299-.491-2.55-1.402-3.476s-2.153-1.452-3.452-1.461z"/><use xlink:href="#B"/><path d="M14.191 53.059h6.072v57.189h-6.072zm7.594-5.36c-.001 2.607-2.115 4.72-4.723 4.72a4.72 4.72 0 0 1-4.721-4.722c0-2.608 2.113-4.721 4.721-4.722 1.253 0 2.454.498 3.34 1.384a4.72 4.72 0 0 1 1.383 3.34z"/><path d="M22.064 68.989V54.924a1.76 1.76 0 0 0-1.582-1.893h-6.457c-.956.092-1.661.935-1.582 1.893v14.065zm1.727 36.576V53.12h1.499v52.445m1.972 0V53.12h2.464v52.445m22.268 0V53.012h.734v52.553m4.994-52.556h1.59v52.557h-1.59zM80.704 73.93h1.12v31.636h-1.12zm14.433 0h2.844v31.636h-2.844zm4.449-21.135h2.03v52.771h-2.03zm3.889 0h.733v52.771h-.733zm3.191 0h.875v52.771h-.875zm4.961.317h6.183v58.227h-6.183zm7.73-5.459a4.81 4.81 0 0 1-4.807 4.807 4.81 4.81 0 1 1 3.399-8.206 4.81 4.81 0 0 1 1.408 3.4z"/><path d="M119.642 69.331V55.012a1.79 1.79 0 0 0-1.611-1.929h-6.574a1.79 1.79 0 0 0-1.609 1.929v14.319zM61.915 52.829h4.4v52.736h-4.4zm7.581-.09h2.145v52.826h-2.145zm4.023.056h.834v52.771h-.834z"/><path d="M76.082 52.795h1.005v52.771h-1.005zm-7.602-5.316c-.001 2.41-1.955 4.364-4.365 4.363s-4.364-1.954-4.364-4.364 1.953-4.364 4.363-4.365 4.365 1.955 4.365 4.365zm-1.004 16.246v-9.827a1.23 1.23 0 0 0-1.105-1.322H61.86a1.23 1.23 0 0 0-1.106 1.322v9.827zm-12.248 41.84V53.009h.446v52.556m-22.959 0V73.913h1.312v31.652M47.523 73.93h2.488v31.636h-2.488zM92.4 52.855l-7.93-.007a4.82 4.82 0 0 0-4.797 4.872v11.525a1.64 1.64 0 1 0 3.279 0V58.708h.777l.035 46.795h4.367l-.036-34.69h.753l.036 34.69h4.389l-.035-46.795h.759v10.537a1.63 1.63 0 0 0 2.461 1.465 1.63 1.63 0 0 0 .795-1.465V57.79a4.89 4.89 0 0 0-4.854-4.936z"/><use xlink:href="#B" x="47.17" y="-0.292"/><path d="M49.066 6.003l4.091-2.318c1.643-.735 3.327-1.373 5.046-1.909a26.59 26.59 0 0 1 5.818-.954 14.95 14.95 0 0 0-3.182 3.636 19.04 19.04 0 0 0-1.83 4.14l-5.261-1.14-4.682-1.455zm10.662 2.714l1.609-3.562c.549-1.054 1.249-2.023 2.078-2.875a3.32 3.32 0 0 1 2.406-1.125c.471.067.908.285 1.245.621a12.07 12.07 0 0 1 1.833 2.176 19.63 19.63 0 0 1 1.422 2.719l.859 2.234-3.687.375a39.82 39.82 0 0 1-4.563-.141 30.84 30.84 0 0 1-3.202-.422zM43.697 4.014l7.834-2.25c3.619-.745 8.75-1.229 8.75-1.229a54.05 54.05 0 0 0-7.562 2.563c-1.584.792-4.542 2.667-4.542 2.667a39.06 39.06 0 0 1-4.479-1.75zM67.259.999a43.04 43.04 0 0 1 4.422.688 38.27 38.27 0 0 1 5.099 1.766c.956.417 1.888.886 2.792 1.406l1.963 1.235-2.869 1.015-4.172 1.188-2.557.483-1.318-3.202a22.95 22.95 0 0 0-1.797-3.062A8.69 8.69 0 0 0 67.26 1zm2.188-.5L71.4.874l1.359.328 2 .641 1.953.75c.516.203 2.172 1.031 2.766 1.359l1.766 1.047 1.094.75 1.078-.453 1.797-.812 1.234-.641-2.984-.937-3.312-.859-3.531-.719c-.281-.062-2.812-.422-3.094-.469a60.17 60.17 0 0 0-2.359-.234l-1.72-.126zm13.625 5.734l2.125-.937 1.063-.562c.438-.219 1.063-.625 1.063-.625l2.563 1 3.625 1.656 3.75 2 3.469 2.156 3.094 2.188 3.25 2.75-3.187 2.188c-.873.55-2.625 1.438-3.406 1.813l-2.656 1.188-2.25.875-1.531-3-2.094-3.469c-.281-.406-2.062-2.656-2.187-2.812l-2-2.281-2.344-2.281-2.344-1.844zm12.812 16.365l6.042-2.583c2.125-1.167 5.666-3.667 5.666-3.667l3.25 3.25 4.042 5.125 3.417 5.75 2.083 4.625 1.51 4.81a19.91 19.91 0 0 0-2.927-3.227 11.1 11.1 0 0 0-2.833-1.708 13.45 13.45 0 0 0-4.292-.959 17.45 17.45 0 0 0-3.958.5 18.12 18.12 0 0 0-3.708 1.792 13.99 13.99 0 0 0-2.792 2.75 13.37 13.37 0 0 0-1.208 2.167l-.375-3.958c-.084-.916-.542-3.667-.667-4.417s-.834-3.792-1.042-4.375l-1.416-4.125c-.209-.542-.792-1.75-.792-1.75zM72.176 9.473l3.666-.75 3.625-1.083 2.75-1.042 2.041 1.542c.529.423 1.958 1.709 2.5 2.292l2.834 3.208 2.708 3.833 1.583 2.708.959 1.958-2.959.958-4.416 1.167a71.63 71.63 0 0 1-6.209 1.208l-5.541.75-.542-4.083-.834-4.458c-.209-1.125-1-4.208-1.209-5.083s-.958-3.125-.958-3.125zm-12.708-.084l3.416.458 4.334.208c.834-.018 4.208-.417 4.208-.417l1 3.208 1 4.125.875 4.667.667 4.625s-1.25.167-6.459.417h-7.625l-5.125-.333.416-3.125 1-5.292 1.25-5.25 1.042-3.292zM48.301 6.556l2.417.792 4.583 1.25 3.417.708-.959 3.083-1.125 4.375-.959 4.875-.708 4.625-4.625-.5-6.709-1.25-4.875-1.333-3.084-1 2.084-3.917 3.041-4.5a50.86 50.86 0 0 1 3.917-4.25l1.916-1.708 1.667-1.25zm-5.625-2.208l2.042.875c.541.25 2.791 1.042 2.791 1.042l-3.166 2.583a55.53 55.53 0 0 0-5.042 5.666l-2.75 4.334c-.519.864-1.541 3.125-1.541 3.125l-3.75-1.542-4.166-2.042-2.459-1.542c-.584-.375-1.25-.917-1.25-.917l2.375-2.042 3.959-2.917 4.375-2.708c.666-.375 3.666-1.875 4.791-2.375l3.791-1.541zm-8.032 18.25a58.58 58.58 0 0 1-6.301-2.708c-1.919-1.026-3.783-2.153-5.583-3.375l-3.073 3.083-4.042 5.125-3.417 5.75-2.083 4.625-1.51 4.81a19.12 19.12 0 0 1 2.834-3.06 11.23 11.23 0 0 1 2.875-1.709 13.59 13.59 0 0 1 4.25-1.041 20.95 20.95 0 0 1 4.051.417c1.363.384 2.664.96 3.865 1.708 1.076.736 2.044 1.62 2.875 2.625.581.752 1.291 1.917 1.291 1.917l.167-3.542.666-4.583c.25-1.292.834-3.583 1.041-4.167l1.375-4.083.718-1.792zm.782.291l4.209 1.333 7.75 1.792 4.916.75 2.584.25-.459 3.875-.375 4.75-.186 5.818s-2.356-3.651-4.314-4.943a13.13 13.13 0 0 0-6.375-2.375c-2.462-.14-4.915.408-7.083 1.583a16.13 16.13 0 0 0-3.375 2.834 24.06 24.06 0 0 0-1.333 2.125l.375-4.625.834-4.667.916-3.5 1.041-3c.375-1 .875-2 .875-2zm59.833-.083l-4.209 1.333-7.75 1.792-4.916.75-2.584.25.459 3.875.375 4.75.185 5.818s2.356-3.651 4.315-4.943c1.88-1.338 4.078-2.157 6.375-2.375 2.462-.14 4.915.408 7.083 1.583a16.13 16.13 0 0 1 3.375 2.833 23.91 23.91 0 0 1 1.333 2.125l-.375-4.625-.833-4.667-.917-3.5-1.041-3c-.375-1-.875-2-.875-2zm-39.657 4.281l4.717.288 6.068.058 4.918-.144 3.825-.345.316 3.019.374 4.256.172 3.135.115 3.48c-.621-1.354-1.523-2.56-2.646-3.537a12.95 12.95 0 0 0-3.969-2.387 13.34 13.34 0 0 0-4.228-.805 14.94 14.94 0 0 0-5.205 1.093 12.57 12.57 0 0 0-3.02 1.984 10.65 10.65 0 0 0-1.697 1.87c-.377.605-.658 1.265-.834 1.956l.172-2.818.115-2.387.316-3.94.316-3.049.172-1.726zm-43.933 92.187h4.866a3.67 3.67 0 0 1 2.538.822 3.59 3.59 0 0 1-1.172 6.108l2.888 5.53h-2.24l-2.573-5.32H13.56v5.32h-1.89zm1.89 5.46h2.853a1.93 1.93 0 0 0 2.118-1.978c.033-.547-.202-1.076-.63-1.418a2.11 2.11 0 0 0-1.383-.385h-2.958zm8.348-5.46h7.963v1.785h-6.073v3.553h5.181v1.68h-5.181v3.658h6.073v1.785h-7.963zm9.292 0h4.358a4.22 4.22 0 0 1 3.798 2.1c.613 1.051.666 1.522.666 4.131 0 2.8-.14 3.29-.7 4.165-.84 1.326-2.317 2.111-3.886 2.065H31.2zm1.89 10.676h2.258c.907.07 1.785-.342 2.31-1.085.42-.63.472-.981.472-3.29 0-2.24-.052-2.783-.56-3.466a2.41 2.41 0 0 0-2.223-1.05h-2.258zm22.473-1.698c-.349 2.126-2.222 3.662-4.375 3.588a4.43 4.43 0 0 1-3.903-2.24c-.402-.735-.543-1.103-.543-4.096s.14-3.36.543-4.096a4.47 4.47 0 0 1 8.278 1.453h-1.995a2.52 2.52 0 0 0-2.38-1.803c-.749-.014-1.461.323-1.925.91-.49.63-.63.979-.63 3.535s.14 2.905.63 3.535c.464.587 1.176.924 1.925.91a2.56 2.56 0 0 0 2.38-1.697zm1.015-6.843a4.52 4.52 0 0 1 7.806 0c.403.735.543 1.103.543 4.096s-.14 3.36-.543 4.096a4.52 4.52 0 0 1-7.806 0c-.402-.735-.543-1.103-.543-4.096s.14-3.361.543-4.096zm1.978 7.631a2.49 2.49 0 0 0 3.85 0c.49-.63.63-.981.63-3.535s-.14-2.905-.63-3.535a2.49 2.49 0 0 0-3.85 0c-.49.63-.63.979-.63 3.535s.139 2.905.63 3.534zm8.136-9.766h1.785l5.636 8.855h.035v-8.855h1.89v12.461h-1.785l-5.636-8.856h-.035v8.856h-1.89zm11.69 9.434c1.006.797 2.251 1.235 3.535 1.242 1.541 0 2.468-.7 2.468-1.732a1.63 1.63 0 0 0-.457-1.186c-.306-.317-.729-.495-1.17-.495l-1.645-.228c-1.868-.079-3.335-1.63-3.309-3.5 0-2.136 1.488-3.641 4.061-3.641a7.31 7.31 0 0 1 4.043 1.295l-1.05 1.558a5.82 5.82 0 0 0-3.08-.962c-1.155 0-2.083.595-2.083 1.785 0 .7.508 1.399 1.767 1.593l1.4.192a3.55 3.55 0 0 1 3.412 3.588c0 2.292-1.697 3.623-4.375 3.623a6.98 6.98 0 0 1-4.76-1.716zm9.223-9.434h1.89v8.033a2.54 2.54 0 1 0 5.075 0v-8.033h1.891v8.243a4.43 4.43 0 0 1-8.856 0zm10.814 0h1.786l3.57 8.12 3.5-8.12h1.785v12.461h-1.89v-7.771h-.035l-2.607 5.985h-1.575l-2.607-5.985h-.035v7.771h-1.891zm12.951 2.135a4.52 4.52 0 0 1 7.806 0c.402.735.543 1.103.543 4.096s-.141 3.36-.543 4.096a4.52 4.52 0 0 1-7.806 0c-.402-.735-.542-1.103-.542-4.096s.14-3.361.542-4.096zm1.978 7.631a2.49 2.49 0 0 0 3.851 0c.49-.63.63-.981.63-3.535s-.14-2.905-.63-3.535a2.49 2.49 0 0 0-3.851 0c-.49.63-.63.979-.63 3.535s.14 2.905.63 3.534zM1.948 145.607c1.006.797 2.251 1.235 3.535 1.242 1.541 0 2.468-.7 2.468-1.733.015-.441-.151-.869-.457-1.185s-.729-.496-1.17-.495l-1.645-.228c-1.868-.079-3.335-1.63-3.308-3.5 0-2.136 1.488-3.641 4.061-3.641a7.31 7.31 0 0 1 4.043 1.295l-1.05 1.558a5.82 5.82 0 0 0-3.08-.962c-1.155 0-2.083.595-2.083 1.785 0 .7.508 1.399 1.768 1.593l1.4.192a3.55 3.55 0 0 1 3.413 3.588c0 2.292-1.697 3.623-4.375 3.623-1.745.043-3.444-.569-4.76-1.716zm9.449-9.434h7.963v1.785h-6.073v3.553h5.181v1.68h-5.181v3.658h6.073v1.785h-7.963zm13.336 5.601h4.428v2.537c-.02 2.017-1.387 3.771-3.339 4.283a4.47 4.47 0 0 1-5.01-2.094c-.402-.735-.543-1.104-.543-4.096s.14-3.36.543-4.096a4.47 4.47 0 0 1 8.278 1.453h-1.995a2.52 2.52 0 0 0-2.38-1.803c-.749-.014-1.461.323-1.925.91-.49.63-.63.98-.63 3.535s.14 2.905.63 3.535c.464.587 1.176.924 1.925.91.696.009 1.364-.27 1.848-.77a2.52 2.52 0 0 0 .707-1.873v-.647h-2.538zm5.967-5.601h1.89v8.033a2.54 2.54 0 1 0 5.075 0v-8.033h1.89v8.243a4.43 4.43 0 0 1-8.856 0zm10.815 0h4.866a3.67 3.67 0 0 1 2.538.822 3.59 3.59 0 0 1-1.172 6.108l2.888 5.53h-2.24l-2.573-5.32h-2.416v5.32h-1.89zm1.89 5.46h2.853a1.93 1.93 0 0 0 2.118-1.978c.033-.547-.202-1.076-.63-1.418a2.11 2.11 0 0 0-1.383-.385h-2.958zm8.469-3.325a4.52 4.52 0 0 1 7.806 0c.403.735.543 1.103.543 4.096s-.14 3.36-.543 4.096a4.52 4.52 0 0 1-7.806 0c-.402-.735-.543-1.104-.543-4.096s.141-3.36.543-4.096zm1.978 7.631a2.49 2.49 0 0 0 3.85 0c.49-.63.63-.981.63-3.535s-.14-2.905-.63-3.535a2.49 2.49 0 0 0-3.85 0c-.49.63-.63.98-.63 3.535s.14 2.905.63 3.535zm15.682-2.433l-3.746-7.333h1.996l2.643 5.53 2.643-5.53h1.995l-3.746 7.333v5.128h-1.784zm11.674 2.101a5.74 5.74 0 0 0 3.536 1.242c1.54 0 2.468-.7 2.468-1.732a1.63 1.63 0 0 0-.457-1.185 1.62 1.62 0 0 0-1.17-.495l-1.646-.228c-1.868-.079-3.334-1.63-3.308-3.5 0-2.136 1.487-3.641 4.06-3.641a7.32 7.32 0 0 1 4.043 1.295l-1.051 1.558a5.82 5.82 0 0 0-3.08-.962c-1.155 0-2.083.595-2.083 1.785 0 .7.508 1.399 1.768 1.593l1.4.192a3.55 3.55 0 0 1 3.413 3.588c0 2.292-1.697 3.623-4.376 3.623-1.746.043-3.444-.569-4.761-1.716zm15.838.244H92.32l-.963 2.783h-1.994l4.532-12.461h1.575l4.533 12.461H98.01zm-.542-1.68l-1.803-5.443h-.035l-1.803 5.443zm4.391-7.998h1.891v10.676h6.073v1.785h-7.964zm9.065 0h1.89v8.033a2.54 2.54 0 1 0 5.076 0v-8.033h1.891v8.243a4.43 4.43 0 0 1-8.856 0zm10.816 0h4.357a4.22 4.22 0 0 1 3.798 2.1c.612 1.051.665 1.522.665 4.131 0 2.8-.14 3.29-.699 4.165-.84 1.326-2.317 2.111-3.887 2.065h-4.234zm1.89 10.676h2.258c.907.07 1.785-.342 2.31-1.085.42-.63.472-.981.472-3.291 0-2.24-.052-2.782-.56-3.465a2.41 2.41 0 0 0-2.223-1.05h-2.258z"/></g><defs ><path id="B" d="M41.294 52.067a4.61 4.61 0 0 0 4.605-4.607 4.61 4.61 0 0 0-4.606-4.606 4.61 4.61 0 0 0-4.607 4.605 4.61 4.61 0 0 0 4.608 4.608z"/></defs></svg>