<svg id="Capa_1" data-name="Capa 1" xmlns="http://www.w3.org/2000/svg" viewBox="0 0 237.64 273.34"><defs><style>.cls-1{fill:#fff;}</style></defs><g id="Grupo_7059" data-name="Grupo 7059"><g id="Grupo_7056" data-name="Grupo 7056"><path id="Trazado_10188" data-name="Trazado 10188" class="cls-1" d="M645.81,343.73l-14.62,0a8.89,8.89,0,0,0-8.84,8.94V374a3,3,0,0,0,6,.14V354.52h1.43l0,85.92h8l0-63.6h1.4l0,63.59h8.23l-.16-85.91h1.4V374a3,3,0,1,0,6,.2V352.83a9,9,0,0,0-8.92-9.1Z" transform="translate(-563.72 -246.66)"/><path id="Trazado_10189" data-name="Trazado 10189" class="cls-1" d="M638.55,341.74a8.5,8.5,0,1,0-8.5-8.5A8.5,8.5,0,0,0,638.55,341.74Z" transform="translate(-563.72 -246.66)"/><path id="Trazado_10190" data-name="Trazado 10190" class="cls-1" d="M599.91,332.24" transform="translate(-563.72 -246.66)"/><rect id="Rectángulo_2986" data-name="Rectángulo 2986" class="cls-1" x="24.87" y="96.91" width="11.2" height="105.44"/><path id="Trazado_10191" data-name="Trazado 10191" class="cls-1" d="M602.58,333.68a8.71,8.71,0,1,1-8.71-8.71,8.71,8.71,0,0,1,8.71,8.71Z" transform="translate(-563.72 -246.66)"/><path id="Trazado_10192" data-name="Trazado 10192" class="cls-1" d="M603.1,372.93V347a3.24,3.24,0,0,0-2.92-3.48h-11.9a3.23,3.23,0,0,0-2.92,3.48v25.93Z" transform="translate(-563.72 -246.66)"/><path id="Trazado_10193" data-name="Trazado 10193" class="cls-1" d="M606.28,440.37V343.68h2.77v96.69" transform="translate(-563.72 -246.66)"/><path id="Trazado_10194" data-name="Trazado 10194" class="cls-1" d="M612.68,440.37V343.68h4.55v96.69" transform="translate(-563.72 -246.66)"/><path id="Trazado_10195" data-name="Trazado 10195" class="cls-1" d="M658.28,440.37V343.48h1.36v96.89" transform="translate(-563.72 -246.66)"/><rect id="Rectángulo_2987" data-name="Rectángulo 2987" class="cls-1" x="105.13" y="96.82" width="2.93" height="96.9"/><rect id="Rectángulo_2988" data-name="Rectángulo 2988" class="cls-1" x="147.5" y="135.39" width="2.07" height="58.33"/><rect id="Rectángulo_2989" data-name="Rectángulo 2989" class="cls-1" x="174.11" y="135.39" width="5.24" height="58.33"/><rect id="Rectángulo_2990" data-name="Rectángulo 2990" class="cls-1" x="182.31" y="96.42" width="3.74" height="97.3"/><rect id="Rectángulo_2991" data-name="Rectángulo 2991" class="cls-1" x="189.48" y="96.42" width="1.35" height="97.3"/><rect id="Rectángulo_2992" data-name="Rectángulo 2992" class="cls-1" x="195.37" y="96.42" width="1.61" height="97.3"/><rect id="Rectángulo_2993" data-name="Rectángulo 2993" class="cls-1" x="204.51" y="97.01" width="11.4" height="107.36"/><path id="Trazado_10196" data-name="Trazado 10196" class="cls-1" d="M782.48,333.6a8.87,8.87,0,1,1-8.87-8.87A8.86,8.86,0,0,1,782.48,333.6Z" transform="translate(-563.72 -246.66)"/><path id="Trazado_10197" data-name="Trazado 10197" class="cls-1" d="M783,373.57V347.16a3.31,3.31,0,0,0-3-3.55H767.92a3.3,3.3,0,0,0-3,3.55v26.41Z" transform="translate(-563.72 -246.66)"/><rect id="Rectángulo_2994" data-name="Rectángulo 2994" class="cls-1" x="112.86" y="96.48" width="8.11" height="97.23"/><rect id="Rectángulo_2995" data-name="Rectángulo 2995" class="cls-1" x="126.83" y="96.32" width="3.96" height="97.4"/><rect id="Rectángulo_2996" data-name="Rectángulo 2996" class="cls-1" x="134.25" y="96.42" width="1.54" height="97.3"/><rect id="Rectángulo_2997" data-name="Rectángulo 2997" class="cls-1" x="138.98" y="96.42" width="1.85" height="97.3"/><path id="Trazado_10198" data-name="Trazado 10198" class="cls-1" d="M688.68,333.27a8.05,8.05,0,1,1-8-8h0A8,8,0,0,1,688.68,333.27Z" transform="translate(-563.72 -246.66)"/><path id="Trazado_10199" data-name="Trazado 10199" class="cls-1" d="M686.83,363.23V345.11a2.27,2.27,0,0,0-2-2.44h-8.32a2.27,2.27,0,0,0-2,2.44v18.12Z" transform="translate(-563.72 -246.66)"/><path id="Trazado_10200" data-name="Trazado 10200" class="cls-1" d="M664.24,440.37v-96.9h.83v96.9" transform="translate(-563.72 -246.66)"/><path id="Trazado_10201" data-name="Trazado 10201" class="cls-1" d="M622.73,440.37V382h2.42v58.36" transform="translate(-563.72 -246.66)"/><rect id="Rectángulo_2998" data-name="Rectángulo 2998" class="cls-1" x="86.32" y="135.39" width="4.59" height="58.33"/><path id="Trazado_10202" data-name="Trazado 10202" class="cls-1" d="M732.78,343.19H718.16a8.89,8.89,0,0,0-8.85,8.93v21.3a3,3,0,0,0,6.05.14V354h1.43l.07,86.28h8l-.07-64h1.4l.06,64h8.1L734.33,354h1.4v19.43a3,3,0,0,0,6,.25V352.29a9,9,0,0,0-8.92-9.1Z" transform="translate(-563.72 -246.66)"/><path id="Trazado_10203" data-name="Trazado 10203" class="cls-1" d="M725.52,341.2a8.5,8.5,0,1,0-8.49-8.5A8.49,8.49,0,0,0,725.52,341.2Z" transform="translate(-563.72 -246.66)"/></g><g id="Grupo_7057" data-name="Grupo 7057"><path id="Trazado_10204" data-name="Trazado 10204" class="cls-1" d="M652.88,256.81s5.36-3.19,7.54-4.28a85.57,85.57,0,0,1,9.31-3.52,49.19,49.19,0,0,1,10.72-1.76,27.64,27.64,0,0,0-5.86,6.71,34.92,34.92,0,0,0-3.38,7.63s-7.18-1.43-9.7-2.1S652.88,256.81,652.88,256.81Z" transform="translate(-563.72 -246.66)"/><path id="Trazado_10205" data-name="Trazado 10205" class="cls-1" d="M672.54,261.81s2-4.8,3-6.57a22.78,22.78,0,0,1,3.84-5.3,6.08,6.08,0,0,1,4.44-2.07,4,4,0,0,1,2.29,1.14,22.32,22.32,0,0,1,3.38,4,36.71,36.71,0,0,1,2.62,5c.84,1.93,1.58,4.12,1.58,4.12s-3.94.53-6.8.7a73.77,73.77,0,0,1-8.41-.26A58.42,58.42,0,0,1,672.54,261.81Z" transform="translate(-563.72 -246.66)"/><path id="Trazado_10206" data-name="Trazado 10206" class="cls-1" d="M643,253.14s9.22-3.07,14.44-4.15c6.68-1.37,16.14-2.27,16.14-2.27a99.58,99.58,0,0,0-13.95,4.73c-2.92,1.46-8.37,4.91-8.37,4.91A72,72,0,0,1,643,253.14Z" transform="translate(-563.72 -246.66)"/><path id="Trazado_10207" data-name="Trazado 10207" class="cls-1" d="M686.42,247.58a77.72,77.72,0,0,1,8.16,1.27,71.52,71.52,0,0,1,9.4,3.25,52.83,52.83,0,0,1,5.15,2.6c1.86,1.13,3.61,2.27,3.61,2.27s-3.5,1.31-5.29,1.87c-.78.26-5.5,1.67-7.69,2.19-1.28.31-4.7.9-4.7.9s-1.66-4.33-2.43-5.91a43.3,43.3,0,0,0-3.32-5.65A16.26,16.26,0,0,0,686.42,247.58Z" transform="translate(-563.72 -246.66)"/><path id="Trazado_10208" data-name="Trazado 10208" class="cls-1" d="M690.46,246.66s2.94.52,3.6.69,2.13.48,2.5.61c.61.2,3.14.95,3.69,1.18s3,1.16,3.6,1.38c.95.38,4,1.9,5.1,2.51.94.52,3,1.76,3.26,1.93s2,1.38,2,1.38l2-.83c.35-.15,2.82-1.24,3.31-1.5l2.28-1.18s-4.78-1.53-5.5-1.73-5.39-1.41-6.11-1.59-6-1.21-6.51-1.32-5.18-.78-5.7-.87-3.84-.41-4.36-.44Z" transform="translate(-563.72 -246.66)"/><path id="Trazado_10209" data-name="Trazado 10209" class="cls-1" d="M715.58,257.23s3.23-1.32,3.92-1.73,1.15-.63,2-1,2-1.15,2-1.15,4.19,1.58,4.73,1.85c.8.4,5.64,2.53,6.68,3s5.53,2.88,6.92,3.69c1.16.67,5.24,3.17,6.39,4s5,3.46,5.71,4,6,5.07,6,5.07-3.23,2.36-5.88,4c-1.61,1-4.84,2.65-6.27,3.34s-3.35,1.5-4.9,2.19c-.92.41-4.15,1.61-4.15,1.61s-2-4.26-2.82-5.53-3.34-5.65-3.86-6.39-3.81-4.9-4-5.19-3.22-3.75-3.68-4.21-3.92-3.91-4.33-4.2S715.58,257.23,715.58,257.23Z" transform="translate(-563.72 -246.66)"/><path id="Trazado_10210" data-name="Trazado 10210" class="cls-1" d="M739.2,287.4s8-3.06,11.14-4.76c3.92-2.15,10.45-6.76,10.45-6.76s5.48,5.34,6,6c.85,1.08,5.84,6.92,7.45,9.45,1.45,2.27,4.92,7.68,6.3,10.6,1.05,2.21,2.77,5.61,3.84,8.53s2.79,8.87,2.79,8.87a36.36,36.36,0,0,0-5.41-5.95,20,20,0,0,0-5.23-3.15,24.7,24.7,0,0,0-7.91-1.77,32.65,32.65,0,0,0-7.3.92,34,34,0,0,0-6.83,3.32,25.51,25.51,0,0,0-5.15,5.07,24.36,24.36,0,0,0-2.23,4s-.54-5.61-.7-7.3-1-6.76-1.23-8.14-1.53-7-1.91-8.07-2.23-6.6-2.62-7.6S739.2,287.4,739.2,287.4Z" transform="translate(-563.72 -246.66)"/><path id="Trazado_10211" data-name="Trazado 10211" class="cls-1" d="M695.49,263.2s4.63-.77,6.76-1.38c2.69-.77,4.84-1.38,6.69-2,1.45-.48,5.06-1.91,5.06-1.91s2.62,1.91,3.77,2.84c1,.78,3.61,3.15,4.61,4.22s3.88,4.12,5.23,5.92c1.15,1.54,4.22,5.77,5,7.07s2.08,3.3,2.92,5c.54,1.08,1.77,3.61,1.77,3.61s-3.61,1.23-5.46,1.77c-1.07.31-5.75,1.54-8.14,2.15-1.6.42-7.07,1.61-11.45,2.23S702,294.09,702,294.09s-.62-5.38-1-7.53-1.31-7-1.54-8.22c-.38-2.07-1.84-7.75-2.23-9.37S695.49,263.2,695.49,263.2Z" transform="translate(-563.72 -246.66)"/><path id="Trazado_10212" data-name="Trazado 10212" class="cls-1" d="M672.06,263.05s4.23.7,6.3.85,6.23.42,8,.38c1.54,0,7.76-.77,7.76-.77s1.23,3.61,1.85,5.92c.39,1.45,1.36,5,1.84,7.6.54,2.92,1.08,5.46,1.61,8.6.43,2.54,1.23,8.53,1.23,8.53s-2.3.31-11.91.77c-2,.1-10,.15-14.06,0s-9.45-.61-9.45-.61.46-3.84.77-5.76,1.47-8.14,1.85-9.76c.61-2.62,2-8.68,2.3-9.68S672.06,263.05,672.06,263.05Z" transform="translate(-563.72 -246.66)"/><path id="Trazado_10213" data-name="Trazado 10213" class="cls-1" d="M651.47,257.83s2.14.8,4.46,1.46,6,1.7,8.45,2.3,6.3,1.31,6.3,1.31-1.31,3.76-1.77,5.68c-.34,1.42-1.69,5.61-2.08,8.07-.3,2-1.18,5.14-1.76,9l-1.31,8.52s-6.37-.61-8.52-.92-10.14-1.76-12.37-2.3-6.76-1.84-9-2.46-5.69-1.85-5.69-1.85,2.38-4.91,3.84-7.22,4.15-6.37,5.61-8.29a92.35,92.35,0,0,1,7.22-7.84c1.22-1.08,2.07-2,3.53-3.15S651.47,257.83,651.47,257.83Z" transform="translate(-563.72 -246.66)"/><path id="Trazado_10214" data-name="Trazado 10214" class="cls-1" d="M641.1,253.76s2.76,1.15,3.76,1.61,5.15,1.92,5.15,1.92-4.61,3.61-5.84,4.76a102.3,102.3,0,0,0-9.29,10.45c-1.9,2.73-3.69,5.68-5.07,8-1,1.59-2.85,5.75-2.85,5.75s-4.61-1.84-6.91-2.84c-1.3-.57-6.07-2.85-7.68-3.77s-3.46-2.15-4.54-2.84-2.3-1.69-2.3-1.69,2.76-2.46,4.38-3.77,5.53-4.3,7.3-5.37,6.83-4.31,8.06-5,6.76-3.46,8.84-4.38S641.1,253.76,641.1,253.76Z" transform="translate(-563.72 -246.66)"/><path id="Trazado_10215" data-name="Trazado 10215" class="cls-1" d="M626.29,287.4a106.37,106.37,0,0,1-11.62-5,114.3,114.3,0,0,1-10.29-6.22s-5.16,5-5.67,5.68c-.84,1.08-5.84,6.92-7.45,9.45-1.44,2.27-4.92,7.68-6.3,10.6-1.05,2.21-2.77,5.61-3.84,8.53s-2.79,8.87-2.79,8.87a35,35,0,0,1,5.23-5.64,20.75,20.75,0,0,1,5.3-3.15,25,25,0,0,1,7.84-1.92,38.26,38.26,0,0,1,7.47.77,27.66,27.66,0,0,1,7.12,3.15,25.13,25.13,0,0,1,5.3,4.84c1.07,1.38,2.39,3.53,2.39,3.53s.09-4.85.3-6.53c.31-2.46,1-7.08,1.22-8.45.47-2.38,1.54-6.61,1.92-7.68s1.83-5.69,2.54-7.53C625.35,289.71,626.29,287.4,626.29,287.4Z" transform="translate(-563.72 -246.66)"/><path id="Trazado_10216" data-name="Trazado 10216" class="cls-1" d="M627.73,287.94s4.69,1.61,7.76,2.46,10.6,2.61,14.3,3.3,7.6,1.23,9.06,1.38,4.77.46,4.77.46-.62,4.92-.85,7.15c-.16,1.54-.54,6.22-.69,8.76-.09,1.38-.35,10.73-.35,10.73s-4.35-6.74-8-9.12A24.35,24.35,0,0,0,642,308.68,24.63,24.63,0,0,0,629,311.6a29.68,29.68,0,0,0-6.22,5.23,44.34,44.34,0,0,0-2.46,3.92s.38-6.22.69-8.53c.2-1.47,1.07-6.59,1.54-8.6.54-2.31,1.15-4.84,1.69-6.45s1.44-4.24,1.92-5.53C626.81,289.78,627.73,287.94,627.73,287.94Z" transform="translate(-563.72 -246.66)"/><path id="Trazado_10217" data-name="Trazado 10217" class="cls-1" d="M738.05,287.79s-4.69,1.61-7.76,2.46-10.6,2.61-14.3,3.31-7.6,1.22-9.06,1.38-4.76.46-4.76.46.61,4.92.84,7.15c.16,1.53.54,6.22.7,8.76.08,1.38.35,10.72.35,10.72s4.34-6.73,8-9.11a24.15,24.15,0,0,1,11.75-4.38,24.43,24.43,0,0,1,13.06,2.92,29.74,29.74,0,0,1,6.23,5.23,45.13,45.13,0,0,1,2.45,3.92s-.38-6.23-.69-8.53c-.2-1.48-1.07-6.59-1.54-8.61-.54-2.3-1.15-4.84-1.69-6.45s-1.43-4.23-1.92-5.53C739,289.63,738.05,287.79,738.05,287.79Z" transform="translate(-563.72 -246.66)"/><path id="Trazado_10218" data-name="Trazado 10218" class="cls-1" d="M664.93,295.68s6.9.48,8.7.52,10.28.11,11.19.11,8.27-.23,9.06-.27c1.17-.05,7-.63,7-.63s.43,3.71.59,5.57c.08.95.58,6.52.7,7.84s.31,4.77.31,5.78.22,6.42.22,6.42a19.37,19.37,0,0,0-4.89-6.53,23.94,23.94,0,0,0-7.32-4.4,24.67,24.67,0,0,0-7.79-1.48,27.47,27.47,0,0,0-9.6,2,23,23,0,0,0-5.57,3.67,19.28,19.28,0,0,0-3.13,3.44,13.24,13.24,0,0,0-1.54,3.61l.32-5.2s.06-2.7.21-4.4.48-6.2.59-7.26.52-5,.58-5.62Z" transform="translate(-563.72 -246.66)"/></g><g id="Grupo_7058" data-name="Grupo 7058"><path id="Trazado_10219" data-name="Trazado 10219" class="cls-1" d="M583.93,465.65h9a6.77,6.77,0,0,1,4.68,1.51,6.62,6.62,0,0,1-2.16,11.26l5.32,10.2h-4.13l-4.74-9.81h-4.45v9.81h-3.49Zm3.49,10.06h5.25a3.54,3.54,0,0,0,3.89-3.19,3.39,3.39,0,0,0,0-.45,3.11,3.11,0,0,0-1.16-2.62,4,4,0,0,0-2.55-.71h-5.46Z" transform="translate(-563.72 -246.66)"/><path id="Trazado_10220" data-name="Trazado 10220" class="cls-1" d="M602.81,465.65h14.68v3.29h-11.2v6.55h9.55v3.1h-9.55v6.74h11.2v3.29H602.81Z" transform="translate(-563.72 -246.66)"/><path id="Trazado_10221" data-name="Trazado 10221" class="cls-1" d="M619.94,465.65h8a7.76,7.76,0,0,1,7,3.87c1.13,1.94,1.22,2.81,1.22,7.62,0,5.16-.26,6.06-1.29,7.67a8.22,8.22,0,0,1-7.16,3.81h-7.81Zm3.49,19.68h4.15a4.78,4.78,0,0,0,4.27-2c.77-1.16.87-1.81.87-6.06s-.1-5.14-1-6.39a4.45,4.45,0,0,0-4.1-1.94h-4.17Z" transform="translate(-563.72 -246.66)"/><path id="Trazado_10222" data-name="Trazado 10222" class="cls-1" d="M664.86,482.2a7.92,7.92,0,0,1-8.07,6.62,8.19,8.19,0,0,1-7.2-4.13c-.74-1.36-1-2-1-7.56s.26-6.19,1-7.55a8.25,8.25,0,0,1,15.27,2.68h-3.68a4.65,4.65,0,0,0-4.39-3.32,4.4,4.4,0,0,0-3.55,1.68c-.9,1.16-1.16,1.8-1.16,6.51s.26,5.36,1.16,6.52a4.45,4.45,0,0,0,3.55,1.68,4.75,4.75,0,0,0,4.39-3.14Z" transform="translate(-563.72 -246.66)"/><path id="Trazado_10223" data-name="Trazado 10223" class="cls-1" d="M666.73,469.59a8.33,8.33,0,0,1,14.39,0c.74,1.35,1,2,1,7.55s-.26,6.19-1,7.55a8.34,8.34,0,0,1-11.4,3,8.24,8.24,0,0,1-3-3c-.74-1.35-1-2-1-7.55S666,470.94,666.73,469.59Zm3.65,14.06a4.59,4.59,0,0,0,6.46.64,4.3,4.3,0,0,0,.64-.64c.9-1.15,1.16-1.8,1.16-6.51s-.26-5.36-1.16-6.52A4.61,4.61,0,0,0,671,470a5.43,5.43,0,0,0-.63.64c-.91,1.16-1.17,1.81-1.17,6.52s.27,5.35,1.17,6.51Z" transform="translate(-563.72 -246.66)"/><path id="Trazado_10224" data-name="Trazado 10224" class="cls-1" d="M685.38,465.65h3.29L699.06,482h.06V465.65h3.49v23h-3.3l-10.39-16.33h-.06v16.33h-3.49Z" transform="translate(-563.72 -246.66)"/><path id="Trazado_10225" data-name="Trazado 10225" class="cls-1" d="M706.93,483a10.58,10.58,0,0,0,6.52,2.29c2.84,0,4.55-1.29,4.55-3.19a3,3,0,0,0-2.9-3.1H715c-1-.13-1.84-.26-3-.42a6.38,6.38,0,0,1-6.1-6.45c0-3.94,2.75-6.72,7.49-6.72a13.49,13.49,0,0,1,7.45,2.39l-1.93,2.87a10.84,10.84,0,0,0-5.68-1.77c-2.13,0-3.83,1.1-3.83,3.29,0,1.29.93,2.59,3.25,2.94.62.1,1.49.23,2.59.35a6.55,6.55,0,0,1,6.29,6.61c0,4.23-3.13,6.68-8.07,6.68a12.9,12.9,0,0,1-8.78-3.16Z" transform="translate(-563.72 -246.66)"/><path id="Trazado_10226" data-name="Trazado 10226" class="cls-1" d="M723.94,465.65h3.48v14.82a4.68,4.68,0,0,0,9.36.4,2.67,2.67,0,0,0,0-.4V465.65h3.49v15.2a8.17,8.17,0,0,1-16.33,0Z" transform="translate(-563.72 -246.66)"/><path id="Trazado_10227" data-name="Trazado 10227" class="cls-1" d="M743.87,465.65h3.29l6.59,15,6.45-15h3.29v23H760V474.3h-.06l-4.81,11h-2.9l-4.81-11h-.06v14.32h-3.49Z" transform="translate(-563.72 -246.66)"/><path id="Trazado_10228" data-name="Trazado 10228" class="cls-1" d="M767.75,469.59a8.32,8.32,0,0,1,11.39-3,8.22,8.22,0,0,1,3,3c.74,1.35,1,2,1,7.55s-.26,6.19-1,7.55a8.34,8.34,0,0,1-14.39,0c-.74-1.35-1-2-1-7.55S767,470.94,767.75,469.59Zm3.65,14.06a4.58,4.58,0,0,0,6.46.64,4.3,4.3,0,0,0,.64-.64c.9-1.15,1.16-1.8,1.16-6.51s-.26-5.36-1.16-6.52A4.6,4.6,0,0,0,772,470a4.69,4.69,0,0,0-.63.63c-.91,1.16-1.16,1.81-1.16,6.52s.25,5.35,1.16,6.51Z" transform="translate(-563.72 -246.66)"/><path id="Trazado_10229" data-name="Trazado 10229" class="cls-1" d="M566,514.2a10.55,10.55,0,0,0,6.51,2.29c2.84,0,4.55-1.29,4.55-3.19a3,3,0,0,0-2.9-3.1h-.1c-1-.13-1.84-.26-3-.42a6.37,6.37,0,0,1-6.1-6.45c0-3.94,2.74-6.72,7.48-6.72a13.6,13.6,0,0,1,7.46,2.39l-1.94,2.87a10.81,10.81,0,0,0-5.68-1.77c-2.12,0-3.83,1.1-3.83,3.3,0,1.29.93,2.58,3.26,2.93.61.1,1.48.23,2.58.35a6.55,6.55,0,0,1,6.29,6.61c0,4.23-3.14,6.68-8.07,6.68a12.86,12.86,0,0,1-8.77-3.16Z" transform="translate(-563.72 -246.66)"/><path id="Trazado_10230" data-name="Trazado 10230" class="cls-1" d="M583.43,496.81h14.68v3.29h-11.2v6.55h9.55v3.09h-9.55v6.75h11.2v3.29H583.43Z" transform="translate(-563.72 -246.66)"/><path id="Trazado_10231" data-name="Trazado 10231" class="cls-1" d="M608,507.13h8.16v4.68a8.24,8.24,0,0,1-15.39,4c-.74-1.35-1-2-1-7.55s.26-6.19,1-7.55a8.24,8.24,0,0,1,15.26,2.68h-3.68a4.66,4.66,0,0,0-4.39-3.33,4.44,4.44,0,0,0-3.55,1.68c-.91,1.16-1.16,1.81-1.16,6.52s.25,5.36,1.16,6.52a4.4,4.4,0,0,0,3.55,1.67,4.64,4.64,0,0,0,4.71-4.6,2.72,2.72,0,0,0,0-.28v-1.19H608Z" transform="translate(-563.72 -246.66)"/><path id="Trazado_10232" data-name="Trazado 10232" class="cls-1" d="M619,496.81h3.49v14.81a4.68,4.68,0,1,0,9.35.41,2.81,2.81,0,0,0,0-.41V496.81h3.49V512A8.17,8.17,0,0,1,619,512Z" transform="translate(-563.72 -246.66)"/><path id="Trazado_10233" data-name="Trazado 10233" class="cls-1" d="M639,496.81h9a6.8,6.8,0,0,1,4.68,1.51,6.62,6.62,0,0,1-2.17,11.26l5.33,10.2h-4.14L646.89,510h-4.45v9.81H639Zm3.49,10.06h5.26a3.56,3.56,0,0,0,3.88-3.2,3.24,3.24,0,0,0,0-.44,3.11,3.11,0,0,0-1.16-2.62,3.86,3.86,0,0,0-2.55-.71h-5.46Z" transform="translate(-563.72 -246.66)"/><path id="Trazado_10234" data-name="Trazado 10234" class="cls-1" d="M658.06,500.75a8.32,8.32,0,0,1,14.39,0c.74,1.35,1,2,1,7.55s-.26,6.19-1,7.55a8.34,8.34,0,0,1-11.4,3,8.24,8.24,0,0,1-3-3c-.74-1.36-1-2-1-7.55S657.32,502.1,658.06,500.75Zm3.65,14.06a4.58,4.58,0,0,0,6.46.64,4.3,4.3,0,0,0,.64-.64c.9-1.16,1.16-1.8,1.16-6.51s-.26-5.36-1.16-6.52a4.6,4.6,0,0,0-6.47-.64,4.76,4.76,0,0,0-.63.64c-.91,1.16-1.17,1.81-1.17,6.52s.26,5.35,1.17,6.51Z" transform="translate(-563.72 -246.66)"/><path id="Trazado_10235" data-name="Trazado 10235" class="cls-1" d="M690.62,510.33l-6.91-13.52h3.68L692.26,507l4.89-10.19h3.67l-6.9,13.52v9.45h-3.29Z" transform="translate(-563.72 -246.66)"/><path id="Trazado_10236" data-name="Trazado 10236" class="cls-1" d="M712.15,514.2a10.58,10.58,0,0,0,6.52,2.29c2.84,0,4.55-1.29,4.55-3.19a3,3,0,0,0-2.9-3.1h-.1c-1-.13-1.84-.26-3-.42a6.39,6.39,0,0,1-6.11-6.45c0-3.94,2.75-6.72,7.49-6.72A13.62,13.62,0,0,1,726,499l-1.94,2.87a10.84,10.84,0,0,0-5.68-1.77c-2.13,0-3.83,1.1-3.83,3.3,0,1.29.93,2.58,3.26,2.93.61.1,1.48.23,2.58.35a6.55,6.55,0,0,1,6.29,6.61c0,4.23-3.13,6.68-8.07,6.68a12.9,12.9,0,0,1-8.78-3.16Z" transform="translate(-563.72 -246.66)"/><path id="Trazado_10237" data-name="Trazado 10237" class="cls-1" d="M741.34,514.65h-8.72l-1.78,5.13h-3.66l8.36-23h2.9l8.36,23h-3.68Zm-1-3.1-3.33-10H737l-3.32,10Z" transform="translate(-563.72 -246.66)"/><path id="Trazado_10238" data-name="Trazado 10238" class="cls-1" d="M748.44,496.81h3.49v19.68h11.19v3.29H748.44Z" transform="translate(-563.72 -246.66)"/><path id="Trazado_10239" data-name="Trazado 10239" class="cls-1" d="M765.16,496.81h3.48v14.81A4.68,4.68,0,0,0,778,512a2.28,2.28,0,0,0,0-.37V496.81h3.49V512a8.17,8.17,0,0,1-16.33,0Z" transform="translate(-563.72 -246.66)"/><path id="Trazado_10240" data-name="Trazado 10240" class="cls-1" d="M785.1,496.81h8a7.74,7.74,0,0,1,7,3.87c1.13,1.94,1.22,2.8,1.22,7.61,0,5.17-.25,6.07-1.28,7.68a8.2,8.2,0,0,1-7.17,3.8h-7.81Zm3.48,19.68h4.17a4.77,4.77,0,0,0,4.26-2c.77-1.16.87-1.81.87-6.07s-.09-5.13-1-6.39a4.44,4.44,0,0,0-4.1-1.93h-4.17Z" transform="translate(-563.72 -246.66)"/></g></g></svg>