<svg xmlns="http://www.w3.org/2000/svg" xmlns:xlink="http://www.w3.org/1999/xlink" viewBox="0 0 136.385 169.754" xmlns:v="https://vecta.io/nano"><g fill="#fff" stroke="#fff" stroke-miterlimit="10"><path d="M47.501 53.146l-7.929-.007a4.82 4.82 0 0 0-4.797 4.873v11.525a1.64 1.64 0 1 0 3.28 0V59h.776l.008 46.6h4.368l-.009-34.493h.753l.009 34.493h4.463L48.34 59h.759v10.537a1.63 1.63 0 0 0 2.461 1.464 1.63 1.63 0 0 0 .795-1.464V58.083c.013-1.299-.491-2.55-1.402-3.476a4.89 4.89 0 0 0-3.452-1.461zm-3.936-1.079a4.61 4.61 0 0 0 4.605-4.607 4.61 4.61 0 1 0-7.864 3.258 4.61 4.61 0 0 0 3.259 1.35zm-27.103.992h6.072v57.189h-6.072zm7.594-5.36c-.001 2.607-2.115 4.72-4.723 4.72a4.72 4.72 0 0 1-4.721-4.722c0-2.608 2.113-4.721 4.721-4.722 1.253 0 2.454.498 3.34 1.384a4.72 4.72 0 0 1 1.383 3.34z"/><path d="M24.335 68.989V54.924a1.76 1.76 0 0 0-1.582-1.893h-6.457c-.956.092-1.661.935-1.582 1.893v14.065zm1.727 36.576V53.12h1.499v52.445m1.972 0V53.12h2.464v52.445m22.268 0V53.012h.734v52.553m4.994-52.556h1.59v52.557h-1.59zM82.977 73.93h1.119v31.636h-1.119zm14.431 0h2.844v31.636h-2.844zm4.449-21.135h2.031v52.771h-2.031zm3.889 0h.734v52.771h-.734zm3.192 0h.875v52.771h-.875zm4.96.317h6.184v58.227h-6.184zm7.731-5.459a4.81 4.81 0 0 1-4.807 4.807 4.81 4.81 0 1 1 3.399-8.207 4.81 4.81 0 0 1 1.408 3.4z"/><path d="M121.914 69.331V55.012a1.79 1.79 0 0 0-1.611-1.929h-6.574a1.79 1.79 0 0 0-1.609 1.929v14.319zM64.187 52.829h4.4v52.736h-4.4zm7.581-.09h2.145v52.826h-2.145zm4.022.056h.834v52.771h-.834z"/><path d="M78.354 52.795h1.005v52.771h-1.005zm-7.603-5.316c-.001 2.41-1.955 4.363-4.365 4.363s-4.364-1.954-4.364-4.364 1.953-4.364 4.363-4.365 4.365 1.955 4.365 4.365zm-1.004 16.246v-9.827a1.23 1.23 0 0 0-1.104-1.322h-4.511a1.23 1.23 0 0 0-1.106 1.322v9.827zm-12.248 41.84V53.009h.446v52.556m-22.959 0V73.913h1.312v31.652M49.794 73.93h2.488v31.636h-2.488zm44.878-21.075l-7.93-.007a4.82 4.82 0 0 0-4.797 4.872v11.525a1.64 1.64 0 1 0 3.279 0V58.708h.777l.035 46.795h4.367l-.037-34.69h.754l.035 34.69h4.389l-.035-46.795h.76v10.537a1.63 1.63 0 0 0 2.461 1.464 1.63 1.63 0 0 0 .795-1.464V57.79a4.89 4.89 0 0 0-4.854-4.936zm-3.936-1.08a4.61 4.61 0 0 0 4.604-4.608 4.61 4.61 0 1 0-7.864 3.258 4.61 4.61 0 0 0 3.259 1.349zM51.337 6.003l4.091-2.318c1.643-.735 3.327-1.373 5.045-1.909 1.898-.533 3.85-.853 5.818-.954a14.95 14.95 0 0 0-3.182 3.636 19.06 19.06 0 0 0-1.83 4.14l-5.261-1.14-4.682-1.455zm10.662 2.714l1.609-3.562c.549-1.054 1.249-2.023 2.078-2.875a3.32 3.32 0 0 1 2.406-1.125c.471.067.908.285 1.245.621a12.07 12.07 0 0 1 1.834 2.176 19.63 19.63 0 0 1 1.422 2.719l.859 2.234-3.687.375a39.82 39.82 0 0 1-4.563-.141A30.84 30.84 0 0 1 62 8.717zM45.968 4.014l7.833-2.25c3.619-.745 8.75-1.229 8.75-1.229a54.05 54.05 0 0 0-7.562 2.563c-1.583.792-4.542 2.667-4.542 2.667a39.05 39.05 0 0 1-4.479-1.75zM69.53.999a43.13 43.13 0 0 1 4.422.687 38.3 38.3 0 0 1 5.099 1.766 28.6 28.6 0 0 1 2.793 1.406l1.963 1.235-2.87 1.015-4.172 1.188-2.557.483-1.318-3.202a22.95 22.95 0 0 0-1.797-3.062c-.455-.569-.98-1.078-1.563-1.516zm2.188-.5l1.953.375 1.359.328 2 .641 1.953.75c.516.203 2.172 1.031 2.767 1.359l1.766 1.047 1.094.75 1.078-.453 1.797-.812 1.234-.641-2.984-.937-3.312-.859-3.532-.719c-.281-.062-2.812-.422-3.094-.469a60.15 60.15 0 0 0-2.359-.234l-1.72-.126zm13.626 5.734l2.125-.937 1.063-.562c.438-.219 1.063-.625 1.063-.625l2.563 1 3.625 1.656 3.75 2L103 10.92l3.094 2.188 3.25 2.75-3.187 2.188c-.873.55-2.625 1.438-3.406 1.813l-2.656 1.188-2.25.875-1.531-3-2.094-3.469c-.281-.406-2.062-2.656-2.187-2.812l-2-2.281-2.344-2.281-2.344-1.844zm12.812 16.365l6.041-2.583c2.125-1.167 5.666-3.667 5.666-3.667l3.25 3.25 4.043 5.125 3.416 5.75 2.084 4.625 1.51 4.81a19.93 19.93 0 0 0-2.928-3.227 11.1 11.1 0 0 0-2.832-1.708 13.46 13.46 0 0 0-4.293-.959 17.47 17.47 0 0 0-3.957.5 18.12 18.12 0 0 0-3.709 1.792 13.96 13.96 0 0 0-2.791 2.75 13.33 13.33 0 0 0-1.209 2.167l-.375-3.958c-.084-.916-.541-3.667-.666-4.417s-.834-3.792-1.043-4.375l-1.416-4.125c-.209-.542-.791-1.75-.791-1.75zM74.447 9.473l3.666-.75L81.74 7.64l2.75-1.042 2.041 1.542c.529.423 1.957 1.709 2.5 2.292l2.834 3.208 2.707 3.833 1.584 2.708.959 1.958-2.959.958-4.416 1.167a71.63 71.63 0 0 1-6.209 1.208l-5.543.75-.541-4.083-.834-4.458c-.208-1.125-1-4.208-1.208-5.083s-.958-3.125-.958-3.125z"/><path d="M61.739 9.389l3.417.458 4.333.208c.834-.018 4.208-.417 4.208-.417l1 3.208 1 4.125.875 4.667.667 4.625s-1.25.167-6.458.417h-7.625l-5.125-.333.416-3.125 1-5.292 1.25-5.25 1.042-3.292zM50.572 6.556l2.417.792 4.583 1.25 3.417.708-.958 3.083-1.125 4.375-.959 4.875-.708 4.625-4.625-.5-6.708-1.25-4.875-1.333-3.084-1 2.084-3.917 3.041-4.5a50.8 50.8 0 0 1 3.917-4.25l1.917-1.708 1.666-1.25zm-5.625-2.208l2.042.875c.542.25 2.792 1.042 2.792 1.042l-3.167 2.583a55.49 55.49 0 0 0-5.042 5.666l-2.75 4.334c-.519.864-1.541 3.125-1.541 3.125l-3.75-1.542-4.167-2.042-2.458-1.542c-.583-.375-1.25-.917-1.25-.917l2.375-2.042 3.958-2.917 4.375-2.708c.666-.375 3.667-1.875 4.792-2.375l3.791-1.541zm-8.032 18.25a58.58 58.58 0 0 1-6.301-2.708c-1.919-1.026-3.783-2.153-5.583-3.375l-3.073 3.083-4.042 5.125-3.417 5.75-2.083 4.625-1.51 4.81a19.15 19.15 0 0 1 2.833-3.06 11.21 11.21 0 0 1 2.875-1.708 13.62 13.62 0 0 1 4.25-1.042 20.95 20.95 0 0 1 4.051.416 14.98 14.98 0 0 1 3.865 1.709c1.076.736 2.044 1.62 2.875 2.625.581.752 1.291 1.917 1.291 1.917l.167-3.542.667-4.583c.25-1.292.833-3.583 1.041-4.167l1.375-4.083.718-1.792zm.782.291l4.209 1.333 7.75 1.792 4.916.75 2.584.25-.459 3.875-.375 4.75-.186 5.818s-2.355-3.651-4.314-4.943a13.13 13.13 0 0 0-6.375-2.375c-2.462-.14-4.915.408-7.083 1.583-1.249.786-2.385 1.739-3.375 2.834a24.09 24.09 0 0 0-1.333 2.125l.375-4.625.833-4.667.917-3.5 1.041-3c.375-1 .875-2 .875-2zm59.834-.083l-4.209 1.333-7.75 1.792-4.917.75-2.584.25.459 3.875.375 4.75.185 5.818s2.356-3.651 4.315-4.943c1.88-1.338 4.078-2.157 6.375-2.375a13.27 13.27 0 0 1 7.082 1.583 16.08 16.08 0 0 1 3.375 2.833c.482.684.927 1.394 1.334 2.125l-.375-4.625-.834-4.667-.916-3.5-1.041-3c-.375-1-.875-2-.875-2zm-39.658 4.281l4.717.288 6.068.058 4.918-.144 3.825-.345.316 3.019.374 4.256.172 3.135.115 3.48c-.621-1.354-1.523-2.56-2.646-3.537a12.96 12.96 0 0 0-3.969-2.387 13.34 13.34 0 0 0-4.228-.805 14.94 14.94 0 0 0-5.205 1.093 12.57 12.57 0 0 0-3.02 1.984c-.638.554-1.207 1.182-1.697 1.87a6.95 6.95 0 0 0-.834 1.956l.172-2.818.115-2.387.316-3.94.316-3.049.172-1.726zM.5 120.687h4.866a3.67 3.67 0 0 1 2.538.822 3.59 3.59 0 0 1-1.172 6.108l2.888 5.53H7.38l-2.573-5.32H2.39v5.32H.5zm1.89 5.46h2.853a1.93 1.93 0 0 0 2.118-1.978c.033-.547-.202-1.076-.63-1.418a2.11 2.11 0 0 0-1.383-.385H2.39zm8.347-5.46H18.7v1.785h-6.073v3.553h5.181v1.68h-5.181v3.658H18.7v1.785h-7.963zm4.341-3.168h2.345l-2.485 2.555h-1.47zm5.11 12.602a5.74 5.74 0 0 0 3.535 1.242c1.541 0 2.468-.7 2.468-1.732.015-.441-.151-.869-.457-1.185s-.729-.496-1.17-.495l-1.645-.228c-1.868-.079-3.334-1.63-3.308-3.5 0-2.136 1.488-3.641 4.061-3.641a7.31 7.31 0 0 1 4.043 1.295l-1.05 1.558a5.82 5.82 0 0 0-3.08-.962c-1.155 0-2.083.595-2.083 1.785 0 .7.508 1.399 1.768 1.593l1.4.192a3.55 3.55 0 0 1 3.413 3.588c0 2.292-1.697 3.623-4.375 3.623-1.745.043-3.444-.569-4.76-1.716zm9.449-9.434H37.6v1.785h-6.073v3.553h5.181v1.68h-5.181v3.658H37.6v1.785h-7.963zm15.681 9.678h-4.726l-.962 2.783h-1.995l4.533-12.461h1.575l4.533 12.461h-1.995zm-.542-1.68l-1.803-5.443h-.035l-1.802 5.443z"/><use xlink:href="#B"/><path d="M64.972 130.121a5.74 5.74 0 0 0 3.535 1.242c1.541 0 2.468-.7 2.468-1.732a1.63 1.63 0 0 0-.457-1.185c-.306-.316-.729-.496-1.17-.495l-1.645-.228c-1.868-.079-3.334-1.63-3.308-3.5 0-2.136 1.488-3.641 4.061-3.641a7.31 7.31 0 0 1 4.043 1.295l-1.05 1.558a5.82 5.82 0 0 0-3.08-.962c-1.155 0-2.083.595-2.083 1.785 0 .7.508 1.399 1.767 1.593l1.4.192a3.55 3.55 0 0 1 3.413 3.588c0 2.292-1.697 3.623-4.375 3.623-1.745.043-3.444-.569-4.76-1.716zm15.837.244h-4.726l-.962 2.783h-1.995l4.533-12.461h1.576l4.533 12.461h-1.995zm-.542-1.68l-1.803-5.443h-.035l-1.803 5.443zm4.391-7.998h1.785l5.637 8.855h.035v-8.855h1.89v12.461H92.22l-5.636-8.856h-.035v8.856h-1.891zm13.651 1.68h-3.412v-1.68h8.715v1.68H100.2v10.781h-1.891zm6.195-1.68h7.963v1.785h-6.073v3.553h5.181v1.68h-5.181v3.658h6.073v1.785h-7.963zm4.34-3.168h2.346l-2.485 2.555h-1.47zm10.327 3.168h7.964v1.785h-6.074v3.553h5.182v1.68h-5.182v3.658h6.074v1.785h-7.964zm11.41 1.68h-3.413v-1.68h8.717v1.68h-3.413v10.781h-1.891zM16.015 148.121a5.74 5.74 0 0 0 3.535 1.242c1.54 0 2.468-.7 2.468-1.732a1.63 1.63 0 0 0-.457-1.185c-.306-.316-.729-.496-1.17-.495l-1.645-.228c-1.868-.079-3.334-1.63-3.308-3.5 0-2.136 1.488-3.641 4.06-3.641a7.31 7.31 0 0 1 4.043 1.295l-1.05 1.558a5.82 5.82 0 0 0-3.08-.962c-1.155 0-2.083.595-2.083 1.785 0 .7.508 1.399 1.768 1.593l1.4.192a3.55 3.55 0 0 1 3.413 3.588c0 2.292-1.697 3.623-4.375 3.623-1.745.043-3.444-.569-4.76-1.716zm9.449-9.434h7.963v1.785h-6.073v3.553h5.18v1.68h-5.18v3.658h6.073v1.785h-7.963zm4.341-3.168h2.345l-2.485 2.555h-1.47zm13.353 12.147c-.349 2.126-2.222 3.662-4.375 3.588a4.43 4.43 0 0 1-3.903-2.24c-.402-.735-.542-1.103-.542-4.096s.14-3.36.543-4.096a4.47 4.47 0 0 1 8.278 1.453h-1.995a2.52 2.52 0 0 0-2.38-1.803c-.749-.014-1.461.323-1.925.91-.49.63-.63.98-.63 3.535s.14 2.905.63 3.535c.464.587 1.176.924 1.925.91a2.56 2.56 0 0 0 2.38-1.697z"/><use xlink:href="#B" x="-4.803" y="18"/><path d="M54.637 138.687h4.866a3.67 3.67 0 0 1 2.538.822 3.59 3.59 0 0 1-1.172 6.108l2.888 5.53h-2.24l-2.573-5.32h-2.416v5.32h-1.89zm1.89 5.46h2.853a1.93 1.93 0 0 0 2.118-1.978c.033-.547-.202-1.076-.63-1.418a2.11 2.11 0 0 0-1.383-.385h-2.958zm8.347-5.46h1.89v12.461h-1.89zm6.195 1.68h-3.413v-1.68h8.716v1.68h-3.413v10.781h-1.89zm6.195-1.68h7.963v1.785h-6.073v3.553h5.18v1.68h-5.18v3.658h6.073v1.785h-7.963zm4.341-3.168h2.345l-2.484 2.555h-1.471zm10.327 3.168h4.357a4.22 4.22 0 0 1 3.798 2.1c.612 1.051.665 1.522.665 4.131 0 2.8-.14 3.29-.699 4.165a4.45 4.45 0 0 1-3.887 2.065h-4.234zm1.89 10.676h2.258c.907.07 1.785-.342 2.31-1.085.42-.63.472-.98.472-3.291 0-2.24-.052-2.782-.56-3.465a2.41 2.41 0 0 0-2.223-1.05h-2.258zm8.696-10.676h7.964v1.785h-6.073v3.553h5.181v1.68h-5.181v3.658h6.073v1.785h-7.964zm9.451 9.434a5.74 5.74 0 0 0 3.535 1.242c1.54 0 2.467-.7 2.467-1.732a1.62 1.62 0 0 0-.457-1.185 1.63 1.63 0 0 0-1.17-.495l-1.646-.228c-1.868-.079-3.334-1.63-3.308-3.5 0-2.136 1.488-3.641 4.061-3.641a7.31 7.31 0 0 1 4.043 1.295l-1.051 1.558c-.915-.605-1.983-.938-3.08-.962-1.154 0-2.082.595-2.082 1.785 0 .7.508 1.399 1.768 1.593l1.4.192a3.55 3.55 0 0 1 3.412 3.588c0 2.292-1.697 3.623-4.375 3.623-1.746.043-3.444-.569-4.761-1.716zM10.268 165.666c-.349 2.126-2.222 3.662-4.375 3.588a4.43 4.43 0 0 1-3.903-2.24c-.402-.735-.543-1.103-.543-4.096s.14-3.36.543-4.096a4.47 4.47 0 0 1 8.278 1.453H8.273a2.52 2.52 0 0 0-2.38-1.803c-.749-.014-1.461.323-1.925.91-.49.63-.63.98-.63 3.535s.14 2.905.63 3.535c.464.587 1.176.924 1.925.91a2.56 2.56 0 0 0 2.38-1.697z"/><use xlink:href="#C"/><path d="M21.397 156.687h1.785l5.636 8.855h.035v-8.855h1.89v12.461h-1.785l-5.636-8.856h-.035v8.856h-1.89zm11.69 9.434a5.74 5.74 0 0 0 3.535 1.242c1.541 0 2.468-.7 2.468-1.732.015-.441-.151-.869-.457-1.185s-.729-.496-1.17-.495l-1.645-.228c-1.868-.079-3.334-1.63-3.308-3.5 0-2.136 1.488-3.641 4.06-3.641a7.31 7.31 0 0 1 4.043 1.295l-1.05 1.558a5.82 5.82 0 0 0-3.08-.962c-1.155 0-2.083.595-2.083 1.785 0 .7.508 1.399 1.768 1.593l1.4.192a3.55 3.55 0 0 1 3.413 3.588c0 2.292-1.697 3.623-4.375 3.623-1.745.043-3.444-.569-4.76-1.716z"/><use xlink:href="#C" x="31.377"/><path d="M52.774 156.687h1.785l3.57 8.12 3.5-8.12h1.786v12.461h-1.89v-7.771h-.035l-2.607 5.985h-1.575l-2.608-5.985h-.035v7.771h-1.89zm12.827 0h1.785l3.57 8.12 3.5-8.12h1.785v12.461h-1.89v-7.771h-.035l-2.607 5.985h-1.575l-2.608-5.985h-.035v7.771h-1.89zm19.215 9.678h-4.725l-.962 2.783h-1.995l4.532-12.461h1.576l4.533 12.461h-1.996zm-.542-1.68l-1.803-5.443h-.035l-1.802 5.443zm5.214-6.318h-3.412v-1.68h8.716v1.68h-3.413v10.781h-1.891zm6.196-1.68h7.963v1.785h-6.072v3.553h5.18v1.68h-5.18v3.658h6.072v1.785h-7.963zm9.064 0h1.891v8.033a2.54 2.54 0 1 0 5.076 0v-8.033h1.89v8.243a4.43 4.43 0 0 1-8.856 0zm10.815 0h4.866a3.67 3.67 0 0 1 2.537.822 3.59 3.59 0 0 1-1.172 6.108l2.887 5.53h-2.24l-2.572-5.32h-2.416v5.32h-1.89zm1.89 5.46h2.853a1.93 1.93 0 0 0 2.117-1.978c.033-.547-.201-1.076-.629-1.418a2.11 2.11 0 0 0-1.383-.385h-2.959zm8.506 3.974a5.74 5.74 0 0 0 3.535 1.242c1.54 0 2.467-.7 2.467-1.732a1.62 1.62 0 0 0-.457-1.185 1.63 1.63 0 0 0-1.17-.495l-1.646-.228c-1.868-.079-3.334-1.63-3.308-3.5 0-2.136 1.488-3.641 4.061-3.641a7.31 7.31 0 0 1 4.043 1.295l-1.051 1.558a5.82 5.82 0 0 0-3.08-.962c-1.154 0-2.082.595-2.082 1.785 0 .7.508 1.399 1.767 1.593l1.4.192a3.55 3.55 0 0 1 3.412 3.588c0 2.292-1.697 3.623-4.375 3.623-1.746.043-3.444-.569-4.761-1.716z"/></g><defs ><path id="B" d="M48.625 120.687h1.89v8.033a2.54 2.54 0 0 0 3.838 2.287 2.54 2.54 0 0 0 1.238-2.287v-8.033h1.89v8.243a4.43 4.43 0 0 1-8.856 0z"/><path id="C" d="M11.282 158.822a4.52 4.52 0 0 1 7.806 0c.403.735.543 1.103.543 4.096s-.14 3.36-.543 4.096a4.52 4.52 0 0 1-7.806 0c-.402-.735-.543-1.103-.543-4.096s.14-3.36.543-4.096zm1.978 7.631a2.49 2.49 0 0 0 3.85 0c.49-.63.63-.98.63-3.535s-.14-2.905-.63-3.535a2.49 2.49 0 0 0-3.85 0c-.49.63-.63.979-.63 3.535s.14 2.905.63 3.535z"/></defs></svg>