<svg xmlns="http://www.w3.org/2000/svg" viewBox="0 0 176.4316 150.2212"><defs><style>.ae789855-868b-4bee-a3b0-553aac351cad{fill:#fff;stroke:#fff;stroke-miterlimit:10;}</style></defs><g id="e66dfad3-8889-4cee-ba9f-b5a7343040d8" data-name="Layer 2"><path class="ae789855-868b-4bee-a3b0-553aac351cad" d="M363.6191,244.0073,355.69,244a4.8213,4.8213,0,0,0-4.7968,4.8731v11.5253a1.64,1.64,0,1,0,3.28,0V249.8608h.7758l.0083,46.6h4.3677l-.0093-34.4931h.753l.0092,34.4931h4.4629l-.0825-46.6h.7588v10.5371a1.6292,1.6292,0,1,0,3.2559,0V248.9438A4.8874,4.8874,0,0,0,363.6191,244.0073Z" transform="translate(-295.5258 -190.8608)"/><path class="ae789855-868b-4bee-a3b0-553aac351cad" d="M359.6836,242.9282a4.6069,4.6069,0,1,0-4.6084-4.6084A4.6085,4.6085,0,0,0,359.6836,242.9282Z" transform="translate(-295.5258 -190.8608)"/><path class="ae789855-868b-4bee-a3b0-553aac351cad" d="M338.7236,237.7769" transform="translate(-295.5258 -190.8608)"/><rect class="ae789855-868b-4bee-a3b0-553aac351cad" x="37.0548" y="53.0586" width="6.0722" height="57.1895"/><path class="ae789855-868b-4bee-a3b0-553aac351cad" d="M340.1738,238.56a4.7217,4.7217,0,1,1-4.7226-4.7237A4.723,4.723,0,0,1,340.1738,238.56Z" transform="translate(-295.5258 -190.8608)"/><path class="ae789855-868b-4bee-a3b0-553aac351cad" d="M340.4536,259.85V245.7847a1.7588,1.7588,0,0,0-1.582-1.8926h-6.457a1.7568,1.7568,0,0,0-1.5821,1.8926V259.85Z" transform="translate(-295.5258 -190.8608)"/><polyline class="ae789855-868b-4bee-a3b0-553aac351cad" points="46.655 105.565 46.655 53.12 48.154 53.12 48.154 105.565"/><polyline class="ae789855-868b-4bee-a3b0-553aac351cad" points="50.126 105.565 50.126 53.12 52.589 53.12 52.589 105.565"/><polyline class="ae789855-868b-4bee-a3b0-553aac351cad" points="74.857 105.565 74.857 53.012 75.591 53.012 75.591 105.565"/><rect class="ae789855-868b-4bee-a3b0-553aac351cad" x="80.5855" y="53.0088" width="1.5899" height="52.5567"/><rect class="ae789855-868b-4bee-a3b0-553aac351cad" x="103.568" y="73.9297" width="1.1201" height="31.6358"/><rect class="ae789855-868b-4bee-a3b0-553aac351cad" x="118.0006" y="73.9297" width="2.8437" height="31.6358"/><rect class="ae789855-868b-4bee-a3b0-553aac351cad" x="122.4498" y="52.795" width="2.0303" height="52.7705"/><rect class="ae789855-868b-4bee-a3b0-553aac351cad" x="126.3385" y="52.795" width="0.7334" height="52.7705"/><rect class="ae789855-868b-4bee-a3b0-553aac351cad" x="129.5299" y="52.795" width="0.875" height="52.7705"/><rect class="ae789855-868b-4bee-a3b0-553aac351cad" x="134.4908" y="53.1123" width="6.1826" height="58.2266"/><path class="ae789855-868b-4bee-a3b0-553aac351cad" d="M437.7461,238.5142a4.8072,4.8072,0,1,1-4.8086-4.8077A4.8077,4.8077,0,0,1,437.7461,238.5142Z" transform="translate(-295.5258 -190.8608)"/><path class="ae789855-868b-4bee-a3b0-553aac351cad" d="M438.0313,260.1919V245.8726a1.7917,1.7917,0,0,0-1.6114-1.9288h-6.5742a1.7909,1.7909,0,0,0-1.6094,1.9288v14.3193Z" transform="translate(-295.5258 -190.8608)"/><rect class="ae789855-868b-4bee-a3b0-553aac351cad" x="84.7789" y="52.8291" width="4.4004" height="52.7364"/><rect class="ae789855-868b-4bee-a3b0-553aac351cad" x="92.3599" y="52.7393" width="2.1456" height="52.8262"/><rect class="ae789855-868b-4bee-a3b0-553aac351cad" x="96.3824" y="52.795" width="0.834" height="52.7705"/><rect class="ae789855-868b-4bee-a3b0-553aac351cad" x="98.9459" y="52.795" width="1.0049" height="52.7705"/><path class="ae789855-868b-4bee-a3b0-553aac351cad" d="M386.8691,238.3394a4.3643,4.3643,0,1,1-4.3652-4.3653A4.3656,4.3656,0,0,1,386.8691,238.3394Z" transform="translate(-295.5258 -190.8608)"/><path class="ae789855-868b-4bee-a3b0-553aac351cad" d="M385.8652,254.5854v-9.8271a1.2285,1.2285,0,0,0-1.1045-1.3223H380.25a1.2286,1.2286,0,0,0-1.1064,1.3223v9.8271Z" transform="translate(-295.5258 -190.8608)"/><polyline class="ae789855-868b-4bee-a3b0-553aac351cad" points="78.091 105.565 78.091 53.009 78.538 53.009 78.538 105.565"/><polyline class="ae789855-868b-4bee-a3b0-553aac351cad" points="55.579 105.565 55.579 73.913 56.89 73.913 56.89 105.565"/><rect class="ae789855-868b-4bee-a3b0-553aac351cad" x="70.3863" y="73.9297" width="2.4883" height="31.6358"/><path class="ae789855-868b-4bee-a3b0-553aac351cad" d="M410.7891,243.7153l-7.93-.0068a4.8208,4.8208,0,0,0-4.7969,4.8721V260.106a1.64,1.64,0,1,0,3.2793,0V249.5688h.7773l.0352,46.795h4.3672l-.0361-34.69h.7529l.0361,34.69h4.3887l-.0352-46.795h.7588V260.106a1.6292,1.6292,0,1,0,3.2559,0V248.6509A4.8878,4.8878,0,0,0,410.7891,243.7153Z" transform="translate(-295.5258 -190.8608)"/><path class="ae789855-868b-4bee-a3b0-553aac351cad" d="M406.8535,242.6362a4.6069,4.6069,0,1,0-4.6084-4.6084A4.6084,4.6084,0,0,0,406.8535,242.6362Z" transform="translate(-295.5258 -190.8608)"/><path class="ae789855-868b-4bee-a3b0-553aac351cad" d="M367.4556,196.8638s2.9091-1.7276,4.0908-2.3184a45.5833,45.5833,0,0,1,5.0454-1.9092,26.5935,26.5935,0,0,1,5.8184-.9541,14.9479,14.9479,0,0,0-3.1817,3.6363,19.0611,19.0611,0,0,0-1.83,4.14s-3.8979-.7764-5.2612-1.14S367.4556,196.8638,367.4556,196.8638Z" transform="translate(-295.5258 -190.8608)"/><path class="ae789855-868b-4bee-a3b0-553aac351cad" d="M378.1172,199.5781s1.0674-2.605,1.6094-3.5625a12.2208,12.2208,0,0,1,2.0781-2.875,3.3209,3.3209,0,0,1,2.4062-1.125,2.2056,2.2056,0,0,1,1.2447.6206,12.0687,12.0687,0,0,1,1.8335,2.1763,19.5961,19.5961,0,0,1,1.4218,2.7187c.4546,1.0459.8594,2.2344.8594,2.2344s-2.1406.2813-3.6875.375A39.8221,39.8221,0,0,1,381.3193,200,30.8342,30.8342,0,0,1,378.1172,199.5781Z" transform="translate(-295.5258 -190.8608)"/><path class="ae789855-868b-4bee-a3b0-553aac351cad" d="M362.0859,194.875s5-1.6665,7.8335-2.25c3.6187-.7451,8.75-1.229,8.75-1.229a54.1146,54.1146,0,0,0-7.5625,2.5625c-1.5835.7915-4.542,2.6665-4.542,2.6665A39.06,39.06,0,0,1,362.0859,194.875Z" transform="translate(-295.5258 -190.8608)"/><path class="ae789855-868b-4bee-a3b0-553aac351cad" d="M385.6484,191.8594a43.0349,43.0349,0,0,1,4.4219.6875,38.2933,38.2933,0,0,1,5.0986,1.7656,28.3547,28.3547,0,0,1,2.792,1.4062c1.0127.6167,1.9629,1.2354,1.9629,1.2354s-1.9.7065-2.8691,1.0146c-.4277.1363-2.9844.9063-4.1719,1.1875-.6943.1646-2.5566.4834-2.5566.4834s-.8965-2.3427-1.3184-3.2021a23.0146,23.0146,0,0,0-1.7969-3.0625A8.6829,8.6829,0,0,0,385.6484,191.8594Z" transform="translate(-295.5258 -190.8608)"/><path class="ae789855-868b-4bee-a3b0-553aac351cad" d="M387.8359,191.3594s1.5938.2812,1.9532.375,1.1577.2607,1.3593.3281c.3282.1094,1.7032.5156,2,.6406s1.6412.627,1.9532.75c.5156.2031,2.1718,1.0313,2.7656,1.3594.5078.2808,1.6406.9531,1.7656,1.0469s1.0938.75,1.0938.75.8906-.375,1.0781-.4532,1.5312-.6718,1.7969-.8125,1.2343-.6406,1.2343-.6406-2.5937-.8281-2.9843-.9375-2.9219-.7656-3.3125-.8594-3.25-.6562-3.5313-.7187-2.8125-.4219-3.0937-.4688-2.0782-.2187-2.3594-.2343S387.8359,191.3594,387.8359,191.3594Z" transform="translate(-295.5258 -190.8608)"/><path class="ae789855-868b-4bee-a3b0-553aac351cad" d="M401.4609,197.0937s1.75-.7187,2.125-.9375.625-.3437,1.0625-.5625,1.0625-.625,1.0625-.625,2.2745.856,2.5625,1c.4375.2188,3.0625,1.375,3.625,1.6563s3,1.5625,3.75,2c.63.3672,2.8438,1.7187,3.4688,2.1562s2.6875,1.875,3.0937,2.1875,3.25,2.75,3.25,2.75-1.75,1.2813-3.1875,2.1875c-.873.55-2.625,1.4375-3.4062,1.8125-.7442.3575-1.8125.8125-2.6563,1.1875-.499.2217-2.25.875-2.25.875s-1.0937-2.3125-1.5312-3-1.8125-3.0625-2.0938-3.4687-2.0625-2.6563-2.1875-2.8125-1.75-2.0313-2-2.2813-2.125-2.125-2.3437-2.2812S401.4609,197.0937,401.4609,197.0937Z" transform="translate(-295.5258 -190.8608)"/><path class="ae789855-868b-4bee-a3b0-553aac351cad" d="M414.2734,213.4585s4.3594-1.66,6.042-2.5835c2.125-1.1665,5.666-3.6665,5.666-3.6665s2.9717,2.896,3.25,3.25c.459.583,3.167,3.75,4.042,5.125.7823,1.23,2.667,4.1665,3.417,5.75.5664,1.1963,1.5,3.042,2.083,4.625s1.51,4.81,1.51,4.81a19.9052,19.9052,0,0,0-2.9268-3.2266,11.1,11.1,0,0,0-2.833-1.708,13.45,13.45,0,0,0-4.292-.9585,17.453,17.453,0,0,0-3.958.5,18.1187,18.1187,0,0,0-3.708,1.7915,13.9889,13.9889,0,0,0-2.792,2.75,13.3776,13.3776,0,0,0-1.208,2.167s-.291-3.042-.375-3.9585-.542-3.6665-.667-4.4165-.8339-3.7915-1.042-4.375-1.207-3.583-1.416-4.125S414.2734,213.4585,414.2734,213.4585Z" transform="translate(-295.5258 -190.8608)"/><path class="ae789855-868b-4bee-a3b0-553aac351cad" d="M390.5654,200.3335s2.51-.42,3.6665-.75c1.4585-.4165,2.6255-.75,3.6255-1.0835.7881-.2627,2.75-1.0415,2.75-1.0415s1.416,1.0415,2.041,1.5415c.5293.4233,1.958,1.709,2.5,2.292s2.1045,2.2344,2.834,3.208c.625.8335,2.292,3.1265,2.708,3.8335.417.7085,1.125,1.7915,1.583,2.7085.2911.583.959,1.958.959,1.958s-1.959.667-2.959.9585c-.582.17-3.125.8335-4.416,1.1665-.8711.2246-3.834.875-6.209,1.2085-2.3134.3247-5.5415.75-5.5415.75s-.3335-2.9165-.5415-4.0835-.7085-3.7827-.8335-4.458c-.2085-1.125-1-4.2085-1.2085-5.0835S390.5654,200.3335,390.5654,200.3335Z" transform="translate(-295.5258 -190.8608)"/><path class="ae789855-868b-4bee-a3b0-553aac351cad" d="M377.8569,200.25s2.2915.375,3.4165.4585,3.375.229,4.3335.2085c.834-.0181,4.208-.417,4.208-.417s.667,1.9585,1,3.2085c.211.791.7393,2.71,1,4.125.292,1.5835.5835,2.9585.875,4.6665.2354,1.3774.667,4.625.667,4.625s-1.25.167-6.4585.417c-1.083.0517-5.4165.083-7.625,0-2.166-.0816-5.125-.3335-5.125-.3335s.25-2.0835.4165-3.125.794-4.416,1-5.2915c.3335-1.417,1.083-4.708,1.25-5.25S377.8569,200.25,377.8569,200.25Z" transform="translate(-295.5258 -190.8608)"/><path class="ae789855-868b-4bee-a3b0-553aac351cad" d="M366.69,197.417s1.1607.438,2.417.7915c1.333.375,3.2471.9258,4.583,1.25,1.375.3335,3.417.7085,3.417.7085s-.7085,2.0415-.9585,3.083c-.1845.7686-.9165,3.042-1.125,4.375-.1655,1.0581-.643,2.7891-.9585,4.875-.208,1.375-.708,4.625-.708,4.625s-3.458-.3335-4.625-.5-5.5-.9585-6.7085-1.25-3.6665-1-4.875-1.333-3.0835-1-3.0835-1,1.292-2.667,2.0835-3.917,2.25-3.4585,3.0415-4.5a50.8622,50.8622,0,0,1,3.917-4.25c.6665-.583,1.125-1.083,1.9165-1.708S366.69,197.417,366.69,197.417Z" transform="translate(-295.5258 -190.8608)"/><path class="ae789855-868b-4bee-a3b0-553aac351cad" d="M361.0649,195.2085s1.5.625,2.042.875,2.7915,1.0415,2.7915,1.0415-2.5,1.9585-3.1665,2.5835a55.4737,55.4737,0,0,0-5.042,5.6665c-1.03,1.48-2,3.0835-2.75,4.3335-.5185.8643-1.5415,3.125-1.5415,3.125s-2.5-1-3.75-1.5415c-.7031-.3047-3.2915-1.542-4.1665-2.042s-1.875-1.1665-2.4585-1.5415-1.25-.9165-1.25-.9165,1.5-1.334,2.375-2.042,3.0005-2.333,3.9585-2.9165,3.7085-2.3335,4.375-2.7085,3.6665-1.875,4.7915-2.375S361.0649,195.2085,361.0649,195.2085Z" transform="translate(-295.5258 -190.8608)"/><path class="ae789855-868b-4bee-a3b0-553aac351cad" d="M353.0332,213.4585a58.6163,58.6163,0,0,1-6.3013-2.7085,61.992,61.992,0,0,1-5.5835-3.375s-2.7949,2.73-3.0732,3.0835c-.459.583-3.167,3.75-4.042,5.125-.7822,1.23-2.667,4.1665-3.417,5.75-.5664,1.1963-1.5,3.042-2.083,4.625s-1.51,4.81-1.51,4.81a19.1179,19.1179,0,0,1,2.8335-3.06A11.2313,11.2313,0,0,1,332.7319,226a13.6234,13.6234,0,0,1,4.25-1.0415,20.9506,20.9506,0,0,1,4.0513.4165,15.0065,15.0065,0,0,1,3.8652,1.7085,13.9618,13.9618,0,0,1,2.875,2.625c.5811.7519,1.2915,1.9165,1.2915,1.9165s.0528-2.6284.167-3.5415c.1665-1.3335.522-3.8369.6665-4.5835.25-1.2915.8335-3.583,1.0415-4.1665s.9908-3.0835,1.375-4.0835C352.5234,214.708,353.0332,213.4585,353.0332,213.4585Z" transform="translate(-295.5258 -190.8608)"/><path class="ae789855-868b-4bee-a3b0-553aac351cad" d="M353.8149,213.75s2.542.875,4.2085,1.3335,5.75,1.4165,7.75,1.7915,4.1245.6665,4.9165.75,2.5835.25,2.5835.25-.3335,2.667-.4585,3.875c-.0864.833-.2915,3.375-.375,4.75-.0454.75-.186,5.8179-.186,5.8179s-2.3555-3.6514-4.314-4.9429a13.1324,13.1324,0,0,0-6.375-2.375,13.2755,13.2755,0,0,0-7.083,1.5835,16.1276,16.1276,0,0,0-3.375,2.8335,24.0613,24.0613,0,0,0-1.3335,2.125s.2085-3.375.375-4.625c.107-.8023.5787-3.5747.8335-4.667.2915-1.25.625-2.625.9165-3.5.2959-.8882.7779-2.2969,1.0415-3C353.3149,214.75,353.8149,213.75,353.8149,213.75Z" transform="translate(-295.5258 -190.8608)"/><path class="ae789855-868b-4bee-a3b0-553aac351cad" d="M413.6484,213.6665s-2.542.875-4.2089,1.3335-5.75,1.4165-7.75,1.7915-4.1241.6665-4.9161.75-2.5835.25-2.5835.25.3335,2.667.4585,3.875c.0865.833.2915,3.375.375,4.75.0454.75.1856,5.8179.1856,5.8179s2.3555-3.6514,4.3144-4.9429a13.1342,13.1342,0,0,1,6.375-2.375,13.2753,13.2753,0,0,1,7.083,1.5835,16.1276,16.1276,0,0,1,3.375,2.8335,23.9145,23.9145,0,0,1,1.3331,2.125s-.2081-3.375-.375-4.625c-.1065-.8023-.5782-3.5747-.8331-4.667-.2919-1.25-.625-2.625-.9169-3.5-.295-.8882-.7774-2.2969-1.0411-3C414.1484,214.6665,413.6484,213.6665,413.6484,213.6665Z" transform="translate(-295.5258 -190.8608)"/><path class="ae789855-868b-4bee-a3b0-553aac351cad" d="M373.9907,217.9478s3.7393.2587,4.7168.2876,5.58.0576,6.0684.0576,4.4863-.1245,4.9175-.1441c.6328-.0283,3.8252-.3447,3.8252-.3447s.23,2.0132.3164,3.0195c.0444.52.3164,3.5371.374,4.2564s.1723,2.5879.1723,3.1347.1153,3.48.1153,3.48a10.4741,10.4741,0,0,0-2.646-3.5371,12.9584,12.9584,0,0,0-3.9688-2.3872,13.3392,13.3392,0,0,0-4.228-.8052,14.94,14.94,0,0,0-5.2051,1.0928,12.5442,12.5442,0,0,0-3.02,1.9844,10.6563,10.6563,0,0,0-1.6968,1.87,6.9458,6.9458,0,0,0-.834,1.9556l.1724-2.8184s.0288-1.4668.1152-2.3872.2588-3.3647.3165-3.94.2876-2.7325.3164-3.0489S373.9907,217.9478,373.9907,217.9478Z" transform="translate(-295.5258 -190.8608)"/><path class="ae789855-868b-4bee-a3b0-553aac351cad" d="M321.293,318.9941a4.2852,4.2852,0,0,1-4.3755,3.5879,4.4284,4.4284,0,0,1-3.9029-2.24c-.4023-.7354-.5424-1.1035-.5424-4.0957s.14-3.36.5424-4.0957a4.4716,4.4716,0,0,1,8.2784,1.4531h-1.9951a2.5174,2.5174,0,0,0-2.38-1.8027,2.3965,2.3965,0,0,0-1.9248.91c-.49.63-.63.98-.63,3.5352s.14,2.9053.63,3.5351a2.3963,2.3963,0,0,0,1.9248.91,2.5629,2.5629,0,0,0,2.38-1.6973Z" transform="translate(-295.5258 -190.8608)"/><path class="ae789855-868b-4bee-a3b0-553aac351cad" d="M322.3071,312.15a4.52,4.52,0,0,1,7.8062,0c.4023.7353.5425,1.1025.5425,4.0957s-.14,3.36-.5425,4.0957a4.52,4.52,0,0,1-7.8062,0c-.4023-.7354-.5425-1.1035-.5425-4.0957S321.9048,312.8857,322.3071,312.15Zm1.9781,7.6308a2.4908,2.4908,0,0,0,3.85,0c.49-.63.63-.98.63-3.5351s-.14-2.9053-.63-3.5352a2.491,2.491,0,0,0-3.85,0c-.49.63-.63.98-.63,3.5352S323.7949,319.1514,324.2852,319.7812Z" transform="translate(-295.5258 -190.8608)"/><path class="ae789855-868b-4bee-a3b0-553aac351cad" d="M332.4219,310.0156h1.7851l5.6358,8.8555h.0351v-8.8555h1.89v12.461h-1.7852l-5.6357-8.8555h-.0352v8.8555h-1.89Z" transform="translate(-295.5258 -190.8608)"/><path class="ae789855-868b-4bee-a3b0-553aac351cad" d="M344.1118,319.4492a5.7445,5.7445,0,0,0,3.5352,1.2422c1.5405,0,2.4677-.7,2.4677-1.7324a1.6272,1.6272,0,0,0-1.6274-1.6807c-.56-.0693-.9976-.14-1.6455-.2275a3.4544,3.4544,0,0,1-3.3076-3.5c0-2.1358,1.4878-3.6406,4.06-3.6406a7.3134,7.3134,0,0,1,4.043,1.2949l-1.05,1.5576a5.82,5.82,0,0,0-3.08-.9619c-1.1552,0-2.083.5947-2.083,1.7851,0,.7.5078,1.4,1.7676,1.5928.3325.0518.8052.1221,1.4.1924a3.55,3.55,0,0,1,3.4126,3.5879c0,2.292-1.6973,3.623-4.3755,3.623a6.9835,6.9835,0,0,1-4.76-1.7158Z" transform="translate(-295.5258 -190.8608)"/><path class="ae789855-868b-4bee-a3b0-553aac351cad" d="M353.334,310.0156h1.89v8.0332a2.54,2.54,0,1,0,5.0757,0v-8.0332h1.89v8.2432a4.4292,4.4292,0,0,1-8.8559,0Z" transform="translate(-295.5258 -190.8608)"/><path class="ae789855-868b-4bee-a3b0-553aac351cad" d="M364.1489,310.0156h1.7852l3.57,8.12,3.5005-8.12H374.79v12.461H372.9v-7.7705h-.0352l-2.6074,5.9853h-1.5752l-2.6079-5.9853h-.0351v7.7705h-1.89Z" transform="translate(-295.5258 -190.8608)"/><path class="ae789855-868b-4bee-a3b0-553aac351cad" d="M376.9766,310.0156H384.94v1.7852h-6.0732v3.5527h5.1807v1.68h-5.1807v3.6582H384.94v1.7852h-7.9633Z" transform="translate(-295.5258 -190.8608)"/><path class="ae789855-868b-4bee-a3b0-553aac351cad" d="M386.269,310.0156h4.8658a3.6683,3.6683,0,0,1,2.5376.8223,3.5895,3.5895,0,0,1-1.1724,6.1084l2.8877,5.53h-2.24l-2.5728-5.32h-2.4155v5.32h-1.89Zm1.89,5.46h2.853a1.9311,1.9311,0,0,0,2.1177-1.9776,1.6858,1.6858,0,0,0-.63-1.4179,2.1069,2.1069,0,0,0-1.3828-.3848h-2.958Z" transform="translate(-295.5258 -190.8608)"/><path class="ae789855-868b-4bee-a3b0-553aac351cad" d="M402.0381,319.4492a5.7433,5.7433,0,0,0,3.5351,1.2422c1.54,0,2.4678-.7,2.4678-1.7324a1.6274,1.6274,0,0,0-1.6269-1.6807c-.5606-.0693-.9981-.14-1.6455-.2275a3.4537,3.4537,0,0,1-3.3077-3.5c0-2.1358,1.4873-3.6406,4.0606-3.6406a7.3189,7.3189,0,0,1,4.043,1.2949l-1.0508,1.5576a5.82,5.82,0,0,0-3.08-.9619c-1.1553,0-2.083.5947-2.083,1.7851,0,.7.5078,1.4,1.7676,1.5928.333.0518.8056.1221,1.4.1924a3.5509,3.5509,0,0,1,3.413,3.5879c0,2.292-1.6972,3.623-4.3759,3.623a6.9856,6.9856,0,0,1-4.7608-1.7158Z" transform="translate(-295.5258 -190.8608)"/><path class="ae789855-868b-4bee-a3b0-553aac351cad" d="M417.876,319.6934H413.15l-.9629,2.7832h-1.9941l4.5322-12.461h1.5752l4.5332,12.461h-1.9951Zm-.542-1.68-1.8027-5.4434h-.0352l-1.8027,5.4434Z" transform="translate(-295.5258 -190.8608)"/><path class="ae789855-868b-4bee-a3b0-553aac351cad" d="M421.7246,310.0156h7.9639v1.7852h-6.0733v3.6748h5.1807v1.6806h-5.1807v5.32h-1.8906Z" transform="translate(-295.5258 -190.8608)"/><path class="ae789855-868b-4bee-a3b0-553aac351cad" d="M430.6855,310.0156h7.9629v1.7852h-6.0732v3.5527h5.1807v1.68h-5.1807v3.6582h6.0732v1.7852h-7.9629Z" transform="translate(-295.5258 -190.8608)"/><path class="ae789855-868b-4bee-a3b0-553aac351cad" d="M442.0957,311.6953h-3.4131v-1.68h8.7158v1.68h-3.413v10.7813h-1.89Z" transform="translate(-295.5258 -190.8608)"/><path class="ae789855-868b-4bee-a3b0-553aac351cad" d="M450.4609,317.3486l-3.7461-7.333h1.9961l2.6426,5.53,2.6426-5.53h1.9951l-3.7451,7.333v5.128h-1.7852Z" transform="translate(-295.5258 -190.8608)"/><path class="ae789855-868b-4bee-a3b0-553aac351cad" d="M303.9229,337.6934h-4.7256l-.9624,2.7832H296.24l4.5328-12.461h1.5752l4.5332,12.461h-1.9952Zm-.5425-1.68-1.8028-5.4434h-.0346l-1.8028,5.4434Z" transform="translate(-295.5258 -190.8608)"/><path class="ae789855-868b-4bee-a3b0-553aac351cad" d="M307.772,328.0156h1.7851l5.6358,8.8555h.0351v-8.8555h1.89v12.461H315.333l-5.6357-8.8555h-.0352v8.8555h-1.89Z" transform="translate(-295.5258 -190.8608)"/><path class="ae789855-868b-4bee-a3b0-553aac351cad" d="M319.3042,328.0156h4.3579a4.2193,4.2193,0,0,1,3.7979,2.1c.6128,1.0508.6655,1.5225.6655,4.1309,0,2.8-.14,3.29-.7,4.165a4.4445,4.4445,0,0,1-3.8857,2.0655h-4.2354Zm1.89,10.6758h2.2578a2.5853,2.5853,0,0,0,2.3106-1.085c.42-.63.4722-.98.4722-3.291,0-2.24-.0523-2.7822-.56-3.4648a2.4067,2.4067,0,0,0-2.2227-1.05h-2.2578Z" transform="translate(-295.5258 -190.8608)"/><path class="ae789855-868b-4bee-a3b0-553aac351cad" d="M342.0918,335.0332h-4.9355v5.4434h-1.89v-12.461h1.89v5.3379h4.9355v-5.3379h1.89v12.461h-1.89Z" transform="translate(-295.5258 -190.8608)"/><path class="ae789855-868b-4bee-a3b0-553aac351cad" d="M346.1685,328.0156h7.9633v1.7852h-6.0732v3.5527h5.1807v1.68h-5.1807v3.6582h6.0732v1.7852h-7.9633Z" transform="translate(-295.5258 -190.8608)"/><path class="ae789855-868b-4bee-a3b0-553aac351cad" d="M361.8491,337.6934h-4.7256l-.9624,2.7832H354.166l4.5327-12.461h1.5752l4.5332,12.461H362.812Zm-.5425-1.68-1.8027-5.4434h-.0351l-1.8023,5.4434Z" transform="translate(-295.5258 -190.8608)"/><path class="ae789855-868b-4bee-a3b0-553aac351cad" d="M365.6982,328.0156h1.89v10.6758h6.0732v1.7852h-7.9634Z" transform="translate(-295.5258 -190.8608)"/><path class="ae789855-868b-4bee-a3b0-553aac351cad" d="M375.166,329.6953h-3.4126v-1.68h8.7158v1.68h-3.4126v10.7813H375.166Z" transform="translate(-295.5258 -190.8608)"/><path class="ae789855-868b-4bee-a3b0-553aac351cad" d="M388.1865,335.0332H383.251v5.4434h-1.89v-12.461h1.89v5.3379h4.9355v-5.3379h1.89v12.461h-1.89Z" transform="translate(-295.5258 -190.8608)"/><path class="ae789855-868b-4bee-a3b0-553aac351cad" d="M397.6387,328.0156h1.7851l5.6348,8.8555h.0352v-8.8555h1.8906v12.461h-1.7852l-5.6357-8.8555h-.0352v8.8555h-1.89Z" transform="translate(-295.5258 -190.8608)"/><path class="ae789855-868b-4bee-a3b0-553aac351cad" d="M409.17,328.0156h7.9639v1.7852h-6.0733v3.5527h5.1807v1.68h-5.1807v3.6582h6.0733v1.7852H409.17Z" transform="translate(-295.5258 -190.8608)"/><path class="ae789855-868b-4bee-a3b0-553aac351cad" d="M420.58,329.6953H417.168v-1.68h8.7158v1.68h-3.4131v10.7813H420.58Z" transform="translate(-295.5258 -190.8608)"/><path class="ae789855-868b-4bee-a3b0-553aac351cad" d="M425.6553,328.0156H427.65l1.9609,8.8555h.0352l2.414-8.8555h1.3653l2.416,8.8555h.0352l1.96-8.8555h1.9951l-3.1152,12.461h-1.5752l-2.38-8.9786h-.0351l-2.3809,8.9786h-1.5752Z" transform="translate(-295.5258 -190.8608)"/><path class="ae789855-868b-4bee-a3b0-553aac351cad" d="M441.02,330.15a4.5207,4.5207,0,0,1,7.8067,0c.4023.7353.5429,1.1025.5429,4.0957s-.1406,3.36-.5429,4.0957a4.5207,4.5207,0,0,1-7.8067,0c-.4023-.7354-.542-1.1035-.542-4.0957S440.6172,330.8857,441.02,330.15Zm1.9785,7.6308a2.49,2.49,0,0,0,3.85,0c.49-.63.6308-.98.6308-3.5351s-.1406-2.9053-.6308-3.5352a2.4906,2.4906,0,0,0-3.85,0c-.49.63-.6308.98-.6308,3.5352S442.5078,337.1514,442.998,337.7812Z" transform="translate(-295.5258 -190.8608)"/><path class="ae789855-868b-4bee-a3b0-553aac351cad" d="M451.1348,328.0156H456a3.668,3.668,0,0,1,2.5381.8223,3.5887,3.5887,0,0,1-1.1729,6.1084l2.8887,5.53h-2.24l-2.5733-5.32h-2.415v5.32h-1.8906Zm1.8906,5.46h2.8525a1.9318,1.9318,0,0,0,2.1182-1.9776,1.6863,1.6863,0,0,0-.6309-1.4179,2.104,2.104,0,0,0-1.3828-.3848h-2.957Z" transform="translate(-295.5258 -190.8608)"/><path class="ae789855-868b-4bee-a3b0-553aac351cad" d="M461.3721,328.0156h1.89v6.4229h.0352l5.1289-6.4229h2.24l-3.99,4.918,4.41,7.543h-2.24l-3.3955-6.0909-2.1885,2.293v3.7979h-1.89Z" transform="translate(-295.5258 -190.8608)"/></g></svg>