<svg id="Capa_1" data-name="Capa 1" xmlns="http://www.w3.org/2000/svg" viewBox="0 0 369.8 148.06"><defs><style>.cls-1{fill:#fff;}</style></defs><g id="Grupo_7017" data-name="Grupo 7017"><path id="Trazado_10108" data-name="Trazado 10108" class="cls-1" d="M650.46,451.68h-6.84l-1.5,5.68h-4.94l7.25-25.45h5.63l7,25.45H651.8ZM647.2,436.8h-.06l-2.59,10.58h4.9Z" transform="translate(-498.2 -309.63)"/><path id="Trazado_10109" data-name="Trazado 10109" class="cls-1" d="M676.64,445.66c0-2.19-.78-3-1.87-3-1.47,0-2,1.24-2,2.66v12H667.8v-11.7c0-2.41-.91-3-1.72-3-1.62,0-2.19,1.64-2.19,4.05v10.64H659v-15c0-1.82,0-3-.13-4h4.51c.06.83.12,1.89.12,3.17h.06a4.51,4.51,0,0,1,4.6-3.46,4.14,4.14,0,0,1,4.21,3.17,4.41,4.41,0,0,1,4.47-3.17c3.6,0,4.79,3.06,4.79,6.85v12.43h-4.94Z" transform="translate(-498.2 -309.63)"/><path id="Trazado_10110" data-name="Trazado 10110" class="cls-1" d="M698.89,449.37H689.3a3.93,3.93,0,0,0,3.52,4.32,2.9,2.9,0,0,0,.51,0,9.06,9.06,0,0,0,4.59-1.49l.1,4.34a13.29,13.29,0,0,1-5.16,1.08c-5.72,0-8.25-4-8.25-9.84,0-5.1,2.56-9.73,7.22-9.73,1.47,0,7.06,0,7.06,9.91Zm-4.5-3.13c0-2.4-.53-4.66-2.56-4.66-2.53,0-2.53,3.64-2.53,4.66Z" transform="translate(-498.2 -309.63)"/><path id="Trazado_10111" data-name="Trazado 10111" class="cls-1" d="M701.79,442.34c0-1.82,0-3-.12-4h4.5c0,1.13.09,2.3.12,3.42h.06c1-2,1.69-3.72,4.54-3.72h.71v5.32a5.75,5.75,0,0,0-1.65-.21c-2.88,0-3.22,2.92-3.22,5.68v8.5h-4.94Z" transform="translate(-498.2 -309.63)"/><path id="Trazado_10112" data-name="Trazado 10112" class="cls-1" d="M714.1,430H719v5.1H714.1Zm0,8.35H719v19H714.1Z" transform="translate(-498.2 -309.63)"/><path id="Trazado_10113" data-name="Trazado 10113" class="cls-1" d="M734.13,456.85a15.06,15.06,0,0,1-4.46.8c-6.29,0-7.7-6.12-7.7-9.59,0-5.83,2.88-10,8.07-10A11.61,11.61,0,0,1,734,439l-.25,4.35a7.06,7.06,0,0,0-2.88-.81c-3.75,0-3.75,4.82-3.75,5.54,0,4,2.13,5.29,4,5.29a7.26,7.26,0,0,0,2.88-.84Z" transform="translate(-498.2 -309.63)"/><path id="Trazado_10114" data-name="Trazado 10114" class="cls-1" d="M737.63,439.28a16.86,16.86,0,0,1,5.25-1.2c5.72,0,7,2.77,7,7V452c0,2.81,0,4.08.13,5.36h-4.5l-.13-2.62h-.06a4.74,4.74,0,0,1-4.47,2.91,5.12,5.12,0,0,1-5.07-5.16c0-.2,0-.4,0-.6,0-6.34,6.35-6.38,8-6.38h1.5c0-3.64-2.31-3.64-3-3.64a7.52,7.52,0,0,0-4.53,1.68Zm7.78,8.93c-2,0-5.06.14-5.06,3.32,0,2.47,1.72,2.47,2.12,2.47s2.94-.07,2.94-4.7Z" transform="translate(-498.2 -309.63)"/><path id="Trazado_10115" data-name="Trazado 10115" class="cls-1" d="M763,443.14a9,9,0,0,0-4-1c-1.28,0-1.84.73-1.84,1.39,0,1.16.72,1.56,3.4,2.73a5.26,5.26,0,0,1,3.41,5.54,5.42,5.42,0,0,1-4.88,5.89,5.23,5.23,0,0,1-1.12,0,14.76,14.76,0,0,1-5.35-.91l.13-4.44a7.28,7.28,0,0,0,4.06,1.3c2.31,0,2.46-1,2.46-1.78s-1.27-1.21-3.4-2.23a5.91,5.91,0,0,1-3.4-5.83,5.59,5.59,0,0,1,5.5-5.7,3.92,3.92,0,0,1,.59,0,13,13,0,0,1,4.53.76Z" transform="translate(-498.2 -309.63)"/><rect id="Rectángulo_2940" data-name="Rectángulo 2940" class="cls-1" x="139.05" y="108.96" width="230.74" height="1.58"/><path id="Trazado_10116" data-name="Trazado 10116" class="cls-1" d="M498.26,445.66h2.89c1.64,0,2.76.94,2.76,3.07a2.51,2.51,0,0,1-1.79,2.74v0c.34.07.73.27,1,1.35l1.2,4.43h-1.79l-.92-3.78c-.23-.91-.65-1.21-1.29-1.21H500v5h-1.69Zm2.39,5.07c.9,0,1.52-.58,1.52-1.77s-.56-1.66-1.52-1.66H500v3.43Z" transform="translate(-498.2 -309.63)"/><path id="Trazado_10117" data-name="Trazado 10117" class="cls-1" d="M505.05,445.66h4.87v1.7h-3.17v3.1h3v1.7h-3v3.45h3.3v1.69h-5Z" transform="translate(-498.2 -309.63)"/><path id="Trazado_10118" data-name="Trazado 10118" class="cls-1" d="M514.7,450.78h3v6.09a4.71,4.71,0,0,1-2.51.6c-3,0-4.55-2.54-4.55-6s1.57-6,4.55-6a5,5,0,0,1,2.25.5l-.09,1.92a3.45,3.45,0,0,0-2.14-.72c-1.8,0-2.77,1.87-2.77,4.28,0,2.61.94,4.28,2.68,4.28a2.1,2.1,0,0,0,1-.22v-3.13H514.7Z" transform="translate(-498.2 -309.63)"/><rect id="Rectángulo_2941" data-name="Rectángulo 2941" class="cls-1" x="20.76" y="136.03" width="1.7" height="11.63"/><path id="Trazado_10119" data-name="Trazado 10119" class="cls-1" d="M525.29,445.5c1.92,0,3.7,1.8,3.7,6s-1.76,6-3.7,6-3.69-1.79-3.69-6,1.76-6,3.69-6m0,10.33c1.08,0,1.94-1.15,1.94-4.35s-.87-4.35-1.94-4.35-1.93,1.15-1.93,4.35.86,4.35,1.93,4.35" transform="translate(-498.2 -309.63)"/><path id="Trazado_10120" data-name="Trazado 10120" class="cls-1" d="M529.9,445.66h2L535,454.8h0v-9.14h1.54v11.63h-2l-3.07-9.06h0v9.06H529.9Z" transform="translate(-498.2 -309.63)"/><path id="Trazado_10121" data-name="Trazado 10121" class="cls-1" d="M542.49,454.49h-3.18l-.66,2.8H537l3.11-11.62h1.86l3,11.62h-1.75Zm-.36-1.63L541,447.43h0l-1.28,5.43Z" transform="translate(-498.2 -309.63)"/><path id="Trazado_10122" data-name="Trazado 10122" class="cls-1" d="M545.21,445.66h1.69v9.95H550v1.69H545.2Z" transform="translate(-498.2 -309.63)"/><path id="Trazado_10123" data-name="Trazado 10123" class="cls-1" d="M556.62,445.5c1.92,0,3.69,1.8,3.69,6s-1.76,6-3.69,6-3.7-1.79-3.7-6,1.76-6,3.7-6m0,10.33c1.07,0,1.93-1.15,1.93-4.35s-.87-4.35-1.93-4.35-1.94,1.15-1.94,4.35.87,4.35,1.94,4.35" transform="translate(-498.2 -309.63)"/><path id="Trazado_10124" data-name="Trazado 10124" class="cls-1" d="M561.23,445.66h4.69v1.7h-3v3.17h2.85v1.7h-2.85v5.06h-1.7Z" transform="translate(-498.2 -309.63)"/><path id="Trazado_10125" data-name="Trazado 10125" class="cls-1" d="M566.71,445.66h4.68v1.7h-3v3.17h2.85v1.7h-2.85v5.06h-1.7Z" transform="translate(-498.2 -309.63)"/><rect id="Rectángulo_2942" data-name="Rectángulo 2942" class="cls-1" x="74" y="136.03" width="1.7" height="11.63"/><path id="Trazado_10126" data-name="Trazado 10126" class="cls-1" d="M581.11,457.05a4.22,4.22,0,0,1-2,.41c-2.81,0-4.26-2.58-4.26-6s1.45-6,4.21-6a5,5,0,0,1,2.06.49l-.1,1.91a3.13,3.13,0,0,0-1.75-.63c-1.41,0-2.61,1.2-2.61,4.22s1.21,4.21,2.61,4.21a2.48,2.48,0,0,0,1.75-.6Z" transform="translate(-498.2 -309.63)"/><path id="Trazado_10127" data-name="Trazado 10127" class="cls-1" d="M581.93,445.66h4.87v1.7h-3.18v3.1h3v1.7h-3v3.45h3.31v1.69h-5Z" transform="translate(-498.2 -309.63)"/><path id="Trazado_10128" data-name="Trazado 10128" class="cls-1" d="M590.68,445.66h4.68v1.7h-3v3.17h2.88v1.7h-2.86v5.06H590.7Z" transform="translate(-498.2 -309.63)"/><path id="Trazado_10129" data-name="Trazado 10129" class="cls-1" d="M599.48,445.5c1.92,0,3.7,1.8,3.7,6s-1.77,6-3.7,6-3.7-1.79-3.7-6,1.77-6,3.7-6m0,10.33c1.09,0,1.94-1.15,1.94-4.35s-.87-4.35-1.94-4.35-1.94,1.15-1.94,4.35.87,4.35,1.94,4.35" transform="translate(-498.2 -309.63)"/><path id="Trazado_10130" data-name="Trazado 10130" class="cls-1" d="M604,445.66h2.89c1.65,0,2.76.94,2.76,3.07a2.5,2.5,0,0,1-1.79,2.73v.05c.35.07.73.27,1,1.35l1.21,4.43h-1.82l-.92-3.78c-.21-.91-.65-1.22-1.28-1.22h-.38v5H604Zm2.39,5.07c.9,0,1.52-.58,1.52-1.77s-.55-1.66-1.52-1.66h-.69v3.43Z" transform="translate(-498.2 -309.63)"/><path id="Trazado_10131" data-name="Trazado 10131" class="cls-1" d="M614.23,447.36h-2.06v-1.7H618v1.7h-2.06v9.93h-1.7Z" transform="translate(-498.2 -309.63)"/><path id="Trazado_10132" data-name="Trazado 10132" class="cls-1" d="M618.59,445.66h1.69v4.73H623v-4.74h1.7v11.63H623v-5.13h-2.76v5.13h-1.69Z" transform="translate(-498.2 -309.63)"/><path id="Trazado_10133" data-name="Trazado 10133" class="cls-1" d="M626,445.66h4.87v1.7h-3.17v3.1h3v1.7h-3v3.45H631v1.69h-5Z" transform="translate(-498.2 -309.63)"/><path id="Trazado_10134" data-name="Trazado 10134" class="cls-1" d="M602.35,330.33c2.45,2.92,6.74,4.64,9.24,7.57a22.34,22.34,0,0,0-16.37-17.4c3.84,2.9,4.68,6.91,7.13,9.83m-95,21.94c5.44-11.84,13.56-9.34,17-20.62-1.94,3.46-10.81,4.92-14.93,13.8,2.1-5.28,1-13.34,4.6-17.69-10.62,7.84-6.09,20.53-6.67,24.51m9.85,28.39c1,4.62-1.89,11.27,2.67,17.62-4.73-5.29-14.72-6.64-18.81-14.69,5.1,19.67,18.38,15.62,24.38,19.89-4.94-7.08-.9-11.79-8.24-22.83M515.72,393c-2.94-11,2.28-14.79-1.68-25.34-.42,5.94-4.38,8.84-1.71,19.71-4.72-9.21-12-12.63-14.13-18.95.15,17.26,14,19.82,17.52,24.58M537,411.43c-4.08-5.65-1.3-8.84-12.76-19.1,2.43,3.74-.07,8.45,7.66,15.78-7.56-4.46-18-2.55-23-8.52,8.64,16.53,23.84,9.79,28.14,11.84m55.51-3.32c7.73-7.33,5.22-12,7.66-15.78-11.47,10.26-8.69,13.45-12.77,19.1,4.31-2.06,19.5,4.7,28.14-11.84-5,6-15.47,4.06-23,8.52m12-9.84c4.56-6.35,1.69-13,2.67-17.61-7.34,11-3.31,15.75-8.24,22.83,6-4.27,19.28-.21,24.37-19.89-4.08,8-14.08,9.4-18.8,14.69M586.2,412.23a55.91,55.91,0,0,0-12.54-1.88,30.33,30.33,0,0,0-11.43,1.94,30.41,30.41,0,0,0-11.44-1.94,56,56,0,0,0-12.54,1.88c-6.89,1.83-12.86,3.26-18,.63,5,4.42,10.79,6,19.19,5.09,7-.75,12.63-4.25,19.23-4.2h.26A35.13,35.13,0,0,0,548,422.21l3.18.43a17.52,17.52,0,0,1,11.05-8.48,17.52,17.52,0,0,1,11,8.48l3.18-.43a35.13,35.13,0,0,0-10.88-8.45h.26c6.59-.05,12.24,3.45,19.23,4.2,8.4.9,14.22-.67,19.19-5.09-5.19,2.63-11.16,1.2-18-.63m-71.69-56.47c-2.84,5.46-7.26,6.71-6.79,18-2.39-10-8.09-13.74-8-20.14-4,16.7,6.62,18.68,9.35,25.67-.4-10,6-12,5.46-23.52m4-12.89a20.29,20.29,0,0,1-4.33,4.15,21.54,21.54,0,0,0-7.69,12.56c.27-6.13-3.51-14.92-1-21.33-9.74,13.74.55,22,.92,27,2.52-9.58,8.32-9.66,12.09-22.34M618,359.58A21.46,21.46,0,0,0,610.28,347a20.1,20.1,0,0,1-4.33-4.16c3.77,12.69,9.57,12.76,12.09,22.34.37-5,10.66-13.21.92-27,2.52,6.42-1.26,15.21-1,21.33m8.26,8.87c-2.11,6.3-9.41,9.73-14.13,18.94,2.67-10.86-1.29-13.76-1.7-19.7-4,10.55,1.25,14.34-1.69,25.33,3.5-4.76,17.36-7.32,17.51-24.57m-16.31-12.68c-.54,11.47,5.86,13.48,5.46,23.52,2.72-7,13.32-9,9.36-25.67.07,6.4-5.63,10.12-8,20.13.46-11.26-4-12.52-6.8-18M522.1,330.33c2.46-2.92,3.29-6.94,7.14-9.84a22.36,22.36,0,0,0-16.38,17.4c2.51-2.92,6.79-4.65,9.24-7.56m77.95,1.32c3.43,11.28,11.56,8.77,17,20.61-.57-4,4-16.66-6.67-24.5,3.55,4.35,2.5,12.41,4.6,17.68-4.12-8.87-13-10.33-14.93-13.79m-27.57,6.41a26.87,26.87,0,0,0-6.47-1.77c0,.48,0,1,0,1.45a25.81,25.81,0,0,1,6,1.65,3.83,3.83,0,0,0,.53-1.33m-1.65-14,.44-.39-.83-.34-2.17-.05-.57.39-1.28-.1,0,.31c.75,0,1.5.12,2.24.23l1.06-.09Zm-4.18,46.83c0-.38-.48-.74-1.21-1.08h-.13c0,.3,0,1.77,0,2.49.9-.4,1.39-.83,1.39-1.41m-25.15-27.6a5.32,5.32,0,0,1,.18-.79,4.41,4.41,0,0,1-.89.09Zm20.78,63.88a44.3,44.3,0,0,0,4.49-88.37c0,.09,0,.18,0,.26-.09.43-.17.82-.23,1.16a42.8,42.8,0,0,1,25.79,12.07l-4.89,4.89.19-.87-.65-.28-.87-.05.18-.56-.59-2-1.22-1.34-3.82-2-.32.35-.7.2a11.36,11.36,0,0,1,2,6.42c0,.3,0,.59,0,.87l1.89,2.38-.88.22.58.89-1.67,1.66-.67-1.28a11.28,11.28,0,0,1-1.26,2.5,3.92,3.92,0,0,1,.37.34l-5.14,5.15c-.31-.3-.63-.58-1-.86-.49.22-1,.44-1.51.64.15.11.3.22.44.34l-.26.27-.6.33-.22.6-.38-.37-1.08.36.29.48.75-.2.49,0,0-.27.38-.18.12-.22.67-.19.53,0a4.12,4.12,0,0,1,.31.28l-2,2-.15-.22-2.13.36-.48.48-.46.05,1.33-1.27-.48-.24-1.23,1.66.36,0,0,.61.45.17.09.66-.74-.15-.78.14-1.87-1s-.1,5-.16,7.55c4.42,1.49,9.12,3.64,9.12,9.28a7,7,0,0,1-3.18,5.95h0l-.09.06h0l-.15.1a24.3,24.3,0,0,1-6.09,2.43l-.06,3.95c3.18,1.58,7,3.87,6.66,10.43,0,1.61-.67,2.05-1.2,2.2h0a34.8,34.8,0,0,1-5.74.9c0,.51,0,1,0,1.45a35.54,35.54,0,0,0,22.09-9.76l5.14,5.15a42.79,42.79,0,0,1-59.25.11l5.15-5.14a35.43,35.43,0,0,0,21.77,9.62c0-.43,0-.92,0-1.44a34,34,0,0,1-20.73-9.2l1.37-1.37,1.89.22,1-1.09,2.63.09.39-.91-.1-.39a26.73,26.73,0,0,0,13.42,5.32c0-.56,0-1.05,0-1.45a25.38,25.38,0,0,1-14.42-6.6l5.15-5.15a18.41,18.41,0,0,0,4.18,2.8,5,5,0,0,1,.51-1.35,17.12,17.12,0,0,1-3.67-2.47l5.16-5.16a9.48,9.48,0,0,0,2.76,1.54l0-1.56a8.14,8.14,0,0,1-1.71-1l1.46-1.46c-.51-.15-1-.31-1.54-.49l-1,1a8.19,8.19,0,0,1-1.24-1.83,17.71,17.71,0,0,1-2.54-1.36,10,10,0,0,1-4.79-8.75,10.46,10.46,0,0,1,2.09-6.65l-5.14-5.14a25.42,25.42,0,0,1,13.74-6.76c0-.5,0-1,0-1.45a26.73,26.73,0,0,0-14.73,7.2l-.87-.87a13.31,13.31,0,0,0-.69,1.34l.54.54a26.76,26.76,0,0,0-7.27,17.93h-7.29a34,34,0,0,1,9.41-23.07l2.32,2.31h.33a3.76,3.76,0,0,0,1.3-.39l-2.94-2.94a34.06,34.06,0,0,1,5.07-4,8,8,0,0,1,.35-1.08c.35-.51.72-1,1.12-1.49a35.79,35.79,0,0,0-7.56,5.6l-5.14-5.14a42.67,42.67,0,0,1,25.52-11.94l-.06-.31c-.07-.34-.14-.72-.22-1.11a44.3,44.3,0,0,0,4.63,88.35m9.57-30.6v0h0m21.45-43.25a42.72,42.72,0,0,1,11.84,29.11h-7.27a35.56,35.56,0,0,0-3.8-15.54l.06-.13.51.26.11-.38-1.3-2.28-1.54-2.14-1.81-1.51c-.61-.77-1.26-1.52-2-2.24ZM584,342.66l1.74.08.42.5L586,344l2.43,1.52.47-.06L592,349l1.27-.45a33.91,33.91,0,0,1,3.17,13.9h-7.29a26.49,26.49,0,0,0-.68-5.54l.33-.45.45-2.28-.33-2.45L588,348.9l-2-3,.49.26.26-.25-1.63-1.1-.11.37,1.63,2.32.92,1.91.65,1.89.22,1.28.34,2.14-.61,0s-.7-1.3-.92-1.85l.32-.49-.62-.89v-.88l-.44-.56-.56.07c-.19-.37-.4-.73-.61-1.09l.38.2.11-.1-.21-.46.47-.27-.22-.26-.7.26.25-1.1-.41-.24-.38.88a26.81,26.81,0,0,0-2.65-3.36Zm-1.46,17.06,1.31-.71,1.33-.22.29-.65.74-.44.29-.63.23-1.07c.11.38.21.77.3,1.15l-.71,2.11,0,.71,1-1.37a26,26,0,0,1,.36,3.83h-6.38l-.15-.55.74-.59.15-.36.33-.24.87-.09.09-.39Zm-8.73-5,.65-.15,0-.15-.65-.44.21-1.37.78-.78a17.8,17.8,0,0,1,1.36,1.75l-.28.85-.71-.51-.54.15.27.5h.26l-.29.74-.22-.3Zm2.78,24.17-1.57-.44-.48.17-.89-.68-.83-.29c.41-.3.81-.62,1.2-.94l1.29.91,1,.52.49.49Zm-.8-28.08,5.15-5.15a25.6,25.6,0,0,1,3.19,4.28l-.66.18,0,1.15,1.93,1.21a25.12,25.12,0,0,1,1.21,3.27l-.35.49-.69.44-.17,1.07L585,358l-.4.47-.4-.14-.71,0,.42-.56.29-1.46.47-.29-1.39-1.33-1,.35-.24,1-.65.71-.68-.56-.24-.6.38-.24.22.39.32-.11-.14-.66-.45,0,0,.27-.3.06-1.6-1.87-.54-.42.21-.22.49-.17-.44-.17s-.57.13-.64.13l.32.4-.81,0a17.84,17.84,0,0,0-1.6-2.07m2.63,27.41-.71-.7.54-.7.67-1.36-.26-.39.45-1,0-.92-.27-.94-.63-.22-.24.54-.38-.11a16.22,16.22,0,0,0,1.52-2.65l.66-.29.36-.49.18.21.43-.53-.35-.45.32-.08.59.24,1.13,0,.68-.36,1.78-.48-.34-.58-.11-.72,1,.42.36-.22-.18-.74-1.17.43-1.29-.26-1-2h5.57a25.32,25.32,0,0,1-7,16.56l-.76-.77.32-1-.59-2.25Zm1,14.2.69-1.47-.27-.65,1-.89v-.53l-.87-.54.72-1.42,1.06-1.39-1.06-1.16h-.8l-.5-.8c.43-.36.85-.72,1.25-1.1l5.15,5.15a34.72,34.72,0,0,1-6.38,4.8m6.41-6.8.57-.64-.54-2.81-.37-.15.23-.48-1.22-.38-.24,1-.12,1.28-.25.23-2.22-2.22a26.78,26.78,0,0,0,7.45-17.58h7.28a34,34,0,0,1-9.58,22.72Zm2,2a35.46,35.46,0,0,0,10-23.74h7.28A42.73,42.73,0,0,1,593,392.79ZM544,380.59c-.53-.55-1-1.12-1.51-1.71l.22-1.84-.77-1.77-.18-2.76-.87-1.68.18-1-1-2-.91-.45.37-1.07-.38-.84.38-.95h1l.35-.58h1.7l.27.5-.32,1.72-.22.31.64,1.38-.42.24-.29-.37-.12.13.29.83.5,1,.23,0,.14-.87-.25-.31,0-.59-.08-1.2.36-2.14-.34-.58h1.22a18.06,18.06,0,0,0,5,11.53Zm-4.81-14.23-.69,1.08h-1.18l-.09-.06a23.63,23.63,0,0,1-.38-3.46h2.2l-.53,1.75Zm2.39-5,.13-1.45.87-.5,1.54.27.24.28a17.62,17.62,0,0,0-.24,2.51h-1.74Zm7.39,5.44.37-.18.95.71-.41.34,1.07.71-.07-.76.57-.95.59.64.62.87-1.1.24.5,1,.77-.41-.1-.32.57-.38.34-1.59a9.66,9.66,0,0,0,1.67,2.56l-5.15,5.14a16.62,16.62,0,0,1-4.5-9.66l1.05,1.12h1Zm-5.27-21.24,5.15,5.14a18.13,18.13,0,0,0-2.73,3.94l-.37,0-.72.23-.25,0-.77.72,1-.16.87-.22c0,.11-.11.22-.16.34L545,356h-.36l-1.13.87-1.09-.09-1.58,2.94.32.59-.87,1-.13,1.24h-3.26a25.34,25.34,0,0,1,6.85-16.91m-6.65,38.83,1.64.95.34.22-1.19,1.18c-.55-.57-1.09-1.16-1.6-1.77Zm-1.63-20.48c0,.7.09,1.4.17,2.1l-.9.2-.18.91-1.86,2.35.05,3.25-1.9.63h-1a34.12,34.12,0,0,1-1.62-9.45Zm-7.18,9.41-.43-.09-.41-.45-2-.18.63.87-1.9-.36.5-.45-.46-.45-1.36.58-.49.91.18,2.07,1.57,3.77.76,1.18.44.15-1.19-2.25-.26-1.15.26-.28-.16-.64.72.1,1.08,1.66.28.11,0-1.21.43.26.1.65,1.16.31.48-.35.17.12,0,.88.52.63.61.14,1.35,2.28.82.23.26-1.07a35.44,35.44,0,0,0,5,6.48l-5.15,5.14a42.75,42.75,0,0,1-12.27-29h7.28a35.82,35.82,0,0,0,1.54,9.41m3.14-40.08,5.14,5.14a35.47,35.47,0,0,0-9.83,24.09h-7.27a42.64,42.64,0,0,1,12-29.23m52.69-2.66-.44-.71-1-.47-.74.56,1,.51,1.06.77Zm-4.41,20.54,0,.56,1.26-.38.38-.77-.87-1.14.46-.69,1.18.84.22-.18-.23-.17-.27-.5.48-.28-.47-.62-1.1.56-.39.67-.22.6.49.82-.18.39ZM527,383.77l.09-.33-.65-1.42-.78-.29Zm29.76-27.36c0,1.23.75,2.08,2.1,2.83v-.55l-.86-.85.46-.81.36-.11c0-1.42-.05-3-.06-3.24h-.06a3.07,3.07,0,0,0-1.93,2.72" transform="translate(-498.2 -309.63)"/><path id="Trazado_10135" data-name="Trazado 10135" class="cls-1" d="M564.93,387.94a9.3,9.3,0,0,1,5.27,5.78,8.26,8.26,0,0,0-5.22-8.65l-.06,2.87" transform="translate(-498.2 -309.63)"/><path id="Trazado_10136" data-name="Trazado 10136" class="cls-1" d="M580.11,337.08c0-4.56-3.31-9.6-11.41-11.39a17,17,0,0,0-2.46-.28c0,.68,0,2.25,0,2.25,0,.5-.05,2.32-.07,2.71a13.31,13.31,0,0,1,1.56.22c4.7,1.12,6.39,3.82,6.39,6.49,0,4.32-3.7,5.95-8.24,7.17l-1.5.4c-1.38.34-2.8.67-4.2,1.05l-1.49.43c-5,1.54-9.36,4-9.36,10.19s4.94,8.46,9.76,9.95c0-1.78-.07-3.56-.1-5.35-2.13-1-3.63-2.31-3.63-4.52a4.82,4.82,0,0,1,3.45-4.41,15.39,15.39,0,0,1,1.49-.58c1.2-.41,2.55-.76,4-1.1l1.5-.36c6.79-1.65,14.4-3.77,14.4-12.88" transform="translate(-498.2 -309.63)"/><path id="Trazado_10137" data-name="Trazado 10137" class="cls-1" d="M555.71,380.54a5.75,5.75,0,0,0,3.68,4.87c0-.42-.08-4.27-.08-4.33,0-.78.78-1.23,1.38-1.53a30.23,30.23,0,0,1,2.92-1.11c.54-.19,1-.38,1.52-.53,3.69-1.11,8-2.52,8-7s-3.66-6.33-7.65-7.71c0,1.43-.07,3.52-.1,5,1.69.66,2.8,1.47,2.8,2.75,0,1.6-1.71,2.52-2.93,3-.5.19-1.27.45-1.48.52-1,.3-2,.65-3,1a15.24,15.24,0,0,0-1.49.65,5.22,5.22,0,0,0-3.5,4.45" transform="translate(-498.2 -309.63)"/><path id="Trazado_10138" data-name="Trazado 10138" class="cls-1" d="M558.21,326.11a28.51,28.51,0,0,0-4.44,1.81,10.88,10.88,0,0,0-6.14,3.13,33,33,0,0,0-2.13,2.74c-.69,1-.72,2.62-1.23,3.48a2.87,2.87,0,0,0-.57,2l0,0a3.33,3.33,0,0,1-.84,1.58,3.24,3.24,0,0,1-3,1.13,3.25,3.25,0,0,0,2.5-.21,18.33,18.33,0,0,0-.55,2.09,10,10,0,0,1,2.61-3.92A5.27,5.27,0,0,0,548,338.9a27.12,27.12,0,0,0,6.45-4.64,8.75,8.75,0,0,1,3.92-2.95c0-2-.08-3.73-.12-5.22m-9.64,8.73-1.14.25,1.69-2.61,1.59.05Z" transform="translate(-498.2 -309.63)"/><path id="Trazado_10139" data-name="Trazado 10139" class="cls-1" d="M562.77,380.23c-.22.08-.77.32-1.11.44s-.84.32-.84.45.35,19.31.35,19.73c0,4,2,4,2,0,0-.28.4-20.88.4-20.88l-.83.27" transform="translate(-498.2 -309.63)"/><path id="Trazado_10140" data-name="Trazado 10140" class="cls-1" d="M560.68,373.88c.63-.22,1.25-.42,1.84-.6l1.22-.38c0-1.21.37-18,.44-21a37.72,37.72,0,0,0-3.9,1.12c0,2.29.37,19.05.4,20.88" transform="translate(-498.2 -309.63)"/><path id="Trazado_10141" data-name="Trazado 10141" class="cls-1" d="M562.36,309.64c-5.67,0-3.26,8.41-2.82,11.16,0,.13.46,19,.54,23.36l2.55-.64,1.72-.44c.09-4.18.51-22.21.52-22.32.34-2.94,3.31-11.13-2.51-11.13" transform="translate(-498.2 -309.63)"/><path id="Trazado_10142" data-name="Trazado 10142" class="cls-1" d="M655.13,336.48H655l-4.81,26.26h-6.6l-6.16-32h5.24L647,355.39h.08l4.6-24.69h6.83l4.54,24.69h.09l4.46-24.69h5.07l-6.29,32h-6.69Z" transform="translate(-498.2 -309.63)"/><path id="Trazado_10143" data-name="Trazado 10143" class="cls-1" d="M682,338.73c4.59,0,9.88,2.52,9.88,12.16,0,9.92-5.29,12.21-9.88,12.21s-9.92-2.29-9.92-12.21c0-9.64,5.33-12.16,9.92-12.16m0,20.33c3.5,0,4.29-4.23,4.29-8.17s-.79-8.12-4.29-8.12-4.33,4.17-4.33,8.12.84,8.17,4.33,8.17" transform="translate(-498.2 -309.63)"/><path id="Trazado_10144" data-name="Trazado 10144" class="cls-1" d="M695.21,343a33.83,33.83,0,0,0-.17-3.9h4.89c.05,1.42.18,2.89.18,4.31h.09a6.36,6.36,0,0,1,5.72-4.68,5.68,5.68,0,0,1,.92.14v5.32a5.54,5.54,0,0,0-1.52-.23c-2.23,0-4.68,1.43-4.68,5.83v12.95h-5.42Z" transform="translate(-498.2 -309.63)"/><rect id="Rectángulo_2943" data-name="Rectángulo 2943" class="cls-1" x="212.05" y="18.68" width="5.42" height="34.42"/><path id="Trazado_10145" data-name="Trazado 10145" class="cls-1" d="M738.29,328.31v30.38a34.3,34.3,0,0,0,.18,4.05H733.4a34.74,34.74,0,0,1-.18-3.68h-.13a6.07,6.07,0,0,1-6,4c-5.6,0-7.91-5.6-7.91-12.16,0-7.71,2.92-12.21,7.78-12.21a6.07,6.07,0,0,1,5.81,3.77h.08V328.31Zm-9.7,30.61c3.19,0,4.29-3.62,4.29-8.07s-1.23-7.94-4.2-7.94-4.07,3.07-4.07,7.8c0,5.46.84,8.21,4,8.21" transform="translate(-498.2 -309.63)"/><path id="Trazado_10146" data-name="Trazado 10146" class="cls-1" d="M756.15,330.7h5.6v13h9v-13h5.6v32h-5.6V348.6h-9v14.14h-5.6Z" transform="translate(-498.2 -309.63)"/><path id="Trazado_10147" data-name="Trazado 10147" class="cls-1" d="M797.15,361.58a16.2,16.2,0,0,1-6.74,1.53c-7.25,0-10.4-5.46-10.4-11.84,0-7.07,3.54-12.53,9.27-12.53,4.84,0,9,3,9,12.62v1.1h-13c0,4,1.53,6.46,5.73,6.46a8.65,8.65,0,0,0,5.9-1.83ZM793,348.87c0-4.18-1.3-6.29-3.76-6.29-2.84,0-4,3.17-4,6.29Z" transform="translate(-498.2 -309.63)"/><path id="Trazado_10148" data-name="Trazado 10148" class="cls-1" d="M803.14,340.47a15.27,15.27,0,0,1,7.13-1.74c7,0,8.6,3.58,8.6,9.5v10.33a30.71,30.71,0,0,0,.32,4.18H814.3a12,12,0,0,1-.31-3.21h-.09a7.18,7.18,0,0,1-6.29,3.58,6.61,6.61,0,0,1-6.75-6.47c0-.15,0-.31,0-.46,0-6.43,5-8,11.84-8h1.09v-.87a4,4,0,0,0-3.42-4.47,5,5,0,0,0-.77,0,10.13,10.13,0,0,0-6.17,2.29Zm10.66,10.7h-.48c-4.64,0-7.4,1-7.4,4.45a3.33,3.33,0,0,0,3.05,3.61,2.77,2.77,0,0,0,.41,0c3.23,0,4.41-2.52,4.41-6.74Z" transform="translate(-498.2 -309.63)"/><rect id="Rectángulo_2944" data-name="Rectángulo 2944" class="cls-1" x="326" y="18.68" width="5.42" height="34.42"/><path id="Trazado_10149" data-name="Trazado 10149" class="cls-1" d="M836.4,334.23l5.42-1.74v6.61h4.5v4.18h-4.5v12.25c0,2.53.87,3.26,2.45,3.26a4,4,0,0,0,2.05-.5v4a8,8,0,0,1-3.62.78c-4,0-6.3-1.93-6.3-6.88v-13h-3.58v-4.17h3.58Z" transform="translate(-498.2 -309.63)"/><path id="Trazado_10150" data-name="Trazado 10150" class="cls-1" d="M849.11,328.31h5.42v13.82h.13a6.07,6.07,0,0,1,5.59-3.4c5.12,0,6.65,4,6.65,8.77v15.24h-5.42V348.55c0-3.62-.87-5.13-3.1-5.13-2.85,0-3.85,2.52-3.85,5.55v13.77h-5.42Z" transform="translate(-498.2 -309.63)"/><path id="Trazado_10151" data-name="Trazado 10151" class="cls-1" d="M649.41,371.26c6.33,0,12.14,5,12.14,16.48s-5.81,16.47-12.14,16.47-12.15-4.95-12.15-16.47,5.81-16.48,12.15-16.48m0,28.45c3.54,0,6.37-3.16,6.37-12s-2.83-12-6.37-12-6.39,3.16-6.39,12,2.85,12,6.39,12" transform="translate(-498.2 -309.63)"/><path id="Trazado_10152" data-name="Trazado 10152" class="cls-1" d="M665.21,384a31.73,31.73,0,0,0-.18-3.9h4.9c0,1.42.17,2.89.17,4.31h.09a6.36,6.36,0,0,1,5.73-4.68,5.56,5.56,0,0,1,.91.14v5.32a5.17,5.17,0,0,0-1.52-.21c-2.23,0-4.68,1.42-4.68,5.82v12.94h-5.41Z" transform="translate(-498.2 -309.63)"/><path id="Trazado_10153" data-name="Trazado 10153" class="cls-1" d="M680.19,407.43a13.85,13.85,0,0,0,6.65,2c5.11,0,5.94-3.71,5.94-7.43v-2.25h-.09a6.17,6.17,0,0,1-5.94,4c-3.15,0-7.87-2.21-7.87-11.75,0-6.52,2.23-12.25,8.13-12.25a6.44,6.44,0,0,1,5.94,4h.18c0-1.24.13-2.43.17-3.67h4.89c-.09,1.24-.17,2.47-.17,3.72v17.44c0,7.38-2.14,12.66-10.4,12.66a21.58,21.58,0,0,1-7.74-1.47Zm8.43-7.85c3.41,0,4.76-2.57,4.76-7.94,0-5-1.79-7.61-4.37-7.57-2.84,0-3.93,2.79-3.93,7.61,0,5.55,1.7,7.89,3.54,7.89" transform="translate(-498.2 -309.63)"/><path id="Trazado_10154" data-name="Trazado 10154" class="cls-1" d="M703.89,381.5a15,15,0,0,1,7.13-1.74c7,0,8.61,3.58,8.61,9.5v10.32a30.7,30.7,0,0,0,.31,4.18H715a12.36,12.36,0,0,1-.31-3.21h-.09a7.17,7.17,0,0,1-6.29,3.58,6.61,6.61,0,0,1-6.74-6.49,3.38,3.38,0,0,1,0-.45c0-6.42,5-8,11.85-8h1.09v-.87a4,4,0,0,0-3.42-4.47,4.07,4.07,0,0,0-.78,0,10.06,10.06,0,0,0-6.16,2.29Zm10.67,10.69h-.49c-4.63,0-7.39,1-7.39,4.45a3.35,3.35,0,0,0,3.05,3.62h.41c3.23,0,4.41-2.52,4.41-6.74Z" transform="translate(-498.2 -309.63)"/><path id="Trazado_10155" data-name="Trazado 10155" class="cls-1" d="M725.09,384a36.24,36.24,0,0,0-.18-3.9H730c0,1.19.18,2.43.18,3.62h.09a6.56,6.56,0,0,1,6-4c5.12,0,6.64,4,6.64,8.77v15.23h-5.41V389.57c0-3.63-.87-5.14-3.1-5.14-2.84,0-3.85,2.52-3.85,5.55v13.77h-5.42Z" transform="translate(-498.2 -309.63)"/><path id="Trazado_10156" data-name="Trazado 10156" class="cls-1" d="M747.77,370.07h5.59v5.6h-5.59Zm.08,10.05h5.43v23.63h-5.42Z" transform="translate(-498.2 -309.63)"/><path id="Trazado_10157" data-name="Trazado 10157" class="cls-1" d="M758.32,398.84l9.62-14.41h-9.32v-4.31h14.74V385l-9.44,14.46h9.74v4.31H758.32Z" transform="translate(-498.2 -309.63)"/><path id="Trazado_10158" data-name="Trazado 10158" class="cls-1" d="M778.79,381.5a15,15,0,0,1,7.13-1.74c7,0,8.61,3.58,8.61,9.5v10.32a29.17,29.17,0,0,0,.3,4.18h-4.89a12.36,12.36,0,0,1-.31-3.21h-.09a7.17,7.17,0,0,1-6.29,3.58,6.62,6.62,0,0,1-6.75-6.47c0-.16,0-.31,0-.47,0-6.42,5-8,11.84-8h1.09v-.87a4,4,0,0,0-4.2-4.49,10.06,10.06,0,0,0-6.16,2.29Zm10.66,10.69H789c-4.64,0-7.4,1-7.4,4.45a3.36,3.36,0,0,0,3,3.62H785c3.23,0,4.41-2.52,4.41-6.74Z" transform="translate(-498.2 -309.63)"/><path id="Trazado_10159" data-name="Trazado 10159" class="cls-1" d="M800.76,375.25l5.42-1.74v6.61h4.5v4.18h-4.5v12.25c0,2.53.87,3.26,2.45,3.26a4,4,0,0,0,2-.5v4a8,8,0,0,1-3.62.78c-4,0-6.3-1.92-6.3-6.88V384.3h-3.58v-4.17h3.58Z" transform="translate(-498.2 -309.63)"/><path id="Trazado_10160" data-name="Trazado 10160" class="cls-1" d="M814.41,370.07H820v5.6h-5.59Zm.69,10.05h5.42v23.63H815.1Z" transform="translate(-498.2 -309.63)"/><path id="Trazado_10161" data-name="Trazado 10161" class="cls-1" d="M834.58,379.75c4.59,0,9.88,2.53,9.88,12.16,0,9.92-5.29,12.21-9.88,12.21s-9.93-2.29-9.93-12.21c0-9.64,5.34-12.16,9.93-12.16m0,20.33c3.5,0,4.29-4.22,4.29-8.17s-.79-8.12-4.29-8.12-4.32,4.18-4.32,8.12.82,8.17,4.32,8.17" transform="translate(-498.2 -309.63)"/><path id="Trazado_10162" data-name="Trazado 10162" class="cls-1" d="M849.19,384a31.73,31.73,0,0,0-.18-3.9h5.07c0,1.19.18,2.43.18,3.62h.09a6.58,6.58,0,0,1,6-4c5.12,0,6.64,4,6.64,8.77v15.23h-5.42V389.57c0-3.63-.87-5.14-3.1-5.14-2.83,0-3.84,2.52-3.84,5.55v13.77h-5.43Z" transform="translate(-498.2 -309.63)"/></g></svg>