<svg xmlns="http://www.w3.org/2000/svg" viewBox="0 0 131.1991 150.5943"><defs><style>.b28249aa-154e-4e2e-925c-53a3f5603037{fill:#fff;stroke:#fff;stroke-miterlimit:10;}</style></defs><g id="a3fb7cd6-d99a-460c-aa1b-56452be6a4fd" data-name="Layer 2"><path class="b28249aa-154e-4e2e-925c-53a3f5603037" d="M362.9839,244.0073,355.0547,244a4.8213,4.8213,0,0,0-4.7969,4.8731v11.5253a1.64,1.64,0,1,0,3.28,0V249.8608h.7759l.0083,46.6H358.69l-.0093-34.4931h.7529l.0093,34.4931h4.4629l-.0825-46.6h.7587v10.5371a1.6292,1.6292,0,1,0,3.2559,0V248.9438A4.8873,4.8873,0,0,0,362.9839,244.0073Z" transform="translate(-317.422 -190.8608)"/><path class="b28249aa-154e-4e2e-925c-53a3f5603037" d="M359.0483,242.9282A4.6069,4.6069,0,1,0,354.44,238.32,4.6085,4.6085,0,0,0,359.0483,242.9282Z" transform="translate(-317.422 -190.8608)"/><path class="b28249aa-154e-4e2e-925c-53a3f5603037" d="M338.0884,237.7769" transform="translate(-317.422 -190.8608)"/><rect class="b28249aa-154e-4e2e-925c-53a3f5603037" x="14.5233" y="53.0586" width="6.0723" height="57.1895"/><path class="b28249aa-154e-4e2e-925c-53a3f5603037" d="M339.5386,238.56a4.7217,4.7217,0,1,1-4.7227-4.7237A4.7231,4.7231,0,0,1,339.5386,238.56Z" transform="translate(-317.422 -190.8608)"/><path class="b28249aa-154e-4e2e-925c-53a3f5603037" d="M339.8184,259.85V245.7847a1.7588,1.7588,0,0,0-1.5821-1.8926h-6.457a1.7567,1.7567,0,0,0-1.582,1.8926V259.85Z" transform="translate(-317.422 -190.8608)"/><polyline class="b28249aa-154e-4e2e-925c-53a3f5603037" points="24.123 105.565 24.123 53.12 25.622 53.12 25.622 105.565"/><polyline class="b28249aa-154e-4e2e-925c-53a3f5603037" points="27.594 105.565 27.594 53.12 30.058 53.12 30.058 105.565"/><polyline class="b28249aa-154e-4e2e-925c-53a3f5603037" points="52.326 105.565 52.326 53.012 53.06 53.012 53.06 105.565"/><rect class="b28249aa-154e-4e2e-925c-53a3f5603037" x="58.0541" y="53.0088" width="1.5898" height="52.5567"/><rect class="b28249aa-154e-4e2e-925c-53a3f5603037" x="81.037" y="73.9297" width="1.1201" height="31.6358"/><rect class="b28249aa-154e-4e2e-925c-53a3f5603037" x="95.4696" y="73.9297" width="2.8438" height="31.6358"/><rect class="b28249aa-154e-4e2e-925c-53a3f5603037" x="99.9188" y="52.795" width="2.0303" height="52.7705"/><rect class="b28249aa-154e-4e2e-925c-53a3f5603037" x="103.8075" y="52.795" width="0.7334" height="52.7705"/><rect class="b28249aa-154e-4e2e-925c-53a3f5603037" x="106.9989" y="52.795" width="0.875" height="52.7705"/><rect class="b28249aa-154e-4e2e-925c-53a3f5603037" x="111.9598" y="53.1123" width="6.1827" height="58.2266"/><path class="b28249aa-154e-4e2e-925c-53a3f5603037" d="M437.1113,238.5142a4.8071,4.8071,0,1,1-4.8086-4.8077A4.8077,4.8077,0,0,1,437.1113,238.5142Z" transform="translate(-317.422 -190.8608)"/><path class="b28249aa-154e-4e2e-925c-53a3f5603037" d="M437.3965,260.1919V245.8726a1.7916,1.7916,0,0,0-1.6113-1.9288h-6.5743a1.7908,1.7908,0,0,0-1.6093,1.9288v14.3193Z" transform="translate(-317.422 -190.8608)"/><rect class="b28249aa-154e-4e2e-925c-53a3f5603037" x="62.2474" y="52.8291" width="4.4004" height="52.7364"/><rect class="b28249aa-154e-4e2e-925c-53a3f5603037" x="69.8285" y="52.7393" width="2.1455" height="52.8262"/><rect class="b28249aa-154e-4e2e-925c-53a3f5603037" x="73.8509" y="52.795" width="0.834" height="52.7705"/><rect class="b28249aa-154e-4e2e-925c-53a3f5603037" x="76.4144" y="52.795" width="1.0049" height="52.7705"/><path class="b28249aa-154e-4e2e-925c-53a3f5603037" d="M386.2339,238.3394a4.3643,4.3643,0,1,1-4.3652-4.3653A4.3656,4.3656,0,0,1,386.2339,238.3394Z" transform="translate(-317.422 -190.8608)"/><path class="b28249aa-154e-4e2e-925c-53a3f5603037" d="M385.23,254.5854v-9.8271a1.2285,1.2285,0,0,0-1.1045-1.3223h-4.5108a1.2286,1.2286,0,0,0-1.1064,1.3223v9.8271Z" transform="translate(-317.422 -190.8608)"/><polyline class="b28249aa-154e-4e2e-925c-53a3f5603037" points="55.56 105.565 55.56 53.009 56.006 53.009 56.006 105.565"/><polyline class="b28249aa-154e-4e2e-925c-53a3f5603037" points="33.047 105.565 33.047 73.913 34.359 73.913 34.359 105.565"/><rect class="b28249aa-154e-4e2e-925c-53a3f5603037" x="47.8549" y="73.9297" width="2.4882" height="31.6358"/><path class="b28249aa-154e-4e2e-925c-53a3f5603037" d="M410.1543,243.7153l-7.93-.0068a4.8208,4.8208,0,0,0-4.7969,4.8721V260.106a1.64,1.64,0,1,0,3.2793,0V249.5688h.7774l.0351,46.795h4.3672l-.0361-34.69h.7529l.0361,34.69h4.3887l-.0351-46.795h.7588V260.106a1.6292,1.6292,0,1,0,3.2558,0V248.6509A4.8878,4.8878,0,0,0,410.1543,243.7153Z" transform="translate(-317.422 -190.8608)"/><path class="b28249aa-154e-4e2e-925c-53a3f5603037" d="M406.2188,242.6362a4.6069,4.6069,0,1,0-4.6084-4.6084A4.6085,4.6085,0,0,0,406.2188,242.6362Z" transform="translate(-317.422 -190.8608)"/><path class="b28249aa-154e-4e2e-925c-53a3f5603037" d="M366.82,196.8638s2.9092-1.7276,4.0908-2.3184a45.5833,45.5833,0,0,1,5.0454-1.9092,26.5935,26.5935,0,0,1,5.8184-.9541,14.9489,14.9489,0,0,0-3.1816,3.6363,19.0556,19.0556,0,0,0-1.83,4.14s-3.898-.7764-5.2612-1.14S366.82,196.8638,366.82,196.8638Z" transform="translate(-317.422 -190.8608)"/><path class="b28249aa-154e-4e2e-925c-53a3f5603037" d="M377.4819,199.5781s1.0674-2.605,1.6094-3.5625a12.2237,12.2237,0,0,1,2.0781-2.875,3.3213,3.3213,0,0,1,2.4063-1.125,2.2049,2.2049,0,0,1,1.2446.6206,12.0646,12.0646,0,0,1,1.8335,2.1763,19.5965,19.5965,0,0,1,1.4219,2.7187c.4546,1.0459.8594,2.2344.8594,2.2344s-2.1407.2813-3.6875.375A39.82,39.82,0,0,1,380.6841,200,30.8381,30.8381,0,0,1,377.4819,199.5781Z" transform="translate(-317.422 -190.8608)"/><path class="b28249aa-154e-4e2e-925c-53a3f5603037" d="M361.4507,194.875s5-1.6665,7.8335-2.25c3.6186-.7451,8.75-1.229,8.75-1.229a54.1146,54.1146,0,0,0-7.5625,2.5625c-1.5835.7915-4.542,2.6665-4.542,2.6665A39.06,39.06,0,0,1,361.4507,194.875Z" transform="translate(-317.422 -190.8608)"/><path class="b28249aa-154e-4e2e-925c-53a3f5603037" d="M385.0132,191.8594a43.0392,43.0392,0,0,1,4.4219.6875,38.3032,38.3032,0,0,1,5.0986,1.7656,28.4157,28.4157,0,0,1,2.7925,1.4062c1.0127.6167,1.9629,1.2354,1.9629,1.2354s-1.9.7065-2.87,1.0146c-.4277.1363-2.9843.9063-4.1718,1.1875-.6944.1646-2.5567.4834-2.5567.4834s-.8965-2.3427-1.3183-3.2021a23.0363,23.0363,0,0,0-1.7969-3.0625A8.6863,8.6863,0,0,0,385.0132,191.8594Z" transform="translate(-317.422 -190.8608)"/><path class="b28249aa-154e-4e2e-925c-53a3f5603037" d="M387.2007,191.3594s1.5937.2812,1.9531.375,1.1577.2607,1.3594.3281c.3281.1094,1.7031.5156,2,.6406s1.6411.627,1.9531.75c.5156.2031,2.1719,1.0313,2.7661,1.3594.5078.2808,1.6406.9531,1.7656,1.0469s1.0938.75,1.0938.75.8906-.375,1.0781-.4532,1.5313-.6718,1.7969-.8125,1.2344-.6406,1.2344-.6406-2.5938-.8281-2.9844-.9375-2.9219-.7656-3.3125-.8594-3.25-.6562-3.5317-.7187-2.8125-.4219-3.0938-.4688-2.0781-.2187-2.3594-.2343S387.2007,191.3594,387.2007,191.3594Z" transform="translate(-317.422 -190.8608)"/><path class="b28249aa-154e-4e2e-925c-53a3f5603037" d="M400.8262,197.0937s1.75-.7187,2.125-.9375.625-.3437,1.0625-.5625,1.0625-.625,1.0625-.625,2.2744.856,2.5625,1c.4375.2188,3.0625,1.375,3.625,1.6563s3,1.5625,3.75,2c.63.3672,2.8437,1.7187,3.4687,2.1562s2.6875,1.875,3.0938,2.1875,3.25,2.75,3.25,2.75-1.75,1.2813-3.1875,2.1875c-.8731.55-2.625,1.4375-3.4063,1.8125-.7441.3575-1.8125.8125-2.6562,1.1875-.4991.2217-2.25.875-2.25.875s-1.0938-2.3125-1.5313-3-1.8125-3.0625-2.0937-3.4687-2.0625-2.6563-2.1875-2.8125-1.75-2.0313-2-2.2813-2.125-2.125-2.3438-2.2812S400.8262,197.0937,400.8262,197.0937Z" transform="translate(-317.422 -190.8608)"/><path class="b28249aa-154e-4e2e-925c-53a3f5603037" d="M413.6387,213.4585s4.3593-1.66,6.042-2.5835c2.125-1.1665,5.666-3.6665,5.666-3.6665s2.9717,2.896,3.25,3.25c.459.583,3.167,3.75,4.042,5.125.7822,1.23,2.667,4.1665,3.417,5.75.5664,1.1963,1.5,3.042,2.083,4.625s1.51,4.81,1.51,4.81a19.9079,19.9079,0,0,0-2.9267-3.2266,11.1022,11.1022,0,0,0-2.833-1.708,13.45,13.45,0,0,0-4.292-.9585,17.4515,17.4515,0,0,0-3.958.5,18.1187,18.1187,0,0,0-3.708,1.7915,13.9863,13.9863,0,0,0-2.792,2.75,13.3693,13.3693,0,0,0-1.208,2.167s-.2911-3.042-.375-3.9585-.542-3.6665-.667-4.4165-.834-3.7915-1.042-4.375-1.2071-3.583-1.416-4.125S413.6387,213.4585,413.6387,213.4585Z" transform="translate(-317.422 -190.8608)"/><path class="b28249aa-154e-4e2e-925c-53a3f5603037" d="M389.93,200.3335s2.51-.42,3.6665-.75c1.4585-.4165,2.6255-.75,3.626-1.0835.788-.2627,2.75-1.0415,2.75-1.0415s1.416,1.0415,2.041,1.5415c.5293.4233,1.958,1.709,2.5,2.292s2.1045,2.2344,2.834,3.208c.625.8335,2.2919,3.1265,2.708,3.8335.417.7085,1.125,1.7915,1.583,2.7085.291.583.959,1.958.959,1.958s-1.959.667-2.959.9585c-.5821.17-3.125.8335-4.416,1.1665-.8711.2246-3.834.875-6.209,1.2085-2.314.3247-5.542.75-5.542.75s-.3335-2.9165-.5415-4.0835-.7085-3.7827-.8335-4.458c-.2085-1.125-1-4.2085-1.2085-5.0835S389.93,200.3335,389.93,200.3335Z" transform="translate(-317.422 -190.8608)"/><path class="b28249aa-154e-4e2e-925c-53a3f5603037" d="M377.2217,200.25s2.2915.375,3.4165.4585,3.375.229,4.3335.2085c.834-.0181,4.208-.417,4.208-.417s.667,1.9585,1,3.2085c.2109.791.7392,2.71,1,4.125.292,1.5835.5835,2.9585.875,4.6665.2353,1.3774.667,4.625.667,4.625s-1.25.167-6.4585.417c-1.083.0517-5.4165.083-7.625,0-2.166-.0816-5.125-.3335-5.125-.3335s.25-2.0835.4165-3.125.7939-4.416,1-5.2915c.3335-1.417,1.083-4.708,1.25-5.25S377.2217,200.25,377.2217,200.25Z" transform="translate(-317.422 -190.8608)"/><path class="b28249aa-154e-4e2e-925c-53a3f5603037" d="M366.0547,197.417s1.1606.438,2.417.7915c1.333.375,3.2471.9258,4.583,1.25,1.375.3335,3.417.7085,3.417.7085s-.7085,2.0415-.9585,3.083c-.1846.7686-.9165,3.042-1.125,4.375-.1655,1.0581-.6431,2.7891-.9585,4.875-.208,1.375-.708,4.625-.708,4.625s-3.458-.3335-4.625-.5-5.5-.9585-6.7085-1.25-3.6665-1-4.875-1.333-3.0835-1-3.0835-1,1.292-2.667,2.0835-3.917,2.25-3.4585,3.0415-4.5a50.8622,50.8622,0,0,1,3.917-4.25c.6665-.583,1.125-1.083,1.9165-1.708S366.0547,197.417,366.0547,197.417Z" transform="translate(-317.422 -190.8608)"/><path class="b28249aa-154e-4e2e-925c-53a3f5603037" d="M360.43,195.2085s1.5.625,2.042.875,2.7915,1.0415,2.7915,1.0415-2.5,1.9585-3.1665,2.5835a55.4737,55.4737,0,0,0-5.042,5.6665c-1.03,1.48-2,3.0835-2.75,4.3335-.5186.8643-1.5415,3.125-1.5415,3.125s-2.5-1-3.75-1.5415c-.7031-.3047-3.2915-1.542-4.1665-2.042s-1.875-1.1665-2.4585-1.5415-1.25-.9165-1.25-.9165,1.5-1.334,2.375-2.042,3-2.333,3.9585-2.9165,3.7085-2.3335,4.375-2.7085,3.6665-1.875,4.7915-2.375S360.43,195.2085,360.43,195.2085Z" transform="translate(-317.422 -190.8608)"/><path class="b28249aa-154e-4e2e-925c-53a3f5603037" d="M352.3979,213.4585a58.6193,58.6193,0,0,1-6.3012-2.7085,61.9758,61.9758,0,0,1-5.5835-3.375s-2.7949,2.73-3.0733,3.0835c-.4589.583-3.167,3.75-4.042,5.125-.7822,1.23-2.6669,4.1665-3.4169,5.75-.5664,1.1963-1.5,3.042-2.0831,4.625s-1.51,4.81-1.51,4.81a19.1179,19.1179,0,0,1,2.8335-3.06A11.2313,11.2313,0,0,1,332.0967,226a13.6234,13.6234,0,0,1,4.25-1.0415,20.95,20.95,0,0,1,4.0512.4165,15.0055,15.0055,0,0,1,3.8653,1.7085,13.9644,13.9644,0,0,1,2.875,2.625c.581.7519,1.2915,1.9165,1.2915,1.9165s.0527-2.6284.167-3.5415c.1665-1.3335.522-3.8369.6665-4.5835.25-1.2915.8335-3.583,1.0415-4.1665s.9907-3.0835,1.375-4.0835C351.8882,214.708,352.3979,213.4585,352.3979,213.4585Z" transform="translate(-317.422 -190.8608)"/><path class="b28249aa-154e-4e2e-925c-53a3f5603037" d="M353.18,213.75s2.542.875,4.2085,1.3335,5.75,1.4165,7.75,1.7915,4.1245.6665,4.9165.75,2.5835.25,2.5835.25-.3335,2.667-.4585,3.875c-.0864.833-.2915,3.375-.375,4.75-.0454.75-.186,5.8179-.186,5.8179s-2.3555-3.6514-4.314-4.9429A13.1324,13.1324,0,0,0,360.93,225a13.2755,13.2755,0,0,0-7.083,1.5835,16.1276,16.1276,0,0,0-3.375,2.8335,24.0613,24.0613,0,0,0-1.3335,2.125s.2085-3.375.375-4.625c.1069-.8023.5786-3.5747.8335-4.667.2915-1.25.625-2.625.9165-3.5.2959-.8882.7778-2.2969,1.0415-3C352.68,214.75,353.18,213.75,353.18,213.75Z" transform="translate(-317.422 -190.8608)"/><path class="b28249aa-154e-4e2e-925c-53a3f5603037" d="M413.0137,213.6665s-2.542.875-4.209,1.3335-5.75,1.4165-7.75,1.7915-4.1245.6665-4.9165.75-2.5835.25-2.5835.25.3335,2.667.4585,3.875c.0864.833.2915,3.375.375,4.75.0454.75.1855,5.8179.1855,5.8179s2.3555-3.6514,4.315-4.9429a13.1342,13.1342,0,0,1,6.375-2.375,13.2755,13.2755,0,0,1,7.083,1.5835,16.1276,16.1276,0,0,1,3.375,2.8335,23.9079,23.9079,0,0,1,1.333,2.125s-.208-3.375-.375-4.625c-.1065-.8023-.5781-3.5747-.833-4.667-.292-1.25-.625-2.625-.917-3.5-.2949-.8882-.7774-2.2969-1.041-3C413.5137,214.6665,413.0137,213.6665,413.0137,213.6665Z" transform="translate(-317.422 -190.8608)"/><path class="b28249aa-154e-4e2e-925c-53a3f5603037" d="M373.3555,217.9478s3.7392.2587,4.7168.2876,5.58.0576,6.0683.0576,4.4864-.1245,4.9175-.1441c.6328-.0283,3.8252-.3447,3.8252-.3447s.23,2.0132.3164,3.0195c.0444.52.3164,3.5371.374,4.2564s.1724,2.5879.1724,3.1347.1152,3.48.1152,3.48a10.4741,10.4741,0,0,0-2.646-3.5371,12.9571,12.9571,0,0,0-3.9687-2.3872,13.34,13.34,0,0,0-4.228-.8052,14.9391,14.9391,0,0,0-5.2051,1.0928,12.5442,12.5442,0,0,0-3.02,1.9844,10.6483,10.6483,0,0,0-1.6968,1.87,6.9458,6.9458,0,0,0-.834,1.9556l.1724-2.8184s.0288-1.4668.1152-2.3872.2588-3.3647.3164-3.94.2876-2.7325.3164-3.0489S373.3555,217.9478,373.3555,217.9478Z" transform="translate(-317.422 -190.8608)"/><path class="b28249aa-154e-4e2e-925c-53a3f5603037" d="M324.7778,310.3887h4.8658a3.6688,3.6688,0,0,1,2.5376.8222,3.5895,3.5895,0,0,1-1.1724,6.1084l2.8877,5.53h-2.24l-2.5728-5.32H326.668v5.32h-1.89Zm1.89,5.46h2.853a1.9311,1.9311,0,0,0,2.1177-1.9775,1.6858,1.6858,0,0,0-.63-1.418,2.1069,2.1069,0,0,0-1.3828-.3847h-2.958Z" transform="translate(-317.422 -190.8608)"/><path class="b28249aa-154e-4e2e-925c-53a3f5603037" d="M335.0151,310.3887h7.9634v1.7851h-6.0732v3.5528h5.1806v1.68h-5.1806v3.6583h6.0732V322.85h-7.9634Z" transform="translate(-317.422 -190.8608)"/><path class="b28249aa-154e-4e2e-925c-53a3f5603037" d="M344.3076,310.3887h4.3579a4.2191,4.2191,0,0,1,3.7979,2.1c.6128,1.0508.6655,1.5224.6655,4.1308,0,2.8-.14,3.29-.7,4.1651a4.4444,4.4444,0,0,1-3.8857,2.0654h-4.2354Zm1.89,10.6758h2.2578a2.5852,2.5852,0,0,0,2.31-1.085c.42-.63.4722-.98.4722-3.291,0-2.24-.0523-2.7823-.56-3.4649a2.4067,2.4067,0,0,0-2.2226-1.05h-2.2578Z" transform="translate(-317.422 -190.8608)"/><path class="b28249aa-154e-4e2e-925c-53a3f5603037" d="M354.895,310.3887h7.9634v1.7851h-6.0732v3.5528h5.1806v1.68h-5.1806v3.6583h6.0732V322.85H354.895Z" transform="translate(-317.422 -190.8608)"/><path class="b28249aa-154e-4e2e-925c-53a3f5603037" d="M377.9629,319.3672a4.2852,4.2852,0,0,1-4.3755,3.5879,4.4282,4.4282,0,0,1-3.9028-2.24c-.4024-.7353-.5425-1.1035-.5425-4.0957s.14-3.36.5425-4.0957a4.4715,4.4715,0,0,1,8.2783,1.4532h-1.9951a2.5175,2.5175,0,0,0-2.38-1.8028,2.3964,2.3964,0,0,0-1.9248.91c-.49.63-.63.9795-.63,3.5351s.14,2.9053.63,3.5352a2.3967,2.3967,0,0,0,1.9248.91,2.5629,2.5629,0,0,0,2.38-1.6973Z" transform="translate(-317.422 -190.8608)"/><path class="b28249aa-154e-4e2e-925c-53a3f5603037" d="M378.9771,312.5234a4.52,4.52,0,0,1,7.8056,0c.4028.7354.543,1.1026.543,4.0957s-.14,3.36-.543,4.0957a4.52,4.52,0,0,1-7.8056,0c-.4024-.7353-.5425-1.1035-.5425-4.0957S378.5747,313.2588,378.9771,312.5234Zm1.978,7.6309a2.4908,2.4908,0,0,0,3.85,0c.49-.63.63-.98.63-3.5352s-.14-2.9052-.63-3.5351a2.4908,2.4908,0,0,0-3.85,0c-.49.63-.63.9795-.63,3.5351S380.4648,319.5244,380.9551,320.1543Z" transform="translate(-317.422 -190.8608)"/><path class="b28249aa-154e-4e2e-925c-53a3f5603037" d="M389.0918,310.3887h1.7852l5.6357,8.8554h.0352v-8.8554h1.89V322.85h-1.7847l-5.6357-8.8555h-.0352V322.85h-1.89Z" transform="translate(-317.422 -190.8608)"/><path class="b28249aa-154e-4e2e-925c-53a3f5603037" d="M400.7813,319.8223a5.7459,5.7459,0,0,0,3.5351,1.2422c1.541,0,2.4688-.7,2.4688-1.7325a1.6276,1.6276,0,0,0-1.628-1.6806c-.56-.0694-.997-.14-1.6455-.2276a3.4542,3.4542,0,0,1-3.3076-3.5c0-2.1357,1.4873-3.6406,4.06-3.6406a7.3142,7.3142,0,0,1,4.043,1.2949l-1.05,1.5576a5.8229,5.8229,0,0,0-3.08-.9619c-1.1562,0-2.0839.5948-2.0839,1.7852,0,.7.5078,1.3994,1.7675,1.5928.333.0517.8057.122,1.4.1923a3.55,3.55,0,0,1,3.4131,3.5879c0,2.292-1.6973,3.6231-4.376,3.6231a6.9833,6.9833,0,0,1-4.76-1.7158Z" transform="translate(-317.422 -190.8608)"/><path class="b28249aa-154e-4e2e-925c-53a3f5603037" d="M410.0039,310.3887h1.8906v8.0332a2.54,2.54,0,1,0,5.0752,0v-8.0332h1.89v8.2431a4.429,4.429,0,0,1-8.8555,0Z" transform="translate(-317.422 -190.8608)"/><path class="b28249aa-154e-4e2e-925c-53a3f5603037" d="M420.8184,310.3887h1.7851l3.57,8.12,3.501-8.12H431.46V322.85h-1.89v-7.7705h-.0351l-2.6075,5.9854h-1.5761l-2.6075-5.9854h-.0351V322.85h-1.8906Z" transform="translate(-317.422 -190.8608)"/><path class="b28249aa-154e-4e2e-925c-53a3f5603037" d="M433.77,312.5234a4.519,4.519,0,0,1,7.8047,0c.4033.7354.543,1.1026.543,4.0957s-.14,3.36-.543,4.0957a4.5189,4.5189,0,0,1-7.8047,0c-.4023-.7353-.5429-1.1035-.5429-4.0957S433.3672,313.2588,433.77,312.5234Zm1.9776,7.6309a2.4913,2.4913,0,0,0,3.8506,0c.49-.63.63-.98.63-3.5352s-.14-2.9052-.63-3.5351a2.4913,2.4913,0,0,0-3.8506,0c-.49.63-.63.9795-.63,3.5351S435.2568,319.5244,435.7471,320.1543Z" transform="translate(-317.422 -190.8608)"/><path class="b28249aa-154e-4e2e-925c-53a3f5603037" d="M319.37,337.8223a5.7453,5.7453,0,0,0,3.5352,1.2422c1.54,0,2.4678-.7,2.4678-1.7325a1.6272,1.6272,0,0,0-1.6275-1.6806c-.56-.0694-.9975-.14-1.645-.2276a3.4543,3.4543,0,0,1-3.3081-3.5c0-2.1357,1.4878-3.6406,4.0605-3.6406a7.3142,7.3142,0,0,1,4.043,1.2949l-1.05,1.5576a5.82,5.82,0,0,0-3.08-.9619c-1.1552,0-2.083.5948-2.083,1.7852,0,.7.5078,1.3994,1.7676,1.5928.3325.0517.8052.122,1.4.1923a3.55,3.55,0,0,1,3.4126,3.5879c0,2.292-1.6973,3.6231-4.3755,3.6231a6.9837,6.9837,0,0,1-4.76-1.7158Z" transform="translate(-317.422 -190.8608)"/><path class="b28249aa-154e-4e2e-925c-53a3f5603037" d="M328.8193,328.3887h7.9634v1.7851H330.71v3.5528H335.89v1.68H330.71v3.6583h6.0732V340.85h-7.9634Z" transform="translate(-317.422 -190.8608)"/><path class="b28249aa-154e-4e2e-925c-53a3f5603037" d="M342.1548,333.9893h4.4282v2.5371a4.4729,4.4729,0,0,1-8.3486,2.1884c-.4024-.7353-.5425-1.1035-.5425-4.0957s.14-3.36.5425-4.0957a4.4715,4.4715,0,0,1,8.2783,1.4532h-1.9951a2.5175,2.5175,0,0,0-2.38-1.8028,2.3964,2.3964,0,0,0-1.9248.91c-.49.63-.63.9795-.63,3.5351s.14,2.9053.63,3.5352a2.3967,2.3967,0,0,0,1.9248.91,2.5259,2.5259,0,0,0,2.5557-2.6426v-.6475h-2.5381Z" transform="translate(-317.422 -190.8608)"/><path class="b28249aa-154e-4e2e-925c-53a3f5603037" d="M348.1216,328.3887h1.89v8.0332a2.54,2.54,0,1,0,5.0757,0v-8.0332h1.89v8.2431a4.4292,4.4292,0,0,1-8.8559,0Z" transform="translate(-317.422 -190.8608)"/><path class="b28249aa-154e-4e2e-925c-53a3f5603037" d="M358.9365,328.3887h4.8657a3.6684,3.6684,0,0,1,2.5376.8222,3.5894,3.5894,0,0,1-1.1723,6.1084l2.8877,5.53h-2.24l-2.5727-5.32h-2.4155v5.32h-1.89Zm1.89,5.46h2.853a1.9311,1.9311,0,0,0,2.1177-1.9775,1.6861,1.6861,0,0,0-.63-1.418,2.1069,2.1069,0,0,0-1.3828-.3847h-2.958Z" transform="translate(-317.422 -190.8608)"/><path class="b28249aa-154e-4e2e-925c-53a3f5603037" d="M369.2964,330.5234a4.52,4.52,0,0,1,7.8057,0c.4028.7354.5429,1.1026.5429,4.0957s-.14,3.36-.5429,4.0957a4.52,4.52,0,0,1-7.8057,0c-.4024-.7353-.5425-1.1035-.5425-4.0957S368.894,331.2588,369.2964,330.5234Zm1.978,7.6309a2.4908,2.4908,0,0,0,3.85,0c.49-.63.63-.98.63-3.5352s-.14-2.9052-.63-3.5351a2.4908,2.4908,0,0,0-3.85,0c-.49.63-.63.9795-.63,3.5351S370.7842,337.5244,371.2744,338.1543Z" transform="translate(-317.422 -190.8608)"/><path class="b28249aa-154e-4e2e-925c-53a3f5603037" d="M384.7852,328.3887h7.9633v1.7851h-6.0732v3.5528h5.1807v1.68h-5.1807v3.6583h6.0732V340.85h-7.9633Z" transform="translate(-317.422 -190.8608)"/><path class="b28249aa-154e-4e2e-925c-53a3f5603037" d="M399.61,337.8223a5.7437,5.7437,0,0,0,3.5351,1.2422c1.54,0,2.4678-.7,2.4678-1.7325a1.6273,1.6273,0,0,0-1.627-1.6806c-.5605-.0694-.998-.14-1.6465-.2276a3.4533,3.4533,0,0,1-3.3066-3.5c0-2.1357,1.4873-3.6406,4.0606-3.6406a7.3193,7.3193,0,0,1,4.0429,1.2949l-1.0508,1.5576a5.82,5.82,0,0,0-3.08-.9619c-1.1553,0-2.083.5948-2.083,1.7852,0,.7.5078,1.3994,1.7675,1.5928.333.0517.8057.122,1.4.1923a3.551,3.551,0,0,1,3.4131,3.5879c0,2.292-1.6973,3.6231-4.376,3.6231a6.9858,6.9858,0,0,1-4.7607-1.7158Z" transform="translate(-317.422 -190.8608)"/><path class="b28249aa-154e-4e2e-925c-53a3f5603037" d="M415.4482,338.0664h-4.7255L409.76,340.85h-1.9942l4.5323-12.4609h1.5751l4.5333,12.4609h-1.9952Zm-.5419-1.68-1.8028-5.4433h-.0351l-1.8028,5.4433Z" transform="translate(-317.422 -190.8608)"/><path class="b28249aa-154e-4e2e-925c-53a3f5603037" d="M418.7549,328.3887h1.89v8.0332a2.54,2.54,0,1,0,5.0762,0v-8.0332h1.8906v8.2431a4.4295,4.4295,0,0,1-8.8564,0Zm4.69-3.168h2.3457l-2.4853,2.5547h-1.47Z" transform="translate(-317.422 -190.8608)"/><path class="b28249aa-154e-4e2e-925c-53a3f5603037" d="M429.57,328.3887h4.3574a4.2191,4.2191,0,0,1,3.7979,2.1c.6123,1.0508.665,1.5224.665,4.1308,0,2.8-.14,3.29-.6992,4.1651a4.4473,4.4473,0,0,1-3.8867,2.0654H429.57Zm1.89,10.6758h2.2578a2.5857,2.5857,0,0,0,2.31-1.085c.42-.63.4717-.98.4717-3.291,0-2.24-.0518-2.7823-.56-3.4649a2.4072,2.4072,0,0,0-2.2226-1.05H431.46Z" transform="translate(-317.422 -190.8608)"/><path class="b28249aa-154e-4e2e-925c-53a3f5603037" d="M440.1572,328.3887h7.9639v1.7851h-6.0742v3.5528h5.1816v1.68h-5.1816v3.6583h6.0742V340.85h-7.9639Z" transform="translate(-317.422 -190.8608)"/></g></svg>