<svg id="Capa_1" data-name="Capa 1" xmlns="http://www.w3.org/2000/svg" viewBox="0 0 348.91 119.73"><defs><style>.cls-1{fill:#fff;}.cls-2{fill:#161615;}.cls-3{fill:none;}</style></defs><g id="Grupo_7016" data-name="Grupo 7016"><path id="Trazado_10032" data-name="Trazado 10032" class="cls-1" d="M567.31,442.39a59.29,59.29,0,1,1,59.37-59.3,59.29,59.29,0,0,1-59.37,59.3m0-115.87A56.58,56.58,0,1,0,624,383.09a56.58,56.58,0,0,0-56.65-56.58" transform="translate(-508.09 -323.81)"/><path id="Trazado_10033" data-name="Trazado 10033" class="cls-1" d="M567.31,426.1c-24.38,0-44.21-19.29-44.21-43s19.83-43,44.21-43,44.2,19.29,44.2,43-19.82,43-44.2,43m0-83c-22.7,0-41.18,17.92-41.18,40s18.48,40,41.18,40,41.18-17.93,41.18-40-18.48-40-41.18-40" transform="translate(-508.09 -323.81)"/><path id="Trazado_10034" data-name="Trazado 10034" class="cls-1" d="M520.41,362.47l.79,2.9H524L522,367l.77,2.55-2.44-2-2.39,2.18,1-2.72-2.45-1.61,2.84.05Z" transform="translate(-508.09 -323.81)"/><path id="Trazado_10035" data-name="Trazado 10035" class="cls-1" d="M523,370l-2.73-2.23-2.29,2.1-.25-.17.93-2.61-2.79-1.84,3.26.07,1.28-3.31.87,3.24h3.16l-2.33,1.83Zm-6.09-4.43,2.11,1.4-.8,2.26,2-1.86,2.15,1.76-.65-2.16,1.8-1.42h-2.52l-.69-2.57-1,2.64Z" transform="translate(-508.09 -323.81)"/><path id="Trazado_10036" data-name="Trazado 10036" class="cls-1" d="M611,403.6l.79,2.91h2.83l-2.06,1.63.77,2.55-2.45-2-2.38,2.2,1-2.73L607,406.52l2.84.06Z" transform="translate(-508.09 -323.81)"/><path id="Trazado_10037" data-name="Trazado 10037" class="cls-1" d="M613.59,411.12l-2.75-2.25-2.29,2.1-.24-.16.92-2.61-2.79-1.85,3.26.07,1.29-3.3.87,3.23H615l-2.32,1.84Zm-6.1-4.44,2.12,1.4-.81,2.26,2-1.87,2.16,1.78-.65-2.16,1.8-1.43h-2.52l-.69-2.56-1,2.63Z" transform="translate(-508.09 -323.81)"/><path id="Trazado_10038" data-name="Trazado 10038" class="cls-1" d="M523.44,403l.79,2.91h2.83L525,407.49l.77,2.55-2.45-2-2.39,2.18,1-2.72-2.45-1.62,2.84.06Z" transform="translate(-508.09 -323.81)"/><path id="Trazado_10039" data-name="Trazado 10039" class="cls-1" d="M526.06,410.47l-2.73-2.24L521,410.32l-.25-.16.93-2.61-2.78-1.84,3.25.07,1.29-3.31.86,3.24h3.16l-2.32,1.83ZM520,406l2.12,1.4-.81,2.26,2-1.86,2.15,1.76-.65-2.16,1.8-1.42H524.1l-.69-2.57-1,2.64Z" transform="translate(-508.09 -323.81)"/><path id="Trazado_10040" data-name="Trazado 10040" class="cls-1" d="M614.49,360.38l1,2.91h2.58L616,364.91l.77,2.55-2.32-2.16L612,367.64l1-2.73-2.45-1.62,2.84.06Z" transform="translate(-508.09 -323.81)"/><path id="Trazado_10041" data-name="Trazado 10041" class="cls-1" d="M617.12,368l-2.63-2.44-2.41,2.24-.24-.16.92-2.61L610,363.13l3.26.08L614.5,360l1.13,3.19h2.91L616.22,365Zm-6.1-4.49,2.11,1.39-.8,2.26,2.16-2,2,1.86-.64-2.11,1.8-1.42h-2.25l-.93-2.62-1.05,2.69Z" transform="translate(-508.09 -323.81)"/><path id="Trazado_10042" data-name="Trazado 10042" class="cls-2" d="M570.8,383.09h0Z" transform="translate(-508.09 -323.81)"/><path id="Trazado_10043" data-name="Trazado 10043" class="cls-1" d="M537.23,416.79l1.24,1.13-5.91,6.39-1.33-1.23,1.62-6.93,0,0-4.21,4.55-1.24-1.14,5.91-6.39,1.4,1.3-1.59,6.76,0,0Z" transform="translate(-508.09 -323.81)"/><path id="Trazado_10044" data-name="Trazado 10044" class="cls-1" d="M569.52,337.71l-1.93-.2,4-8.26,2.11.21,2.23,8.88-2-.2-.4-1.82-3.23-.32Zm1.42-3.14,2.24.22-.75-3.5h0Z" transform="translate(-508.09 -323.81)"/><path id="Trazado_10045" data-name="Trazado 10045" class="cls-1" d="M581.36,338.12l4.16,1.32-.5,1.47L579.11,339l2.79-8.1,1.75.55Z" transform="translate(-508.09 -323.81)"/><path id="Trazado_10046" data-name="Trazado 10046" class="cls-1" d="M594.76,343.39a3.1,3.1,0,0,1-4.8.78,3.68,3.68,0,0,1-1.74-2.35,3,3,0,0,1,.59-2.1L592,335l1.56,1-3.11,4.66a1.49,1.49,0,0,0,.1,2.09,2.2,2.2,0,0,0,.25.17,1.51,1.51,0,0,0,2.15-.09,1.27,1.27,0,0,0,.24-.33l3.15-4.73,1.56,1Z" transform="translate(-508.09 -323.81)"/><path id="Trazado_10047" data-name="Trazado 10047" class="cls-1" d="M598.74,350.2l-1.42-1.14,4.65-5.41L599.92,342l1-1.18,5.51,4.43-1,1.18-2-1.65Z" transform="translate(-508.09 -323.81)"/><path id="Trazado_10048" data-name="Trazado 10048" class="cls-1" d="M559.79,335.71c.09.47.48,1.34,2.07,1.11.85-.13,1.78-.47,1.62-1.37-.11-.67-.78-.76-1.74-.83l-1-.08c-1.45-.11-2.86-.23-3.17-2.11-.16-.95.08-2.71,2.9-3.12a3,3,0,0,1,3.77,2,2.33,2.33,0,0,1,.07.25l-1.74.26c-.11-.38-.41-1.26-2-1-.69.11-1.47.48-1.34,1.25s.7.73,1.07.76l2.2.2c1.23.11,2.39.42,2.65,2,.42,2.57-2.19,3.19-3,3.3-3.16.47-4-1.25-4.18-2.31Z" transform="translate(-508.09 -323.81)"/><path id="Trazado_10049" data-name="Trazado 10049" class="cls-1" d="M539.92,335.94a4.11,4.11,0,0,1,5.61,1.57,4.49,4.49,0,0,1,.26.54,4,4,0,0,1-1,5.56,4.4,4.4,0,0,1-6.25-1.19,3.36,3.36,0,0,1-.26-.54,4,4,0,0,1,.95-5.57,4.18,4.18,0,0,1,.65-.37m3.55,6.69c.88-.45,1.83-1.61.7-3.75s-2.66-2-3.53-1.58-1.83,1.61-.69,3.74,2.65,2,3.53,1.59" transform="translate(-508.09 -323.81)"/><path id="Trazado_10050" data-name="Trazado 10050" class="cls-1" d="M527.27,346.33l3.05-3.15a2.48,2.48,0,0,1,3.47-.48l.2.17a2,2,0,0,1,.56,2.35c.71-.3,1.17-.39,2.35.7.91.85,1.13,1.06,1.51.88l.17.15-1.4,1.45a5.49,5.49,0,0,1-1.4-1c-.85-.8-1.23-1.06-2.17-.09l-1.3,1.35,2.44,2.29-1.24,1.27Zm5.47-.23c.65-.67.74-1.23.12-1.8a1.1,1.1,0,0,0-1.56,0,1.15,1.15,0,0,0-.14.17l-1.57,1.62,1.67,1.57Z" transform="translate(-508.09 -323.81)"/><path id="Trazado_10051" data-name="Trazado 10051" class="cls-1" d="M591.14,421.86l1.49-.81,4.25,7.44-1.6.87-6.14-3.6,0,0,3,5.29-1.48.82-4.25-7.45,1.68-.92,6,3.53,0,0Z" transform="translate(-508.09 -323.81)"/><path id="Trazado_10052" data-name="Trazado 10052" class="cls-1" d="M594.32,419.48l3-2.32a3.69,3.69,0,0,1,5.15.75c.08.11.16.23.23.35,1.15,1.45,2.23,4,0,5.73l-3,2.27Zm5.87,4.53,1.4-1.06c1.18-.89.66-2.35-.24-3.47-1.58-2-2.68-1.42-3.3-1l-1.39,1.05Z" transform="translate(-508.09 -323.81)"/><path id="Trazado_10053" data-name="Trazado 10053" class="cls-1" d="M608.94,418.23l-1.21,1.35-6.57-5.65,1.2-1.35Z" transform="translate(-508.09 -323.81)"/><path id="Trazado_10054" data-name="Trazado 10054" class="cls-1" d="M611.75,354.45l-2.82-3.64-1.46,1.1,2.59,3.33-1.24.91-2.59-3.33-1.81,1.34,3,3.79-1.24.92-4-5.19,7-5.19,3.9,5Z" transform="translate(-508.09 -323.81)"/><path id="Trazado_10055" data-name="Trazado 10055" class="cls-1" d="M543.05,421.23a4,4,0,0,1,1.28,5.48,4.44,4.44,0,0,1-.46.59,4.12,4.12,0,0,1-5.58,1.67,5.29,5.29,0,0,1-.5-.32,4,4,0,0,1-1.27-5.48,3.36,3.36,0,0,1,.45-.6,4.12,4.12,0,0,1,5.58-1.66,3.84,3.84,0,0,1,.5.32m-4.37,6.17c.81.55,2.3.84,3.69-1.13s.6-3.24-.21-3.8-2.29-.84-3.68,1.13-.6,3.24.2,3.8" transform="translate(-508.09 -323.81)"/><path id="Trazado_10056" data-name="Trazado 10056" class="cls-1" d="M552.33,425.88l1.77.67-5.94,7-1.61-.61.45-9.06,1.82.68-.68,6.74h0Z" transform="translate(-508.09 -323.81)"/><path id="Trazado_10057" data-name="Trazado 10057" class="cls-1" d="M555.3,435.63l-1.76-.46,2.25-8.23,1.78.45Z" transform="translate(-508.09 -323.81)"/><path id="Trazado_10058" data-name="Trazado 10058" class="cls-1" d="M576.05,436.28l-1.71.12-.49-7.16h0l-1.13,7.27-1.8.12-2.1-7.06h0l.5,7.17-1.7.11-.6-8.57,2.67-.18,2.06,6.64h0l1.1-6.86,2.65-.18Z" transform="translate(-508.09 -323.81)"/><path id="Trazado_10059" data-name="Trazado 10059" class="cls-1" d="M586.21,431c.58,2.2-.53,3.49-2.67,4a3.83,3.83,0,0,1-3-.34,3.15,3.15,0,0,1-1.2-1.86l-1.45-5.55,1.81-.45,1.42,5.43a1.54,1.54,0,0,0,1.72,1.35l.24-.05c1.21-.3,1.57-1,1.3-2L583,426l1.82-.45Z" transform="translate(-508.09 -323.81)"/><path id="Trazado_10060" data-name="Trazado 10060" class="cls-1" d="M528.16,358.88l-1,1.5-7.24-4.85,2.24-3.28a2.59,2.59,0,0,1,3.54-.89l.31.22a2.64,2.64,0,0,1,.89,3.62,1.43,1.43,0,0,1-.15.22l-1.17,1.71Zm-2.9-4a1.19,1.19,0,0,0,0-1.67,1.11,1.11,0,0,0-.32-.21c-.7-.47-1.26-.28-1.9.65l-.82,1.19,2.13,1.43Z" transform="translate(-508.09 -323.81)"/><path id="Trazado_10061" data-name="Trazado 10061" class="cls-1" d="M576,416.89c.64,1.47-1,1.1-1.66,1.63h-.54c.1-.84,1-2.21,2.2-1.63" transform="translate(-508.09 -323.81)"/><path id="Trazado_10062" data-name="Trazado 10062" class="cls-1" d="M566.54,390.69v.58h-2.25c-.22-1.26,1.72-1.47,2.25-.58" transform="translate(-508.09 -323.81)"/><path id="Trazado_10063" data-name="Trazado 10063" class="cls-1" d="M570.45,375.7l1.09-1.33,2.89-.24,1.32-.24-.6,1.21-1.57.6.24-.6L572,375l-1,.72Z" transform="translate(-508.09 -323.81)"/><path id="Trazado_10064" data-name="Trazado 10064" class="cls-1" d="M577.56,374l1-.12,1.08.48-.6.73-1.08.24-.49.6-.6-.48-1,.24-.12-.48.84-.24-.35-.49.35-.36Z" transform="translate(-508.09 -323.81)"/><path id="Trazado_10065" data-name="Trazado 10065" class="cls-1" d="M580.54,375.15l.6-.49,1.08.12-.24.61-1.57.35Z" transform="translate(-508.09 -323.81)"/><path id="Trazado_10066" data-name="Trazado 10066" class="cls-1" d="M572,376.54l1.2-.12-.24.72h-1.2Z" transform="translate(-508.09 -323.81)"/><path id="Trazado_10067" data-name="Trazado 10067" class="cls-1" d="M580.21,376.36l.71-.55.39.39-.47.4Z" transform="translate(-508.09 -323.81)"/><path id="Trazado_10068" data-name="Trazado 10068" class="cls-1" d="M579.59,377.53l.6.72.48-.24-.36-1.2Z" transform="translate(-508.09 -323.81)"/><path id="Trazado_10069" data-name="Trazado 10069" class="cls-1" d="M581.79,378l.35-.48-1.08-.6Z" transform="translate(-508.09 -323.81)"/><line id="Línea_628" data-name="Línea 628" class="cls-3" x1="73.69" y1="54.18" x2="74.05" y2="53.7"/><path id="Trazado_10070" data-name="Trazado 10070" class="cls-1" d="M583,377.45l.42.17-.17,1.76-.59-1.6Z" transform="translate(-508.09 -323.81)"/><path id="Trazado_10071" data-name="Trazado 10071" class="cls-1" d="M563.75,350.39c.43-.48.11-2.52-.59-2.73-.81,1.26,1.66,1.83,0,2.73Zm3.86,6.55a6.84,6.84,0,0,1,.58-4.36l.55-.57a2.29,2.29,0,0,0-.55.57l-1.11-1.1.53-.57c-.81.26-1.07-.68-1.66-1.05-.75,2.05,4.07,4.67-.54,4.88-.32-.31-.75-.58-.58-1.11h-.54v.59h.54c-.32.26-.59.68-1.08.52,0,.63.11,1.32-.59,1.63h1.13c.31.32.74.58.53,1.1.75.22,1.88-.47,2.25.53-.16-.47.27-.73.54-1.05m5.91,26.14a9.43,9.43,0,0,1,3.57-1.63c-.16.53.26.79.53,1.11,1.22-1.41,2-.26,2.9.52a1.66,1.66,0,0,0,1.55.52,1.48,1.48,0,0,1,.22-.52h.58c.83,2,4,3.21,4.23,5.47,1.92.94,4.61.15,6.1,2.14,3.91,4.36-4.71,5.93-3.32,10.39-.7,2.88-2.89,3.36-5.57,3.78-.86,2.2-2.57,3.09-4.44,4.35-2.79-.1-3.16,1.95-5.57,2.73-.86,2.84-3.22,3.62-3.91,6.56.43.9,1.92.37,1.65,1.63-1.92.05-4.39-1.1-4.43-3.26.74-6.08,5.19-10.7,5.56-16.9-3-2.2-3.48-6.4-3.32-10.34,1.93-1,1.5-2.94,2.19-4.35l-1.07-1.1c-1.12,1.62-1.87-.84-3.36,0a3.23,3.23,0,0,0-.56-1.11c-.62-.79-1.56-1.43-2.23-2.2a24.6,24.6,0,0,1-6.64-2.16c-2.52-.21-1.07-3-3.33-3.82-.32.31-.75.57-.59,1.1-3.59-.95-2.15-4.88-3.86-7.09a9.19,9.19,0,0,0,.12-4.36,8,8,0,0,0-1.25-2.73c-3.53-3.88-7.45,2.84-11.67.53a5.24,5.24,0,0,0,3.86-2.15c-.33-.53-1.29-.85-1.08-1.63l.54-.58-.54-.53.54-.53c-.32-.31-.75-.57-.54-1.1,2.09-1.68,4.93-4,8.3-3.83,2.58-.95,6.05,2.1,8.36-1.1-1.17,0-2.41-1.79-1.13-2.68.81.11,1.66-1.31,2.26,0,.69-.36.53-1.05.53-1.68,1.82-1,3.8,2.1,4.45-.52h1.12c-.16.52.27.78.53,1.1l.59-.58.54.58c1.5-1.47,2.46,1.52,4.44.53a7.64,7.64,0,0,1,2.79,4.93c-.59,0-1.29-.16-1.66.52l2.25,2.21c.69-.37.53-1.05.53-1.68a14.58,14.58,0,0,1,5.58,6.57,10.16,10.16,0,0,0-7.24,4.34c1.77,4.42-5.67,4.32-2.25,8.72l-1.1,1.11a5.29,5.29,0,0,0-1.1-2.74c-2.88,1.84-7.92-1.84-7.22,3.83.75.63.7,1.57,1.66,2.16,1.39.63,1.88-1.1,2.78-1.63v-.52h2.2c1.18,2-2.47,4.35,1.12,4.88,0,.63.17,1.31-.54,1.63a1.52,1.52,0,0,0,1.32,1.09,5.57,5.57,0,0,0,1.29,0h.71a1.55,1.55,0,0,1,1.13.53c.33-.2.62-.36.88-.53" transform="translate(-508.09 -323.81)"/><path id="Trazado_10072" data-name="Trazado 10072" class="cls-1" d="M614.58,372.3a12.17,12.17,0,0,1,1.91-.12,2.91,2.91,0,0,1,1.81.46A1.72,1.72,0,0,1,619,374a1.91,1.91,0,0,1-.55,1.42,2.89,2.89,0,0,1-1.92.59l-.38,0V378h-1.53Zm1.53,2.55.35,0c.6,0,1-.31,1-.8s-.29-.72-.87-.72a3.55,3.55,0,0,0-.46,0Z" transform="translate(-508.09 -323.81)"/><path id="Trazado_10073" data-name="Trazado 10073" class="cls-1" d="M617.08,384.61l-.32,1.33h-1.59l1.67-5.74h2l1.72,5.74h-1.66l-.37-1.33Zm1.28-1.13-.27-1c-.09-.32-.19-.78-.28-1.13h0c-.08.34-.17.82-.25,1.14l-.25,1Z" transform="translate(-508.09 -323.81)"/><path id="Trazado_10074" data-name="Trazado 10074" class="cls-1" d="M615.84,388.4v2.12h1.87V388.4h1.53v5.74h-1.53v-2.27h-1.87v2.27H614.3V388.4Z" transform="translate(-508.09 -323.81)"/><path id="Trazado_10075" data-name="Trazado 10075" class="cls-1" d="M617.88,399.35a2.74,2.74,0,0,1-2.45,3,2.06,2.06,0,0,1-.43,0,2.71,2.71,0,0,1-2.78-2.65c0-.09,0-.19,0-.29a2.81,2.81,0,0,1,2.62-3h.24a2.7,2.7,0,0,1,2.79,2.61c0,.1,0,.2,0,.3m-4,.07c0,1.07.47,1.73,1.22,1.73s1.17-.72,1.17-1.75-.45-1.74-1.19-1.74-1.2.7-1.2,1.76" transform="translate(-508.09 -323.81)"/><path id="Trazado_10076" data-name="Trazado 10076" class="cls-1" d="M520.84,378.1a2.75,2.75,0,0,1-2.45,3,3.05,3.05,0,0,1-.43,0,2.72,2.72,0,0,1-2.77-2.64c0-.1,0-.19,0-.29a2.82,2.82,0,0,1,2.61-3h.24a2.69,2.69,0,0,1,2.8,2.59c0,.1,0,.21,0,.31m-4,.07c0,1.07.48,1.73,1.22,1.73s1.18-.72,1.18-1.75-.45-1.74-1.2-1.74-1.2.7-1.2,1.76" transform="translate(-508.09 -323.81)"/><path id="Trazado_10077" data-name="Trazado 10077" class="cls-1" d="M515.2,384.53a11.92,11.92,0,0,1,1.89-.12,3,3,0,0,1,1.82.45,1.74,1.74,0,0,1,.65,1.39,1.85,1.85,0,0,1-.55,1.42,2.8,2.8,0,0,1-1.91.58h-.38v1.95H515.2Zm1.52,2.55h.35c.6,0,1-.3,1-.8s-.29-.72-.87-.72a2.38,2.38,0,0,0-.46,0Z" transform="translate(-508.09 -323.81)"/><path id="Trazado_10078" data-name="Trazado 10078" class="cls-1" d="M517.67,396.73a3.48,3.48,0,0,0,1.49.36c.53,0,.78-.18.78-.47s-.25-.44-.9-.67c-1-.34-1.61-.87-1.61-1.73,0-1,.85-1.79,2.3-1.79a3.55,3.55,0,0,1,1.57.3L521,394a3,3,0,0,0-1.26-.27c-.47,0-.72.17-.72.43s.31.4,1,.68c1,.37,1.5.93,1.5,1.73,0,1-.78,1.84-2.45,1.84a4.07,4.07,0,0,1-1.69-.36Z" transform="translate(-508.09 -323.81)"/><g id="Grupo_7013" data-name="Grupo 7013"><path id="Trazado_10079" data-name="Trazado 10079" class="cls-1" d="M636.35,329.68h7.86c5.65,0,8.6,3.41,8.6,9s-2.94,9.07-8.6,9.07h-2.83V359.4h-5Zm6.92,13.93c3.13,0,4.5-1.67,4.5-4.91s-1.37-4.85-4.5-4.85h-1.89v9.75Z" transform="translate(-508.09 -323.81)"/><path id="Trazado_10080" data-name="Trazado 10080" class="cls-1" d="M655.48,338.75a13.18,13.18,0,0,1,6.41-1.61c6.29,0,7.74,3.31,7.74,8.81v9.58a27.87,27.87,0,0,0,.28,3.87H665.5a12,12,0,0,1-.27-3h-.08a6.4,6.4,0,0,1-5.66,3.32,6,6,0,0,1-6.06-6c0-.13,0-.27,0-.41,0-6,4.48-7.45,10.65-7.45h1v-.81c0-2.17-1-4.17-3.78-4.17a8.91,8.91,0,0,0-5.53,2.13Zm9.59,9.92h-.43c-4.16,0-6.64.94-6.64,4.13a3.06,3.06,0,0,0,2.74,3.35l.36,0c2.91,0,4-2.34,4-6.26Z" transform="translate(-508.09 -323.81)"/><path id="Trazado_10081" data-name="Trazado 10081" class="cls-1" d="M674.5,341.09a29.07,29.07,0,0,0-.16-3.61h4.56c0,1.1.16,2.25.16,3.36h.08a5.92,5.92,0,0,1,5.39-3.7c4.59,0,6,3.7,6,8.13V359.4h-4.87V346.25c0-3.37-.79-4.77-2.8-4.77-2.54,0-3.45,2.34-3.45,5.15V359.4h-4.87Z" transform="translate(-508.09 -323.81)"/><path id="Trazado_10082" data-name="Trazado 10082" class="cls-1" d="M718.16,352.25h-9.43l-2,7.15h-5l9.19-29.72h5.51l8.84,29.72h-5.19Zm-1.06-4.17-3.46-13.88h-.08l-3.77,13.88Z" transform="translate(-508.09 -323.81)"/><path id="Trazado_10083" data-name="Trazado 10083" class="cls-1" d="M728,341.05c0-1.57-.07-2.77-.15-3.57h4.87c0,1.14.16,2.29.16,3.44h.08a5.68,5.68,0,0,1,5.1-3.78,5.25,5.25,0,0,1,5.11,3.49,6.21,6.21,0,0,1,5.42-3.49c4.4,0,5.82,3.4,5.82,8.72V359.4h-4.87V345.56c0-2.72-.79-4.08-2.6-4.08-2.15,0-3.3,2.21-3.3,4.64V359.4h-4.87V345.56c0-2.72-.78-4.08-2.59-4.08-2.16,0-3.31,2.21-3.31,4.64V359.4H728Z" transform="translate(-508.09 -323.81)"/><path id="Trazado_10084" data-name="Trazado 10084" class="cls-1" d="M773.88,358.34a14.08,14.08,0,0,1-6,1.4c-6.52,0-9.35-5.06-9.35-11,0-6.55,3.18-11.62,8.33-11.62,4.36,0,8.09,2.77,8.09,11.7v1H763.19c0,3.74,1.37,6,5.15,6a7.65,7.65,0,0,0,5.3-1.7Zm-3.69-11.8c0-3.87-1.18-5.83-3.38-5.83-2.55,0-3.62,2.94-3.62,5.83Z" transform="translate(-508.09 -323.81)"/><path id="Trazado_10085" data-name="Trazado 10085" class="cls-1" d="M779.23,341.09a33.54,33.54,0,0,0-.16-3.61h4.41c0,1.31.16,2.68.16,4h.08a5.74,5.74,0,0,1,5.14-4.34,4.61,4.61,0,0,1,.83.12v4.94a4.6,4.6,0,0,0-1.37-.21c-2,0-4.21,1.32-4.21,5.4v12h-4.87Z" transform="translate(-508.09 -323.81)"/><path id="Trazado_10086" data-name="Trazado 10086" class="cls-1" d="M793.69,328.15h5v5.2h-5Zm.08,9.33h4.87V359.4h-4.88Z" transform="translate(-508.09 -323.81)"/><path id="Trazado_10087" data-name="Trazado 10087" class="cls-1" d="M817.61,358.85a12.88,12.88,0,0,1-4.79.89c-6.68,0-9.51-5.06-9.51-11.28s3-11.32,9.78-11.32a12.14,12.14,0,0,1,4.25.89l-.28,4.17a7.26,7.26,0,0,0-3.42-1.06c-3.69,0-5.3,2.68-5.3,7.36,0,4.09,1.81,7.24,5.54,7.24a7.35,7.35,0,0,0,3.46-1.07Z" transform="translate(-508.09 -323.81)"/><path id="Trazado_10088" data-name="Trazado 10088" class="cls-1" d="M822,338.75a13.14,13.14,0,0,1,6.4-1.61c6.29,0,7.74,3.31,7.74,8.81v9.58a29.5,29.5,0,0,0,.28,3.87H832a12,12,0,0,1-.28-3h-.07a6.42,6.42,0,0,1-5.66,3.32,6,6,0,0,1-6.07-6c0-.13,0-.27,0-.41,0-6,4.48-7.45,10.64-7.45h1v-.81c0-2.17-1-4.17-3.77-4.17a8.94,8.94,0,0,0-5.54,2.13Zm9.59,9.92h-.43c-4.17,0-6.65.94-6.65,4.13a3.07,3.07,0,0,0,2.74,3.35l.37,0c2.91,0,4-2.34,4-6.26Z" transform="translate(-508.09 -323.81)"/><path id="Trazado_10089" data-name="Trazado 10089" class="cls-1" d="M841,341.09a33.54,33.54,0,0,0-.16-3.61h4.56c0,1.1.15,2.25.15,3.36h.08a5.92,5.92,0,0,1,5.39-3.7c4.6,0,6,3.7,6,8.13V359.4h-4.87V346.25c0-3.37-.79-4.77-2.79-4.77-2.55,0-3.46,2.34-3.46,5.15V359.4H841Z" transform="translate(-508.09 -323.81)"/></g><g id="Grupo_7014" data-name="Grupo 7014"><path id="Trazado_10090" data-name="Trazado 10090" class="cls-1" d="M636.58,367h5v12.09h8.14V367h5v29.72h-5V383.63h-8.14v13.12h-5Z" transform="translate(-508.09 -323.81)"/><path id="Trazado_10091" data-name="Trazado 10091" class="cls-1" d="M675.09,395.68a14.24,14.24,0,0,1-6.05,1.41c-6.52,0-9.35-5.07-9.35-11,0-6.56,3.18-11.62,8.33-11.62,4.36,0,8.09,2.76,8.09,11.7v1H664.4c0,3.75,1.37,6,5.15,6a7.61,7.61,0,0,0,5.3-1.71Zm-3.69-11.79c0-3.88-1.18-5.83-3.38-5.83-2.55,0-3.62,2.94-3.62,5.83Z" transform="translate(-508.09 -323.81)"/><path id="Trazado_10092" data-name="Trazado 10092" class="cls-1" d="M681.22,376.1a13.3,13.3,0,0,1,6.41-1.62c6.29,0,7.74,3.32,7.74,8.82v9.57a29.64,29.64,0,0,0,.27,3.88h-4.4a11.49,11.49,0,0,1-.27-3h-.08a6.44,6.44,0,0,1-5.66,3.32,6,6,0,0,1-6.06-6c0-.14,0-.27,0-.41,0-6,4.48-7.45,10.65-7.45h1v-.81c0-2.17-1-4.17-3.78-4.17a8.85,8.85,0,0,0-5.54,2.13Zm9.59,9.92h-.43c-4.16,0-6.64.93-6.64,4.13a3.06,3.06,0,0,0,2.74,3.35h.36c2.91,0,4-2.34,4-6.26Z" transform="translate(-508.09 -323.81)"/><path id="Trazado_10093" data-name="Trazado 10093" class="cls-1" d="M700.75,364.81h4.88v31.94h-4.88Z" transform="translate(-508.09 -323.81)"/><path id="Trazado_10094" data-name="Trazado 10094" class="cls-1" d="M712.66,370.31l4.87-1.62v6.13h4v3.87h-4v11.37c0,2.34.78,3,2.2,3a3.62,3.62,0,0,0,1.85-.47v3.75a7.22,7.22,0,0,1-3.26.72c-3.62,0-5.66-1.79-5.66-6.39v-12h-3.22v-3.87h3.22Z" transform="translate(-508.09 -323.81)"/><path id="Trazado_10095" data-name="Trazado 10095" class="cls-1" d="M725.08,364.81H730v12.82h.12a5.46,5.46,0,0,1,5-3.15c4.59,0,6,3.7,6,8.13v14.14H736.2V383.59c0-3.36-.78-4.77-2.79-4.77-2.54,0-3.45,2.34-3.45,5.16v12.77h-4.87Z" transform="translate(-508.09 -323.81)"/></g><g id="Grupo_7015" data-name="Grupo 7015"><path id="Trazado_10096" data-name="Trazado 10096" class="cls-1" d="M646.41,404c5.7,0,10.92,4.6,10.92,15.29s-5.22,15.29-10.92,15.29-10.93-4.6-10.93-15.29S640.71,404,646.41,404Zm0,26.4c3.18,0,5.74-2.94,5.74-11.11s-2.55-11.12-5.74-11.12-5.74,2.94-5.74,11.12,2.55,11.11,5.74,11.11Z" transform="translate(-508.09 -323.81)"/><path id="Trazado_10097" data-name="Trazado 10097" class="cls-1" d="M661.85,415.78a31.14,31.14,0,0,0-.15-3.61h4.4c0,1.31.15,2.68.15,4h.08a5.76,5.76,0,0,1,5.15-4.34,4.75,4.75,0,0,1,.83.12v4.94a4.62,4.62,0,0,0-1.38-.21c-2,0-4.2,1.32-4.2,5.4v12h-4.87Z" transform="translate(-508.09 -323.81)"/><path id="Trazado_10098" data-name="Trazado 10098" class="cls-1" d="M676.16,437.5a12.16,12.16,0,0,0,6,1.87c4.6,0,5.34-3.45,5.34-6.89v-2.09h-.07a5.56,5.56,0,0,1-5.35,3.7c-2.83,0-7.07-2-7.07-10.9,0-6,2-11.37,7.31-11.37a5.79,5.79,0,0,1,5.34,3.74h.16c0-1.14.12-2.25.16-3.4h4.4c-.08,1.15-.16,2.3-.16,3.45v16.18c0,6.86-1.92,11.75-9.35,11.75a19.25,19.25,0,0,1-7-1.36Zm7-7.28c3.07,0,4.28-2.39,4.28-7.37,0-4.6-1.61-7.07-3.92-7-2.55,0-3.53,2.6-3.53,7.07,0,5.15,1.52,7.32,3.17,7.32Z" transform="translate(-508.09 -323.81)"/><path id="Trazado_10099" data-name="Trazado 10099" class="cls-1" d="M698,413.45a13.3,13.3,0,0,1,6.41-1.62c6.29,0,7.74,3.32,7.74,8.82v9.58a29.61,29.61,0,0,0,.27,3.87H708a11.49,11.49,0,0,1-.27-3h-.08a6.44,6.44,0,0,1-5.66,3.32,6,6,0,0,1-6.06-6c0-.14,0-.27,0-.41,0-6,4.48-7.45,10.65-7.45h1v-.81c0-2.17-1-4.17-3.78-4.17a9,9,0,0,0-5.54,2.13Zm9.59,9.92h-.43c-4.17,0-6.64.94-6.64,4.13a3.05,3.05,0,0,0,2.73,3.35,2.29,2.29,0,0,0,.37,0c2.91,0,4-2.34,4-6.26Z" transform="translate(-508.09 -323.81)"/><path id="Trazado_10100" data-name="Trazado 10100" class="cls-1" d="M717.06,415.78a31.15,31.15,0,0,0-.16-3.61h4.56c0,1.1.16,2.25.16,3.36h.08a5.92,5.92,0,0,1,5.38-3.7c4.6,0,6,3.7,6,8.13v14.13h-4.88V420.94c0-3.37-.78-4.77-2.79-4.77-2.55,0-3.45,2.34-3.45,5.15v12.77h-4.88Z" transform="translate(-508.09 -323.81)"/><path id="Trazado_10101" data-name="Trazado 10101" class="cls-1" d="M738.21,402.84h5V408h-5Zm.07,9.33h4.88v21.92h-4.88Z" transform="translate(-508.09 -323.81)"/><path id="Trazado_10102" data-name="Trazado 10102" class="cls-1" d="M747.28,429.54l8.64-13.37h-8.36v-4H760.8v4.51l-8.49,13.41h8.76v4H747.28Z" transform="translate(-508.09 -323.81)"/><path id="Trazado_10103" data-name="Trazado 10103" class="cls-1" d="M765.71,413.45a13.3,13.3,0,0,1,6.41-1.62c6.29,0,7.74,3.32,7.74,8.82v9.58a29.61,29.61,0,0,0,.27,3.87h-4.4a11.49,11.49,0,0,1-.27-3h-.08a6.44,6.44,0,0,1-5.66,3.32,6,6,0,0,1-6.06-6c0-.14,0-.27,0-.41,0-6,4.48-7.45,10.65-7.45h1v-.81c0-2.17-1-4.17-3.78-4.17a9,9,0,0,0-5.54,2.13Zm9.59,9.92h-.43c-4.16,0-6.64.94-6.64,4.13a3.06,3.06,0,0,0,2.74,3.35,2.17,2.17,0,0,0,.36,0c2.91,0,4-2.34,4-6.26Z" transform="translate(-508.09 -323.81)"/><path id="Trazado_10104" data-name="Trazado 10104" class="cls-1" d="M786.54,407.65l4.87-1.61v6.13h4.05V416h-4.05v11.37c0,2.34.78,3,2.2,3a3.64,3.64,0,0,0,1.85-.47v3.74a7.13,7.13,0,0,1-3.26.73c-3.62,0-5.66-1.79-5.66-6.39V416h-3.22v-3.87h3.22Z" transform="translate(-508.09 -323.81)"/><path id="Trazado_10105" data-name="Trazado 10105" class="cls-1" d="M799.35,402.84h5V408h-5Zm.08,9.33h4.87v21.92h-4.87Z" transform="translate(-508.09 -323.81)"/><path id="Trazado_10106" data-name="Trazado 10106" class="cls-1" d="M817.89,411.83c4.12,0,8.89,2.33,8.89,11.28,0,9.19-4.76,11.32-8.89,11.32S809,432.3,809,423.11C809,414.16,813.77,411.83,817.89,411.83Zm0,18.86c3.14,0,3.85-3.93,3.85-7.58s-.7-7.54-3.85-7.54-3.89,3.88-3.89,7.54S814.75,430.69,817.89,430.69Z" transform="translate(-508.09 -323.81)"/><path id="Trazado_10107" data-name="Trazado 10107" class="cls-1" d="M831,415.78a31.15,31.15,0,0,0-.16-3.61h4.56c0,1.1.16,2.25.16,3.36h.08a5.92,5.92,0,0,1,5.38-3.7c4.6,0,6,3.7,6,8.13v14.13h-4.87V420.94c0-3.37-.78-4.77-2.79-4.77-2.55,0-3.46,2.34-3.46,5.15v12.77H831Z" transform="translate(-508.09 -323.81)"/></g></g></svg>