<svg id="Capa_1" data-name="Capa 1" xmlns="http://www.w3.org/2000/svg" viewBox="0 0 185 191.61"><defs><style>.cls-1{fill:#09c;}.cls-2{fill:#fff;}.cls-2,.cls-3{fill-rule:evenodd;}.cls-3{fill:#fbbd06;}</style></defs><rect id="Rectángulo_2944-2" data-name="Rectángulo 2944-2" class="cls-1" width="185" height="191.61" rx="36.34"/><g id="Grupo_7303" data-name="Grupo 7303"><path id="Trazado_3763" data-name="Trazado 3763" class="cls-2" d="M670,414.85a1.93,1.93,0,0,1-2.64-.7h0a1.63,1.63,0,0,1-.09-.19,19.26,19.26,0,0,1,7-26.1l.18-.13a1.94,1.94,0,1,1,1.94,3.35h0a15.42,15.42,0,0,0-5.69,21.06l0,.06h0a1.93,1.93,0,0,1-.71,2.64h0ZM684.11,389a1.93,1.93,0,1,1,1.94-1.93h0A1.94,1.94,0,0,1,684.11,389Zm32.5,48a7.74,7.74,0,0,1-10.94,0h0l-5.13-5.13c-4.6-4.6-3-7.93,0-10.94h0l0,0a23.2,23.2,0,1,0-16.41,6.8,1.94,1.94,0,1,1,0,3.87,27.09,27.09,0,1,1,19.16-46.21,23.87,23.87,0,0,1,1.79,2c.25.31.48.66.72,1s.59.76.85,1.16.49.78.72,1.18.45.72.66,1.09.4.82.6,1.23.37.78.54,1.17.3.81.44,1.22.33.85.45,1.28.22.82.33,1.24.24.88.33,1.32.16.95.22,1.43.13.79.17,1.18a26.42,26.42,0,0,1,.14,2.68h0c0,.77,0,1.55-.11,2.31,0,.24,0,.48-.08.72-.06.54-.14,1.07-.23,1.6,0,.28-.09.56-.15.83-.11.55-.25,1.09-.4,1.64s-.33,1.08-.5,1.61l-.27.77c-.19.49-.38,1-.59,1.45l-.12.25a28.36,28.36,0,0,1-1.65,3.07h0a26.69,26.69,0,0,1-3.85,4.88,3.45,3.45,0,0,0-.59,4.84,4.1,4.1,0,0,0,.5.52.48.48,0,0,1,.09.11l5.15,5.14a3.87,3.87,0,0,0,5.47-5.47l-3.66-3.66a.75.75,0,0,0,.07-.12,1.91,1.91,0,0,1-.59-3.12,1.93,1.93,0,0,1,2.74,0s0,0,0,0h0l4.15,4.15a7.74,7.74,0,0,1,0,10.94h0Z" transform="translate(-590.04 -310.39)"/><path id="Trazado_3764" data-name="Trazado 3764" class="cls-3" d="M691.82,425.75a2.9,2.9,0,1,1-2.9,2.9h0A2.91,2.91,0,0,1,691.82,425.75Z" transform="translate(-590.04 -310.39)"/></g></svg>