<svg id="Capa_1" data-name="Capa 1" xmlns="http://www.w3.org/2000/svg" viewBox="0 0 40.33 40.34"><defs><style>.cls-1{fill:#f07e00;fill-rule:evenodd;}</style></defs><path id="Trazado_10168" data-name="Trazado 10168" class="cls-1" d="M347.85,376.33a1.26,1.26,0,1,1-1.26,1.26,1.25,1.25,0,0,1,1.26-1.26Zm21.43,15.13h-5a2.52,2.52,0,0,0-2.52,2.52h0v5a5,5,0,0,1-5,5h-5a5,5,0,0,1-5.05-5v-5h0a2.51,2.51,0,0,0-2.52-2.52h-5a5.05,5.05,0,0,1-5-5h0v-5a5.05,5.05,0,0,1,5-5h3.78a1.26,1.26,0,1,1,.13,2.52h-3.28a3.15,3.15,0,0,0-3.15,3.15v3.78a3.15,3.15,0,0,0,3.15,3.15h5a4.42,4.42,0,0,1,4.41,4.41h0v5.05a3.15,3.15,0,0,0,3.15,3.15H356a3.15,3.15,0,0,0,3.15-3.15v-5.05a4.42,4.42,0,0,1,4.41-4.41h5a3.15,3.15,0,0,0,3.16-3.15V382a3.15,3.15,0,0,0-3.16-3.15h-5a4.41,4.41,0,0,1-4.41-4.41h0v-5.05a3.15,3.15,0,0,0-3.15-3.15h-3.78a3.15,3.15,0,0,0-3.15,3.15v3.16a1.26,1.26,0,0,1-1.2,1.32,1.25,1.25,0,0,1-1.32-1.19v-3.92a5,5,0,0,1,5-5h5a5,5,0,0,1,5,5v5h0a2.52,2.52,0,0,0,2.52,2.53h5a5,5,0,0,1,5,5v5a5,5,0,0,1-5,5Z" transform="translate(-333.98 -363.72)"/></svg>