<svg id="Capa_1" data-name="Capa 1" xmlns="http://www.w3.org/2000/svg" viewBox="0 0 11.38 11.38"><defs><style>.cls-1{fill:#f07e00;fill-rule:evenodd;}</style></defs><path id="Trazado_10168" data-name="Trazado 10168" class="cls-1" d="M592.8,380.45a.36.36,0,1,1,0,.71.36.36,0,0,1,0-.71Zm6.05,4.27h-1.42a.71.71,0,0,0-.72.71h0v1.42a1.42,1.42,0,0,1-1.42,1.42h-1.42a1.43,1.43,0,0,1-1.42-1.42v-1.42h0a.71.71,0,0,0-.71-.71h-1.42a1.43,1.43,0,0,1-1.43-1.42h0v-1.42a1.43,1.43,0,0,1,1.42-1.42h1.07a.36.36,0,0,1,0,.71h-.93a.89.89,0,0,0-.89.89v1.07a.89.89,0,0,0,.89.89h1.42a1.24,1.24,0,0,1,1.25,1.24h0v1.42a.89.89,0,0,0,.89.89h1.06a.89.89,0,0,0,.89-.89v-1.42a1.24,1.24,0,0,1,1.25-1.24h1.42a.89.89,0,0,0,.89-.89v-1.07a.89.89,0,0,0-.89-.89h-1.42a1.25,1.25,0,0,1-1.25-1.24h0v-1.43a.89.89,0,0,0-.89-.89h-1.06a.89.89,0,0,0-.89.89v.89a.36.36,0,0,1-.34.38.35.35,0,0,1-.37-.34v-1.1a1.42,1.42,0,0,1,1.42-1.43h1.42a1.42,1.42,0,0,1,1.42,1.43v1.42h0a.71.71,0,0,0,.71.71h1.43a1.43,1.43,0,0,1,1.42,1.42v1.42a1.43,1.43,0,0,1-1.42,1.43Z" transform="translate(-588.89 -376.89)"/></svg>