<svg id="Capa_1" data-name="Capa 1" xmlns="http://www.w3.org/2000/svg" viewBox="0 0 100.74 99.04"><defs><style>.cls-1{fill:#fbbd06;}.cls-1,.cls-2{fill-rule:evenodd;}.cls-2{fill:#34353c;}</style></defs><g id="Grupo_7161" data-name="Grupo 7161"><g id="Grupo_3559" data-name="Grupo 3559"><path id="Trazado_9809" data-name="Trazado 9809" class="cls-1" d="M688.05,342.26a5.27,5.27,0,1,1-5.26,5.27h0A5.27,5.27,0,0,1,688.05,342.26Z" transform="translate(-682.79 -328.14)"/></g></g><path id="Trazado_10360" data-name="Trazado 10360" class="cls-2" d="M771.15,427.16h-9.29a3.09,3.09,0,0,1,0-6.18h9.29a6.2,6.2,0,0,0,6.19-6.19V405.5a3.09,3.09,0,0,1,6.18,0v9.29A12.37,12.37,0,0,1,771.15,427.16Zm12.25-41.62c0,.3-.09.62-.16.92a1.78,1.78,0,0,1-.1.38c-.07.29-.15.59-.25.88a1.34,1.34,0,0,1-.12.33c-.11.29-.22.59-.35.87,0,.1-.09.18-.13.27a9.42,9.42,0,0,1-.47.89l-.11.2c-.2.31-.4.61-.61.9l-.09.12c-.24.32-.49.61-.76.91l0,.06q-.44.45-.9.87a12.36,12.36,0,0,1-8.17,3.09H765a12.38,12.38,0,0,0-12.38,12.38v6.19a12.3,12.3,0,0,1-3.1,8.17c-.28.31-.57.62-.87.9l-.06.05a10.84,10.84,0,0,1-.9.75l-.12.09a9.62,9.62,0,0,1-.91.61l-.19.11a7.69,7.69,0,0,1-.9.47l-.26.13c-.28.13-.59.24-.88.36l-.33.12-.88.24a2.49,2.49,0,0,0-.37.09c-.31.07-.62.12-.93.16l-.37.06a11.67,11.67,0,0,1-1.32.07H730.9a3.1,3.1,0,0,1,0-6.19h9.28a6.19,6.19,0,0,0,6.19-6.19v-6.19a18.57,18.57,0,0,1,18.56-18.56h6.19a6.19,6.19,0,0,0,6.19-6.19v-9.28a3.1,3.1,0,0,1,6.19,0v9.28c0,.45,0,.89-.07,1.33a2.38,2.38,0,0,1-.06.37Zm0-30.94c0,.3-.09.62-.16.92a1.78,1.78,0,0,1-.1.38,8.65,8.65,0,0,1-.25.87l-.12.34c-.11.29-.22.59-.35.87,0,.1-.09.18-.13.27a8.34,8.34,0,0,1-.47.89l-.11.2c-.2.31-.4.61-.61.9l-.09.12c-.24.32-.49.61-.76.91l0,.06q-.44.45-.9.87a12.36,12.36,0,0,1-8.17,3.09H765a12.38,12.38,0,0,0-12.38,12.38v3.1a15.47,15.47,0,0,1-15.47,15.46H734a12.38,12.38,0,0,0-12.38,12.38v6.19a12.34,12.34,0,0,1-3.09,8.17c-.28.31-.58.62-.88.9l0,.05c-.29.26-.59.51-.91.75l-.12.09a9.62,9.62,0,0,1-.91.61l-.19.11a9.59,9.59,0,0,1-.9.47l-.26.13c-.28.13-.59.24-.88.35l-.32.12-.89.25a2.49,2.49,0,0,0-.37.09c-.31.07-.62.11-.93.16l-.36.06c-.44,0-.89.07-1.33.07H696.86a12.37,12.37,0,0,1-12.37-12.38v-9.28a3.09,3.09,0,1,1,6.18,0v9.33a6.19,6.19,0,0,0,6.19,6.19h12.38a6.19,6.19,0,0,0,6.19-6.19v-6.19A18.58,18.58,0,0,1,734,390.05h3.1a9.28,9.28,0,0,0,9.28-9.28v-3.1a18.58,18.58,0,0,1,18.56-18.57h6.19a6.19,6.19,0,0,0,6.19-6.18V340.54a6.19,6.19,0,0,0-6.19-6.19h-9.29a3.1,3.1,0,1,1-.05-6.19h9.34a12.38,12.38,0,0,1,12.38,12.38v12.38a11.69,11.69,0,0,1-.08,1.32c0,.13,0,.25,0,.37Zm-46.29,10.69H734a12.37,12.37,0,0,0-12.38,12.37v3.1a15.47,15.47,0,0,1-15.48,15.46h-9.28a12.34,12.34,0,0,1-8.17-3.09c-.31-.28-.62-.58-.9-.87l0-.06c-.26-.29-.51-.59-.75-.91l-.09-.12c-.21-.29-.41-.59-.61-.9l-.11-.2a8.34,8.34,0,0,1-.47-.89c0-.09-.09-.17-.13-.27-.13-.28-.24-.58-.35-.87a.93.93,0,0,0-.12-.33c-.09-.29-.17-.59-.24-.88a2.66,2.66,0,0,0-.1-.38c-.07-.3-.11-.62-.16-.92a.8.8,0,0,0-.06-.37c0-.44-.07-.88-.07-1.32v-12.4a12.38,12.38,0,0,1,12.38-12.38h9.28a9.28,9.28,0,0,0,9.29-9.28V340.5a6.19,6.19,0,0,0-6.19-6.19H696.88a6.17,6.17,0,0,0-5.82,4.17h0a3.09,3.09,0,0,1-6-1.06,2.85,2.85,0,0,1,.17-1h0v0c.06-.15.12-.29.19-.43a12.35,12.35,0,0,1,11.47-7.84h12.38a11.73,11.73,0,0,1,1.33.08l.37,0c.3,0,.61.09.92.16l.37.1c.3.07.6.15.89.24l.33.12c.29.11.59.22.87.35.09,0,.18.09.26.13a9.59,9.59,0,0,1,.9.47l.19.11c.32.2.62.4.91.61l.12.09a10.77,10.77,0,0,1,.91.76l.05,0a12.35,12.35,0,0,1,4,9.07v9.29a15.47,15.47,0,0,1-15.47,15.47h-9.29a6.19,6.19,0,0,0-6.19,6.19v12.38a6.19,6.19,0,0,0,6.19,6.19h9.29a9.28,9.28,0,0,0,9.28-9.29v-3.09a18.56,18.56,0,0,1,18.57-18.57h3.1a9.29,9.29,0,0,0,9.28-9.28v-9.29a6.19,6.19,0,0,0-6.19-6.19H731a3.1,3.1,0,1,1-.06-6.19h9.34a11.69,11.69,0,0,1,1.32.08l.37,0a9.3,9.3,0,0,1,.92.16,1.78,1.78,0,0,1,.38.1c.3.07.59.15.88.24l.33.12c.29.11.59.22.88.35l.26.13a9.59,9.59,0,0,1,.9.47l.19.12c.31.19.62.39.91.61l.12.08a10.65,10.65,0,0,1,.9.76l.06,0q.45.44.87.9a12.32,12.32,0,0,1,3.1,8.17v9.29a15.47,15.47,0,0,1-15.47,15.47Z" transform="translate(-682.79 -328.14)"/></svg>