<svg id="Capa_1" data-name="Capa 1" xmlns="http://www.w3.org/2000/svg" viewBox="0 0 50.48 49.63"><defs><style>.cls-1{fill:#f07e00;fill-rule:evenodd;}</style></defs><g id="Grupo_7161" data-name="Grupo 7161"><g id="Grupo_3559" data-name="Grupo 3559"><path id="Trazado_9809" data-name="Trazado 9809" class="cls-1" d="M626.13,366.33a2.64,2.64,0,1,1-2.64,2.64h0A2.64,2.64,0,0,1,626.13,366.33Z" transform="translate(-623.49 -359.26)"/></g></g><path id="Trazado_10360" data-name="Trazado 10360" class="cls-1" d="M667.77,408.88h-4.65a1.56,1.56,0,0,1,0-3.11h4.65a3.1,3.1,0,0,0,3.1-3.1V398a1.55,1.55,0,0,1,3.1,0v4.65A6.21,6.21,0,0,1,667.77,408.88ZM673.91,388c0,.15,0,.31-.08.46a.77.77,0,0,1-.05.19c0,.15-.08.29-.13.44a.52.52,0,0,1-.06.16c-.05.15-.11.3-.17.44s0,.09-.07.13a4.73,4.73,0,0,1-.23.45l-.06.1c-.1.16-.2.31-.31.46l0,.06c-.12.15-.24.3-.38.45l0,0a6.25,6.25,0,0,1-.45.44,6.19,6.19,0,0,1-4.1,1.55h-3.1a6.2,6.2,0,0,0-6.2,6.2v3.1a6.16,6.16,0,0,1-1.55,4.09,6.25,6.25,0,0,1-.44.45l0,0a5.63,5.63,0,0,1-.45.38l-.06,0c-.14.11-.3.21-.45.31l-.1,0a4.92,4.92,0,0,1-.45.24l-.13.06c-.14.07-.3.12-.44.18l-.17.06c-.14,0-.29.09-.44.12a1.8,1.8,0,0,0-.19.05,3.69,3.69,0,0,1-.46.08l-.18,0c-.22,0-.45,0-.67,0H647.6a1.55,1.55,0,0,1,0-3.1h4.65a3.1,3.1,0,0,0,3.1-3.1v-3.1a9.31,9.31,0,0,1,9.3-9.3h3.11a3.1,3.1,0,0,0,3.1-3.1v-4.65a1.55,1.55,0,0,1,3.1,0v4.65a4.87,4.87,0,0,1,0,.66,1.25,1.25,0,0,1,0,.19Zm0-15.51c0,.16,0,.31-.08.47a.61.61,0,0,1-.05.18c0,.15-.08.3-.13.44l-.06.17c-.05.15-.11.3-.17.44s0,.09-.07.13a4.73,4.73,0,0,1-.23.45l-.06.1-.31.45,0,.06a5.45,5.45,0,0,1-.38.46l0,0a4.67,4.67,0,0,1-.45.44,6.19,6.19,0,0,1-4.1,1.55h-3.1a6.21,6.21,0,0,0-6.2,6.21v1.55a7.76,7.76,0,0,1-7.75,7.75h-1.55a6.19,6.19,0,0,0-6.2,6.2v3.1a6.16,6.16,0,0,1-1.55,4.09,6.25,6.25,0,0,1-.44.45l0,0c-.14.13-.3.26-.45.38l-.06,0L640,408l-.09,0a4.92,4.92,0,0,1-.45.24l-.14.06c-.14.07-.29.12-.43.18l-.17.06-.44.12a1.05,1.05,0,0,0-.19.05,3.69,3.69,0,0,1-.46.08l-.19,0-.66,0h-6.2a6.2,6.2,0,0,1-6.21-6.2V398a1.56,1.56,0,1,1,3.11,0v4.68a3.1,3.1,0,0,0,3.1,3.1h6.2a3.1,3.1,0,0,0,3.1-3.1v-3.1a9.3,9.3,0,0,1,9.31-9.3h1.55a4.65,4.65,0,0,0,4.65-4.65v-1.55a9.3,9.3,0,0,1,9.3-9.31h3.1a3.1,3.1,0,0,0,3.1-3.1v-6.2a3.1,3.1,0,0,0-3.1-3.1h-4.65a1.56,1.56,0,1,1,0-3.11h4.68a6.2,6.2,0,0,1,6.2,6.21v6.2q0,.33,0,.66a1.08,1.08,0,0,1,0,.19Zm-23.19,5.36h-1.56a6.21,6.21,0,0,0-6.2,6.2v1.55a7.75,7.75,0,0,1-7.75,7.75h-4.65a6.19,6.19,0,0,1-4.1-1.55c-.15-.14-.31-.29-.45-.44l0,0a5.45,5.45,0,0,1-.38-.46l0-.06c-.11-.14-.21-.3-.31-.45l-.06-.1a4.73,4.73,0,0,1-.23-.45s-.05-.08-.07-.13-.12-.3-.17-.44a.58.58,0,0,0-.06-.17c0-.14-.09-.29-.13-.44a1.62,1.62,0,0,0,0-.19,3.69,3.69,0,0,1-.08-.46.38.38,0,0,0,0-.18,4.92,4.92,0,0,1,0-.67V381a6.21,6.21,0,0,1,6.21-6.2h4.65a4.65,4.65,0,0,0,4.65-4.65v-4.65a3.1,3.1,0,0,0-3.1-3.1h-6.2a3.09,3.09,0,0,0-2.92,2.09h0a1.55,1.55,0,0,1-3-.54,1.61,1.61,0,0,1,.08-.48h0v0a2,2,0,0,1,.1-.21,6.18,6.18,0,0,1,5.75-3.93h6.2q.33,0,.66,0l.19,0,.46.08.19.05.44.12.17.06c.14.06.29.11.43.18s.09,0,.14.06a4.92,4.92,0,0,1,.45.24l.09.05.46.31.06,0c.15.12.31.25.45.38l0,0a6.25,6.25,0,0,1,.44.45,6.16,6.16,0,0,1,1.55,4.09v4.65a7.76,7.76,0,0,1-7.76,7.76h-4.65a3.1,3.1,0,0,0-3.1,3.1v6.2a3.1,3.1,0,0,0,3.1,3.1h4.65a4.66,4.66,0,0,0,4.66-4.65v-1.55a9.3,9.3,0,0,1,9.3-9.31h1.55a4.65,4.65,0,0,0,4.65-4.65v-4.65a3.1,3.1,0,0,0-3.1-3.1h-4.65a1.55,1.55,0,0,1,0-3.1h4.68c.22,0,.45,0,.67,0l.18,0,.46.08a1.05,1.05,0,0,1,.19.05l.44.12.17.06c.14.06.3.11.44.18l.13.06a4.92,4.92,0,0,1,.45.24l.1.06.45.3.06,0c.16.13.31.25.45.38l0,0a6.25,6.25,0,0,1,.44.45,6.16,6.16,0,0,1,1.55,4.09v4.65a7.77,7.77,0,0,1-7.75,7.76Z" transform="translate(-623.49 -359.26)"/></svg>