<svg id="Capa_1" data-name="Capa 1" xmlns="http://www.w3.org/2000/svg" viewBox="0 0 53.05 46.42"><defs><style>.cls-1{fill:#f07e00;fill-rule:evenodd;}</style></defs><g id="Grupo_6706" data-name="Grupo 6706"><g id="Grupo_3559" data-name="Grupo 3559"><path id="Trazado_9809" data-name="Trazado 9809" class="cls-1" d="M625,375.82a2.41,2.41,0,1,1-2.41,2.41h0A2.41,2.41,0,0,1,625,375.82Z" transform="translate(-622.21 -360.86)"/></g><path id="Trazado_9808" data-name="Trazado 9808" class="cls-1" d="M667,377.44h-6.63a1.66,1.66,0,1,1-.16-3.32H667a1.66,1.66,0,0,1,.16,3.32Zm0,6.63h-6.63a1.66,1.66,0,1,1-.16-3.31H667a1.66,1.66,0,0,1,0,3.31ZM650.39,394H667a1.66,1.66,0,0,1,0,3.31H650.41a1.66,1.66,0,1,1-.16-3.31h.14Zm0-6.63H667a1.66,1.66,0,0,1,0,3.31H650.41a1.66,1.66,0,1,1-.16-3.31h.14Zm-14.92-12.46a4.14,4.14,0,0,1,4.14-4.14h11.61a4.14,4.14,0,0,1,4.15,4.14v7.46a1.66,1.66,0,0,1-3.32,0v-6.63a1.66,1.66,0,0,0-1.66-1.66h-9.94a1.66,1.66,0,0,0-1.66,1.66h0v3.32a1.66,1.66,0,0,0,1.66,1.66h6.63a1.66,1.66,0,0,1,0,3.31h-7.46a4.15,4.15,0,0,1-4.15-4.15v-5ZM637.13,394h6.63a1.66,1.66,0,0,1,.16,3.32h-6.79A1.66,1.66,0,1,1,637,394Zm0-6.63h6.63a1.66,1.66,0,1,1,.16,3.31h-6.79a1.66,1.66,0,1,1-.16-3.31Zm31.5,19.89H632.15a9.94,9.94,0,0,1-9.94-9.93v-11.6a1.66,1.66,0,0,1,3.31,0v11.6a6.63,6.63,0,0,0,6.63,6.64H667.8a4.14,4.14,0,0,0,4.14-4.15v-31.5a4.14,4.14,0,0,0-4.14-4.14H636.3a4.14,4.14,0,0,0-4.15,4.14v27.36a1.66,1.66,0,0,1-3.31,0v-28.2a6.63,6.63,0,0,1,6.63-6.62h33.16a6.63,6.63,0,0,1,6.63,6.63h0v33.16a6.63,6.63,0,0,1-6.63,6.63h0Z" transform="translate(-622.21 -360.86)"/></g></svg>