<svg id="Capa_1" data-name="Capa 1" xmlns="http://www.w3.org/2000/svg" viewBox="0 0 73.87 64.64"><defs><style>.cls-1{fill:#fbbd06;}.cls-1,.cls-2{fill-rule:evenodd;}.cls-2{fill:#34353c;}</style></defs><g id="Grupo_6706" data-name="Grupo 6706"><g id="Grupo_3559" data-name="Grupo 3559"><path id="Trazado_9809" data-name="Trazado 9809" class="cls-1" d="M649.51,372.17a3.36,3.36,0,1,1-3.35,3.36h0A3.36,3.36,0,0,1,649.51,372.17Z" transform="translate(-645.6 -351.34)"/></g><path id="Trazado_9808" data-name="Trazado 9808" class="cls-2" d="M707.93,374.43h-9.24a2.31,2.31,0,0,1-.21-4.62h9.45a2.31,2.31,0,0,1,.22,4.62Zm0,9.23h-9.24a2.31,2.31,0,1,1-.21-4.61h9.45a2.31,2.31,0,0,1,0,4.61Zm-23.09,13.86h23.09a2.31,2.31,0,0,1,0,4.61H684.87a2.31,2.31,0,1,1-.22-4.61h.19Zm0-9.24h23.09a2.31,2.31,0,0,1,0,4.62H684.87a2.31,2.31,0,0,1-.22-4.62h.19Zm-20.77-17.34a5.77,5.77,0,0,1,5.77-5.77H686a5.77,5.77,0,0,1,5.77,5.77v10.39a2.31,2.31,0,0,1-4.61,0v-9.24a2.32,2.32,0,0,0-2.31-2.31H671a2.31,2.31,0,0,0-2.31,2.31h0v4.62A2.31,2.31,0,0,0,671,379h9.23a2.31,2.31,0,0,1,0,4.61H669.84a5.77,5.77,0,0,1-5.77-5.77v-6.93Zm2.31,26.55h9.23a2.31,2.31,0,1,1,.22,4.62h-9.45a2.31,2.31,0,0,1-.22-4.62Zm0-9.24h9.23a2.31,2.31,0,1,1,.22,4.62h-9.45a2.31,2.31,0,0,1-.22-4.62ZM710.24,416h-50.8a13.86,13.86,0,0,1-13.84-13.83V386a2.31,2.31,0,0,1,4.61,0v16.16a9.24,9.24,0,0,0,9.24,9.24h49.63a5.78,5.78,0,0,0,5.78-5.78V361.73a5.78,5.78,0,0,0-5.78-5.77H665.22a5.77,5.77,0,0,0-5.77,5.77v38.1a2.31,2.31,0,0,1-4.62,0V360.56a9.25,9.25,0,0,1,9.24-9.22h46.17a9.24,9.24,0,0,1,9.23,9.24h0v46.17a9.23,9.23,0,0,1-9.23,9.23h0Z" transform="translate(-645.6 -351.34)"/></g></svg>