<svg id="Capa_1" data-name="Capa 1" xmlns="http://www.w3.org/2000/svg" viewBox="0 0 109.3 118.44"><defs><style>.cls-1{fill:#fff;fill-rule:evenodd;}</style></defs><g id="Grupo_7455" data-name="Grupo 7455"><path id="Trazado_9815" data-name="Trazado 9815" class="cls-1" d="M707.57,380.87a4.54,4.54,0,0,1-8.89-1.42,4.81,4.81,0,0,1,.39-1.83h0A17.5,17.5,0,0,0,700.5,367a12.14,12.14,0,0,0,.27-2.55V346a12.27,12.27,0,0,0-12.15-12.36H676.47A12.25,12.25,0,0,0,664.32,346v18.52a12.14,12.14,0,0,0,.27,2.55A18.1,18.1,0,0,0,679.33,388a17.25,17.25,0,0,0,3.21.27c30.17,0,54.65,11.22,54.65,25v11.39A18.21,18.21,0,0,1,719,442.88H646.1a18.21,18.21,0,0,1-18.22-18.21V413.28a17.91,17.91,0,0,1,9.4-14,4.21,4.21,0,1,1,4.86,6.86v0a9.45,9.45,0,0,0-5.18,7.14v11.39a9.11,9.11,0,0,0,9.09,9.11h73a9.11,9.11,0,0,0,9.11-9.11V413.28c0-8.81-20.39-15.94-45.55-15.94a27.42,27.42,0,0,1-23.78-13.88.38.38,0,0,1,0-.08c-.4-.74-.74-1.48-1.12-2.23a1.6,1.6,0,0,1-.1-.23q-.46-1.11-.84-2.22c0-.14-.1-.26-.14-.4-.22-.69-.4-1.4-.56-2.12,0-.19-.11-.37-.15-.57a21.25,21.25,0,0,1-.33-2.12,4.64,4.64,0,0,0-.11-.65,27.25,27.25,0,0,1-.15-2.86c0-.49,0-1,.08-1.48s-.08-1-.08-1.55V345.69a20.9,20.9,0,0,1,20.5-21.25h13.64a20.89,20.89,0,0,1,20.49,21.25V367c0,.53,0,1-.07,1.55s.07,1,.07,1.48a26.89,26.89,0,0,1-2.31,10.89Z" transform="translate(-627.88 -324.44)"/><path id="Trazado_9816" data-name="Trazado 9816" class="cls-1" d="M653,385.93a6.85,6.85,0,0,1,6.49,9,6.68,6.68,0,0,1-4.32,4.32,6.84,6.84,0,1,1-4.26-13,7,7,0,0,1,2.09-.34Z" transform="translate(-627.88 -324.44)"/></g></svg>