<svg id="Capa_1" data-name="Capa 1" xmlns="http://www.w3.org/2000/svg" viewBox="0 0 106.72 88.34"><defs><style>.cls-1{fill:#fff;fill-rule:evenodd;}</style></defs><g id="Grupo_7454" data-name="Grupo 7454"><path id="Trazado_3767" data-name="Trazado 3767" class="cls-1" d="M646.18,410.77a3.33,3.33,0,0,1,0-4.71h0l9.43-9.42a3.33,3.33,0,0,1,4.71,4.71h0l-9.43,9.43a3.33,3.33,0,0,1-4.7,0Zm67.82,0-9.43-9.43a3.33,3.33,0,1,1,4.71-4.71h0l9.43,9.42a3.33,3.33,0,0,1-4.71,4.72Zm18-50.18-40.08,36.75a13.35,13.35,0,0,1-18.86,0L649.5,373.82h0l-7.92-7.93h0a3.16,3.16,0,0,0-5.78,1.93V414.5a6.66,6.66,0,0,0,6.66,6.66h80a6.67,6.67,0,0,0,6.67-6.66v-40a3.33,3.33,0,0,1,6.66,0v40a13.33,13.33,0,0,1-13.33,13.33h-80a13.34,13.34,0,0,1-13.34-13.32V367.83a10,10,0,0,1,10-10,9.67,9.67,0,0,1,6.66,2.89v-.05l32,31.95a6.65,6.65,0,0,0,9.42,0l40.08-36.73a6.56,6.56,0,0,0,1.92-4.72h0c0-3.69-3-3.34-6.66-3.34h-70a3.33,3.33,0,1,1-.27-6.66h70.28c6.12,0,11.28,1.82,12.83,6.66h.1A13.3,13.3,0,0,1,732,360.6Z" transform="translate(-629.1 -339.49)"/><path id="Trazado_3768" data-name="Trazado 3768" class="cls-1" d="M634.11,339.49a5,5,0,1,1-5,5h0A5,5,0,0,1,634.11,339.49Z" transform="translate(-629.1 -339.49)"/></g></svg>