<svg id="Capa_1" data-name="Capa 1" xmlns="http://www.w3.org/2000/svg" viewBox="0 0 109.14 109.11"><defs><style>.cls-01{fill:#fff;fill-rule:evenodd;}</style></defs><path id="Trazado_3795" data-name="Trazado 3795" class="cls-01" d="M733.8,383.66a3.41,3.41,0,0,1-3.41-3.41V370a6.81,6.81,0,0,0-6.81-6.82H703.13a13.63,13.63,0,0,1-13.63-13.63v-6.82a6.82,6.82,0,0,0-6.82-6.81h0v-.07a6.74,6.74,0,0,0-4.79,2l-41,41a6.81,6.81,0,0,0,0,9.63h0l41,41a6.76,6.76,0,0,0,4.78,2v-.07a6.82,6.82,0,0,0,6.82-6.82h0v-6.81a13.63,13.63,0,0,1,13.63-13.63h17a3.41,3.41,0,0,1,0,6.81h-17a6.81,6.81,0,0,0-6.81,6.81h0v6.82a13.63,13.63,0,0,1-13.62,13.63h.73A13.56,13.56,0,0,1,673,434.27l-41-41a13.64,13.64,0,0,1,0-19.28l41-41a13.57,13.57,0,0,1,10.38-3.92h-.74a13.64,13.64,0,0,1,13.64,13.64v6.81a6.81,6.81,0,0,0,6.81,6.81h20.45A13.64,13.64,0,0,1,737.2,370v10.25a3.41,3.41,0,0,1-3.4,3.41Z" transform="translate(-628.07 -329.11)"/><path id="Trazado_3796" data-name="Trazado 3796" class="cls-01" d="M732.1,393.89A5.12,5.12,0,1,1,727,399a5.11,5.11,0,0,1,5.12-5.11Z" transform="translate(-628.07 -329.11)"/></svg>
