<svg id="Capa_1" data-name="Capa 1" xmlns="http://www.w3.org/2000/svg" viewBox="0 0 156.93 156.93"><defs><style>.cls-1{fill:#fff;}.cls-2{fill:#e8e9ec;}.cls-3,.cls-4{isolation:isolate;}.cls-4{font-size:58.29px;fill:#34353d;font-family:SourceSansPro-Regular, Source Sans Pro;}</style></defs><g id="_3" data-name=" 3"><g id="Trazado_295" data-name="Trazado 295"><path class="cls-1" d="M743.07,459.88H622a15.71,15.71,0,0,1-15.7-15.69V323.13A15.71,15.71,0,0,1,622,307.44H743.07a15.71,15.71,0,0,1,15.69,15.69V444.19A15.7,15.7,0,0,1,743.07,459.88Z" transform="translate(-604.07 -305.2)"/><path class="cls-2" d="M622,309.68a13.48,13.48,0,0,0-13.46,13.45V444.19A13.47,13.47,0,0,0,622,457.64H743.07a13.47,13.47,0,0,0,13.45-13.45V323.13a13.47,13.47,0,0,0-13.45-13.45H622m0-4.48H743.07A17.93,17.93,0,0,1,761,323.13V444.19a17.94,17.94,0,0,1-17.93,17.94H622a17.94,17.94,0,0,1-17.94-17.94V323.13A17.94,17.94,0,0,1,622,305.2Z" transform="translate(-604.07 -305.2)"/></g><g id="_7" data-name=" 7" class="cls-3"><text class="cls-4" transform="translate(66.22 103.13)">7</text></g></g></svg>