<svg id="Capa_1" data-name="Capa 1" xmlns="http://www.w3.org/2000/svg" viewBox="0 0 170.93 170.93"><defs><style>.cls-1{fill:#fff;}.cls-2{fill:#e8e9ec;}.cls-3,.cls-4{isolation:isolate;}.cls-4{font-size:63.49px;fill:#525261;font-family:SourceSansPro-Regular, Source Sans Pro;}</style></defs><g id="_2" data-name=" 2"><g id="Trazado_295" data-name="Trazado 295"><path class="cls-1" d="M748.47,466.68H616.61a17.11,17.11,0,0,1-17.1-17.09V317.73a17.12,17.12,0,0,1,17.1-17.09H748.47a17.11,17.11,0,0,1,17.09,17.09V449.59A17.11,17.11,0,0,1,748.47,466.68Z" transform="translate(-597.07 -298.2)"/><path class="cls-2" d="M616.61,303.08A14.67,14.67,0,0,0,602,317.73V449.59a14.67,14.67,0,0,0,14.66,14.65H748.47a14.67,14.67,0,0,0,14.65-14.65V317.73a14.67,14.67,0,0,0-14.65-14.65H616.61m0-4.88H748.47A19.53,19.53,0,0,1,768,317.73V449.59a19.54,19.54,0,0,1-19.53,19.54H616.61a19.54,19.54,0,0,1-19.54-19.54V317.73A19.53,19.53,0,0,1,616.61,298.2Z" transform="translate(-597.07 -298.2)"/></g><g id="_4" data-name=" 4" class="cls-3"><text class="cls-4" transform="translate(72.13 112.32)">4</text></g></g></svg>