<svg id="Capa_1" data-name="Capa 1" xmlns="http://www.w3.org/2000/svg" viewBox="0 0 154.93 154.93"><defs><style>.cls-1{fill:#fff;}.cls-2{fill:#e8e9ec;}.cls-3,.cls-4{isolation:isolate;}.cls-4{font-size:57.55px;fill:#34353d;font-family:SourceSansPro-Regular, Source Sans Pro;}</style></defs><g id="_3" data-name=" 3"><g id="Trazado_295" data-name="Trazado 295"><path class="cls-1" d="M742.29,458.91H622.78a15.51,15.51,0,0,1-15.5-15.49V323.9a15.51,15.51,0,0,1,15.5-15.49H742.29a15.51,15.51,0,0,1,15.5,15.49V443.42A15.51,15.51,0,0,1,742.29,458.91Z" transform="translate(-605.07 -306.2)"/><path class="cls-2" d="M622.78,310.62A13.29,13.29,0,0,0,609.5,323.9V443.42a13.29,13.29,0,0,0,13.28,13.28H742.29a13.29,13.29,0,0,0,13.28-13.28V323.9a13.29,13.29,0,0,0-13.28-13.28H622.78m0-4.42H742.29A17.7,17.7,0,0,1,760,323.9V443.42a17.71,17.71,0,0,1-17.71,17.71H622.78a17.71,17.71,0,0,1-17.71-17.71V323.9A17.7,17.7,0,0,1,622.78,306.2Z" transform="translate(-605.07 -306.2)"/></g><g id="_5" data-name=" 5" class="cls-3"><text class="cls-4" transform="translate(65.38 101.81)">5</text></g></g></svg>