<svg id="Capa_1" data-name="Capa 1" xmlns="http://www.w3.org/2000/svg" viewBox="0 0 166.93 166.93"><defs><style>.cls-1{fill:#fff;}.cls-2{fill:#e8e9ec;}.cls-3,.cls-4{isolation:isolate;}.cls-4{font-size:62px;fill:#525261;font-family:SourceSansPro-Regular, Source Sans Pro;}</style></defs><g id="_2" data-name=" 2"><g id="Trazado_295" data-name="Trazado 295"><path class="cls-1" d="M746.92,464.74H618.15a16.71,16.71,0,0,1-16.69-16.69V319.27a16.71,16.71,0,0,1,16.69-16.69H746.92a16.71,16.71,0,0,1,16.7,16.69V448.05A16.71,16.71,0,0,1,746.92,464.74Z" transform="translate(-599.07 -300.2)"/><path class="cls-2" d="M618.15,305a14.32,14.32,0,0,0-14.31,14.3V448.05a14.33,14.33,0,0,0,14.31,14.31H746.92a14.33,14.33,0,0,0,14.31-14.31V319.27A14.32,14.32,0,0,0,746.92,305H618.15m0-4.77H746.92A19.07,19.07,0,0,1,766,319.27V448.05a19.08,19.08,0,0,1-19.08,19.08H618.15a19.08,19.08,0,0,1-19.08-19.08V319.27A19.07,19.07,0,0,1,618.15,300.2Z" transform="translate(-599.07 -300.2)"/></g><g id="_2-2" data-name=" 2-2" class="cls-3"><text class="cls-4" transform="translate(70.44 109.7)">2</text></g></g></svg>