<svg id="Capa_1" data-name="Capa 1" xmlns="http://www.w3.org/2000/svg" viewBox="0 0 142.93 142.93"><defs><style>.cls-1{fill:#fff;}.cls-2{fill:#e8e9ec;}.cls-3,.cls-4{isolation:isolate;}.cls-4{font-size:53.09px;fill:#525261;font-family:SourceSansPro-Regular, Source Sans Pro;}</style></defs><g id="_2" data-name=" 2"><g id="Trazado_295" data-name="Trazado 295"><path class="cls-1" d="M737.67,453.08H627.41a14.31,14.31,0,0,1-14.3-14.29V328.53a14.31,14.31,0,0,1,14.3-14.29H737.67A14.31,14.31,0,0,1,752,328.53V438.79A14.31,14.31,0,0,1,737.67,453.08Z" transform="translate(-611.07 -312.2)"/><path class="cls-2" d="M627.41,316.28a12.27,12.27,0,0,0-12.26,12.25V438.79A12.27,12.27,0,0,0,627.41,451H737.67a12.26,12.26,0,0,0,12.25-12.25V328.53a12.27,12.27,0,0,0-12.25-12.25H627.41m0-4.08H737.67A16.33,16.33,0,0,1,754,328.53V438.79a16.34,16.34,0,0,1-16.33,16.34H627.41a16.34,16.34,0,0,1-16.34-16.34V328.53A16.33,16.33,0,0,1,627.41,312.2Z" transform="translate(-611.07 -312.2)"/></g><g id="_6" data-name=" 6" class="cls-3"><text class="cls-4" transform="translate(60.32 93.92)">6</text></g></g></svg>