<svg id="Capa_1" data-name="Capa 1" xmlns="http://www.w3.org/2000/svg" viewBox="0 0 174.68 174.68"><defs><style>.cls-1{fill:#fff;}.cls-2{fill:#e8e9ec;}.cls-3,.cls-4{isolation:isolate;}.cls-4{font-size:64.88px;fill:#34353d;font-family:SourceSansPro-Regular, Source Sans Pro;}</style></defs><g id="_3" data-name=" 3"><g id="Trazado_295" data-name="Trazado 295"><path class="cls-1" d="M749.91,468.5H615.16A17.49,17.49,0,0,1,597.69,451V316.29a17.49,17.49,0,0,1,17.47-17.47H749.91a17.49,17.49,0,0,1,17.47,17.47V451A17.49,17.49,0,0,1,749.91,468.5Z" transform="translate(-595.2 -296.32)"/><path class="cls-2" d="M615.16,301.31a15,15,0,0,0-15,15V451a15,15,0,0,0,15,15H749.91a15,15,0,0,0,15-15V316.29a15,15,0,0,0-15-15H615.16m0-5H749.91a20,20,0,0,1,20,20V451a20,20,0,0,1-20,20H615.16a20,20,0,0,1-20-20V316.29A20,20,0,0,1,615.16,296.32Z" transform="translate(-595.2 -296.32)"/></g><g id="_3-2" data-name=" 3-2" class="cls-3"><text class="cls-4" transform="translate(73.71 114.79)">3</text></g></g></svg>