<svg id="Capa_1" data-name="Capa 1" xmlns="http://www.w3.org/2000/svg" viewBox="0 0 178.78 178.81"><defs><style>.cls-1{fill:#fff;fill-opacity:0;}.cls-2{fill:#fafafa;opacity:0.02;}.cls-10,.cls-11,.cls-12,.cls-13,.cls-14,.cls-15,.cls-16,.cls-17,.cls-18,.cls-19,.cls-2,.cls-20,.cls-21,.cls-22,.cls-23,.cls-24,.cls-25,.cls-26,.cls-27,.cls-28,.cls-29,.cls-3,.cls-30,.cls-31,.cls-32,.cls-33,.cls-34,.cls-35,.cls-36,.cls-37,.cls-38,.cls-39,.cls-4,.cls-40,.cls-41,.cls-42,.cls-43,.cls-44,.cls-45,.cls-46,.cls-47,.cls-48,.cls-49,.cls-5,.cls-50,.cls-51,.cls-6,.cls-7,.cls-8,.cls-9{isolation:isolate;}.cls-3{fill:#f5f5f5;opacity:0.04;}.cls-4{fill:#f0f0f0;opacity:0.06;}.cls-5{fill:#ebebeb;opacity:0.08;}.cls-6{fill:#e6e6e6;opacity:0.1;}.cls-7{fill:#e1e1e1;opacity:0.12;}.cls-8{fill:#dcdcdc;opacity:0.14;}.cls-9{fill:#d7d7d7;opacity:0.16;}.cls-10{fill:#d2d2d2;opacity:0.18;}.cls-11{fill:#cdcdcd;opacity:0.2;}.cls-12{fill:#c8c8c8;opacity:0.22;}.cls-13{fill:#c3c3c3;opacity:0.23;}.cls-14{fill:#bebebe;opacity:0.25;}.cls-15{fill:#b9b9b9;opacity:0.28;}.cls-16{fill:#b4b4b4;opacity:0.29;}.cls-17{fill:#afafaf;opacity:0.31;}.cls-18{fill:#aaa;opacity:0.33;}.cls-19{fill:#a5a5a5;opacity:0.35;}.cls-20{fill:#a0a0a0;opacity:0.37;}.cls-21{fill:#9b9b9b;opacity:0.39;}.cls-22{fill:#969696;opacity:0.41;}.cls-23{fill:#919191;opacity:0.43;}.cls-24{fill:#8c8c8c;opacity:0.45;}.cls-25{fill:#878787;opacity:0.47;}.cls-26{fill:#828282;opacity:0.49;}.cls-27{fill:#7d7d7d;opacity:0.51;}.cls-28{fill:#787878;opacity:0.53;}.cls-29{fill:#737373;opacity:0.55;}.cls-30{fill:#6e6e6e;opacity:0.57;}.cls-31{fill:#696969;opacity:0.59;}.cls-32{fill:#646464;opacity:0.61;}.cls-33{fill:#5f5f5f;opacity:0.63;}.cls-34{fill:#5a5a5a;opacity:0.65;}.cls-35{fill:#555;opacity:0.67;}.cls-36{fill:#505050;opacity:0.69;}.cls-37{fill:#4b4b4b;opacity:0.71;}.cls-38{fill:#464646;opacity:0.73;}.cls-39{fill:#414141;opacity:0.75;}.cls-40{fill:#3c3c3c;opacity:0.76;}.cls-41{fill:#373737;opacity:0.78;}.cls-42{fill:#323232;opacity:0.8;}.cls-43{fill:#2d2d2d;opacity:0.82;}.cls-44{fill:#282828;opacity:0.84;}.cls-45{fill:#232323;opacity:0.86;}.cls-46{fill:#1e1e1e;opacity:0.88;}.cls-47{fill:#191919;opacity:0.9;}.cls-48{fill:#141414;opacity:0.92;}.cls-49{fill:#0f0f0f;opacity:0.94;}.cls-50{fill:#0a0a0a;opacity:0.96;}.cls-51{fill:#050505;opacity:0.98;}.cls-52{fill:#0872c4;}.cls-53{fill:#009d60;}.cls-54{fill:#fbd023;}</style></defs><g id="Grupo_6698" data-name="Grupo 6698"><g id="Grupo_6681" data-name="Grupo 6681"><path id="Trazado_9707" data-name="Trazado 9707" class="cls-1" d="M741.42,343c37.7,37.7,41,95.76,7.31,129.45S657,502.79,619.28,465s-32.13-86.91,1.52-120.61S703.69,305.26,741.42,343Z" transform="translate(-593.21 -316.86)"/><path id="Trazado_9708" data-name="Trazado 9708" class="cls-2" d="M740.83,343.23c37.42,37.45,40.69,95.11,7.26,128.54S657,501.93,619.58,464.49s-32-86.42,1.41-119.84S703.39,305.81,740.83,343.23Z" transform="translate(-593.21 -316.86)"/><path id="Trazado_9709" data-name="Trazado 9709" class="cls-3" d="M740.25,343.53c37.14,37.17,40.39,94.39,7.2,127.6s-90.4,29.94-127.57-7.22S588,378,621.15,344.84,703.13,306.37,740.25,343.53Z" transform="translate(-593.21 -316.86)"/><path id="Trazado_9710" data-name="Trazado 9710" class="cls-4" d="M739.64,343.88c36.92,36.89,40.13,93.69,7.17,126.65S657,500.25,620.16,463.35,588.4,378,621.32,345,702.75,307,739.64,343.88Z" transform="translate(-593.21 -316.86)"/><path id="Trazado_9711" data-name="Trazado 9711" class="cls-5" d="M739.06,344.17c36.64,36.62,39.83,93,7.11,125.71s-89.09,29.46-125.71-7.12-31.65-84.86,1-117.57S702.45,307.5,739.06,344.17Z" transform="translate(-593.21 -316.86)"/><path id="Trazado_9712" data-name="Trazado 9712" class="cls-6" d="M738.48,344.46c36.36,36.36,39.52,92.33,7.06,124.8s-88.43,29.27-124.77-7.07-31.55-84.36.92-116.8S702.15,308.08,738.48,344.46Z" transform="translate(-593.21 -316.86)"/><path id="Trazado_9713" data-name="Trazado 9713" class="cls-7" d="M737.91,344.74c36.09,36.06,39.22,91.65,7,123.86s-87.77,29.06-123.86-7-31.4-83.84.8-116S701.84,308.63,737.91,344.74Z" transform="translate(-593.21 -316.86)"/><path id="Trazado_9714" data-name="Trazado 9714" class="cls-8" d="M737.32,345C773.13,380.85,776.26,436,744.27,468s-87.11,28.83-122.91-7-31.31-83.32.69-115.27S701.51,309.22,737.32,345Z" transform="translate(-593.21 -316.86)"/><path id="Trazado_9715" data-name="Trazado 9715" class="cls-9" d="M736.75,345.31c35.53,35.54,38.67,90.23,6.89,122s-86.44,28.61-122-6.92-31.19-82.78.55-114.53S701.18,309.76,736.75,345.31Z" transform="translate(-593.21 -316.86)"/><path id="Trazado_9716" data-name="Trazado 9716" class="cls-10" d="M736.16,345.61c35.25,35.25,38.33,89.56,6.84,121.06s-85.77,28.38-121.06-6.87-31.05-82.25.44-113.75S700.89,310.35,736.16,345.61Z" transform="translate(-593.21 -316.86)"/><path id="Trazado_9717" data-name="Trazado 9717" class="cls-11" d="M735.58,345.89c35,35,38,88.85,6.78,120.12s-85.11,28.2-120.12-6.81A80.13,80.13,0,0,1,735.58,345.89Z" transform="translate(-593.21 -316.86)"/><path id="Trazado_9718" data-name="Trazado 9718" class="cls-12" d="M735,346.19c34.7,34.73,37.75,88.18,6.73,119.2s-84.48,28-119.18-6.76A79.51,79.51,0,0,1,735,346.19Z" transform="translate(-593.21 -316.86)"/><path id="Trazado_9719" data-name="Trazado 9719" class="cls-13" d="M734.41,346.47c34.42,34.45,37.44,87.47,6.67,118.26S657.3,492.48,622.82,458A78.9,78.9,0,0,1,734.41,346.47Z" transform="translate(-593.21 -316.86)"/><path id="Trazado_9720" data-name="Trazado 9720" class="cls-14" d="M733.83,346.76c34.15,34.17,37.14,86.8,6.62,117.32s-83.15,27.53-117.33-6.65A78.27,78.27,0,0,1,733.83,346.76Z" transform="translate(-593.21 -316.86)"/><path id="Trazado_9721" data-name="Trazado 9721" class="cls-15" d="M733.23,347c33.93,33.9,36.83,86.13,6.59,116.41s-82.47,27.3-116.37-6.6A77.64,77.64,0,1,1,732.16,346C732.52,346.33,732.88,346.68,733.23,347Z" transform="translate(-593.21 -316.86)"/><path id="Trazado_9722" data-name="Trazado 9722" class="cls-16" d="M732.65,347.38c33.65,33.63,36.56,85.42,6.54,115.47s-81.82,27.08-115.47-6.54A77,77,0,0,1,731.85,346.58Z" transform="translate(-593.21 -316.86)"/><path id="Trazado_9723" data-name="Trazado 9723" class="cls-17" d="M732,347.69c33.38,33.34,36.29,84.7,6.45,114.52s-81.15,26.87-114.53-6.44A76.42,76.42,0,0,1,732,347.69Z" transform="translate(-593.21 -316.86)"/><path id="Trazado_9724" data-name="Trazado 9724" class="cls-18" d="M731.48,348c33.1,33.1,36,84.06,6.44,113.62s-80.48,26.64-113.58-6.45A75.78,75.78,0,1,1,731.5,347.94Z" transform="translate(-593.21 -316.86)"/><path id="Trazado_9725" data-name="Trazado 9725" class="cls-19" d="M730.89,348.28c32.82,32.82,35.68,83.37,6.37,112.66s-79.85,26.43-112.66-6.4A75.16,75.16,0,1,1,729.7,347.08C730.1,347.48,730.5,347.87,730.89,348.28Z" transform="translate(-593.21 -316.86)"/><path id="Trazado_9726" data-name="Trazado 9726" class="cls-20" d="M730.32,348.57c32.55,32.55,35.36,82.64,6.32,111.73S657.46,486.53,624.91,454A74.57,74.57,0,0,1,726.47,344.72q2,1.86,3.85,3.85Z" transform="translate(-593.21 -316.86)"/><path id="Trazado_9727" data-name="Trazado 9727" class="cls-21" d="M729.73,348.85C762,381.07,764.82,430.79,736,459.66s-78.52,26-110.79-6.29A73.92,73.92,0,1,1,727.91,347c.62.59,1.22,1.2,1.82,1.82Z" transform="translate(-593.21 -316.86)"/><path id="Trazado_9728" data-name="Trazado 9728" class="cls-22" d="M729.15,349.15c32,32,34.78,81.29,6.21,109.87s-77.86,25.78-109.88-6.24a73.3,73.3,0,1,1,102-105.31c.56.55,1.12,1.1,1.67,1.67Z" transform="translate(-593.21 -316.86)"/><path id="Trazado_9729" data-name="Trazado 9729" class="cls-23" d="M728.57,349.46c31.71,31.71,34.48,80.6,6.15,108.93S657.53,484,625.79,452.21a72.69,72.69,0,0,1,100.13-105.4c.91.86,1.79,1.75,2.65,2.65Z" transform="translate(-593.21 -316.86)"/><path id="Trazado_9730" data-name="Trazado 9730" class="cls-24" d="M728,349.73c31.43,31.46,34.18,79.91,6.1,108s-76.53,25.33-108-6.13a72.07,72.07,0,0,1,99.34-104.44Q726.73,348.42,728,349.73Z" transform="translate(-593.21 -316.86)"/><path id="Trazado_9731" data-name="Trazado 9731" class="cls-25" d="M727.37,350c31.21,31.19,33.93,79.18,6.07,107.08s-75.85,25.12-107.05-6.07a71.44,71.44,0,1,1,98.48-103.51C725.72,348.35,726.56,349.19,727.37,350Z" transform="translate(-593.21 -316.86)"/><path id="Trazado_9732" data-name="Trazado 9732" class="cls-26" d="M726.79,350.35c30.94,30.91,33.63,78.51,6,106.13s-75.22,24.85-106.13-6a70.83,70.83,0,1,1,97.23-103c1,.94,2,1.91,2.89,2.9Z" transform="translate(-593.21 -316.86)"/><path id="Trazado_9733" data-name="Trazado 9733" class="cls-27" d="M726.21,350.62c30.66,30.66,33.32,77.86,6,105.22s-74.58,24.68-105.19-6A70.21,70.21,0,0,1,723.1,347.51Q724.71,349,726.21,350.62Z" transform="translate(-593.21 -316.86)"/><path id="Trazado_9734" data-name="Trazado 9734" class="cls-28" d="M725.63,350.93c30.39,30.38,33,77.13,5.91,104.28s-73.9,24.45-104.25-5.91a69.59,69.59,0,1,1,94.9-101.81q1.78,1.65,3.44,3.44Z" transform="translate(-593.21 -316.86)"/><path id="Trazado_9735" data-name="Trazado 9735" class="cls-29" d="M725,351.23c30.11,30.08,32.74,76.42,5.85,103.34s-73.23,24.23-103.34-5.85a69,69,0,1,1,93.78-101.21C722.61,348.7,723.85,350,725,351.23Z" transform="translate(-593.21 -316.86)"/><path id="Trazado_9736" data-name="Trazado 9736" class="cls-30" d="M724.47,351.51c29.83,29.83,32.44,75.77,5.79,102.42s-72.56,24-102.39-5.82a68.36,68.36,0,1,1,93-100.27q1.9,1.76,3.66,3.66Z" transform="translate(-593.21 -316.86)"/><path id="Trazado_9737" data-name="Trazado 9737" class="cls-31" d="M723.89,351.82c29.56,29.56,32.14,75.08,5.74,101.48s-71.9,23.82-101.45-5.76a67.75,67.75,0,1,1,92.56-99q1.65,1.55,3.19,3.19Z" transform="translate(-593.21 -316.86)"/><path id="Trazado_9738" data-name="Trazado 9738" class="cls-32" d="M723.3,352.12c29.28,29.27,31.82,74.39,5.68,100.54S657.75,476.25,628.45,447a67.14,67.14,0,1,1,90.16-99.5q2.45,2.22,4.67,4.67Z" transform="translate(-593.21 -316.86)"/><path id="Trazado_9739" data-name="Trazado 9739" class="cls-33" d="M722.72,352.39c29,29,31.55,73.66,5.63,99.62s-70.6,23.38-99.59-5.65a66.53,66.53,0,0,1,89.39-98.56c1.6,1.46,3.13,3,4.58,4.58Z" transform="translate(-593.21 -316.86)"/><path id="Trazado_9740" data-name="Trazado 9740" class="cls-34" d="M722.15,352.7c28.73,28.75,31.24,73,5.53,98.68s-70,23.16-98.65-5.59a65.91,65.91,0,0,1,88.61-97.6C719.22,349.62,720.72,351.13,722.15,352.7Z" transform="translate(-593.21 -316.86)"/><path id="Trazado_9741" data-name="Trazado 9741" class="cls-35" d="M721.56,353c28.47,28.47,30.94,72.31,5.53,97.74s-69.27,22.93-97.74-5.52A65.31,65.31,0,1,1,721.57,353Z" transform="translate(-593.21 -316.86)"/><path id="Trazado_9742" data-name="Trazado 9742" class="cls-36" d="M721,353.28c28.22,28.22,30.66,71.64,5.52,96.83s-68.6,22.71-96.8-5.53a64.69,64.69,0,1,1,86-96.65,63.35,63.35,0,0,1,5.31,5.31Z" transform="translate(-593.21 -316.86)"/><path id="Trazado_9743" data-name="Trazado 9743" class="cls-37" d="M720.37,353.59c27.94,27.91,30.38,70.89,5.43,95.88S657.86,472,630,444A64.07,64.07,0,1,1,714.9,348.1a65.9,65.9,0,0,1,5.48,5.48Z" transform="translate(-593.21 -316.86)"/><path id="Trazado_9744" data-name="Trazado 9744" class="cls-38" d="M719.79,353.89c27.66,27.62,30.08,70.24,5.37,94.94s-67.27,22.28-94.94-5.37a63.47,63.47,0,1,1,89.58-89.57Z" transform="translate(-593.21 -316.86)"/><path id="Trazado_9745" data-name="Trazado 9745" class="cls-39" d="M719.21,354.17c27.39,27.39,29.77,69.58,5.32,94s-66.61,22.05-94-5.32a62.86,62.86,0,1,1,88.68-88.71Z" transform="translate(-593.21 -316.86)"/><path id="Trazado_9746" data-name="Trazado 9746" class="cls-40" d="M718.63,354.47c27.11,27.12,29.46,68.85,5.26,93.09s-65.94,21.82-93-5.26a62.25,62.25,0,0,1,81.56-94.06,63.27,63.27,0,0,1,6.24,6.23Z" transform="translate(-593.21 -316.86)"/><path id="Trazado_9747" data-name="Trazado 9747" class="cls-41" d="M718,354.78c26.84,26.83,29.19,68.13,5.21,92.14s-65.31,21.63-92.14-5.24a61.63,61.63,0,1,1,80.58-93.28,62.7,62.7,0,0,1,6.36,6.37Z" transform="translate(-593.21 -316.86)"/><path id="Trazado_9748" data-name="Trazado 9748" class="cls-42" d="M717.46,355.05c26.56,26.59,28.89,67.5,5.15,91.23s-64.64,21.41-91.2-5.17-27.14-65.75-3.43-89.45S690.9,328.49,717.46,355.05Z" transform="translate(-593.21 -316.86)"/><path id="Trazado_9749" data-name="Trazado 9749" class="cls-43" d="M716.88,355.36c26.28,26.31,28.54,66.8,5.09,90.29s-64,21.17-90.23-5.12-27-65.22-3.54-88.71S690.56,329.08,716.88,355.36Z" transform="translate(-593.21 -316.86)"/><path id="Trazado_9750" data-name="Trazado 9750" class="cls-44" d="M716.3,355.66c26,26,28.27,66.12,5,89.31s-63.31,21-89.3-5.07-26.9-64.72-3.69-88S690.27,329.62,716.3,355.66Z" transform="translate(-593.21 -316.86)"/><path id="Trazado_9751" data-name="Trazado 9751" class="cls-45" d="M715.72,356c25.78,25.78,28,65.41,5,88.43s-62.61,20.74-88.39-5-26.78-64.2-3.79-87.19S690,330.18,715.72,356Z" transform="translate(-593.21 -316.86)"/><path id="Trazado_9752" data-name="Trazado 9752" class="cls-46" d="M715.13,356.24c25.48,25.49,27.69,64.73,4.92,87.47s-62,20.52-87.46-5-26.7-63.67-3.93-86.44S689.63,330.76,715.13,356.24Z" transform="translate(-593.21 -316.86)"/><path id="Trazado_9753" data-name="Trazado 9753" class="cls-47" d="M714.52,356.55c25.23,25.2,27.42,64,4.9,86.55s-61.32,20.25-86.55-4.9-26.53-63.18-4-85.69S689.32,331.3,714.52,356.55Z" transform="translate(-593.21 -316.86)"/><path id="Trazado_9754" data-name="Trazado 9754" class="cls-48" d="M713.94,356.82c24.95,24.95,27.12,63.37,4.84,85.62s-60.68,20.09-85.62-4.84S606.74,375,629,352.66,689,331.9,713.94,356.82Z" transform="translate(-593.21 -316.86)"/><path id="Trazado_9755" data-name="Trazado 9755" class="cls-49" d="M713.36,357.13c24.68,24.68,26.81,62.61,4.79,84.71s-60,19.86-84.71-4.79-26.31-62.15-4.29-84.17S688.71,332.46,713.36,357.13Z" transform="translate(-593.21 -316.86)"/><path id="Trazado_9756" data-name="Trazado 9756" class="cls-50" d="M712.78,357.44c24.4,24.4,26.54,61.95,4.73,83.78s-59.35,19.64-83.78-4.76-26.18-61.59-4.37-83.4S688.37,333.07,712.78,357.44Z" transform="translate(-593.21 -316.86)"/><path id="Trazado_9757" data-name="Trazado 9757" class="cls-51" d="M712.22,357.71c24.12,24.13,26.23,61.29,4.68,82.87s-58.69,19.41-82.81-4.71-26.07-61.1-4.51-82.64S688.08,333.59,712.22,357.71Z" transform="translate(-593.21 -316.86)"/><path id="Trazado_9758" data-name="Trazado 9758" d="M711.57,358c23.85,23.84,25.93,60.6,4.61,81.94s-58,19.22-81.87-4.65-25.95-60.57-4.65-81.87S687.77,334.17,711.57,358Z" transform="translate(-593.21 -316.86)"/></g><g id="Grupo_6684" data-name="Grupo 6684"><g id="Grupo_6682" data-name="Grupo 6682"><path id="Trazado_9759" data-name="Trazado 9759" class="cls-52" d="M629,337.38v117.3a73.35,73.35,0,0,1,0-117.27Z" transform="translate(-593.21 -316.86)"/><path id="Trazado_9760" data-name="Trazado 9760" class="cls-53" d="M746.63,396a73.41,73.41,0,0,1-29.27,58.63V337.38A73.42,73.42,0,0,1,746.63,396Z" transform="translate(-593.21 -316.86)"/><path id="Trazado_9761" data-name="Trazado 9761" class="cls-54" d="M717.36,337.41V454.68a73.31,73.31,0,0,1-88.39,0V337.41A73.31,73.31,0,0,1,717.36,337.41Z" transform="translate(-593.21 -316.86)"/></g><g id="Grupo_6683" data-name="Grupo 6683"><path id="Trazado_9762" data-name="Trazado 9762" class="cls-53" d="M661,411.61l-9.89-19.33L661,372.94l9.89,19.34Z" transform="translate(-593.21 -316.86)"/><path id="Trazado_9763" data-name="Trazado 9763" class="cls-53" d="M685.36,411.61l-9.89-19.33,9.89-19.34,9.89,19.34Z" transform="translate(-593.21 -316.86)"/><path id="Trazado_9764" data-name="Trazado 9764" class="cls-53" d="M673.17,436.13l-9.89-19.34,9.89-19.33,9.89,19.33Z" transform="translate(-593.21 -316.86)"/></g></g></g></svg>