<svg id="Capa_1" data-name="Capa 1" xmlns="http://www.w3.org/2000/svg" viewBox="0 0 167.11 167.11"><defs><style>.cls-1,.cls-53{fill:#fff;}.cls-1{fill-opacity:0;}.cls-2{fill:#fafafa;opacity:0.02;}.cls-10,.cls-11,.cls-12,.cls-13,.cls-14,.cls-15,.cls-16,.cls-17,.cls-18,.cls-19,.cls-2,.cls-20,.cls-21,.cls-22,.cls-23,.cls-24,.cls-25,.cls-26,.cls-27,.cls-28,.cls-29,.cls-3,.cls-30,.cls-31,.cls-32,.cls-33,.cls-34,.cls-35,.cls-36,.cls-37,.cls-38,.cls-39,.cls-4,.cls-40,.cls-41,.cls-42,.cls-43,.cls-44,.cls-45,.cls-46,.cls-47,.cls-48,.cls-49,.cls-5,.cls-50,.cls-51,.cls-6,.cls-7,.cls-8,.cls-9{isolation:isolate;}.cls-3{fill:#f5f5f5;opacity:0.04;}.cls-4{fill:#f0f0f0;opacity:0.06;}.cls-5{fill:#ebebeb;opacity:0.08;}.cls-6{fill:#e6e6e6;opacity:0.1;}.cls-7{fill:#e1e1e1;opacity:0.12;}.cls-8{fill:#dcdcdc;opacity:0.14;}.cls-9{fill:#d7d7d7;opacity:0.16;}.cls-10{fill:#d2d2d2;opacity:0.18;}.cls-11{fill:#cdcdcd;opacity:0.2;}.cls-12{fill:#c8c8c8;opacity:0.22;}.cls-13{fill:#c3c3c3;opacity:0.23;}.cls-14{fill:#bebebe;opacity:0.25;}.cls-15{fill:#b9b9b9;opacity:0.28;}.cls-16{fill:#b4b4b4;opacity:0.29;}.cls-17{fill:#afafaf;opacity:0.31;}.cls-18{fill:#aaa;opacity:0.33;}.cls-19{fill:#a5a5a5;opacity:0.35;}.cls-20{fill:#a0a0a0;opacity:0.37;}.cls-21{fill:#9b9b9b;opacity:0.39;}.cls-22{fill:#969696;opacity:0.41;}.cls-23{fill:#919191;opacity:0.43;}.cls-24{fill:#8c8c8c;opacity:0.45;}.cls-25{fill:#878787;opacity:0.47;}.cls-26{fill:#828282;opacity:0.49;}.cls-27{fill:#7d7d7d;opacity:0.51;}.cls-28{fill:#787878;opacity:0.53;}.cls-29{fill:#737373;opacity:0.55;}.cls-30{fill:#6e6e6e;opacity:0.57;}.cls-31{fill:#696969;opacity:0.59;}.cls-32{fill:#646464;opacity:0.61;}.cls-33{fill:#5f5f5f;opacity:0.63;}.cls-34{fill:#5a5a5a;opacity:0.65;}.cls-35{fill:#555;opacity:0.67;}.cls-36{fill:#505050;opacity:0.69;}.cls-37{fill:#4b4b4b;opacity:0.71;}.cls-38{fill:#464646;opacity:0.73;}.cls-39{fill:#414141;opacity:0.75;}.cls-40{fill:#3c3c3c;opacity:0.76;}.cls-41{fill:#373737;opacity:0.78;}.cls-42{fill:#323232;opacity:0.8;}.cls-43{fill:#2d2d2d;opacity:0.82;}.cls-44{fill:#282828;opacity:0.84;}.cls-45{fill:#232323;opacity:0.86;}.cls-46{fill:#1e1e1e;opacity:0.88;}.cls-47{fill:#191919;opacity:0.9;}.cls-48{fill:#141414;opacity:0.92;}.cls-49{fill:#0f0f0f;opacity:0.94;}.cls-50{fill:#0a0a0a;opacity:0.96;}.cls-51{fill:#050505;opacity:0.98;}.cls-52{fill:#66ccfe;}.cls-54{fill:#fbd023;}</style></defs><g id="Grupo_6697" data-name="Grupo 6697"><g id="Grupo_6675" data-name="Grupo 6675"><path id="Trazado_9650" data-name="Trazado 9650" class="cls-1" d="M737.57,347.05c35.26,35.26,38.32,89.51,6.87,121s-85.76,28.39-121-6.84-30-81.26,1.43-112.73S702.34,311.84,737.57,347.05Z" transform="translate(-599.05 -322.71)"/><path id="Trazado_9651" data-name="Trazado 9651" class="cls-2" d="M737,347.33c35,35,38,88.87,6.81,120.11s-85.13,28.19-120.15-6.81-29.93-80.73,1.32-112S702,312.33,737,347.33Z" transform="translate(-599.05 -322.71)"/><path id="Trazado_9652" data-name="Trazado 9652" class="cls-3" d="M736.49,347.61c34.74,34.72,37.76,88.21,6.76,119.23s-84.52,28-119.29-6.76-29.81-80.28,1.22-111.28S701.75,312.87,736.49,347.61Z" transform="translate(-599.05 -322.71)"/><path id="Trazado_9653" data-name="Trazado 9653" class="cls-4" d="M735.94,347.87c34.48,34.48,37.48,87.59,6.71,118.37S658.76,494,624.28,459.53,594.56,379.76,625.37,349,701.46,313.4,735.94,347.87Z" transform="translate(-599.05 -322.71)"/><path id="Trazado_9654" data-name="Trazado 9654" class="cls-5" d="M735.4,348.16c34.22,34.23,37.17,86.93,6.65,117.49S658.78,493.22,624.49,459s-29.59-79.31,1-109.86S701.17,313.94,735.4,348.16Z" transform="translate(-599.05 -322.71)"/><path id="Trazado_9655" data-name="Trazado 9655" class="cls-6" d="M734.85,348.44c34,34,36.91,86.28,6.61,116.61s-82.65,27.38-116.64-6.6-29.46-78.82.87-109.16S700.86,314.45,734.85,348.44Z" transform="translate(-599.05 -322.71)"/><path id="Trazado_9656" data-name="Trazado 9656" class="cls-7" d="M734.31,348.7C768,382.41,771,434.35,740.86,464.45s-82.06,27.18-115.75-6.55-29.39-78.35.75-108.46S700.58,315,734.31,348.7Z" transform="translate(-599.05 -322.71)"/><path id="Trazado_9657" data-name="Trazado 9657" class="cls-8" d="M733.74,349c33.47,33.47,36.39,85,6.52,114.88s-81.43,27-114.9-6.51-29.23-77.85.65-107.73S700.29,315.52,733.74,349Z" transform="translate(-599.05 -322.71)"/><path id="Trazado_9658" data-name="Trazado 9658" class="cls-9" d="M733.21,349.27c33.21,33.21,36.11,84.33,6.47,114s-80.81,26.8-114-6.45-29.12-77.4.52-107S700,316.06,733.21,349.27Z" transform="translate(-599.05 -322.71)"/><path id="Trazado_9659" data-name="Trazado 9659" class="cls-10" d="M732.61,349.53c32.95,33,35.82,83.71,6.43,113.14s-80.2,26.56-113.15-6.39-29-76.94.42-106.33S699.7,316.58,732.61,349.53Z" transform="translate(-599.05 -322.71)"/><path id="Trazado_9660" data-name="Trazado 9660" class="cls-11" d="M732.11,349.82c32.72,32.69,35.56,83.06,6.37,112.26s-79.57,26.34-112.28-6.35a71.66,71.66,0,0,1-4.07-101.28c1.39-1.52,2.86-3,4.38-4.36a71.62,71.62,0,0,1,101.18-4.67Q730,347.52,732.11,349.82Z" transform="translate(-599.05 -322.71)"/><path id="Trazado_9661" data-name="Trazado 9661" class="cls-12" d="M731.57,350.09c32.46,32.43,35.28,82.42,6.32,111.38s-78.95,26.14-111.41-6.29a71.25,71.25,0,0,1-4.09-100.66q2.05-2.22,4.27-4.26a71.2,71.2,0,0,1,100.6-4.46Q729.5,347.86,731.57,350.09Z" transform="translate(-599.05 -322.71)"/><path id="Trazado_9662" data-name="Trazado 9662" class="cls-13" d="M731,350.35c32.2,32.2,35,81.77,6.27,110.53S659,486.82,626.76,454.62a70.77,70.77,0,0,1-4.13-100q2-2.19,4.21-4.2a70.8,70.8,0,0,1,100-4.22C728.32,347.53,729.7,348.92,731,350.35Z" transform="translate(-599.05 -322.71)"/><path id="Trazado_9663" data-name="Trazado 9663" class="cls-14" d="M730.48,350.65c32,32,34.71,81.12,6.21,109.65S659,486,627,454.08a70.37,70.37,0,0,1-4-99.44q1.93-2.1,4-4.05a70.38,70.38,0,0,1,99.44-4Q728.55,348.56,730.48,350.65Z" transform="translate(-599.05 -322.71)"/><path id="Trazado_9664" data-name="Trazado 9664" class="cls-15" d="M729.93,350.93c31.68,31.68,34.46,80.48,6.17,108.77S659,485.22,627.3,453.54a69.93,69.93,0,0,1-4.12-98.79c1.27-1.38,2.59-2.7,4-4A69.92,69.92,0,0,1,726,346.94Q728,348.86,729.93,350.93Z" transform="translate(-599.05 -322.71)"/><path id="Trazado_9665" data-name="Trazado 9665" class="cls-16" d="M729.4,351.19c31.42,31.45,34.17,79.85,6.11,107.91S659,484.42,627.6,453a69.46,69.46,0,0,1-4.15-98.15c1.24-1.35,2.54-2.66,3.89-3.91a69.51,69.51,0,0,1,98.23-3.59C726.89,348.57,728.17,349.86,729.4,351.19Z" transform="translate(-599.05 -322.71)"/><path id="Trazado_9666" data-name="Trazado 9666" class="cls-17" d="M728.85,351.47c31.16,31.18,33.89,79.18,6,107s-75.87,25.13-107-6.05a69.09,69.09,0,0,1-4.09-97.62q1.8-1.93,3.72-3.74a69.08,69.08,0,0,1,97.64-3.38C726.41,348.91,727.66,350.17,728.85,351.47Z" transform="translate(-599.05 -322.71)"/><path id="Trazado_9667" data-name="Trazado 9667" class="cls-18" d="M728.3,351.75c30.9,30.9,33.6,78.53,6,106.16s-75.25,24.93-106.18-6a70.83,70.83,0,0,1,98.81-101.51Z" transform="translate(-599.05 -322.71)"/><path id="Trazado_9668" data-name="Trazado 9668" class="cls-19" d="M727.74,352c30.67,30.67,33.36,77.91,6,105.3S659.1,482,628.42,451.36a70.24,70.24,0,0,1,98.49-100.18Z" transform="translate(-599.05 -322.71)"/><path id="Trazado_9669" data-name="Trazado 9669" class="cls-20" d="M727.18,352.3c30.42,30.42,33.09,77.27,5.93,104.43s-74,24.51-104.42-5.91a69.67,69.67,0,1,1,98-99l.49.5Z" transform="translate(-599.05 -322.71)"/><path id="Trazado_9670" data-name="Trazado 9670" class="cls-21" d="M726.65,352.58c30.18,30.16,32.79,76.6,5.88,103.54S659.12,480.43,629,450.27a69.08,69.08,0,0,1,95.67-99.69q1,1,2,2Z" transform="translate(-599.05 -322.71)"/><path id="Trazado_9671" data-name="Trazado 9671" class="cls-22" d="M726.1,352.84c29.93,29.93,32.51,76,5.83,102.68s-72.79,24.1-102.68-5.8a68.51,68.51,0,0,1,94.78-99Q725.1,351.79,726.1,352.84Z" transform="translate(-599.05 -322.71)"/><path id="Trazado_9672" data-name="Trazado 9672" class="cls-23" d="M725.56,353.13c29.67,29.66,32.25,75.32,5.77,101.8s-72.17,23.89-101.8-5.75A67.93,67.93,0,1,1,723.41,351c.74.7,1.45,1.42,2.16,2.16Z" transform="translate(-599.05 -322.71)"/><path id="Trazado_9673" data-name="Trazado 9673" class="cls-24" d="M725,353.45c29.39,29.39,32,74.67,5.73,100.92s-71.55,23.69-101-5.72a67.35,67.35,0,1,1,93.15-97.29C723.64,352,724.34,352.74,725,353.45Z" transform="translate(-599.05 -322.71)"/><path id="Trazado_9674" data-name="Trazado 9674" class="cls-25" d="M724.48,353.71c29.15,29.15,31.68,74.06,5.67,100.08s-70.88,23.47-100.07-5.67A66.78,66.78,0,0,1,722,351.22Q723.27,352.43,724.48,353.71Z" transform="translate(-599.05 -322.71)"/><path id="Trazado_9675" data-name="Trazado 9675" class="cls-26" d="M723.93,354c28.88,28.89,31.39,73.38,5.61,99.19s-70.3,23.27-99.19-5.62a66.2,66.2,0,0,1,90.72-96.43C722.05,352.05,723,353,723.93,354Z" transform="translate(-599.05 -322.71)"/><path id="Trazado_9676" data-name="Trazado 9676" class="cls-27" d="M723.38,354.24C752,382.87,754.5,427,729,452.55s-69.68,23.09-98.34-5.57a65.63,65.63,0,0,1,89.62-95.9C721.31,352.1,722.37,353.15,723.38,354.24Z" transform="translate(-599.05 -322.71)"/><path id="Trazado_9677" data-name="Trazado 9677" class="cls-28" d="M722.85,354.51c28.37,28.39,30.85,72.12,5.51,97.45s-69.06,22.88-97.45-5.51a65.05,65.05,0,1,1,88.51-95.36C720.6,352.18,721.75,353.33,722.85,354.51Z" transform="translate(-599.05 -322.71)"/><path id="Trazado_9678" data-name="Trazado 9678" class="cls-29" d="M722.27,354.78c28.14,28.13,30.6,71.47,5.49,96.58S659.3,474,631.18,445.89a64.47,64.47,0,0,1,87.61-94.6Q720.61,353,722.27,354.78Z" transform="translate(-599.05 -322.71)"/><path id="Trazado_9679" data-name="Trazado 9679" class="cls-30" d="M721.73,355.05c27.88,27.88,30.31,70.8,5.44,95.7s-67.85,22.48-95.73-5.41a63.9,63.9,0,0,1,86.57-94Q719.95,353.12,721.73,355.05Z" transform="translate(-599.05 -322.71)"/><path id="Trazado_9680" data-name="Trazado 9680" class="cls-31" d="M721.19,355.31c27.66,27.66,30,70.18,5.38,94.85s-67.22,22.25-94.84-5.36a63.33,63.33,0,0,1,85.52-93.43Q719.31,353.26,721.19,355.31Z" transform="translate(-599.05 -322.71)"/><path id="Trazado_9681" data-name="Trazado 9681" class="cls-32" d="M720.65,355.58c27.38,27.36,29.77,69.53,5.33,94s-66.56,22-94-5.31a62.75,62.75,0,0,1,84.47-92.81Q718.67,353.4,720.65,355.58Z" transform="translate(-599.05 -322.71)"/><path id="Trazado_9682" data-name="Trazado 9682" class="cls-33" d="M720.11,355.89c27.12,27.1,29.48,68.88,5.28,93.08s-66,21.84-93.12-5.25a62.18,62.18,0,0,1,83.48-92.17q2.28,2.07,4.35,4.35Z" transform="translate(-599.05 -322.71)"/><path id="Trazado_9683" data-name="Trazado 9683" class="cls-34" d="M719.55,356.15c26.87,26.87,29.2,68.24,5.19,92.22s-65.36,21.62-92.23-5.18a61.6,61.6,0,0,1,83.43-90.65C717.19,353.69,718.4,354.9,719.55,356.15Z" transform="translate(-599.05 -322.71)"/><path id="Trazado_9684" data-name="Trazado 9684" class="cls-35" d="M719,356.45c26.6,26.6,28.91,67.58,5.18,91.35s-64.73,21.42-91.35-5.19a61,61,0,1,1,81.62-90.73,59.32,59.32,0,0,1,4.55,4.56Z" transform="translate(-599.05 -322.71)"/><path id="Trazado_9685" data-name="Trazado 9685" class="cls-36" d="M718.47,356.72c26.35,26.35,28.66,66.94,5.13,90.47s-64.14,21.23-90.5-5.13a60.46,60.46,0,1,1,85.37-85.34Z" transform="translate(-599.05 -322.71)"/><path id="Trazado_9686" data-name="Trazado 9686" class="cls-37" d="M717.93,357C744,383.1,746.3,423.31,723,446.6s-63.52,21-89.61-5.07a59.88,59.88,0,1,1,79.45-89.62A58.1,58.1,0,0,1,717.93,357Z" transform="translate(-599.05 -322.71)"/><path id="Trazado_9687" data-name="Trazado 9687" class="cls-38" d="M717.38,357.27c25.84,25.86,28.09,65.64,5,88.73s-62.9,20.84-88.73-5A59.32,59.32,0,0,1,712,351.84,58,58,0,0,1,717.38,357.27Z" transform="translate(-599.05 -322.71)"/><path id="Trazado_9688" data-name="Trazado 9688" class="cls-39" d="M716.84,357.55c25.58,25.58,27.8,65,5,87.85s-62.24,20.63-87.88-5a58.78,58.78,0,1,1,82.91-82.88Z" transform="translate(-599.05 -322.71)"/><path id="Trazado_9689" data-name="Trazado 9689" class="cls-40" d="M716.27,357.81c25.34,25.35,27.56,64.37,4.94,87s-61.66,20.43-87-4.91a58.17,58.17,0,1,1,82.06-82.12Z" transform="translate(-599.05 -322.71)"/><path id="Trazado_9690" data-name="Trazado 9690" class="cls-41" d="M715.72,358.1c25.07,25.06,27.28,63.72,4.9,86.12s-61,20.22-86.13-4.87a57.6,57.6,0,1,1,81.26-81.25Z" transform="translate(-599.05 -322.71)"/><path id="Trazado_9691" data-name="Trazado 9691" class="cls-42" d="M715.2,358.38c24.86,24.83,27,63.06,4.84,85.24s-60.41,20-85.26-4.81-25.37-61.45-3.18-83.64S690.35,333.53,715.2,358.38Z" transform="translate(-599.05 -322.71)"/><path id="Trazado_9692" data-name="Trazado 9692" class="cls-43" d="M714.6,358.64c24.59,24.59,26.71,62.44,4.79,84.38s-59.82,19.81-84.39-4.76-25.26-61-3.31-82.93S690.07,334.08,714.6,358.64Z" transform="translate(-599.05 -322.71)"/><path id="Trazado_9693" data-name="Trazado 9693" class="cls-44" d="M714.09,358.93c24.33,24.33,26.45,61.78,4.74,83.5s-59.2,19.59-83.51-4.71-25.16-60.51-3.45-82.22S689.8,334.59,714.09,358.93Z" transform="translate(-599.05 -322.71)"/><path id="Trazado_9694" data-name="Trazado 9694" class="cls-45" d="M713.54,359.21c24.08,24.08,26.17,61.14,4.69,82.62s-58.58,19.39-82.65-4.68-25.06-60-3.51-81.49S689.48,335.14,713.54,359.21Z" transform="translate(-599.05 -322.71)"/><path id="Trazado_9695" data-name="Trazado 9695" class="cls-46" d="M713,359.46c23.81,23.84,25.89,60.51,4.63,81.77s-57.91,19.19-81.77-4.63-24.93-59.5-3.65-80.79S689.19,335.65,713,359.46Z" transform="translate(-599.05 -322.71)"/><path id="Trazado_9696" data-name="Trazado 9696" class="cls-47" d="M712.46,359.75c23.56,23.55,25.61,59.84,4.59,80.89s-57.34,19-80.9-4.58-24.82-59-3.77-80.06S688.86,336.2,712.46,359.75Z" transform="translate(-599.05 -322.71)"/><path id="Trazado_9697" data-name="Trazado 9697" class="cls-48" d="M711.92,360c23.34,23.34,25.34,59.2,4.53,80s-56.72,18.79-80-4.53-24.69-58.55-3.88-79.36S688.6,336.71,711.92,360Z" transform="translate(-599.05 -322.71)"/><path id="Trazado_9698" data-name="Trazado 9698" class="cls-49" d="M711.38,360.3c23,23.06,25.07,58.58,4.48,79.15S659.77,458,636.71,435s-24.6-58.07-4-78.66S688.31,337.26,711.38,360.3Z" transform="translate(-599.05 -322.71)"/><path id="Trazado_9699" data-name="Trazado 9699" class="cls-50" d="M710.8,360.59c22.81,22.8,24.8,57.91,4.46,78.27s-55.5,18.38-78.28-4.43-24.46-57.59-4.11-78S688,337.78,710.8,360.59Z" transform="translate(-599.05 -322.71)"/><path id="Trazado_9700" data-name="Trazado 9700" class="cls-51" d="M710.27,360.86c22.54,22.55,24.51,57.26,4.4,77.4s-54.87,18.15-77.43-4.37-24.33-57.11-4.22-77.25S687.72,338.32,710.27,360.86Z" transform="translate(-599.05 -322.71)"/><path id="Trazado_9701" data-name="Trazado 9701" d="M709.71,361.12C732,383.43,734,417.76,714,437.66s-54.26,18-76.55-4.32-24.2-56.63-4.32-76.54S687.43,338.84,709.71,361.12Z" transform="translate(-599.05 -322.71)"/></g><g id="Grupo_6678" data-name="Grupo 6678"><g id="Grupo_6676" data-name="Grupo 6676"><path id="Trazado_9702" data-name="Trazado 9702" class="cls-52" d="M673.79,465.32a68.65,68.65,0,1,1,68.65-68.67A68.64,68.64,0,0,1,673.79,465.32Z" transform="translate(-599.05 -322.71)"/></g><g id="Grupo_6677" data-name="Grupo 6677"><path id="Trazado_9703" data-name="Trazado 9703" class="cls-53" d="M636.21,440.09l37.58-92.91,37.58,92.91Z" transform="translate(-599.05 -322.71)"/><path id="Trazado_9704" data-name="Trazado 9704" d="M643,435.5l30.77-76.06,30.77,76.06Z" transform="translate(-599.05 -322.71)"/><path id="Trazado_9705" data-name="Trazado 9705" class="cls-54" d="M636.21,440.1l37.58-46.55,37.58,46.55Z" transform="translate(-599.05 -322.71)"/></g></g></g></svg>