<svg id="Capa_1" data-name="Capa 1" xmlns="http://www.w3.org/2000/svg" viewBox="0 0 52.43 42.62"><defs><style>.cls-1{fill:#f07e00;fill-rule:evenodd;}</style></defs><g id="Grupo_7023" data-name="Grupo 7023"><path id="Trazado_9814" data-name="Trazado 9814" class="cls-1" d="M662,395.89a2.32,2.32,0,1,1-2.31,2.31h0A2.31,2.31,0,0,1,662,395.89Z" transform="translate(-652.57 -362.98)"/></g><path id="Trazado_10165" data-name="Trazado 10165" class="cls-1" d="M698.44,405.57H659.1a6.55,6.55,0,0,1-6.53-6.55V376.08a6.55,6.55,0,0,1,6.18-6.53l2.4-4.21a5.63,5.63,0,0,1,4.63-2.36h9.83a5.65,5.65,0,0,1,4.64,2.36l2.41,4.19h14.16a1.64,1.64,0,1,1,0,3.27H682.07a2.46,2.46,0,0,1-.85-.16h0a3.26,3.26,0,0,1-1.72-1.4l-1.85-3.41a3.55,3.55,0,0,0-2.93-1.58h-8.26a3.48,3.48,0,0,0-2.91,1.58l-1.83,3.41a2.68,2.68,0,0,1-2.58,1.56,4,4,0,0,0-3.27,4.1v21.3a4.08,4.08,0,0,0,3.76,4.06l.33,0h37.68a4.1,4.1,0,0,0,4.1-4.09V383.45a4.12,4.12,0,0,0-4.1-4.1H664.88a2.46,2.46,0,0,0-2.46,2.46v9a1.64,1.64,0,0,1-3.27,0v-8.17a5,5,0,0,1,0-.55c0-.09,0-.18,0-.27V381a4.91,4.91,0,0,1,4.91-4.91h.8a2.66,2.66,0,0,1,.28,0l.54,0h32.77a6.56,6.56,0,0,1,6.55,6.56v16.38a6.55,6.55,0,0,1-6.55,6.55h0Z" transform="translate(-652.57 -362.98)"/></svg>