<svg id="Capa_1" data-name="Capa 1" xmlns="http://www.w3.org/2000/svg" viewBox="0 0 91.96 74.76"><defs><style>.cls-1{fill:#fbbd06;}.cls-1,.cls-2{fill-rule:evenodd;}.cls-2{fill:#34353c;}</style></defs><g id="Grupo_7023" data-name="Grupo 7023"><path id="Trazado_9814" data-name="Trazado 9814" class="cls-1" d="M653.11,404a4.06,4.06,0,1,1-4.06,4.05h0A4.06,4.06,0,0,1,653.11,404Z" transform="translate(-636.55 -346.28)"/></g><path id="Trazado_10165" data-name="Trazado 10165" class="cls-2" d="M717,421H648a11.51,11.51,0,0,1-11.46-11.5V369.27a11.49,11.49,0,0,1,10.83-11.46l4.23-7.37a9.86,9.86,0,0,1,8.11-4.16H677a9.94,9.94,0,0,1,8.15,4.16l4.22,7.33h24.84a2.88,2.88,0,0,1,0,5.75H688.3a4.53,4.53,0,0,1-1.5-.28h0a5.6,5.6,0,0,1-3-2.47l-3.25-6a6.2,6.2,0,0,0-5.13-2.77H660.92a6.11,6.11,0,0,0-5.12,2.77l-3.21,6a4.66,4.66,0,0,1-4.51,2.75,7,7,0,0,0-5.75,7.18v37.36a7.18,7.18,0,0,0,6.61,7.13,2.78,2.78,0,0,0,.58.05h66.09a7.17,7.17,0,0,0,7.18-7.18V382.19a7.18,7.18,0,0,0-7.18-7.18H658.14a4.31,4.31,0,0,0-4.31,4.31v15.81a2.87,2.87,0,0,1-5.74,0V380.78a6,6,0,0,1,0-.95c0-.17,0-.32,0-.48v-1.41a8.61,8.61,0,0,1,8.61-8.62h1.41c.17,0,.32,0,.48.05.32,0,.64-.05,1-.05H717a11.5,11.5,0,0,1,11.49,11.5v28.73A11.49,11.49,0,0,1,717,421h0Z" transform="translate(-636.55 -346.28)"/></svg>