<svg id="Capa_1" data-name="Capa 1" xmlns="http://www.w3.org/2000/svg" viewBox="0 0 155.07 155.08"><defs><style>.cls-1,.cls-53{fill:#fff;}.cls-1{fill-opacity:0;}.cls-2{fill:#fafafa;opacity:0.02;}.cls-10,.cls-11,.cls-12,.cls-13,.cls-14,.cls-15,.cls-16,.cls-17,.cls-18,.cls-19,.cls-2,.cls-20,.cls-21,.cls-22,.cls-23,.cls-24,.cls-25,.cls-26,.cls-27,.cls-28,.cls-29,.cls-3,.cls-30,.cls-31,.cls-32,.cls-33,.cls-34,.cls-35,.cls-36,.cls-37,.cls-38,.cls-39,.cls-4,.cls-40,.cls-41,.cls-42,.cls-43,.cls-44,.cls-45,.cls-46,.cls-47,.cls-48,.cls-49,.cls-5,.cls-50,.cls-51,.cls-6,.cls-7,.cls-8,.cls-9{isolation:isolate;}.cls-3{fill:#f5f5f5;opacity:0.04;}.cls-4{fill:#f0f0f0;opacity:0.06;}.cls-5{fill:#ebebeb;opacity:0.08;}.cls-6{fill:#e6e6e6;opacity:0.1;}.cls-7{fill:#e1e1e1;opacity:0.12;}.cls-8{fill:#dcdcdc;opacity:0.14;}.cls-9{fill:#d7d7d7;opacity:0.16;}.cls-10{fill:#d2d2d2;opacity:0.18;}.cls-11{fill:#cdcdcd;opacity:0.2;}.cls-12{fill:#c8c8c8;opacity:0.22;}.cls-13{fill:#c3c3c3;opacity:0.23;}.cls-14{fill:#bebebe;opacity:0.25;}.cls-15{fill:#b9b9b9;opacity:0.28;}.cls-16{fill:#b4b4b4;opacity:0.29;}.cls-17{fill:#afafaf;opacity:0.31;}.cls-18{fill:#aaa;opacity:0.33;}.cls-19{fill:#a5a5a5;opacity:0.35;}.cls-20{fill:#a0a0a0;opacity:0.37;}.cls-21{fill:#9b9b9b;opacity:0.39;}.cls-22{fill:#969696;opacity:0.41;}.cls-23{fill:#919191;opacity:0.43;}.cls-24{fill:#8c8c8c;opacity:0.45;}.cls-25{fill:#878787;opacity:0.47;}.cls-26{fill:#828282;opacity:0.49;}.cls-27{fill:#7d7d7d;opacity:0.51;}.cls-28{fill:#787878;opacity:0.53;}.cls-29{fill:#737373;opacity:0.55;}.cls-30{fill:#6e6e6e;opacity:0.57;}.cls-31{fill:#696969;opacity:0.59;}.cls-32{fill:#646464;opacity:0.61;}.cls-33{fill:#5f5f5f;opacity:0.63;}.cls-34{fill:#5a5a5a;opacity:0.65;}.cls-35{fill:#555;opacity:0.67;}.cls-36{fill:#505050;opacity:0.69;}.cls-37{fill:#4b4b4b;opacity:0.71;}.cls-38{fill:#464646;opacity:0.73;}.cls-39{fill:#414141;opacity:0.75;}.cls-40{fill:#3c3c3c;opacity:0.76;}.cls-41{fill:#373737;opacity:0.78;}.cls-42{fill:#323232;opacity:0.8;}.cls-43{fill:#2d2d2d;opacity:0.82;}.cls-44{fill:#282828;opacity:0.84;}.cls-45{fill:#232323;opacity:0.86;}.cls-46{fill:#1e1e1e;opacity:0.88;}.cls-47{fill:#191919;opacity:0.9;}.cls-48{fill:#141414;opacity:0.92;}.cls-49{fill:#0f0f0f;opacity:0.94;}.cls-50{fill:#0a0a0a;opacity:0.96;}.cls-51{fill:#050505;opacity:0.98;}.cls-52{fill:#357d40;}.cls-54{fill:#b30b2c;}.cls-55{fill:#ebc726;}</style></defs><g id="Grupo_6687" data-name="Grupo 6687"><g id="Grupo_6105" data-name="Grupo 6105"><path id="Trazado_7323" data-name="Trazado 7323" class="cls-1" d="M734.08,351.79c32.72,32.72,35.55,83.08,6.36,112.3s-79.6,26.35-112.3-6.34-27.88-75.44,1.32-104.63S701.38,319.09,734.08,351.79Z" transform="translate(-605.53 -329.19)"/><path id="Trazado_7324" data-name="Trazado 7324" class="cls-2" d="M733.58,352.05c32.48,32.49,35.26,82.48,6.32,111.48s-79,26.17-111.53-6.32-27.77-74.94,1.22-103.93S701.09,319.57,733.58,352.05Z" transform="translate(-605.53 -329.19)"/><path id="Trazado_7325" data-name="Trazado 7325" class="cls-3" d="M733.08,352.32c32.25,32.24,35.06,81.88,6.28,110.65s-78.45,26-110.71-6.27S601,382.2,629.78,353.37,700.82,320.07,733.08,352.32Z" transform="translate(-605.53 -329.19)"/><path id="Trazado_7326" data-name="Trazado 7326" class="cls-4" d="M732.56,352.56c32,32,34.78,81.3,6.22,109.89s-77.9,25.78-109.88-6.23-27.58-74.05,1-102.63S700.53,320.56,732.56,352.56Z" transform="translate(-605.53 -329.19)"/><path id="Trazado_7327" data-name="Trazado 7327" class="cls-5" d="M732.06,352.82c31.76,31.76,34.52,80.67,6.17,109.06s-77.29,25.59-109.06-6.17-27.47-73.62.88-102S700.3,321.06,732.06,352.82Z" transform="translate(-605.53 -329.19)"/><path id="Trazado_7328" data-name="Trazado 7328" class="cls-6" d="M731.56,353.09c31.52,31.52,34.26,80.07,6.12,108.24S661,486.75,629.44,455.21s-27.34-73.16.82-101.32S700,321.54,731.56,353.09Z" transform="translate(-605.53 -329.19)"/><path id="Trazado_7329" data-name="Trazado 7329" class="cls-7" d="M731.05,353.32c31.28,31.31,34,79.51,6.08,107.43S661,486,629.7,454.67,602.46,382,630.4,354,699.75,322,731.05,353.32Z" transform="translate(-605.53 -329.19)"/><path id="Trazado_7330" data-name="Trazado 7330" class="cls-8" d="M730.54,353.59c31,31.06,33.75,78.89,6,106.6s-75.59,25-106.61-6-27.15-72.28.58-100S699.48,322.52,730.54,353.59Z" transform="translate(-605.53 -329.19)"/><path id="Trazado_7331" data-name="Trazado 7331" class="cls-9" d="M730,353.86c30.82,30.82,33.51,78.3,6,105.78s-75,24.84-105.84-6-27.06-71.84.49-99.35S699.19,323,730,353.86Z" transform="translate(-605.53 -329.19)"/><path id="Trazado_7332" data-name="Trazado 7332" class="cls-10" d="M729.51,354.1c30.61,30.58,33.25,77.7,6,105s-74.43,24.65-105-5.94a70.06,70.06,0,0,1,99.06-99.07Z" transform="translate(-605.53 -329.19)"/><path id="Trazado_7333" data-name="Trazado 7333" class="cls-11" d="M729,354.36c30.34,30.34,33,77.08,5.91,104.19s-73.85,24.47-104.2-5.88A69.52,69.52,0,1,1,729,354.35h0Z" transform="translate(-605.53 -329.19)"/><path id="Trazado_7334" data-name="Trazado 7334" class="cls-12" d="M728.5,354.62c30.13,30.1,32.74,76.49,5.86,103.38S661.08,482.27,631,452.17a69,69,0,1,1,97.55-97.55Z" transform="translate(-605.53 -329.19)"/><path id="Trazado_7335" data-name="Trazado 7335" class="cls-13" d="M728,354.86c29.89,29.89,32.48,75.92,5.81,102.59s-72.69,24.07-102.59-5.82A68.43,68.43,0,0,1,728,354.87Z" transform="translate(-605.53 -329.19)"/><path id="Trazado_7336" data-name="Trazado 7336" class="cls-14" d="M727.49,355.13c29.65,29.64,32.22,75.3,5.74,101.77s-72.16,23.88-101.77-5.74a67.89,67.89,0,1,1,96-96h0Z" transform="translate(-605.53 -329.19)"/><path id="Trazado_7337" data-name="Trazado 7337" class="cls-15" d="M727,355.39c29.41,29.41,32,74.7,5.74,101s-71.57,23.69-101-5.74a67.35,67.35,0,0,1,93.29-97.17Q726.08,354.4,727,355.39Z" transform="translate(-605.53 -329.19)"/><path id="Trazado_7338" data-name="Trazado 7338" class="cls-16" d="M726.45,355.64c29.17,29.19,31.71,74.11,5.67,100.16s-71,23.49-100.17-5.67a66.82,66.82,0,1,1,94.35-94.64Z" transform="translate(-605.53 -329.19)"/><path id="Trazado_7339" data-name="Trazado 7339" class="cls-17" d="M726,355.89c28.92,28.92,31.45,73.52,5.63,99.35s-70.42,23.33-99.35-5.63A66.27,66.27,0,0,1,725,354.87Z" transform="translate(-605.53 -329.19)"/><path id="Trazado_7340" data-name="Trazado 7340" class="cls-18" d="M725.47,356.16c28.7,28.7,31.16,72.9,5.58,98.53s-69.84,23.13-98.55-5.58a65.74,65.74,0,0,1,91.59-94.33Q724.79,355.46,725.47,356.16Z" transform="translate(-605.53 -329.19)"/><path id="Trazado_7341" data-name="Trazado 7341" class="cls-19" d="M724.94,356.4c28.47,28.47,31,72.32,5.55,97.73s-69.27,23-97.73-5.52a65.2,65.2,0,1,1,90.48-93.91C723.82,355.26,724.38,355.82,724.94,356.4Z" transform="translate(-605.53 -329.19)"/><path id="Trazado_7342" data-name="Trazado 7342" class="cls-20" d="M724.44,356.66c28.23,28.23,30.7,71.72,5.5,96.92s-68.69,22.75-96.92-5.47a64.66,64.66,0,1,1,89.88-93C723.42,355.63,723.94,356.14,724.44,356.66Z" transform="translate(-605.53 -329.19)"/><path id="Trazado_7343" data-name="Trazado 7343" class="cls-21" d="M723.94,356.92c28,28,30.44,71.12,5.45,96.11s-68.11,22.56-96.12-5.43a64.13,64.13,0,1,1,88.88-92.46C722.76,355.72,723.36,356.32,723.94,356.92Z" transform="translate(-605.53 -329.19)"/><path id="Trazado_7344" data-name="Trazado 7344" class="cls-22" d="M723.43,357.17c27.78,27.78,30.18,70.52,5.41,95.31s-67.57,22.37-95.31-5.38a63.59,63.59,0,1,1,87.89-91.93C722.11,355.82,722.78,356.49,723.43,357.17Z" transform="translate(-605.53 -329.19)"/><path id="Trazado_7345" data-name="Trazado 7345" class="cls-23" d="M722.93,357.43c27.54,27.54,29.93,69.92,5.36,94.5s-67,22.14-94.5-5.36a63,63,0,1,1,86.88-91.38q1.16,1.1,2.25,2.25Z" transform="translate(-605.53 -329.19)"/><path id="Trazado_7346" data-name="Trazado 7346" class="cls-24" d="M722.42,357.7c27.29,27.29,29.67,69.31,5.31,93.67s-66.43,22-93.7-5.31a62.51,62.51,0,1,1,86.29-90.47C721,356.28,721.74,357,722.42,357.7Z" transform="translate(-605.53 -329.19)"/><path id="Trazado_7347" data-name="Trazado 7347" class="cls-25" d="M721.91,357.93c27.07,27.06,29.41,68.74,5.27,92.88s-65.83,21.79-92.88-5.26a62,62,0,0,1,85.34-89.91q1.17,1.11,2.28,2.28Z" transform="translate(-605.53 -329.19)"/><path id="Trazado_7348" data-name="Trazado 7348" class="cls-26" d="M721.41,358.2c26.82,26.82,29.15,68.12,5.22,92.07s-65.25,21.63-92.07-5.21a61.44,61.44,0,0,1,84.38-89.33C719.79,356.53,720.61,357.36,721.41,358.2Z" transform="translate(-605.53 -329.19)"/><path id="Trazado_7349" data-name="Trazado 7349" class="cls-27" d="M721,358.47c26.57,26.57,28.89,67.51,5.16,91.24s-64.67,21.43-91.27-5.16a60.92,60.92,0,0,1,83.51-88.71c.89.84,1.76,1.71,2.6,2.6Z" transform="translate(-605.53 -329.19)"/><path id="Trazado_7350" data-name="Trazado 7350" class="cls-28" d="M720.36,358.7c26.34,26.36,28.64,66.94,5.12,90.46s-64.1,21.24-90.46-5.11a60.38,60.38,0,0,1,82.48-88.21C718.49,356.76,719.44,357.72,720.36,358.7Z" transform="translate(-605.53 -329.19)"/><path id="Trazado_7351" data-name="Trazado 7351" class="cls-29" d="M719.9,359c26.1,26.11,28.38,66.33,5.07,89.64s-63.54,21-89.64-5.07A59.87,59.87,0,0,1,716,355.1Q718.07,356.94,719.9,359Z" transform="translate(-605.53 -329.19)"/><path id="Trazado_7352" data-name="Trazado 7352" class="cls-30" d="M719.37,359.23c25.87,25.87,28.14,65.71,5,88.82s-63,20.85-88.85-5a59.31,59.31,0,0,1,80.36-87.24C717.13,356.89,718.27,358,719.37,359.23Z" transform="translate(-605.53 -329.19)"/><path id="Trazado_7353" data-name="Trazado 7353" class="cls-31" d="M718.87,359.47c25.66,25.66,27.88,65.14,5,88s-62.4,20.66-88-5A58.78,58.78,0,0,1,715.33,356q1.84,1.69,3.53,3.53Z" transform="translate(-605.53 -329.19)"/><path id="Trazado_7354" data-name="Trazado 7354" class="cls-32" d="M718.36,359.74c25.42,25.42,27.63,64.53,4.92,87.21s-61.81,20.5-87.21-4.92a58.22,58.22,0,1,1,79-85.55q1.7,1.56,3.27,3.27Z" transform="translate(-605.53 -329.19)"/><path id="Trazado_7355" data-name="Trazado 7355" class="cls-33" d="M717.85,360c25.18,25.15,27.37,64,4.93,86.39s-61.25,20.28-86.42-4.88a57.7,57.7,0,1,1,77.71-85.32c1.33,1.21,2.6,2.47,3.81,3.8Z" transform="translate(-605.53 -329.19)"/><path id="Trazado_7356" data-name="Trazado 7356" class="cls-34" d="M717.35,360.25c24.94,24.93,27.07,63.33,4.86,85.6S661.53,465.93,636.6,441a57.18,57.18,0,0,1,76.62-84.89A55.62,55.62,0,0,1,717.35,360.25Z" transform="translate(-605.53 -329.19)"/><path id="Trazado_7357" data-name="Trazado 7357" class="cls-35" d="M716.85,360.52c24.7,24.7,26.85,62.73,4.8,84.78s-60.08,19.9-84.78-4.8a56.64,56.64,0,1,1,75.54-84.42A58.12,58.12,0,0,1,716.85,360.52Z" transform="translate(-605.53 -329.19)"/><path id="Trazado_7358" data-name="Trazado 7358" class="cls-36" d="M716.35,360.78c24.45,24.45,26.59,62.13,4.75,84s-59.53,19.72-84-4.75a56.12,56.12,0,1,1,79.24-79.21Z" transform="translate(-605.53 -329.19)"/><path id="Trazado_7359" data-name="Trazado 7359" class="cls-37" d="M715.85,361c24.21,24.24,26.33,61.55,4.7,83.17s-59,19.54-83.17-4.7A55.58,55.58,0,1,1,715.85,361Z" transform="translate(-605.53 -329.19)"/><path id="Trazado_7360" data-name="Trazado 7360" class="cls-38" d="M715.34,361.28c24,24,26.07,60.93,4.66,82.36S661.62,463,637.64,439a55,55,0,1,1,72.82-82.57A53.4,53.4,0,0,1,715.34,361.28Z" transform="translate(-605.53 -329.19)"/><path id="Trazado_7361" data-name="Trazado 7361" class="cls-39" d="M714.85,361.54c23.74,23.78,25.81,60.33,4.61,81.55s-57.8,19.15-81.57-4.62a54.52,54.52,0,0,1,71.85-82,53.48,53.48,0,0,1,5.11,5.1Z" transform="translate(-605.53 -329.19)"/><path id="Trazado_7362" data-name="Trazado 7362" class="cls-40" d="M714.27,361.78c23.52,23.52,25.59,59.75,4.59,80.75s-57.23,19-80.75-4.57a54,54,0,1,1,76.16-76.18Z" transform="translate(-605.53 -329.19)"/><path id="Trazado_7363" data-name="Trazado 7363" class="cls-41" d="M713.8,362.05c23.3,23.28,25.32,59.15,4.54,79.93s-56.65,18.76-79.93-4.52a53.46,53.46,0,1,1,70.14-80.69A52,52,0,0,1,713.8,362Z" transform="translate(-605.53 -329.19)"/><path id="Trazado_7364" data-name="Trazado 7364" class="cls-42" d="M713.3,362.31c23.06,23.05,25.06,58.53,4.49,79.12S661.71,460,638.65,437a52.93,52.93,0,0,1,68.68-80.56,52.06,52.06,0,0,1,5.94,5.94Z" transform="translate(-605.53 -329.19)"/><path id="Trazado_7365" data-name="Trazado 7365" class="cls-43" d="M712.79,362.55c22.82,22.82,24.8,57.95,4.44,78.32s-55.5,18.38-78.32-4.42a52.42,52.42,0,1,1,73.88-73.9Z" transform="translate(-605.53 -329.19)"/><path id="Trazado_7366" data-name="Trazado 7366" class="cls-44" d="M712.29,362.81c22.58,22.59,24.55,57.35,4.39,77.51s-54.94,18.18-77.5-4.38-23.36-56.14-3.2-76.26S689.7,340.23,712.29,362.81Z" transform="translate(-605.53 -329.19)"/><path id="Trazado_7367" data-name="Trazado 7367" class="cls-45" d="M711.78,363.08c22.34,22.35,24.29,56.75,4.34,76.69s-54.36,18-76.71-4.34-23.23-55.69-3.28-75.64S689.43,340.74,711.78,363.08Z" transform="translate(-605.53 -329.19)"/><path id="Trazado_7368" data-name="Trazado 7368" class="cls-46" d="M711.28,363.31c22.14,22.14,24,56.15,4.3,75.9s-53.8,17.83-75.9-4.3-23.13-55.24-3.39-75S689.18,341.21,711.28,363.31Z" transform="translate(-605.53 -329.19)"/><path id="Trazado_7369" data-name="Trazado 7369" class="cls-47" d="M710.77,363.58c21.86,21.87,23.78,55.55,4.26,75.09s-53.22,17.63-75.09-4.26-23-54.8-3.51-74.31S688.9,341.72,710.77,363.58Z" transform="translate(-605.53 -329.19)"/><path id="Trazado_7370" data-name="Trazado 7370" class="cls-48" d="M710.26,363.85c21.63,21.62,23.52,54.94,4.21,74.26s-52.64,17.44-74.29-4.21-23-54.34-3.6-73.66S688.62,342.2,710.26,363.85Z" transform="translate(-605.53 -329.19)"/><path id="Trazado_7371" data-name="Trazado 7371" class="cls-49" d="M709.76,364.09c21.38,21.41,23.26,54.37,4.16,73.47s-52.07,17.22-73.47-4.16-22.8-53.88-3.7-73S688.35,342.7,709.76,364.09Z" transform="translate(-605.53 -329.19)"/><path id="Trazado_7372" data-name="Trazado 7372" class="cls-50" d="M709.26,364.35c21.14,21.17,23,53.77,4.1,72.66s-51.48,17.06-72.66-4.1-22.7-53.46-3.82-72.34S688.1,343.19,709.26,364.35Z" transform="translate(-605.53 -329.19)"/><path id="Trazado_7373" data-name="Trazado 7373" class="cls-51" d="M708.73,364.62c20.95,20.92,22.75,53.14,4.1,71.83s-50.94,16.87-71.86-4.1-22.59-53-3.92-71.69S687.81,343.69,708.73,364.62Z" transform="translate(-605.53 -329.19)"/><path id="Trazado_7374" data-name="Trazado 7374" d="M708.22,364.85c20.71,20.71,22.51,52.57,4,71s-50.36,16.67-71-4-22.45-52.57-4-71.08S687.54,344.17,708.22,364.85Z" transform="translate(-605.53 -329.19)"/></g><g id="Grupo_6107" data-name="Grupo 6107"><g id="Grupo_6106" data-name="Grupo 6106"><path id="Trazado_7375" data-name="Trazado 7375" class="cls-52" d="M725.85,359.6H623.93a63.69,63.69,0,0,1,101.89,0Z" transform="translate(-605.53 -329.19)"/><path id="Trazado_7376" data-name="Trazado 7376" class="cls-52" d="M725.85,436.09a63.69,63.69,0,0,1-101.89,0Z" transform="translate(-605.53 -329.19)"/><path id="Trazado_7377" data-name="Trazado 7377" class="cls-53" d="M733.26,372.31H616.5a64.38,64.38,0,0,1,7.42-12.71H725.81A63.27,63.27,0,0,1,733.26,372.31Z" transform="translate(-605.53 -329.19)"/><path id="Trazado_7378" data-name="Trazado 7378" class="cls-54" d="M738.59,397.84a63,63,0,0,1-5.35,25.56H616.5a63.82,63.82,0,0,1,0-51.11H733.24A63,63,0,0,1,738.59,397.84Z" transform="translate(-605.53 -329.19)"/><path id="Trazado_7379" data-name="Trazado 7379" class="cls-53" d="M733.26,423.41a63.72,63.72,0,0,1-7.43,12.68H623.92a64.45,64.45,0,0,1-7.42-12.68Z" transform="translate(-605.53 -329.19)"/></g><path id="Trazado_7380" data-name="Trazado 7380" class="cls-55" d="M674.88,374.82l5.74,17.59h18.5l-15,10.87,5.74,17.59-15-10.87-15,10.87,5.74-17.59-15-10.87h18.5Z" transform="translate(-605.53 -329.19)"/></g></g></svg>