<svg id="Capa_1" data-name="Capa 1" xmlns="http://www.w3.org/2000/svg" viewBox="0 0 153.49 196.82"><defs><style>.cls-1{fill:#fff;}.cls-2{fill:none;}</style></defs><g id="Grupo_6794" data-name="Grupo 6794"><path id="Trazado_9849" data-name="Trazado 9849" class="cls-1" d="M682.5,482H623.29a16.55,16.55,0,0,1-16.62-11.68,19.65,19.65,0,0,1-.82-5.59c-.06-15.71,0-31.42,0-47.12a7.58,7.58,0,0,1,2.67-6.13,3.2,3.2,0,0,0,.7-2.17q0-23.73,0-47.47V299.05a13.11,13.11,0,0,1,10.19-13.42,18.79,18.79,0,0,1,4.23-.41q40.46,0,80.9,0a4,4,0,0,1,3.08,1.34q23.49,23.55,47,47a4,4,0,0,1,1.24,3.12q0,42,0,83.92a3.21,3.21,0,0,0,1.24,2.89,6.15,6.15,0,0,1,2.17,5.05c0,12.27.12,24.54,0,36.81A16.56,16.56,0,0,1,742.74,482l-.87,0q-29.7.06-59.39,0Zm19.08-190.11h-78c-5.18,0-7.73,2.55-7.73,7.78q0,54.24,0,108.49c0,1.62.42,2.08,2.07,2.08,14.82-.07,29.64,0,44.46-.07a7.71,7.71,0,0,1,6.37,2.89c2,2.46,4.23,4.8,6.28,7.26a3.35,3.35,0,0,0,2.86,1.34q34.68-.06,69.36,0h1.85V339.53H747c-10.31,0-20.63-.23-30.94.07a13.84,13.84,0,0,1-14.48-13.16c0-.43,0-.86,0-1.28.22-10.32.06-20.63.06-31Z" transform="translate(-605.8 -285.18)"/><path id="Trazado_9850" data-name="Trazado 9850" class="cls-2" d="M701.58,291.87v2.34c0,10.31.17,20.63-.05,30.94a13.84,13.84,0,0,0,13.2,14.45c.43,0,.86,0,1.28,0,10.31-.29,20.63-.07,31-.07h2.1v82.09h-1.84l-69.36,0A3.33,3.33,0,0,1,675,420.3c-2-2.46-4.23-4.8-6.28-7.26a7.68,7.68,0,0,0-6.37-2.89c-14.82.05-29.64,0-44.46.06-1.65,0-2.07-.45-2.07-2.08q.06-54.24,0-108.48c0-5.23,2.54-7.78,7.72-7.78h78Zm34.26,56.68H629.3V355H735.84Zm-106.6,21.07H735.76V363.2H629.24Zm58.94-35.71H629.3v6.44h58.88Zm-11.26,50.34h58.87v-6.37H676.93Z" transform="translate(-605.8 -285.18)"/><path id="Trazado_9851" data-name="Trazado 9851" class="cls-1" d="M735.84,348.54V355H629.3v-6.45Z" transform="translate(-605.8 -285.18)"/><path id="Trazado_9852" data-name="Trazado 9852" class="cls-1" d="M629.25,369.62V363.2H735.76v6.42Z" transform="translate(-605.8 -285.18)"/><path id="Trazado_9853" data-name="Trazado 9853" class="cls-1" d="M688.18,333.9v6.44H629.3V333.9Z" transform="translate(-605.8 -285.18)"/><path id="Trazado_9854" data-name="Trazado 9854" class="cls-1" d="M676.93,384.25v-6.37H735.8v6.37Z" transform="translate(-605.8 -285.18)"/></g></svg>