<svg id="Capa_1" data-name="Capa 1" xmlns="http://www.w3.org/2000/svg" viewBox="0 0 122.01 121.93"><defs><style>.cls-1{fill:#fff;fill-rule:evenodd;}</style></defs><path id="Trazado_10396" data-name="Trazado 10396" class="cls-1" d="M658.47,394.66a3.82,3.82,0,1,1,5.4,0h0A3.82,3.82,0,0,1,658.47,394.66Zm81-37.76-10.79,10.79a14.76,14.76,0,0,1-2,1.68c-.28.2-.58.38-.88.57s-.81.47-1.23.67a15.67,15.67,0,0,1-3.05,1.11,15.2,15.2,0,0,1-14.39-4,2.5,2.5,0,0,0-1.46-.82,15.26,15.26,0,0,0-18.8,2.17l-14.83,14.84h0a3.83,3.83,0,0,1-5.4-5.4h0l14.84-14.83a22.94,22.94,0,0,1,31.25-1.06l.09-.07a7.61,7.61,0,0,0,10.52-.21l10.79-10.79a7.63,7.63,0,0,0,0-10.79l-4.93-4.93h0l-.47-.46a2.15,2.15,0,0,0-.67-.49c-12.14-9.76-40.09.76-66.82,27.48S624.07,416.81,633.66,429a2.87,2.87,0,0,0,.58.84l.47.47h0l4.92,4.93a7.65,7.65,0,0,0,10.79,0l10.79-10.79a7.62,7.62,0,0,0,.22-10.53l.06-.08-.28-.19a3.82,3.82,0,0,1,5.4-5.39h0a15.22,15.22,0,0,1,4,14.38,16.61,16.61,0,0,1-1.11,3.05,10.65,10.65,0,0,1-.67,1.23c-.27.4-.37.59-.56.87a15.11,15.11,0,0,1-1.68,2.06l-10.79,10.79a15.28,15.28,0,0,1-21.58,0l-6.74-6.74C614,420.49,626.12,386.66,655.83,357s63.55-41.77,77-28.33l6.74,6.75a15.26,15.26,0,0,1,0,21.58Z" transform="translate(-622.01 -323.18)"/></svg>