<svg id="Capa_1" data-name="Capa 1" xmlns="http://www.w3.org/2000/svg" viewBox="0 0 18.44 18.41"><defs><style>.cls-1{fill:none;stroke:#f07e00;}</style></defs><path id="Trazado_3879" data-name="Trazado 3879" class="cls-1" d="M876.63,378.9a6.47,6.47,0,0,1,.15-.88,2.36,2.36,0,0,1,.4-.75c.52-.63,1.08-1.24,1.62-1.86a1.12,1.12,0,0,1,1.57-.23.52.52,0,0,1,.11.1,1.71,1.71,0,0,1,.2.18l2.57,2.57.16.17a1.09,1.09,0,0,1,0,1.52c-.33.36-.69.7-1,1a2.22,2.22,0,0,0-.28.33.78.78,0,0,0,.1,1.06l4.67,4.67a.77.77,0,0,0,1,.11,3.37,3.37,0,0,0,.35-.29c.33-.33.66-.68,1-1a1.08,1.08,0,0,1,1.52-.08l.08.08c.95.92,1.9,1.86,2.82,2.82a1.11,1.11,0,0,1,.12,1.58,1,1,0,0,1-.22.2c-.55.48-1.11.94-1.64,1.45a2.48,2.48,0,0,1-1.71.66,7.32,7.32,0,0,1-2.88-.6,17.45,17.45,0,0,1-5.09-3.25,19.55,19.55,0,0,1-4.52-5.78,9.74,9.74,0,0,1-1-3C876.68,379.48,876.67,379.22,876.63,378.9Z" transform="translate(-876.13 -374.46)"/></svg>