<svg id="Capa_1" data-name="Capa 1" xmlns="http://www.w3.org/2000/svg" viewBox="0 0 65.79 65.68"><defs><style>.cls-1{fill:none;stroke:#f07e00;}</style></defs><path id="Trazado_4071" data-name="Trazado 4071" class="cls-1" d="M988.17,366a21.14,21.14,0,0,1,.55-3.26,8.55,8.55,0,0,1,1.49-2.79c1.94-2.36,4-4.63,6-6.92a4.17,4.17,0,0,1,5.82-.86l.43.37a9.73,9.73,0,0,1,.74.69l9.52,9.52c.21.21.41.42.6.64a4,4,0,0,1,0,5.66c-1.22,1.35-2.55,2.6-3.82,3.9a9.22,9.22,0,0,0-1,1.21,2.91,2.91,0,0,0,.37,3.95l17.35,17.35a2.91,2.91,0,0,0,3.89.4,11,11,0,0,0,1.27-1.08c1.25-1.22,2.45-2.5,3.73-3.68a4,4,0,0,1,5.93,0q5.33,5.18,10.5,10.5a4.16,4.16,0,0,1,.44,5.87,4.32,4.32,0,0,1-.81.73c-2,1.79-4.15,3.51-6.12,5.38a9.07,9.07,0,0,1-6.35,2.45,26.85,26.85,0,0,1-10.67-2.23,63.8,63.8,0,0,1-18.92-12.07,72.46,72.46,0,0,1-16.82-21.47,37.16,37.16,0,0,1-3.78-11.17C988.35,368.12,988.29,367.17,988.17,366Z" transform="translate(-987.67 -350.82)"/></svg>