<svg id="Capa_1" data-name="Capa 1" xmlns="http://www.w3.org/2000/svg" viewBox="0 0 222.78 222.74"><defs><style>.cls-1,.cls-53{fill:#fff;}.cls-1{fill-opacity:0;}.cls-2{fill:#fafafa;opacity:0.02;}.cls-10,.cls-11,.cls-12,.cls-13,.cls-14,.cls-15,.cls-16,.cls-17,.cls-18,.cls-19,.cls-2,.cls-20,.cls-21,.cls-22,.cls-23,.cls-24,.cls-25,.cls-26,.cls-27,.cls-28,.cls-29,.cls-3,.cls-30,.cls-31,.cls-32,.cls-33,.cls-34,.cls-35,.cls-36,.cls-37,.cls-38,.cls-39,.cls-4,.cls-40,.cls-41,.cls-42,.cls-43,.cls-44,.cls-45,.cls-46,.cls-47,.cls-48,.cls-49,.cls-5,.cls-50,.cls-51,.cls-6,.cls-7,.cls-8,.cls-9{isolation:isolate;}.cls-3{fill:#f5f5f5;opacity:0.04;}.cls-4{fill:#f0f0f0;opacity:0.06;}.cls-5{fill:#ebebeb;opacity:0.08;}.cls-6{fill:#e6e6e6;opacity:0.1;}.cls-7{fill:#e1e1e1;opacity:0.12;}.cls-8{fill:#dcdcdc;opacity:0.14;}.cls-9{fill:#d7d7d7;opacity:0.16;}.cls-10{fill:#d2d2d2;opacity:0.18;}.cls-11{fill:#cdcdcd;opacity:0.2;}.cls-12{fill:#c8c8c8;opacity:0.22;}.cls-13{fill:#c3c3c3;opacity:0.23;}.cls-14{fill:#bebebe;opacity:0.25;}.cls-15{fill:#b9b9b9;opacity:0.28;}.cls-16{fill:#b4b4b4;opacity:0.29;}.cls-17{fill:#afafaf;opacity:0.31;}.cls-18{fill:#aaa;opacity:0.33;}.cls-19{fill:#a5a5a5;opacity:0.35;}.cls-20{fill:#a0a0a0;opacity:0.37;}.cls-21{fill:#9b9b9b;opacity:0.39;}.cls-22{fill:#969696;opacity:0.41;}.cls-23{fill:#919191;opacity:0.43;}.cls-24{fill:#8c8c8c;opacity:0.45;}.cls-25{fill:#878787;opacity:0.47;}.cls-26{fill:#828282;opacity:0.49;}.cls-27{fill:#7d7d7d;opacity:0.51;}.cls-28{fill:#787878;opacity:0.53;}.cls-29{fill:#737373;opacity:0.55;}.cls-30{fill:#6e6e6e;opacity:0.57;}.cls-31{fill:#696969;opacity:0.59;}.cls-32{fill:#646464;opacity:0.61;}.cls-33{fill:#5f5f5f;opacity:0.63;}.cls-34{fill:#5a5a5a;opacity:0.65;}.cls-35{fill:#555;opacity:0.67;}.cls-36{fill:#505050;opacity:0.69;}.cls-37{fill:#4b4b4b;opacity:0.71;}.cls-38{fill:#464646;opacity:0.73;}.cls-39{fill:#414141;opacity:0.75;}.cls-40{fill:#3c3c3c;opacity:0.76;}.cls-41{fill:#373737;opacity:0.78;}.cls-42{fill:#323232;opacity:0.8;}.cls-43{fill:#2d2d2d;opacity:0.82;}.cls-44{fill:#282828;opacity:0.84;}.cls-45{fill:#232323;opacity:0.86;}.cls-46{fill:#1e1e1e;opacity:0.88;}.cls-47{fill:#191919;opacity:0.9;}.cls-48{fill:#141414;opacity:0.92;}.cls-49{fill:#0f0f0f;opacity:0.94;}.cls-50{fill:#0a0a0a;opacity:0.96;}.cls-51{fill:#050505;opacity:0.98;}.cls-52{fill:#d91b34;}</style></defs><g id="Grupo_6684" data-name="Grupo 6684"><g id="Grupo_6072" data-name="Grupo 6072"><path id="Trazado_6982" data-name="Trazado 6982" class="cls-1" d="M755.89,327.37c47,47,51.08,119.36,9.12,161.29s-114.27,37.87-161.3-9.11-40.05-108.38,1.9-150.29S708.88,280.36,755.89,327.37Z" transform="translate(-571.21 -294.89)"/><path id="Trazado_6983" data-name="Trazado 6983" class="cls-2" d="M755.16,327.71c46.63,46.66,50.66,118.53,9.05,160.21s-113.49,37.63-160.21-9-39.9-107.7,1.75-149.36S708.5,281.08,755.16,327.71Z" transform="translate(-571.21 -294.89)"/><path id="Trazado_6984" data-name="Trazado 6984" class="cls-3" d="M754.44,328.1c46.32,46.32,50.33,117.63,9,159s-112.67,37.35-159-9S564.63,371.08,606,329.72,708.12,281.78,754.44,328.1Z" transform="translate(-571.21 -294.89)"/><path id="Trazado_6985" data-name="Trazado 6985" class="cls-4" d="M753.71,328.46c45.95,46,50,116.77,8.91,157.86s-111.83,37.07-157.86-8.91S565.13,371,606.21,330,707.73,282.5,753.71,328.46Z" transform="translate(-571.21 -294.89)"/><path id="Trazado_6986" data-name="Trazado 6986" class="cls-5" d="M753,328.82c45.63,45.66,49.6,115.94,8.84,156.68s-111,36.79-156.68-8.84-39.45-105.8,1.31-146.52S707.32,283.16,753,328.82Z" transform="translate(-571.21 -294.89)"/><path id="Trazado_6987" data-name="Trazado 6987" class="cls-6" d="M752.22,329.19c45.32,45.29,49.25,115.05,8.8,155.5s-110.22,36.52-155.5-8.8-39.32-105.1,1.17-145.55S706.93,283.87,752.22,329.19Z" transform="translate(-571.21 -294.89)"/><path id="Trazado_6988" data-name="Trazado 6988" class="cls-7" d="M751.5,329.57c45,44.94,48.88,114.18,8.73,154.32s-109.38,36.25-154.33-8.73-39.18-104.44,1-144.59S706.57,284.61,751.5,329.57Z" transform="translate(-571.21 -294.89)"/><path id="Trazado_6989" data-name="Trazado 6989" class="cls-8" d="M750.78,329.92c44.64,44.64,48.53,113.36,8.66,153.15s-108.56,36-153.15-8.66-39-103.82.86-143.66S706.16,285.32,750.78,329.92Z" transform="translate(-571.21 -294.89)"/><path id="Trazado_6990" data-name="Trazado 6990" class="cls-9" d="M750.06,330.3c44.28,44.28,48.15,112.49,8.6,152s-107.73,35.69-152-8.6-38.87-103.17.7-142.73S705.77,286,750.06,330.3Z" transform="translate(-571.21 -294.89)"/><path id="Trazado_6991" data-name="Trazado 6991" class="cls-10" d="M749.33,330.68c43.94,43.94,47.77,111.59,8.53,150.79S651,516.88,607.07,472.94s-38.7-102.55.52-141.8S705.38,286.7,749.33,330.68Z" transform="translate(-571.21 -294.89)"/><path id="Trazado_6992" data-name="Trazado 6992" class="cls-11" d="M748.6,331c43.59,43.59,47.39,110.74,8.46,149.69s-106,35.15-149.71-8.45A99.88,99.88,0,0,1,748.6,331Z" transform="translate(-571.21 -294.89)"/><path id="Trazado_6993" data-name="Trazado 6993" class="cls-12" d="M747.87,331.4c43.25,43.28,47,109.9,8.39,148.52S651,514.78,607.73,471.54A99.13,99.13,0,0,1,747.92,331.35h0Z" transform="translate(-571.21 -294.89)"/><path id="Trazado_6994" data-name="Trazado 6994" class="cls-13" d="M747.15,331.79c42.94,42.9,46.66,109,8.32,147.34S651,513.76,608.12,470.82a98.31,98.31,0,0,1,139-139Z" transform="translate(-571.21 -294.89)"/><path id="Trazado_6995" data-name="Trazado 6995" class="cls-14" d="M746.42,332.13c42.6,42.6,46.29,108.21,8.25,146.22S651,512.69,608.45,470.1A97.55,97.55,0,1,1,745.83,331.56c.19.19.39.38.58.58Z" transform="translate(-571.21 -294.89)"/><path id="Trazado_6996" data-name="Trazado 6996" class="cls-15" d="M745.7,332.52c42.25,42.24,45.95,107.3,8.18,145s-102.8,34.06-145-8.18A96.77,96.77,0,1,1,745.7,332.52Z" transform="translate(-571.21 -294.89)"/><path id="Trazado_6997" data-name="Trazado 6997" class="cls-16" d="M744.94,332.88c41.93,41.9,45.6,106.45,8.14,143.86s-102,33.79-143.87-8.11a96,96,0,0,1,134.45-137c.43.42.85.85,1.28,1.28Z" transform="translate(-571.21 -294.89)"/><path id="Trazado_6998" data-name="Trazado 6998" class="cls-17" d="M744.22,333.23c41.59,41.6,45.21,105.63,8.08,142.74s-101.14,33.51-142.73-8.09A95.21,95.21,0,1,1,744.22,333.23Z" transform="translate(-571.21 -294.89)"/><path id="Trazado_6999" data-name="Trazado 6999" class="cls-18" d="M743.49,333.61c41.23,41.23,44.83,104.76,8,141.55s-100.31,33.25-141.55-8A94.43,94.43,0,1,1,742.46,332.58l1,1Z" transform="translate(-571.21 -294.89)"/><path id="Trazado_7000" data-name="Trazado 7000" class="cls-19" d="M742.77,334.05c40.9,40.9,44.46,103.85,7.94,140.37s-99.47,33-140.38-7.94A93.66,93.66,0,0,1,741,332.28C741.6,332.86,742.19,333.45,742.77,334.05Z" transform="translate(-571.21 -294.89)"/><path id="Trazado_7001" data-name="Trazado 7001" class="cls-20" d="M742,334.34c40.56,40.56,44.12,103,7.87,139.25s-98.69,32.69-139.25-7.87a92.9,92.9,0,0,1,130.15-132.6c.42.4.82.81,1.23,1.22Z" transform="translate(-571.21 -294.89)"/><path id="Trazado_7002" data-name="Trazado 7002" class="cls-21" d="M741.32,334.75c40.21,40.21,43.73,102.18,7.8,138.07s-97.86,32.41-138.07-7.8A92.12,92.12,0,0,1,739.44,332.87C740.08,333.49,740.7,334.12,741.32,334.75Z" transform="translate(-571.21 -294.89)"/><path id="Trazado_7003" data-name="Trazado 7003" class="cls-22" d="M740.61,335.11C780.48,375,784,436.42,748.34,472s-97,32.13-136.89-7.73A91.35,91.35,0,0,1,738.26,332.76C739.06,333.53,739.84,334.31,740.61,335.11Z" transform="translate(-571.21 -294.89)"/><path id="Trazado_7004" data-name="Trazado 7004" class="cls-23" d="M739.87,335.46c39.56,39.56,43,100.44,7.66,135.76s-96.2,31.81-135.76-7.66A90.59,90.59,0,0,1,737.89,333.48Q738.9,334.46,739.87,335.46Z" transform="translate(-571.21 -294.89)"/><path id="Trazado_7005" data-name="Trazado 7005" class="cls-24" d="M739.14,335.81c39.21,39.21,42.63,99.58,7.6,134.58S651.32,502,612.16,462.8A89.83,89.83,0,0,1,736,332.62q1.63,1.56,3.18,3.18Z" transform="translate(-571.21 -294.89)"/><path id="Trazado_7006" data-name="Trazado 7006" class="cls-25" d="M738.41,336.17c38.88,38.87,42.24,98.72,7.53,133.41s-94.54,31.34-133.4-7.53A89,89,0,1,1,734.74,332.5C736,333.68,737.22,334.91,738.41,336.17Z" transform="translate(-571.21 -294.89)"/><path id="Trazado_7007" data-name="Trazado 7007" class="cls-26" d="M737.7,336.52c38.53,38.56,41.87,97.9,7.46,132.27s-93.71,31.07-132.27-7.46A88.29,88.29,0,1,1,734.05,332.87Q735.93,334.64,737.7,336.52Z" transform="translate(-571.21 -294.89)"/><path id="Trazado_7008" data-name="Trazado 7008" class="cls-27" d="M736.94,336.92c38.21,38.18,41.52,97,7.42,131.09s-92.92,30.8-131.09-7.38a87.51,87.51,0,0,1,120-127.43c1.28,1.21,2.53,2.45,3.73,3.73Z" transform="translate(-571.21 -294.89)"/><path id="Trazado_7009" data-name="Trazado 7009" class="cls-28" d="M736.21,337.3c37.86,37.83,41.23,96.13,7.35,129.92s-92.09,30.52-129.93-7.35A86.73,86.73,0,1,1,730.4,331.61q3,2.73,5.75,5.75Z" transform="translate(-571.21 -294.89)"/><path id="Trazado_7010" data-name="Trazado 7010" class="cls-29" d="M735.49,337.65C773,375.17,776.28,433,742.77,466.44S651.51,496.68,614,459.16A86,86,0,1,1,730.2,332.37q2.76,2.52,5.29,5.28Z" transform="translate(-571.21 -294.89)"/><path id="Trazado_7011" data-name="Trazado 7011" class="cls-30" d="M734.76,338c37.18,37.18,40.42,94.44,7.21,127.6s-90.44,30-127.61-7.21a85.2,85.2,0,1,1,115.76-125Q732.52,335.61,734.76,338Z" transform="translate(-571.21 -294.89)"/><path id="Trazado_7012" data-name="Trazado 7012" class="cls-31" d="M734,338.41c36.82,36.82,40.05,93.53,7.14,126.44s-89.6,29.68-126.44-7.16A84.43,84.43,0,0,1,728.8,333.19q2.73,2.49,5.22,5.22Z" transform="translate(-571.21 -294.89)"/><path id="Trazado_7013" data-name="Trazado 7013" class="cls-32" d="M733.31,338.76c36.52,36.52,39.66,92.71,7.07,125.3S651.6,493.51,615.08,457A83.64,83.64,0,1,1,729.24,334.71q2.1,2,4.06,4.06Z" transform="translate(-571.21 -294.89)"/><path id="Trazado_7014" data-name="Trazado 7014" class="cls-33" d="M732.59,339.14c36.14,36.17,39.31,91.88,7,124.11s-88,29.17-124.12-7A82.91,82.91,0,1,1,727,333.56c2,1.76,3.81,3.62,5.57,5.56Z" transform="translate(-571.21 -294.89)"/><path id="Trazado_7015" data-name="Trazado 7015" class="cls-34" d="M731.87,339.53c35.83,35.82,38.94,91,6.94,123s-87.17,28.88-122.95-6.94a82.15,82.15,0,1,1,116-116Z" transform="translate(-571.21 -294.89)"/><path id="Trazado_7016" data-name="Trazado 7016" class="cls-35" d="M731.14,339.87C766.62,375.35,769.7,430,738,461.68s-86.33,28.61-121.81-6.87A81.39,81.39,0,1,1,731.14,339.87Z" transform="translate(-571.21 -294.89)"/><path id="Trazado_7017" data-name="Trazado 7017" class="cls-36" d="M730.41,340.24c35.14,35.14,38.18,89.26,6.8,120.64s-85.5,28.34-120.63-6.8a80.62,80.62,0,1,1,107.3-120.36,78.77,78.77,0,0,1,6.53,6.52Z" transform="translate(-571.21 -294.89)"/><path id="Trazado_7018" data-name="Trazado 7018" class="cls-37" d="M729.65,340.62c34.82,34.79,37.86,88.35,6.76,119.47s-84.67,28.06-119.47-6.73A79.85,79.85,0,1,1,729.63,340.63Z" transform="translate(-571.21 -294.89)"/><path id="Trazado_7019" data-name="Trazado 7019" class="cls-38" d="M728.93,341c34.48,34.49,37.48,87.57,6.69,118.33s-83.84,27.79-118.32-6.69A79.09,79.09,0,1,1,721.85,333.9a80.07,80.07,0,0,1,7.08,7.07Z" transform="translate(-571.21 -294.89)"/><path id="Trazado_7020" data-name="Trazado 7020" class="cls-39" d="M728.2,341.35c34.16,34.16,37.1,86.7,6.63,117.15s-83,27.5-117.14-6.64A78.33,78.33,0,1,1,728.21,341.34Z" transform="translate(-571.21 -294.89)"/><path id="Trazado_7021" data-name="Trazado 7021" class="cls-40" d="M727.48,341.73c33.78,33.78,36.73,85.81,6.56,116s-82.18,27.23-116-6.57A77.56,77.56,0,0,1,719.74,334,78.54,78.54,0,0,1,727.48,341.73Z" transform="translate(-571.21 -294.89)"/><path id="Trazado_7022" data-name="Trazado 7022" class="cls-41" d="M726.75,342.07c33.44,33.44,36.38,85,6.49,114.83s-81.36,27-114.84-6.49A76.82,76.82,0,0,1,719.27,334.52a78.29,78.29,0,0,1,7.51,7.51Z" transform="translate(-571.21 -294.89)"/><path id="Trazado_7023" data-name="Trazado 7023" class="cls-42" d="M726,342.45c33.1,33.1,36,84.11,6.42,113.67s-80.57,26.68-113.67-6.42A76.06,76.06,0,1,1,726,342.49Z" transform="translate(-571.21 -294.89)"/><path id="Trazado_7024" data-name="Trazado 7024" class="cls-43" d="M725.3,342.82c32.76,32.77,35.62,83.22,6.35,112.49s-79.73,26.4-112.49-6.35-33.69-81.28-4.42-110.55S692.51,310,725.3,342.82Z" transform="translate(-571.21 -294.89)"/><path id="Trazado_7025" data-name="Trazado 7025" class="cls-44" d="M724.58,343.18c32.44,32.44,35.25,82.39,6.28,111.35s-78.93,26.16-111.35-6.28S586,367.59,615,338.62,692.14,310.77,724.58,343.18Z" transform="translate(-571.21 -294.89)"/><path id="Trazado_7026" data-name="Trazado 7026" class="cls-45" d="M723.85,343.55c32.1,32.11,34.89,81.54,6.21,110.19S652,479.65,619.88,447.53s-33.38-80-4.72-108.7S691.75,311.45,723.85,343.55Z" transform="translate(-571.21 -294.89)"/><path id="Trazado_7027" data-name="Trazado 7027" class="cls-46" d="M723.1,343.93c31.8,31.81,34.51,80.66,6.15,109s-77.25,25.61-109-6.15S587,367.4,615.38,339.05,691.37,312.18,723.1,343.93Z" transform="translate(-571.21 -294.89)"/><path id="Trazado_7028" data-name="Trazado 7028" class="cls-47" d="M722.41,344.28c31.41,31.45,34.17,79.84,6.08,107.87s-76.42,25.34-107.86-6.08-33.07-78.73-5-106.79S691,312.88,722.41,344.28Z" transform="translate(-571.21 -294.89)"/><path id="Trazado_7029" data-name="Trazado 7029" class="cls-48" d="M721.65,344.65c31.1,31.1,33.78,78.93,6,106.69s-75.59,25.06-106.69-6-33-78.12-5.19-105.86S690.58,313.56,721.65,344.65Z" transform="translate(-571.21 -294.89)"/><path id="Trazado_7030" data-name="Trazado 7030" class="cls-49" d="M720.93,345c30.76,30.72,33.44,78.08,6,105.52s-74.79,24.73-105.52-6-32.79-77.42-5.31-104.84S690.2,314.29,720.93,345Z" transform="translate(-571.21 -294.89)"/><path id="Trazado_7031" data-name="Trazado 7031" class="cls-50" d="M720.2,345.38c30.4,30.41,33.07,77.24,5.89,104.37s-74,24.51-104.38-5.89-32.62-76.79-5.45-103.92S689.78,315,720.2,345.38Z" transform="translate(-571.21 -294.89)"/><path id="Trazado_7032" data-name="Trazado 7032" class="cls-51" d="M719.47,345.77c30.06,30.06,32.69,76.38,5.89,103.21s-73.15,24.23-103.21-5.89-32.48-76.15-5.63-103S689.4,315.71,719.47,345.77Z" transform="translate(-571.21 -294.89)"/><path id="Trazado_7033" data-name="Trazado 7033" d="M718.75,346.13c29.72,29.73,32.3,75.49,5.76,102s-72.31,23.95-102-5.76-32.34-75.52-5.8-102.06S689,316.42,718.75,346.13Z" transform="translate(-571.21 -294.89)"/></g><g id="Grupo_6073" data-name="Grupo 6073"><path id="Trazado_7034" data-name="Trazado 7034" class="cls-52" d="M762.37,393.54a91.65,91.65,0,0,1-6.28,33.34L625.48,314a91.56,91.56,0,0,1,136.89,79.53Z" transform="translate(-571.21 -294.89)"/><path id="Trazado_7035" data-name="Trazado 7035" class="cls-52" d="M716.12,473A91.55,91.55,0,0,1,585.55,360.16Z" transform="translate(-571.21 -294.89)"/><path id="Trazado_7036" data-name="Trazado 7036" class="cls-53" d="M756.1,426.89a94.93,94.93,0,0,1-4.41,9.49l-135-116.62a91.93,91.93,0,0,1,8.77-5.69Z" transform="translate(-571.21 -294.89)"/><path id="Trazado_7037" data-name="Trazado 7037" class="cls-53" d="M725,467.33a88.63,88.63,0,0,1-8.8,5.69L585.6,360.15a101.7,101.7,0,0,1,4.38-9.49Z" transform="translate(-571.21 -294.89)"/><path id="Trazado_7038" data-name="Trazado 7038" d="M751.68,436.37a92.08,92.08,0,0,1-26.76,31l-135-116.63a92.64,92.64,0,0,1,26.79-30.95Z" transform="translate(-571.21 -294.89)"/></g></g></svg>