<svg id="Capa_1" data-name="Capa 1" xmlns="http://www.w3.org/2000/svg" viewBox="0 0 264.16 264.17"><defs><style>.cls-1,.cls-52{fill:#fff;}.cls-1{fill-opacity:0;}.cls-2{fill:#fafafa;opacity:0.02;}.cls-10,.cls-11,.cls-12,.cls-13,.cls-14,.cls-15,.cls-16,.cls-17,.cls-18,.cls-19,.cls-2,.cls-20,.cls-21,.cls-22,.cls-23,.cls-24,.cls-25,.cls-26,.cls-27,.cls-28,.cls-29,.cls-3,.cls-30,.cls-31,.cls-32,.cls-33,.cls-34,.cls-35,.cls-36,.cls-37,.cls-38,.cls-39,.cls-4,.cls-40,.cls-41,.cls-42,.cls-43,.cls-44,.cls-45,.cls-46,.cls-47,.cls-48,.cls-49,.cls-5,.cls-50,.cls-51,.cls-6,.cls-7,.cls-8,.cls-9{isolation:isolate;}.cls-3{fill:#f5f5f5;opacity:0.04;}.cls-4{fill:#f0f0f0;opacity:0.06;}.cls-5{fill:#ebebeb;opacity:0.08;}.cls-6{fill:#e6e6e6;opacity:0.1;}.cls-7{fill:#e1e1e1;opacity:0.12;}.cls-8{fill:#dcdcdc;opacity:0.14;}.cls-9{fill:#d7d7d7;opacity:0.16;}.cls-10{fill:#d2d2d2;opacity:0.18;}.cls-11{fill:#cdcdcd;opacity:0.2;}.cls-12{fill:#c8c8c8;opacity:0.22;}.cls-13{fill:#c3c3c3;opacity:0.23;}.cls-14{fill:#bebebe;opacity:0.25;}.cls-15{fill:#b9b9b9;opacity:0.28;}.cls-16{fill:#b4b4b4;opacity:0.29;}.cls-17{fill:#afafaf;opacity:0.31;}.cls-18{fill:#aaa;opacity:0.33;}.cls-19{fill:#a5a5a5;opacity:0.35;}.cls-20{fill:#a0a0a0;opacity:0.37;}.cls-21{fill:#9b9b9b;opacity:0.39;}.cls-22{fill:#969696;opacity:0.41;}.cls-23{fill:#919191;opacity:0.43;}.cls-24{fill:#8c8c8c;opacity:0.45;}.cls-25{fill:#878787;opacity:0.47;}.cls-26{fill:#828282;opacity:0.49;}.cls-27{fill:#7d7d7d;opacity:0.51;}.cls-28{fill:#787878;opacity:0.53;}.cls-29{fill:#737373;opacity:0.55;}.cls-30{fill:#6e6e6e;opacity:0.57;}.cls-31{fill:#696969;opacity:0.59;}.cls-32{fill:#646464;opacity:0.61;}.cls-33{fill:#5f5f5f;opacity:0.63;}.cls-34{fill:#5a5a5a;opacity:0.65;}.cls-35{fill:#555;opacity:0.67;}.cls-36{fill:#505050;opacity:0.69;}.cls-37{fill:#4b4b4b;opacity:0.71;}.cls-38{fill:#464646;opacity:0.73;}.cls-39{fill:#414141;opacity:0.75;}.cls-40{fill:#3c3c3c;opacity:0.76;}.cls-41{fill:#373737;opacity:0.78;}.cls-42{fill:#323232;opacity:0.8;}.cls-43{fill:#2d2d2d;opacity:0.82;}.cls-44{fill:#282828;opacity:0.84;}.cls-45{fill:#232323;opacity:0.86;}.cls-46{fill:#1e1e1e;opacity:0.88;}.cls-47{fill:#191919;opacity:0.9;}.cls-48{fill:#141414;opacity:0.92;}.cls-49{fill:#0f0f0f;opacity:0.94;}.cls-50{fill:#0a0a0a;opacity:0.96;}.cls-51{fill:#050505;opacity:0.98;}.cls-53{fill:#0738a6;}.cls-54{fill:#fbd023;}</style></defs><g id="Grupo_6686" data-name="Grupo 6686"><g id="Grupo_6087" data-name="Grupo 6087"><path id="Trazado_7157" data-name="Trazado 7157" class="cls-1" d="M769.49,312.69c55.75,55.75,60.57,141.54,10.84,191.29s-135.6,44.9-191.3-10.79-47.49-128.52,2.25-178.25S713.79,257,769.49,312.69Z" transform="translate(-550.52 -274.18)"/><path id="Trazado_7158" data-name="Trazado 7158" class="cls-2" d="M768.63,313.14C824,368.47,828.7,453.64,779.4,503.05s-134.6,44.57-190-10.77-47.31-127.65,2.08-177.06S713.29,257.8,768.63,313.14Z" transform="translate(-550.52 -274.18)"/><path id="Trazado_7159" data-name="Trazado 7159" class="cls-3" d="M767.77,313.58c54.93,54.93,59.72,139.49,10.68,188.59s-133.63,44.24-188.58-10.69-47.15-126.92,1.89-176S712.84,258.66,767.77,313.58Z" transform="translate(-550.52 -274.18)"/><path id="Trazado_7160" data-name="Trazado 7160" class="cls-4" d="M766.9,314c54.48,54.48,59.27,138.51,10.6,187.19s-132.7,43.92-187.18-10.6-47-126.15,1.72-174.86S712.38,259.48,766.9,314Z" transform="translate(-550.52 -274.18)"/><path id="Trazado_7161" data-name="Trazado 7161" class="cls-5" d="M766.05,314.43c54.1,54.11,58.81,137.45,10.52,185.8s-131.68,43.58-185.79-10.52S544,364.31,592.33,316,712,260.33,766.05,314.43Z" transform="translate(-550.52 -274.18)"/><path id="Trazado_7162" data-name="Trazado 7162" class="cls-6" d="M765.18,314.9c53.7,53.69,58.37,136.41,10.44,184.39s-130.68,43.3-184.4-10.44-46.57-124.63,1.4-172.59S711.42,261.16,765.18,314.9Z" transform="translate(-550.52 -274.18)"/><path id="Trazado_7163" data-name="Trazado 7163" class="cls-7" d="M764.33,315.3c53.29,53.34,58,135.5,10.35,183S644.94,541.25,591.7,488s-46.42-123.89,1.19-171.48S711,262,764.33,315.3Z" transform="translate(-550.52 -274.18)"/><path id="Trazado_7164" data-name="Trazado 7164" class="cls-8" d="M763.42,315.75c52.92,52.91,57.54,134.41,10.31,181.6S645,540,592.12,487.12s-46.21-123.11,1-170.34S710.55,262.83,763.42,315.75Z" transform="translate(-550.52 -274.18)"/><path id="Trazado_7165" data-name="Trazado 7165" class="cls-9" d="M762.57,316.21c52.51,52.51,57.09,133.39,10.23,180.2S645,538.78,592.54,486.23s-46.1-122.37.82-169.24S710.06,263.7,762.57,316.21Z" transform="translate(-550.52 -274.18)"/><path id="Trazado_7166" data-name="Trazado 7166" class="cls-10" d="M761.71,316.61c52.1,52.11,56.64,132.36,10.15,178.91s-126.8,42-178.9-10.12a114,114,0,0,1-6.48-161c2.27-2.46,4.65-4.83,7.13-7.08a113.94,113.94,0,0,1,160.94-7.75Q758.29,312.91,761.71,316.61Z" transform="translate(-550.52 -274.18)"/><path id="Trazado_7167" data-name="Trazado 7167" class="cls-11" d="M760.85,317.07c51.69,51.69,56.24,131.32,10.08,177.51s-125.87,41.66-177.55-10a113.32,113.32,0,0,1-6.44-160.14q3.31-3.6,6.93-6.89a113.29,113.29,0,0,1,160-7.35C756.33,312.37,758.64,314.68,760.85,317.07Z" transform="translate(-550.52 -274.18)"/><path id="Trazado_7168" data-name="Trazado 7168" class="cls-12" d="M760,317.51c51.32,51.28,55.78,130.32,10,176.11S645.15,535,593.8,483.67a112.63,112.63,0,0,1-6.46-159.16c2.15-2.33,4.4-4.58,6.75-6.72a112.57,112.57,0,0,1,159-7.15Q756.72,313.92,760,317.51Z" transform="translate(-550.52 -274.18)"/><path id="Trazado_7169" data-name="Trazado 7169" class="cls-13" d="M759.14,317.91c50.91,50.92,55.33,129.34,9.9,174.77s-123.85,41-174.83-9.9a111.88,111.88,0,0,1-6.53-158.09c2.12-2.31,4.35-4.53,6.66-6.65a111.93,111.93,0,0,1,158.14-6.78Q755.95,314.46,759.14,317.91Z" transform="translate(-550.52 -274.18)"/><path id="Trazado_7170" data-name="Trazado 7170" class="cls-14" d="M758.27,318.37c50.51,50.52,54.88,128.27,9.78,173.38S645.12,532.43,594.63,482a111.28,111.28,0,0,1-6.39-157.24c2-2.22,4.18-4.35,6.39-6.4A111.29,111.29,0,0,1,751.88,312C754.09,314,756.23,316.16,758.27,318.37Z" transform="translate(-550.52 -274.18)"/><path id="Trazado_7171" data-name="Trazado 7171" class="cls-15" d="M757.42,318.82c50.09,50.09,54.48,127.25,9.78,172s-121.93,40.36-172-9.78a110.55,110.55,0,0,1-6.51-156.21q3-3.26,6.26-6.28a110.59,110.59,0,0,1,156.29-5.94Q754.45,315.58,757.42,318.82Z" transform="translate(-550.52 -274.18)"/><path id="Trazado_7172" data-name="Trazado 7172" class="cls-16" d="M756.57,319.24c49.68,49.73,54,126.27,9.65,170.63s-121,40-170.64-9.65A109.84,109.84,0,0,1,589,325q3-3.21,6.16-6.18a109.9,109.9,0,0,1,155.33-5.68Q753.66,316.07,756.57,319.24Z" transform="translate(-550.52 -274.18)"/><path id="Trazado_7173" data-name="Trazado 7173" class="cls-17" d="M755.7,319.69C805,369,809.27,444.94,765.28,488.92s-120,39.75-169.28-9.58A109.22,109.22,0,0,1,589.52,325q2.84-3.09,5.91-5.95a109.26,109.26,0,0,1,154.44-5.25Q752.9,316.65,755.7,319.69Z" transform="translate(-550.52 -274.18)"/><path id="Trazado_7174" data-name="Trazado 7174" class="cls-18" d="M754.83,320.13c48.9,48.9,53.09,124.18,9.5,167.86s-119,39.42-167.89-9.5A112,112,0,0,1,753.78,319.08Z" transform="translate(-550.52 -274.18)"/><path id="Trazado_7175" data-name="Trazado 7175" class="cls-19" d="M753.92,320.54c48.51,48.5,52.77,123.19,9.46,166.5s-118,39.11-166.5-9.42a111.07,111.07,0,0,1,155-159.08C752.6,319.2,753.27,319.86,753.92,320.54Z" transform="translate(-550.52 -274.18)"/><path id="Trazado_7176" data-name="Trazado 7176" class="cls-20" d="M753.07,321c48.1,48.09,52.3,122.17,9.38,165.1s-117,38.76-165.11-9.33A110.15,110.15,0,0,1,750.45,318.37C751.34,319.23,752.21,320.1,753.07,321Z" transform="translate(-550.52 -274.18)"/><path id="Trazado_7177" data-name="Trazado 7177" class="cls-21" d="M752.21,321.43c47.72,47.68,51.85,121.16,9.29,163.72s-116.07,38.43-163.77-9.24A109.25,109.25,0,0,1,750,319.2Z" transform="translate(-550.52 -274.18)"/><path id="Trazado_7178" data-name="Trazado 7178" class="cls-22" d="M751.34,321.85c47.31,47.32,51.41,120.14,9.21,162.37S645.47,522.31,598.2,475a108.33,108.33,0,1,1,149.73-156.6Q749.67,320.11,751.34,321.85Z" transform="translate(-550.52 -274.18)"/><path id="Trazado_7179" data-name="Trazado 7179" class="cls-23" d="M750.49,322.3c46.91,46.91,51,119.1,9.12,161s-114.11,37.71-161-9.12A107.4,107.4,0,1,1,747.25,319.06Q748.9,320.65,750.49,322.3Z" transform="translate(-550.52 -274.18)"/><path id="Trazado_7180" data-name="Trazado 7180" class="cls-24" d="M749.68,322.75c46.49,46.49,50.54,118.08,9.05,159.58s-113.15,37.45-159.63-9A106.49,106.49,0,1,1,746.4,319.47Q748.08,321.08,749.68,322.75Z" transform="translate(-550.52 -274.18)"/><path id="Trazado_7181" data-name="Trazado 7181" class="cls-25" d="M748.7,323.15c46.1,46.1,50.09,117.09,9,158.23s-112.15,37.12-158.23-9A105.58,105.58,0,0,1,744.81,319.26C746.14,320.53,747.44,321.82,748.7,323.15Z" transform="translate(-550.52 -274.18)"/><path id="Trazado_7182" data-name="Trazado 7182" class="cls-26" d="M747.92,323.61c45.68,45.68,49.64,116,8.88,156.84S645.64,517.28,600,471.56a104.67,104.67,0,1,1,143.09-152.8Q745.57,321.1,747.92,323.61Z" transform="translate(-550.52 -274.18)"/><path id="Trazado_7183" data-name="Trazado 7183" class="cls-27" d="M747.05,324.06c45.26,45.26,49.24,115,8.8,155.45s-110.17,36.5-155.49-8.8a103.76,103.76,0,0,1,142.25-151.1q2.28,2.14,4.43,4.42Z" transform="translate(-550.52 -274.18)"/><path id="Trazado_7184" data-name="Trazado 7184" class="cls-28" d="M746.19,324.48c44.85,44.9,48.78,114,8.71,154.09s-109.2,36.18-154.09-8.71A102.86,102.86,0,1,1,741.31,319.6Q743.83,322,746.19,324.48Z" transform="translate(-550.52 -274.18)"/><path id="Trazado_7185" data-name="Trazado 7185" class="cls-29" d="M745.29,324.91c44.49,44.49,48.38,113,8.68,152.71S645.7,513.48,601.25,469a102,102,0,0,1,137-151.09q3.69,3.35,7,7Z" transform="translate(-550.52 -274.18)"/><path id="Trazado_7186" data-name="Trazado 7186" class="cls-30" d="M744.44,325.36c44.09,44.09,47.93,111.93,8.59,151.31s-107.27,35.53-151.36-8.55A101,101,0,1,1,738.94,319.86C740.84,321.62,742.68,323.45,744.44,325.36Z" transform="translate(-550.52 -274.18)"/><path id="Trazado_7187" data-name="Trazado 7187" class="cls-31" d="M743.57,325.78c43.71,43.71,47.5,111,8.51,150s-106.29,35.2-150-8.47a100.13,100.13,0,1,1,135.3-147.65Q740.63,322.56,743.57,325.78Z" transform="translate(-550.52 -274.18)"/><path id="Trazado_7188" data-name="Trazado 7188" class="cls-32" d="M742.71,326.24c43.3,43.3,47.06,109.94,8.38,148.58s-105.32,34.92-148.58-8.39A99.18,99.18,0,1,1,738.32,321.85Q740.59,324,742.71,326.24Z" transform="translate(-550.52 -274.18)"/><path id="Trazado_7189" data-name="Trazado 7189" class="cls-33" d="M741.86,326.67c42.9,42.86,46.61,109,8.38,147.18S645.86,508.4,603,465.51A98.32,98.32,0,1,1,741.84,326.64Z" transform="translate(-550.52 -274.18)"/><path id="Trazado_7190" data-name="Trazado 7190" class="cls-34" d="M741,327.09c42.48,42.48,46.1,107.89,8.27,145.83s-103.37,34.21-145.82-8.27A97.39,97.39,0,0,1,734,320.05,93.52,93.52,0,0,1,741,327.09Z" transform="translate(-550.52 -274.18)"/><path id="Trazado_7191" data-name="Trazado 7191" class="cls-35" d="M740.15,327.55c42.08,42.08,45.72,106.87,8.19,144.44S646,505.88,603.9,463.81A96.48,96.48,0,1,1,740.15,327.55Z" transform="translate(-550.52 -274.18)"/><path id="Trazado_7192" data-name="Trazado 7192" class="cls-36" d="M739.31,328c41.67,41.67,45.31,105.84,8.11,143s-101.42,33.6-143.09-8.1a95.59,95.59,0,1,1,127.22-142.7A91.65,91.65,0,0,1,739.31,328Z" transform="translate(-550.52 -274.18)"/><path id="Trazado_7193" data-name="Trazado 7193" class="cls-37" d="M738.42,328.4c41.25,41.3,44.85,104.86,8,141.69s-100.44,33.28-141.69-8A94.7,94.7,0,0,1,730.23,320.21,95.91,95.91,0,0,1,738.42,328.4Z" transform="translate(-550.52 -274.18)"/><path id="Trazado_7194" data-name="Trazado 7194" class="cls-38" d="M737.55,328.85c40.85,40.89,44.41,103.79,7.94,140.31S646,502.11,605.18,461.22A93.79,93.79,0,1,1,737.54,328.87Z" transform="translate(-550.52 -274.18)"/><path id="Trazado_7195" data-name="Trazado 7195" class="cls-39" d="M736.7,329.3c40.44,40.51,44,102.77,7.87,138.91s-98.47,32.62-139-7.87a92.9,92.9,0,1,1,131.1-131.06Z" transform="translate(-550.52 -274.18)"/><path id="Trazado_7196" data-name="Trazado 7196" class="cls-40" d="M735.79,329.7c40.07,40.07,43.59,101.8,7.83,137.56s-97.5,32.3-137.56-7.78a92,92,0,1,1,120.59-139,94.29,94.29,0,0,1,9.16,9.16Z" transform="translate(-550.52 -274.18)"/><path id="Trazado_7197" data-name="Trazado 7197" class="cls-41" d="M734.94,330.16c39.66,39.66,43.14,100.76,7.74,136.18s-96.51,32-136.17-7.7A91.08,91.08,0,1,1,734.94,330.12Z" transform="translate(-550.52 -274.18)"/><path id="Trazado_7198" data-name="Trazado 7198" class="cls-42" d="M734.07,330.61c39.3,39.25,42.69,99.7,7.66,134.78S646.21,497,606.91,457.77A90.19,90.19,0,1,1,734,330.65Z" transform="translate(-550.52 -274.18)"/><path id="Trazado_7199" data-name="Trazado 7199" class="cls-43" d="M733.22,331c38.88,38.88,42.25,98.72,7.57,133.43s-94.58,31.31-133.43-7.52A89.29,89.29,0,1,1,733.21,331Z" transform="translate(-550.52 -274.18)"/><path id="Trazado_7200" data-name="Trazado 7200" class="cls-44" d="M732.36,331.48c38.47,38.47,41.82,97.7,7.48,132s-93.59,31-132-7.44-39.79-95.65-5.45-130S693.89,293,732.36,331.48Z" transform="translate(-550.52 -274.18)"/><path id="Trazado_7201" data-name="Trazado 7201" class="cls-45" d="M731.5,331.92c38.07,38.07,41.38,96.67,7.41,130.64s-92.62,30.67-130.68-7.4-39.58-94.88-5.59-128.84S693.44,293.86,731.5,331.92Z" transform="translate(-550.52 -274.18)"/><path id="Trazado_7202" data-name="Trazado 7202" class="cls-46" d="M730.64,332.33c37.72,37.72,40.93,95.65,7.32,129.3s-91.64,30.37-129.3-7.32-39.42-94.1-5.77-127.74S693,294.67,730.64,332.33Z" transform="translate(-550.52 -274.18)"/><path id="Trazado_7203" data-name="Trazado 7203" class="cls-47" d="M729.79,332.78C767,370,770.3,427.4,737,460.68s-90.66,30.05-127.91-7.25-39.25-93.36-6-126.59S692.5,295.53,729.79,332.78Z" transform="translate(-550.52 -274.18)"/><path id="Trazado_7204" data-name="Trazado 7204" class="cls-48" d="M728.88,333.22c36.83,36.84,40.06,93.6,7.16,126.51s-89.66,29.71-126.54-7.17S570.38,360,603.36,327.08,692,296.34,728.88,333.22Z" transform="translate(-550.52 -274.18)"/><path id="Trazado_7205" data-name="Trazado 7205" class="cls-49" d="M728.07,333.64c36.43,36.48,39.61,92.62,7.08,125.17S646.46,488.14,610,451.72s-38.88-91.8-6.3-124.32S691.58,297.21,728.07,333.64Z" transform="translate(-550.52 -274.18)"/><path id="Trazado_7206" data-name="Trazado 7206" class="cls-50" d="M727.16,334.09c36.05,36.05,39.21,91.6,7,123.77s-87.75,29.05-123.76-7-38.68-91.06-6.51-123.23S691.15,298,727.16,334.09Z" transform="translate(-550.52 -274.18)"/><path id="Trazado_7207" data-name="Trazado 7207" class="cls-51" d="M726.31,334.55c35.65,35.65,38.76,90.54,7,122.37s-86.76,28.74-122.41-7-38.47-90.29-6.68-122.14S690.66,298.9,726.31,334.55Z" transform="translate(-550.52 -274.18)"/><path id="Trazado_7208" data-name="Trazado 7208" d="M725.44,334.94c35.29,35.29,38.35,89.56,6.87,121s-85.78,28.4-121-6.83-38.3-89.56-6.83-121.09S690.2,299.71,725.44,334.94Z" transform="translate(-550.52 -274.18)"/></g><g id="Grupo_6097" data-name="Grupo 6097"><g id="Grupo_6089" data-name="Grupo 6089"><g id="Grupo_6088" data-name="Grupo 6088"><path id="Trazado_7209" data-name="Trazado 7209" class="cls-52" d="M771,427.28a105.54,105.54,0,0,1-8.38,18.16c-1.19,2-2.46,4.05-3.78,6.06H578.39c-1.32-2-2.55-4-3.73-6.06a104.79,104.79,0,0,1-8.38-18.16Z" transform="translate(-550.52 -274.18)"/><path id="Trazado_7210" data-name="Trazado 7210" class="cls-53" d="M776.54,403.21A106.65,106.65,0,0,1,771,427.32H566.32a104.54,104.54,0,0,1-5.59-24.11Z" transform="translate(-550.52 -274.18)"/><path id="Trazado_7211" data-name="Trazado 7211" class="cls-53" d="M758.86,451.47a109.44,109.44,0,0,1-22.1,24.11H600.57a109.61,109.61,0,0,1-22.14-24.11Z" transform="translate(-550.52 -274.18)"/><path id="Trazado_7212" data-name="Trazado 7212" class="cls-52" d="M736.69,475.58a108.25,108.25,0,0,1-136.22,0Z" transform="translate(-550.52 -274.18)"/><path id="Trazado_7213" data-name="Trazado 7213" class="cls-52" d="M771,355H566.32a106.65,106.65,0,0,1,8.38-18.16c1.19-2.05,2.42-4.05,3.73-6H758.84c1.32,2,2.59,4,3.77,6A106.56,106.56,0,0,1,771,355Z" transform="translate(-550.52 -274.18)"/><path id="Trazado_7214" data-name="Trazado 7214" class="cls-52" d="M777.18,391.14a118.72,118.72,0,0,1-.65,12.07H560.76a110.42,110.42,0,0,1,0-24.11H776.53A118.14,118.14,0,0,1,777.18,391.14Z" transform="translate(-550.52 -274.18)"/><path id="Trazado_7215" data-name="Trazado 7215" class="cls-53" d="M758.86,330.86H578.4c.66-.89,1.27-1.84,1.93-2.79l.93-1.27a104.44,104.44,0,0,1,10-11.67c.45-.49.94-1,1.4-1.39a85.85,85.85,0,0,1,7.89-7H736.71A107.59,107.59,0,0,1,758.86,330.86Z" transform="translate(-550.52 -274.18)"/><path id="Trazado_7216" data-name="Trazado 7216" class="cls-52" d="M736.69,306.81H600.54c.53-.49,1.06-.9,1.64-1.4a16.86,16.86,0,0,1,1.92-1.4,108.13,108.13,0,0,1,132.59,2.8Z" transform="translate(-550.52 -274.18)"/><path id="Trazado_7217" data-name="Trazado 7217" class="cls-53" d="M776.54,379.11H560.76A104.87,104.87,0,0,1,566.35,355H771A107.61,107.61,0,0,1,776.54,379.11Z" transform="translate(-550.52 -274.18)"/></g><path id="Trazado_7218" data-name="Trazado 7218" class="cls-52" d="M680.71,283.3V403.2h-120a110.51,110.51,0,0,1,0-24.12,109.51,109.51,0,0,1,14-42.31c1.18-2,2.41-4,3.73-6,.65-.89,1.27-1.84,1.92-2.79l.94-1.27A103.4,103.4,0,0,1,591.27,315c.44-.49.93-1,1.39-1.4a85.87,85.87,0,0,1,7.9-7c.53-.49,1.06-.89,1.63-1.4a16.07,16.07,0,0,1,1.93-1.39,107.72,107.72,0,0,1,64.54-21.36A105.56,105.56,0,0,1,680.71,283.3Z" transform="translate(-550.52 -274.18)"/></g><g id="Grupo_6096" data-name="Grupo 6096"><g id="Grupo_6095" data-name="Grupo 6095"><g id="Grupo_6094" data-name="Grupo 6094"><g id="Grupo_6093" data-name="Grupo 6093"><g id="Grupo_6092" data-name="Grupo 6092"><g id="Grupo_6090" data-name="Grupo 6090"><path id="Trazado_7219" data-name="Trazado 7219" class="cls-54" d="M604.1,312.31c.41.74,1,1.8,1.76,3.23a16.68,16.68,0,0,1,2,7.82v.9l6.56,4.54h0a55.57,55.57,0,0,0-2.8-7.41,40.12,40.12,0,0,0-6.1-9.54l-.17-.25a11.49,11.49,0,0,1-2.46-5.59v.25a7.43,7.43,0,0,0-.08,2.7A8.78,8.78,0,0,0,604.1,312.31Z" transform="translate(-550.52 -274.18)"/><path id="Trazado_7220" data-name="Trazado 7220" class="cls-54" d="M606.13,311.42a40.73,40.73,0,0,1,6.17,9.65,56.46,56.46,0,0,1,2.63,6.75l.94-5.37A29.39,29.39,0,0,0,611,314a22.78,22.78,0,0,0-5.32-4.46,5,5,0,0,1-1.76-2.17l-.08-.21a12.71,12.71,0,0,0,2.08,4.06Z" transform="translate(-550.52 -274.18)"/><path id="Trazado_7221" data-name="Trazado 7221" class="cls-54" d="M616.66,328.43A13.6,13.6,0,0,1,620,328V303.51l-4.59,25.3Z" transform="translate(-550.52 -274.18)"/><path id="Trazado_7222" data-name="Trazado 7222" class="cls-54" d="M625.34,328.81l-4.58-25.3V328h1.06A14.78,14.78,0,0,1,625.34,328.81Z" transform="translate(-550.52 -274.18)"/><path id="Trazado_7223" data-name="Trazado 7223" class="cls-54" d="M629.35,321.45a35,35,0,0,0,2.2-9.33l.3-2a11.17,11.17,0,0,1,2.25-5.72,7.7,7.7,0,0,0-2.17,2,5.4,5.4,0,0,0-.7,1.18c-.21.53-.4,1.15-.74,2.25-.25.83-.57,2-1,3.48a16.52,16.52,0,0,1-4.79,7.57l1.4,7.87A59.73,59.73,0,0,0,629.35,321.45Z" transform="translate(-550.52 -274.18)"/><path id="Trazado_7224" data-name="Trazado 7224" class="cls-54" d="M633.65,307a3,3,0,0,1,.32-1.06,12.29,12.29,0,0,0-1.4,4.34l-.29,2a35.69,35.69,0,0,1-2.21,9.5,51.61,51.61,0,0,1-2.94,6.63l4.45-3.11h0a30.23,30.23,0,0,0,2.63-9.46,22.71,22.71,0,0,0-.62-6.87A4.24,4.24,0,0,1,633.65,307Z" transform="translate(-550.52 -274.18)"/><path id="Trazado_7225" data-name="Trazado 7225" class="cls-54" d="M626.9,329.42a15.69,15.69,0,0,1,3.84,2.66L648,314.81l-15.93,11.05Z" transform="translate(-550.52 -274.18)"/><path id="Trazado_7226" data-name="Trazado 7226" class="cls-54" d="M640.86,338.34a29,29,0,0,0,8-4.5l.48-.37a22.34,22.34,0,0,0,4.46-5.28,4.61,4.61,0,0,1,2.33-1.84,12.2,12.2,0,0,0-4,2,45.29,45.29,0,0,1-9.9,6.39c-1.4.65-2.63,1.14-3.73,1.55l-1.27.45-1.76.57,5.32,1h.06Z" transform="translate(-550.52 -274.18)"/><path id="Trazado_7227" data-name="Trazado 7227" class="cls-54" d="M639,330.32h0l-4.54,6.55c.83-.25,1.64-.53,2.5-.82,1.67-.58,3.32-1.23,4.92-2a44.75,44.75,0,0,0,9.78-6.3,11.23,11.23,0,0,1,5.59-2.46H657a7.49,7.49,0,0,0-6.1,1.39c-.78.41-1.8,1-3.23,1.72A16.58,16.58,0,0,1,639,330.32Z" transform="translate(-550.52 -274.18)"/><path id="Trazado_7228" data-name="Trazado 7228" class="cls-54" d="M633.86,336.42h0l14.65-21.08-17.33,17.23A14.94,14.94,0,0,1,633.86,336.42Z" transform="translate(-550.52 -274.18)"/><path id="Trazado_7229" data-name="Trazado 7229" class="cls-54" d="M635.33,342.51h24.43L634.5,338A15.68,15.68,0,0,1,635.33,342.51Z" transform="translate(-550.52 -274.18)"/><path id="Trazado_7230" data-name="Trazado 7230" class="cls-54" d="M634.5,347.88l25.26-4.58H635.33A16,16,0,0,1,634.5,347.88Z" transform="translate(-550.52 -274.18)"/><path id="Trazado_7231" data-name="Trazado 7231" class="cls-54" d="M656.94,354.43a9.15,9.15,0,0,0-3.4-1.4c-.82-.25-2-.57-3.48-1.06a16.36,16.36,0,0,1-7.57-4.79l-7.86,1.4a54.81,54.81,0,0,0,7.25,3.26,38,38,0,0,0,10.15,2.3l1.19.16a11.83,11.83,0,0,1,5.73,2.25l-.39-.57A9.51,9.51,0,0,0,656.94,354.43Z" transform="translate(-550.52 -274.18)"/><path id="Trazado_7232" data-name="Trazado 7232" class="cls-54" d="M651.91,354.92a37.64,37.64,0,0,1-10.31-2.34,51,51,0,0,1-6.6-2.9h0l3.08,4.41a29.39,29.39,0,0,0,9.45,2.63,21.65,21.65,0,0,0,7-.61,4.82,4.82,0,0,1,1.93,0,8.06,8.06,0,0,1,1.06.32,12.54,12.54,0,0,0-4.35-1.4Z" transform="translate(-550.52 -274.18)"/><path id="Trazado_7233" data-name="Trazado 7233" class="cls-54" d="M633.86,349.4l-.17.32a14.83,14.83,0,0,1-2.46,3.48l17.27,17.27-11-15.93Z" transform="translate(-550.52 -274.18)"/><path id="Trazado_7234" data-name="Trazado 7234" class="cls-54" d="M626.9,356.45,648,371.11,630.7,353.66A14.68,14.68,0,0,1,626.9,356.45Z" transform="translate(-550.52 -274.18)"/><path id="Trazado_7235" data-name="Trazado 7235" class="cls-54" d="M636.67,373.5c-.41-.74-1-1.81-1.72-3.2a16.81,16.81,0,0,1-2-8.76L626.43,357a52.73,52.73,0,0,0,2.65,7.17l.13.29a42.06,42.06,0,0,0,6.26,9.78,12,12,0,0,1,2.5,5.58v-.25a9,9,0,0,0,.08-2.69A9.19,9.19,0,0,0,636.67,373.5Z" transform="translate(-550.52 -274.18)"/><path id="Trazado_7236" data-name="Trazado 7236" class="cls-54" d="M628.54,364.74l-.13-.25c-.57-1.32-1-2.42-1.4-3.44s-.74-2-1-3.07l-1,5.36h0a29.78,29.78,0,0,0,4.83,8.51,22.7,22.7,0,0,0,5.32,4.45,4.82,4.82,0,0,1,1.76,2.21l.09.17a11.93,11.93,0,0,0-2.09-4.05A41.65,41.65,0,0,1,628.54,364.74Z" transform="translate(-550.52 -274.18)"/><path id="Trazado_7237" data-name="Trazado 7237" class="cls-54" d="M620.76,357.87v24.48l4.58-25.3A14.63,14.63,0,0,1,620.76,357.87Z" transform="translate(-550.52 -274.18)"/><path id="Trazado_7238" data-name="Trazado 7238" class="cls-54" d="M620,382.35V357.87a14.64,14.64,0,0,1-4.59-.87Z" transform="translate(-550.52 -274.18)"/><path id="Trazado_7239" data-name="Trazado 7239" class="cls-54" d="M611.42,364.31a29.15,29.15,0,0,0-1.8,6.83c-.21,1.18-.4,2.62-.65,4.49a11.87,11.87,0,0,1-2.3,5.77l.66-.49a7.4,7.4,0,0,0,1.51-1.5,9,9,0,0,0,1.4-3.44c.25-.82.57-1.93,1.06-3.48a18.52,18.52,0,0,1,2.62-5.24,20.44,20.44,0,0,1,2.13-2.33l-1.4-7.82A54.14,54.14,0,0,0,611.42,364.31Z" transform="translate(-550.52 -274.18)"/><path id="Trazado_7240" data-name="Trazado 7240" class="cls-54" d="M607.16,378.86a4.42,4.42,0,0,1-.36,1.06,11.52,11.52,0,0,0,1.4-4.3c.29-1.93.49-3.35.7-4.54a30,30,0,0,1,1.8-7,59.61,59.61,0,0,1,2.95-6.64l-4.46,3.12a29.06,29.06,0,0,0-2.58,9.45,21,21,0,0,0,.57,6.88A4.92,4.92,0,0,1,607.16,378.86Z" transform="translate(-550.52 -274.18)"/><path id="Trazado_7241" data-name="Trazado 7241" class="cls-54" d="M610.06,353.66l-17.31,17.27,21.17-14.48A14.36,14.36,0,0,1,610.06,353.66Z" transform="translate(-550.52 -274.18)"/><path id="Trazado_7242" data-name="Trazado 7242" class="cls-54" d="M606.91,349.4l-5.07,7.29-9.58,13.79,17.26-17.27A15.08,15.08,0,0,1,606.91,349.4Z" transform="translate(-550.52 -274.18)"/><path id="Trazado_7243" data-name="Trazado 7243" class="cls-54" d="M600.82,355.45h.9l4.54-6.55c-.83.25-1.64.53-2.5.82-1.4.49-2.91,1.06-4.92,2a44.38,44.38,0,0,0-9.78,6.3,11.49,11.49,0,0,1-5.59,2.46,9.43,9.43,0,0,0,2.95.13,9.84,9.84,0,0,0,3.44-1.4c.74-.45,1.76-1,3.19-1.76A17.25,17.25,0,0,1,600.82,355.45Z" transform="translate(-550.52 -274.18)"/><path id="Trazado_7244" data-name="Trazado 7244" class="cls-54" d="M591.45,352.36a18.31,18.31,0,0,0-4,4.63l-.45.65a4.87,4.87,0,0,1-2.37,1.85,11.46,11.46,0,0,0,4-2,43.27,43.27,0,0,1,9.9-6.35q2.44-1.14,5-2l1.76-.57-5.32-.93h0A28.4,28.4,0,0,0,591.45,352.36Z" transform="translate(-550.52 -274.18)"/><path id="Trazado_7245" data-name="Trazado 7245" class="cls-54" d="M605.49,341.88a15.19,15.19,0,0,1,.78-3.88L581,342.54h24.44Z" transform="translate(-550.52 -274.18)"/><path id="Trazado_7246" data-name="Trazado 7246" class="cls-54" d="M606.27,347.88a15.6,15.6,0,0,1-.82-4.58H581l17.6,3.19Z" transform="translate(-550.52 -274.18)"/><path id="Trazado_7247" data-name="Trazado 7247" class="cls-54" d="M599.19,333.18h0a51.15,51.15,0,0,1,6.59,2.95h0l-3.07-4.46a29.69,29.69,0,0,0-9.46-2.62,22.76,22.76,0,0,0-7,.61,5.22,5.22,0,0,1-1.93,0,7.1,7.1,0,0,1-1-.32,11.7,11.7,0,0,0,4.3,1.4A44,44,0,0,1,599.19,333.18Z" transform="translate(-550.52 -274.18)"/><path id="Trazado_7248" data-name="Trazado 7248" class="cls-54" d="M583.85,331.38a8.37,8.37,0,0,0,3.39,1.4c.83.25,2,.57,3.52,1.06a16.18,16.18,0,0,1,7.53,4.79l7.87-1.4a56.81,56.81,0,0,0-7.25-3.27,42.39,42.39,0,0,0-11.35-2.45,11.8,11.8,0,0,1-5.72-2.25l.25.32A8.34,8.34,0,0,0,583.85,331.38Z" transform="translate(-550.52 -274.18)"/><path id="Trazado_7249" data-name="Trazado 7249" class="cls-54" d="M606.91,336.46l.17-.36a15.13,15.13,0,0,1,2.46-3.48l-17.27-17.26,14.17,20.38Z" transform="translate(-550.52 -274.18)"/><path id="Trazado_7250" data-name="Trazado 7250" class="cls-54" d="M613.92,329.42,592.8,314.81l17.26,17.27A15.53,15.53,0,0,1,613.92,329.42Z" transform="translate(-550.52 -274.18)"/><path id="Trazado_7251" data-name="Trazado 7251" class="cls-54" d="M627.54,338.31h-.12c.12.45.45,1.88-.45,2.37h0a6.44,6.44,0,0,0,1.55-.65,3,3,0,0,0-.08-1.32Z" transform="translate(-550.52 -274.18)"/><path id="Trazado_7252" data-name="Trazado 7252" class="cls-54" d="M613.8,340.68c-.89-.49-.57-1.92-.45-2.37h-.12l-.87.4a3,3,0,0,0-.08,1.32,6.44,6.44,0,0,0,1.55.65Z" transform="translate(-550.52 -274.18)"/><path id="Trazado_7253" data-name="Trazado 7253" class="cls-54" d="M634.54,342.51a12.2,12.2,0,0,0-.86-4.5v-.16h0v-.21l-.13-.25-.08-.21-.09-.21a14.74,14.74,0,0,0-2.58-3.8l-.29-.25-.3-.3a13.76,13.76,0,0,0-2.25-1.76,17.6,17.6,0,0,0-1.88-1h0l-.25-.08a14.55,14.55,0,0,0-4.05-1,7.31,7.31,0,0,0-1.4-.08,14.71,14.71,0,0,0-3.56.44,11.64,11.64,0,0,0-1.55.49h-.17l-.21.09-.17.08h0a14.51,14.51,0,0,0-1.76.89,15.15,15.15,0,0,0-2.54,2,13,13,0,0,0-2.59,3.52l-.44.94-.09.17v.08l-.08.21a14.4,14.4,0,0,0-.94,4.09v1.4a14.1,14.1,0,0,0,.87,4.5v.17l.13.25.08.25.08.21.09.21a15.24,15.24,0,0,0,2.62,3.8l.25.29.3.25a11.83,11.83,0,0,0,2.29,1.76,10.52,10.52,0,0,0,1.51.83l.21.12h.21l.21.13.21.08.21.09a14.33,14.33,0,0,0,4.54.86h.78a14.77,14.77,0,0,0,4.5-.86l.16-.09h0l.21-.08.25-.13h.17l.21-.12a10.52,10.52,0,0,0,1.51-.83,11.83,11.83,0,0,0,2.29-1.76l.29-.25.3-.29a15.76,15.76,0,0,0,2.29-3.27l.29-.53.09-.21.08-.21.13-.25v-.17l.08-.25a12.17,12.17,0,0,0,.87-4.5v-.36Zm-12,1.4s.93.29,1.18,1.8a4.11,4.11,0,0,1,1,.41,7.66,7.66,0,0,1,.83.78l-.25-.13-.26-.12-.55-.24a4.67,4.67,0,0,0-1.28-.29,3.85,3.85,0,0,0-1.22.08,2.28,2.28,0,0,1-3.22.05s0,0,0-.05a3.66,3.66,0,0,0-1.19-.08,4.52,4.52,0,0,0-1.31.29l-.49.25-.25.13h-.26a6.13,6.13,0,0,1,.79-.74,5.06,5.06,0,0,1,1-.41,2.16,2.16,0,0,1,1.23-1.8c-1.47,2.12.53,1.72.78,1.47,0,.74.82.82,1.14.82h.32c.37,0,1.23-.08,1.15-.82C621.94,345.57,624,346,622.52,343.91Zm-1.93,7.89h-.41a7.34,7.34,0,0,1-2.54-.4,11.45,11.45,0,0,0-3-1.51l.7.08a8.35,8.35,0,0,1,2.69.7,8.31,8.31,0,0,0,2.38.25,8.21,8.21,0,0,0,2.37-.25,9,9,0,0,1,2.7-.7l.7-.08a12.09,12.09,0,0,0-3,1.51A7.53,7.53,0,0,1,620.59,351.8Zm1.27,1.64h-3l.45-.21.45-.09h1.62l.32.17Zm3.56-3.89a13.14,13.14,0,0,1-3.07,0,9.85,9.85,0,0,0-1.8.13h-.26a10.23,10.23,0,0,0-1.84-.13,13.14,13.14,0,0,1-3.07,0l-1.19-.12a18.42,18.42,0,0,0,3.12-.66,4.87,4.87,0,0,1,2.54-.17l.36.09h.41l.36-.09a5,5,0,0,1,2.58.17,16.26,16.26,0,0,0,3.08.66Zm-15.48-12.11c-.16,0-.36-.12-.25-.32h0l.21-.17,1.4-.74a5.6,5.6,0,0,1,4.19-.89,7.9,7.9,0,0,1,3,2c.12.13.49.53.17.57s-.83-.53-1-.65a5.94,5.94,0,0,0-3.89-.9,7.48,7.48,0,0,0-1.92.41l-.94.36a2.35,2.35,0,0,1-.92.32Zm1.89,2.25.29.25v-.65l.13-.3.08-.29-.65.36-.62.3-.36.16v-.12a7.08,7.08,0,0,1,3.52-1.8,3.68,3.68,0,0,1,3.11.78c.66.57.45,1,.45,1a10,10,0,0,0-1.4-1h0a2.12,2.12,0,0,1-.29,1.23,2.32,2.32,0,0,1-1.47,1.18,2.18,2.18,0,0,0,1.51-.36,1.9,1.9,0,0,0,.78-.53l.21-.12h.21l.09.08v.25l-.45.41a3,3,0,0,1-1.1.48,3.62,3.62,0,0,1-2.91-.36C611.47,339.86,611.68,339.57,611.83,339.69Zm1,10.56v-.4l.12-.37.09-.16.12-.21.33-.32.29-.21.25-.13h.13l-.09.08-.17.21-.12.13-.13.12-.16.17-.13.17-.25.32-.17.29Zm15.1-.12v.12l-.13-.36-.16-.29-.25-.33-.13-.16-.13-.17-.16-.13-.09-.12-.21-.21v-.09h.09l.25.13.29.21.32.32.13.21.12.17.13.36Zm2.12-10.61-.36-.16-.57-.3-.7-.36.12.29.09.3a1.78,1.78,0,0,1,0,.65l.32-.25c.17-.12.32.17-1.1,1A3.62,3.62,0,0,1,625,341a2.8,2.8,0,0,1-1.1-.49l-.41-.4v-.25l.09-.09h.21l.2.13a2.34,2.34,0,0,0,.79.53,2.29,2.29,0,0,0,1.51.36,2.32,2.32,0,0,1-1.47-1.18,2.53,2.53,0,0,1-.29-1.23h0a10,10,0,0,0-1.4,1s-.21-.45.45-1a3.72,3.72,0,0,1,3.11-.79,7,7,0,0,1,3.52,1.81Zm.74-2.08a2.39,2.39,0,0,1-.89-.36l-.89-.36a8.32,8.32,0,0,0-2-.41,5.81,5.81,0,0,0-3.85.89c-.25.13-.74.75-1,.66s0-.45.13-.57a7.82,7.82,0,0,1,3-2,5.6,5.6,0,0,1,4.19.89l1.4.74.21.17h0a.3.3,0,0,1-.32.36Z" transform="translate(-550.52 -274.18)"/></g><g id="Grupo_6091" data-name="Grupo 6091"><path id="Trazado_7254" data-name="Trazado 7254" d="M659.06,355.49l-.45-.53a8.38,8.38,0,0,0-1.23-1.15,9.86,9.86,0,0,0-3.64-1.5c-.83-.26-2-.58-3.48-1.07a15.89,15.89,0,0,1-7-4.19l22.8-4.09-23.82-4.34a32.2,32.2,0,0,0,7-4.2l.49-.36a16.3,16.3,0,0,0,3-3.23c.49-.65,1-1.39,1.59-2.24,1.59-2.3,4.63-2,6.68-1.89l1.59.13-1.4-.87a12.11,12.11,0,0,0-4.09-1.4,7.91,7.91,0,0,0-3-.08,8.84,8.84,0,0,0-3.64,1.47c-.78.4-1.8,1-3.23,1.71a15.76,15.76,0,0,1-7.86,1.93l13.21-19-19.93,13.78a32.51,32.51,0,0,0,2.12-8.46,22,22,0,0,0-.61-7.13,4.07,4.07,0,0,1,0-1.63l.08-.36a9.52,9.52,0,0,1,3.23-4.06l1.23-1.06-1.55.37a11.76,11.76,0,0,0-6.07,3.92l-.53.83-.25.44c-.25.62-.45,1.27-.78,2.34s-.53,2-1,3.52a16.55,16.55,0,0,1-4.19,6.87L622,306.77l-.57-3.36-1.15-6.26-1.14,6.26-.58,3.36L616,321a32.85,32.85,0,0,0-4.54-7.48A21.25,21.25,0,0,0,606,308.9a4,4,0,0,1-1.51-1.88l-.12-.25A8.31,8.31,0,0,1,604,304c-.65.45-1.31.94-1.92,1.4l-.17.7-.08.65a8,8,0,0,0,0,2.29,10,10,0,0,0,1.5,3.65c.41.74,1,1.8,1.72,3.2a16.44,16.44,0,0,1,1.93,7.86l-14.44-10c-.49.44-1,.93-1.4,1.39l10.64,15.37a30.82,30.82,0,0,0-8.5-2.12,22.51,22.51,0,0,0-7.13.57,3.74,3.74,0,0,1-1.63,0,6.73,6.73,0,0,1-3.31-2.08l-.94,1.27a14.2,14.2,0,0,0,1.1,1.84c.26.32.49.62.74.9A6.64,6.64,0,0,0,583.3,332a10,10,0,0,0,3.65,1.51c.82.25,2,.57,3.48,1.06a16.3,16.3,0,0,1,7,4.19l-16.54,3-6.25,1.15,23.85,4.3a33.91,33.91,0,0,0-7.52,4.5,16.06,16.06,0,0,0-3,3.23l-1.1,1.55-.49.69a6.65,6.65,0,0,1-6.63,1.89l-1.6-.13,1.4.87a12,12,0,0,0,3.84,1.4,9.12,9.12,0,0,0,2.08.21,5.2,5.2,0,0,0,1.11-.09,9.53,9.53,0,0,0,3.69-1.46c.74-.41,1.76-1,3.19-1.72a16.37,16.37,0,0,1,7.87-1.93l-13.22,19L608,361.47a32.53,32.53,0,0,0-2.13,8.46,21.92,21.92,0,0,0,.62,7.17,5.63,5.63,0,0,1,0,1.64l-.13.36a9.81,9.81,0,0,1-3.22,4l-1.23,1,1.55-.36a13,13,0,0,0,4.41-2.21,7.92,7.92,0,0,0,1.64-1.68l.53-.82a13.79,13.79,0,0,0,1-2.8c.25-.82.57-2,1-3.52a16.78,16.78,0,0,1,4.19-6.87l2.41,13.22,1.72,9.58,1.76-9.58,2.59-14.29a20.72,20.72,0,0,0,1.84,3.64,35.18,35.18,0,0,0,2.66,3.89,21.94,21.94,0,0,0,5.44,4.58,4.09,4.09,0,0,1,1.51,1.88l.13.3a10.48,10.48,0,0,1,.29,4.49l-.12,1.6.82-1.4a12,12,0,0,0,1.47-4.09l.08-.62a7.59,7.59,0,0,0,0-2.33,9.69,9.69,0,0,0-1.51-3.65c-.4-.74-1-1.76-1.72-3.2a16.17,16.17,0,0,1-1.88-7.86l19,13.17-13.83-19.89a33,33,0,0,0,8.51,2.08,22.51,22.51,0,0,0,7.13-.57,4.47,4.47,0,0,1,1.63,0,8.61,8.61,0,0,1,4.41,3.35l1.07,1.23-.37-1.59A12.6,12.6,0,0,0,659.06,355.49Zm-24.56-7.61a16,16,0,0,0,.83-4.58h24.43Zm-.82-.09-.09.25v.17l-.12.25-.09.21-.08.21-.29.52a15.5,15.5,0,0,1-2.29,3.27l-.3.29-.29.25a11.83,11.83,0,0,1-2.29,1.76,11.09,11.09,0,0,1-1.51.83l-.21.12H626l-.25.13-.21.08h0l-.17.09a14.36,14.36,0,0,1-4.49.86H620a14.33,14.33,0,0,1-4.54-.86l-.21-.09-.21-.08-.21-.13h-.21l-.21-.12a10.52,10.52,0,0,1-1.51-.83,11.83,11.83,0,0,1-2.29-1.76l-.3-.25-.25-.29a15.06,15.06,0,0,1-2.62-3.8l-.09-.21-.08-.21-.08-.25-.13-.25v-.17a14.1,14.1,0,0,1-.87-4.5v-1.4a14.4,14.4,0,0,1,.94-4.09l.08-.21v-.08l.09-.17.44-.94a13,13,0,0,1,2.59-3.52,15.15,15.15,0,0,1,2.54-2,16.12,16.12,0,0,1,1.76-.89h0l.17-.08.21-.09h.17a11.64,11.64,0,0,1,1.55-.49,14.71,14.71,0,0,1,3.56-.44,8.22,8.22,0,0,1,1.4.08,14.38,14.38,0,0,1,3.92.94l.25.08h0a16.91,16.91,0,0,1,1.89,1,13.13,13.13,0,0,1,2.25,1.76l.29.29.29.25a14.87,14.87,0,0,1,2.59,3.8l.08.21.09.21.12.25v.21h0v.17a12,12,0,0,1,.87,4.5v.77a12,12,0,0,1-.66,4.45Zm26.06-5.28H635.33a15.68,15.68,0,0,0-.83-4.54Zm-5.93-14.32c-.74,1-1.4,1.89-1.93,2.66a14,14,0,0,1-2.54,2.62l-.49.37a29.47,29.47,0,0,1-8,4.5l-5.36-1c.57-.17,1.14-.36,1.76-.57l1.27-.45c1.1-.45,2.29-.9,3.73-1.55l.61-.32.62-.25.53-.3,1-.53.44-.29,1.27-.78.49-.33.21-.12.45-.32.57-.41.37-.29c.89-.66,2-1.4,3.31-2.46a12.39,12.39,0,0,1,4-2.05,4.73,4.73,0,0,0-2.31,1.85Zm-6.07.17c1.4-.74,2.46-1.31,3.2-1.72a9.15,9.15,0,0,1,3.44-1.39,8.44,8.44,0,0,1,2.7.08h.25a11.45,11.45,0,0,0-5.59,2.46c-1.8,1.4-3.07,2.33-4.19,3.07a27.19,27.19,0,0,1-2.79,1.76l-.33.21-1,.53-.79.32-.82.41c-2,.89-3.52,1.47-4.92,2-.86.29-1.67.53-2.5.82l4.19-6,.37-.53h0a16.48,16.48,0,0,0,8.78-2Zm-10,2.5-3.88,5.59a15.06,15.06,0,0,0-2.62-3.8l1.8-1.8,15.5-15.51Zm10.23-16.05-17.27,17.27-.57-.49-.08-.08-.09-.09h0l-.61-.49-.08-.08h0l-.54-.36-.48-.3h0l-.37-.21h0l-.86-.44,5.19-3.57Zm-14.36-5.93a22.67,22.67,0,0,1,.61,6.87,29.18,29.18,0,0,1-2.62,9.46l-4.46,3.11a51.8,51.8,0,0,0,2.95-6.64,35.62,35.62,0,0,0,2.21-9.49l.29-2,.21-1,.24-.9h0l.29-.82.25-.62v-.08l.41-.87-.3.87V307a4.42,4.42,0,0,0,0,1.88Zm-4.19,4.38c.45-1.55.78-2.65,1-3.48.32-1.1.53-1.72.74-2.25l.45-.78.25-.4a7.66,7.66,0,0,1,2.16-2,9.9,9.9,0,0,0-1.39,2.37l-.26.66-.25.82a12.12,12.12,0,0,0-.36,1.89l-.29,2a34.78,34.78,0,0,1-2.21,9.33,49.77,49.77,0,0,1-3.27,7.21l-1.4-7.82a16.64,16.64,0,0,0,4.89-7.6Zm-8.68-9.69.58,3.2,4,22.05a15,15,0,0,0-3.52-.78h-1Zm-1.39,3.2.57-3.2V328a12.64,12.64,0,0,0-3.35.45l-1.23.36Zm-13.79,2.79a22.78,22.78,0,0,1,5.32,4.46,29.62,29.62,0,0,1,4.84,8.5l-.94,5.37a56.46,56.46,0,0,0-2.63-6.75,40.73,40.73,0,0,0-6.17-9.65l-.17-.25a12,12,0,0,1-2.08-4.06l.08.21a5.15,5.15,0,0,0,1.88,2.1Zm.17,6.06c-.74-1.39-1.32-2.46-1.72-3.22a8.2,8.2,0,0,1-1.4-3.4,4.5,4.5,0,0,1-.08-1.1v-1.06l.08-.54v-.25l.09.58v.21l.12.53.17.57.25.7.36.74.37.74v.08l.36.53.17.3.49.69.16.26a41,41,0,0,1,6.11,9.54,55.91,55.91,0,0,1,2.79,7.4l-6.55-4.54v-1a16.4,16.4,0,0,0-1.65-7.82Zm8.1,13.87-1,.58-.78.44h0l-.53.32h0l-.09.09-.61.49h0l-.09.08-.08.09-.57.48-1.19-1.23-16.08-16.05Zm-21.65-14.08,15.5,15.51,1.76,1.76a14.91,14.91,0,0,0-2.46,3.48l-.16.36-.49-.74-3.4-4.88Zm-7.87,14.32a5.22,5.22,0,0,0,1.93,0,21.61,21.61,0,0,1,7-.61l1.4.21,1,.16h.13l.44.09.41.08.29.09h.36l.94.25h.34l1.06.32,1.1.4h0a13.86,13.86,0,0,1,2,.87l3.07,4.46c-.89-.49-1.84-.94-2.9-1.4a39.14,39.14,0,0,0-3.69-1.51,29.51,29.51,0,0,0-4.58-1.4c-.7-.16-1.51-.29-2.46-.44l-.66-.13-.53-.08-1-.13-1.31-.21-1-.17a11.5,11.5,0,0,1-4.3-1.39,9.14,9.14,0,0,0,1.12.47Zm6.34,4.19c-1.55-.49-2.69-.82-3.52-1.06a8.37,8.37,0,0,1-3.39-1.4l-.45-.36-.16-.17a8.92,8.92,0,0,1-1.15-1.31l-.25-.32.49.36.49.29.78.45.57.25.74.25h0l.57.17.58.17,1.46.29A43.57,43.57,0,0,1,598.77,334a64,64,0,0,1,7.21,3.27l-7.87,1.4a16.26,16.26,0,0,0-7.36-4.82Zm15.55,4.19a12.35,12.35,0,0,0-.82,3.89v.65H581Zm-25.3,5.33h24.44a14.62,14.62,0,0,0,.86,4.58l-7.69-1.4Zm6,14.31.45-.65c.49-.74,1-1.4,1.4-2a14.53,14.53,0,0,1,1-1.19l.49-.53a11.44,11.44,0,0,1,1.06-.9,28.44,28.44,0,0,1,8.5-4.83l5.33.94-1.76.57c-1.4.49-3,1.1-5,2l-1.4.66-.74.36h0l-.78.4-.74.45-.66.41-.32.25h-.12l-.53.36-1.32.94-1.39,1.06-.45.32-1.4,1.06a12.88,12.88,0,0,1-4,2.08,5.18,5.18,0,0,0,2.5-1.9Zm13.83-2.16a17.21,17.21,0,0,0-7.82,2c-1.4.74-2.46,1.31-3.2,1.76a8.94,8.94,0,0,1-3.44,1.4,9.37,9.37,0,0,1-2.94-.13,11.61,11.61,0,0,0,5.68-2.46l2.14-1.66.45-.32.49-.36.36-.26.32-.25.29-.21.21-.16c.74-.54,1.4-.94,1.93-1.32l.49-.29c.53-.29,1-.57,1.63-.87l.74-.36.83-.41c2-.89,3.52-1.46,4.92-2l2.54-.83-4.19,6-.37.53Zm1,1.23,1.19-1.72,3.88-5.59a14,14,0,0,0,2.66,3.8l-1.76,1.76-15.55,15.51Zm-9,14.36,16-16.08,1.23-1.23.87.78.61.45h0l.49.36.49.3h0l.32.21.9.48ZM607,377.07a21.17,21.17,0,0,1-.57-6.87,29.12,29.12,0,0,1,2.58-9.46l4.46-3.11a62.24,62.24,0,0,0-3,6.63,30.71,30.71,0,0,0-1.8,7c-.21,1.19-.41,2.62-.7,4.54l-.13.78-.21.82v.09l-.12.4-.13.37-.4,1-.41.82.3-.82L607,379a4.87,4.87,0,0,0,.15-2.08Zm6.79-9.62a18.29,18.29,0,0,0-2.63,5.24c-.49,1.51-.82,2.65-1.06,3.47l-.17.58v.12l-.16.53v.09l-.13.4-.13.37a4.17,4.17,0,0,1-.53,1l-.25.37a7.45,7.45,0,0,1-1.51,1.51l-.65.49c.26-.35.51-.7.74-1.07l.32-.61.32-.7.25-.7.25-.82a17.17,17.17,0,0,0,.41-1.89c.25-1.88.45-3.31.65-4.5a29.43,29.43,0,0,1,1.81-6.83,49.67,49.67,0,0,1,3.27-7.21l1.39,7.83a20.33,20.33,0,0,0-2,2.23Zm6.06,15-.57-3.2-4-22.1a14.36,14.36,0,0,0,4.58.87Zm1.4-3.2-.57,3.2V357.87a14.68,14.68,0,0,0,4.54-.87ZM635,376.43a21.69,21.69,0,0,1-5.28-4.46,28.77,28.77,0,0,1-4.87-8.5l1-5.33c.32,1,.61,2,1,3s.86,2.12,1.39,3.43l.13.25a45,45,0,0,0,6.34,9.95,11.55,11.55,0,0,1,2.08,4l-.08-.17a4.77,4.77,0,0,0-1.59-2.33Zm-.16-6.06c.74,1.39,1.31,2.5,1.72,3.22A9,9,0,0,1,638,377l.09,1v1.15l-.09.49v.25l-.12-.58v-.16l-.13-.58-.17-.57-.25-.7-.32-.74-.4-.74-.3-.4v-.09h0l-.08-.12L636,375v-.09l-.45-.61a42.35,42.35,0,0,1-6.25-9.78l-.13-.29a52.73,52.73,0,0,1-2.65-7.17l6.55,4.54a16.5,16.5,0,0,0,1.88,8.66Zm-8.11-13.87.9-.49.36-.21h0l.49-.3.53-.36h0a18.08,18.08,0,0,0,1.47-1.23l1.19,1.23,16.07,16.08Zm21.66,14.08L633,355l-1.76-1.76a15.13,15.13,0,0,0,2.46-3.48l.16-.36,3.61,5.19.29.41Zm7.86-14.32a5.22,5.22,0,0,0-1.93,0,22.76,22.76,0,0,1-7,.61l-1.4-.21-1-.16-.65-.13-1-.21-1.19-.32-.93-.29-.45-.13-.87-.29h0a11.92,11.92,0,0,1-2-.87l-3.11-4.41c.94.44,1.84.89,2.9,1.39a39.14,39.14,0,0,0,3.69,1.51,37.64,37.64,0,0,0,10.31,2.34H652l.94.16a12.56,12.56,0,0,1,4.34,1.4,9.5,9.5,0,0,0-.88-.5Zm2.08.12-.49-.32-.74-.4-.48-.25-.26-.09-.57-.21h0l-.82-.25-.74-.17-1.11-.21-1.18-.16A38.4,38.4,0,0,1,641.78,352a56.19,56.19,0,0,1-7.25-3.27l7.86-1.4a16.18,16.18,0,0,0,7.58,4.79c1.5.49,2.65.83,3.47,1.06a9.15,9.15,0,0,1,3.4,1.4l.61.53.37.36.57.62.45.66Z" transform="translate(-550.52 -274.18)"/><path id="Trazado_7255" data-name="Trazado 7255" d="M627.84,349.47l-.13-.17-.12-.21-.32-.32-.3-.21-.25-.12h-.08v.08l.21.21.08.13.17.12.12.17.13.17.25.32.17.29.12.36v-.42Z" transform="translate(-550.52 -274.18)"/><path id="Trazado_7256" data-name="Trazado 7256" d="M620.24,351.82h.4a7.61,7.61,0,0,0,2.55-.41,12.09,12.09,0,0,1,3-1.51l-.7.09a8.73,8.73,0,0,0-2.7.69,8.21,8.21,0,0,1-2.37.26,8.32,8.32,0,0,1-2.38-.26,8.34,8.34,0,0,0-2.69-.69l-.7-.09a11.76,11.76,0,0,1,3,1.51A7.5,7.5,0,0,0,620.24,351.82Z" transform="translate(-550.52 -274.18)"/><path id="Trazado_7257" data-name="Trazado 7257" d="M630.09,339.41a7,7,0,0,0-3.52-1.8,3.74,3.74,0,0,0-3.12.78c-.65.57-.45,1-.45,1a12.85,12.85,0,0,1,1.4-1h0a2.41,2.41,0,0,0,.3,1.23,2.38,2.38,0,0,0,1.46,1.19,2.3,2.3,0,0,1-1.51-.36,2.48,2.48,0,0,1-.78-.54l-.21-.12h-.21l-.08.08v.25l.4.41a3,3,0,0,0,1.11.49,3.64,3.64,0,0,0,2.9-.36c1.4-.83,1.27-1.11,1.11-1l-.33.25a1.47,1.47,0,0,0,0-.66l-.08-.29-.12-.29.69.36.58.29.36.17Zm-1.6.62a5.72,5.72,0,0,1-1.55.65h0c.9-.49.58-1.92.45-2.37h.13l.86.36a3.15,3.15,0,0,1,.16,1.36Z" transform="translate(-550.52 -274.18)"/><path id="Trazado_7258" data-name="Trazado 7258" d="M622.19,337.85c.3.08.79-.53,1-.7a6,6,0,0,1,3.85-.87,8.32,8.32,0,0,1,2,.41l.89.36a1.83,1.83,0,0,0,.89.36c.17,0,.37-.12.26-.32h0l-.21-.16-1.4-.75a5.6,5.6,0,0,0-4.19-.89,7.76,7.76,0,0,0-2.95,1.93C622.19,337.4,621.82,337.81,622.19,337.85Z" transform="translate(-550.52 -274.18)"/><path id="Trazado_7259" data-name="Trazado 7259" d="M618.42,349.55a10.4,10.4,0,0,1,1.85.13h.29a9.92,9.92,0,0,1,1.8-.13,11.35,11.35,0,0,0,3.08,0l1.18-.12a17.86,17.86,0,0,1-3.07-.66,5,5,0,0,0-2.58-.17l-.37.09h-.4l-.37-.09a4.88,4.88,0,0,0-2.54.17,18.52,18.52,0,0,1-3.11.66l1.18.12A11.2,11.2,0,0,0,618.42,349.55Z" transform="translate(-550.52 -274.18)"/><path id="Trazado_7260" data-name="Trazado 7260" d="M621.73,353.44h.13l-.13-.09-.32-.12H621a2.71,2.71,0,0,0-.57,0h-.59l-.44.08-.45.21h1.46a8.68,8.68,0,0,1,1,0Z" transform="translate(-550.52 -274.18)"/><path id="Trazado_7261" data-name="Trazado 7261" d="M618.26,343.91s-.9.29-1.19,1.8a3.73,3.73,0,0,0-1,.45,4.49,4.49,0,0,0-.83.74l.3-.13.25-.12.49-.25a4.89,4.89,0,0,1,1.31-.3,4,4,0,0,1,1.19.09,2.28,2.28,0,0,0,3.22.05l0-.05a3.92,3.92,0,0,1,1.18-.09,5,5,0,0,1,1.32.3l.53.25.25.12.25.13a4.43,4.43,0,0,0-.82-.74,3.21,3.21,0,0,0-1-.45c-.25-1.51-1.19-1.8-1.19-1.8,1.4,2.12-.57,1.72-.82,1.47,0,.78-.79.82-1.15.82h-.35c-.32,0-1.19,0-1.14-.82C618.83,345.63,616.82,346,618.26,343.91Z" transform="translate(-550.52 -274.18)"/><path id="Trazado_7262" data-name="Trazado 7262" d="M613.8,348.58l-.31.18-.32.32-.13.21-.08.17-.12.36v.4l.12-.36.17-.29.25-.32.13-.17.16-.17.13-.12.12-.13.17-.21.09-.08h-.13Z" transform="translate(-550.52 -274.18)"/><path id="Trazado_7263" data-name="Trazado 7263" d="M616.05,339.61a2.12,2.12,0,0,0,.29-1.23h0a10,10,0,0,1,1.4,1s.21-.45-.45-1a3.68,3.68,0,0,0-3.11-.78,7.08,7.08,0,0,0-3.52,1.8v.12l.36-.16.61-.3.66-.36-.08.29-.13.3v.65l-.29-.25c-.17-.12-.37.17,1.06,1a3.64,3.64,0,0,0,2.9.36,2.84,2.84,0,0,0,1.11-.49l.45-.4v-.25l-.09-.09H617l-.21.13a2,2,0,0,1-.78.53,2.18,2.18,0,0,1-1.51.36A2.4,2.4,0,0,0,616.05,339.61Zm-3.77.4a3.11,3.11,0,0,1,.08-1.39l.87-.37h.12c-.12.45-.44,1.89.45,2.38h0a7.4,7.4,0,0,1-1.52-.6Z" transform="translate(-550.52 -274.18)"/><path id="Trazado_7264" data-name="Trazado 7264" d="M611.79,336.7a7.34,7.34,0,0,1,2-.4,6.09,6.09,0,0,1,3.84.86c.21.17.74.79,1,.7s0-.45-.17-.57a7.9,7.9,0,0,0-3-2,5.6,5.6,0,0,0-4.19.89l-1.4.74-.21.17h0c-.12.21.09.32.26.32a1.93,1.93,0,0,0,.89-.36Z" transform="translate(-550.52 -274.18)"/></g></g></g></g></g></g></g></g></svg>