<svg id="Capa_1" data-name="Capa 1" xmlns="http://www.w3.org/2000/svg" viewBox="0 0 47.44 38.55"><defs><style>.cls-1{fill:#f07e00;fill-rule:evenodd;}</style></defs><g id="Grupo_7025" data-name="Grupo 7025"><path id="Trazado_10166" data-name="Trazado 10166" class="cls-1" d="M666.51,395.93H665a1.48,1.48,0,1,1,0-3h1.49a3,3,0,0,0,3-3h0v-4.44a1.5,1.5,0,0,0-.05-.37s0-.09-.06-.14l-.06-.14a3.1,3.1,0,0,0-2.18-1.54,15.21,15.21,0,0,0-5-.8,14.7,14.7,0,0,0-4.92.79,3.31,3.31,0,0,0-1.68.76h0a1.36,1.36,0,1,1-1.82-2,1.44,1.44,0,0,1,.25-.18,10.75,10.75,0,0,1,3-1.49,7.35,7.35,0,0,1-2.18-4.65,5.88,5.88,0,0,1,0-.6v-4.45a5.92,5.92,0,0,1,5.93-5.92h3a5.93,5.93,0,0,1,5.93,5.93h0v4.44a1.49,1.49,0,0,1-3,0v-4.44a3,3,0,0,0-3-3h-3a3,3,0,0,0-3,3h0v4.44a4.44,4.44,0,0,0,4.44,4.45c5.74,0,10.38,2.66,10.38,5.93V390a5.92,5.92,0,0,1-5.93,5.93Zm-15.58-12.76a1.48,1.48,0,0,1-1.87.94,1.46,1.46,0,0,1-1-1.41,1.53,1.53,0,0,1,.13-.59h0a6,6,0,0,0,.55-2.49,5.31,5.31,0,0,0-.09-1,3.84,3.84,0,0,0,.09-.83v-6a4,4,0,0,0-4-4h-3.95a4,4,0,0,0-4,4v6a4.58,4.58,0,0,0,.09.83,5.9,5.9,0,0,0,4.8,6.82,6,6,0,0,0,1,.09c9.8,0,17.8,3.65,17.8,8.15v3.71a5.93,5.93,0,0,1-5.93,5.92H630.94a5.92,5.92,0,0,1-5.93-5.92h0v-3.71a5.83,5.83,0,0,1,3.06-4.57,1.41,1.41,0,0,1,.84-.3,1.38,1.38,0,0,1,.72,2.55h0a3.07,3.07,0,0,0-1.68,2.32v3.71a3,3,0,0,0,3,3h23.72a3,3,0,0,0,3-3h0v-3.71c0-2.86-6.64-5.19-14.83-5.19a8.82,8.82,0,0,1-6.13-2.46A9.17,9.17,0,0,1,635,384v0c-.13-.24-.25-.48-.36-.73a.13.13,0,0,0,0-.07c-.1-.24-.18-.47-.27-.73l-.05-.13q-.1-.35-.18-.69a1.62,1.62,0,0,0,0-.19c-.05-.22-.08-.46-.11-.69a1.55,1.55,0,0,0,0-.21c0-.31,0-.62,0-.93a3.85,3.85,0,0,1,0-.48,2.83,2.83,0,0,0,0-.5v-6.91a6.8,6.8,0,0,1,6.67-6.9H645a6.8,6.8,0,0,1,6.67,6.9v6.91a2.8,2.8,0,0,1,0,.5,3.75,3.75,0,0,0,0,.48,8.71,8.71,0,0,1-.76,3.55Z" transform="translate(-625.01 -364.8)"/><path id="Trazado_10167" data-name="Trazado 10167" class="cls-1" d="M633.15,384.81a2.23,2.23,0,0,1,2.23,2.23,2.06,2.06,0,0,1-.12.7,2.18,2.18,0,0,1-1.41,1.41,2.23,2.23,0,1,1-.7-4.34Z" transform="translate(-625.01 -364.8)"/></g></svg>