<svg id="Capa_1" data-name="Capa 1" xmlns="http://www.w3.org/2000/svg" viewBox="0 0 203.83 203.82"><defs><style>.cls-1,.cls-55{fill:#fff;}.cls-1{fill-opacity:0;}.cls-2{fill:#fafafa;opacity:0.02;}.cls-10,.cls-11,.cls-12,.cls-13,.cls-14,.cls-15,.cls-16,.cls-17,.cls-18,.cls-19,.cls-2,.cls-20,.cls-21,.cls-22,.cls-23,.cls-24,.cls-25,.cls-26,.cls-27,.cls-28,.cls-29,.cls-3,.cls-30,.cls-31,.cls-32,.cls-33,.cls-34,.cls-35,.cls-36,.cls-37,.cls-38,.cls-39,.cls-4,.cls-40,.cls-41,.cls-42,.cls-43,.cls-44,.cls-45,.cls-46,.cls-47,.cls-48,.cls-49,.cls-5,.cls-50,.cls-51,.cls-6,.cls-7,.cls-8,.cls-9{isolation:isolate;}.cls-3{fill:#f5f5f5;opacity:0.04;}.cls-4{fill:#f0f0f0;opacity:0.06;}.cls-5{fill:#ebebeb;opacity:0.08;}.cls-6{fill:#e6e6e6;opacity:0.1;}.cls-7{fill:#e1e1e1;opacity:0.12;}.cls-8{fill:#dcdcdc;opacity:0.14;}.cls-9{fill:#d7d7d7;opacity:0.16;}.cls-10{fill:#d2d2d2;opacity:0.18;}.cls-11{fill:#cdcdcd;opacity:0.2;}.cls-12{fill:#c8c8c8;opacity:0.22;}.cls-13{fill:#c3c3c3;opacity:0.23;}.cls-14{fill:#bebebe;opacity:0.25;}.cls-15{fill:#b9b9b9;opacity:0.28;}.cls-16{fill:#b4b4b4;opacity:0.29;}.cls-17{fill:#afafaf;opacity:0.31;}.cls-18{fill:#aaa;opacity:0.33;}.cls-19{fill:#a5a5a5;opacity:0.35;}.cls-20{fill:#a0a0a0;opacity:0.37;}.cls-21{fill:#9b9b9b;opacity:0.39;}.cls-22{fill:#969696;opacity:0.41;}.cls-23{fill:#919191;opacity:0.43;}.cls-24{fill:#8c8c8c;opacity:0.45;}.cls-25{fill:#878787;opacity:0.47;}.cls-26{fill:#828282;opacity:0.49;}.cls-27{fill:#7d7d7d;opacity:0.51;}.cls-28{fill:#787878;opacity:0.53;}.cls-29{fill:#737373;opacity:0.55;}.cls-30{fill:#6e6e6e;opacity:0.57;}.cls-31{fill:#696969;opacity:0.59;}.cls-32{fill:#646464;opacity:0.61;}.cls-33{fill:#5f5f5f;opacity:0.63;}.cls-34{fill:#5a5a5a;opacity:0.65;}.cls-35{fill:#555;opacity:0.67;}.cls-36{fill:#505050;opacity:0.69;}.cls-37{fill:#4b4b4b;opacity:0.71;}.cls-38{fill:#464646;opacity:0.73;}.cls-39{fill:#414141;opacity:0.75;}.cls-40{fill:#3c3c3c;opacity:0.76;}.cls-41{fill:#373737;opacity:0.78;}.cls-42{fill:#323232;opacity:0.8;}.cls-43{fill:#2d2d2d;opacity:0.82;}.cls-44{fill:#282828;opacity:0.84;}.cls-45{fill:#232323;opacity:0.86;}.cls-46{fill:#1e1e1e;opacity:0.88;}.cls-47{fill:#191919;opacity:0.9;}.cls-48{fill:#141414;opacity:0.92;}.cls-49{fill:#0f0f0f;opacity:0.94;}.cls-50{fill:#0a0a0a;opacity:0.96;}.cls-51{fill:#050505;opacity:0.98;}.cls-52{fill:#00247d;}.cls-53{fill:#cf142b;}.cls-54{fill:#fc0;}</style></defs><g id="Grupo_6688" data-name="Grupo 6688"><g id="Grupo_6110" data-name="Grupo 6110"><path id="Trazado_7383" data-name="Trazado 7383" class="cls-1" d="M749.66,334.09c43,43,46.74,109.21,8.33,147.58s-104.59,34.64-147.58-8.34-36.67-99.14,1.74-137.5S706.64,291.06,749.66,334.09Z" transform="translate(-580.68 -304.36)"/><path id="Trazado_7384" data-name="Trazado 7384" class="cls-2" d="M749,334.39c42.7,42.7,46.37,108.46,8.27,146.55s-103.83,34.43-146.54-8.27S574.19,374.13,612.32,336,706.28,291.72,749,334.39Z" transform="translate(-580.68 -304.36)"/><path id="Trazado_7385" data-name="Trazado 7385" class="cls-3" d="M748.33,334.74c42.38,42.38,46,107.63,8.21,145.42S653.45,514.33,611.12,472,574.73,374,612.57,336.14,706,292.36,748.33,334.74Z" transform="translate(-580.68 -304.36)"/><path id="Trazado_7386" data-name="Trazado 7386" class="cls-4" d="M747.66,335.09c42.06,42.06,45.73,106.84,8.14,144.36s-102.33,33.92-144.37-8.14-36.26-97.37,1.33-134.88S705.59,293,747.66,335.09Z" transform="translate(-580.68 -304.36)"/><path id="Trazado_7387" data-name="Trazado 7387" class="cls-5" d="M747,335.4c41.75,41.79,45.39,106.09,8.08,143.32s-101.57,33.66-143.31-8.09-36.1-96.76,1.2-134.07S705.21,293.65,747,335.4Z" transform="translate(-580.68 -304.36)"/><path id="Trazado_7388" data-name="Trazado 7388" class="cls-6" d="M746.3,335.75C787.76,377.19,791.37,441,754.35,478S653.5,511.43,612.09,470s-36-96.17,1-133.19S704.86,294.29,746.3,335.75Z" transform="translate(-580.68 -304.36)"/><path id="Trazado_7389" data-name="Trazado 7389" class="cls-7" d="M745.63,336.1c41.15,41.1,44.72,104.47,8,141.2s-100.11,33.17-141.21-8-35.82-95.57.92-132.3S704.51,295,745.63,336.1Z" transform="translate(-580.68 -304.36)"/><path id="Trazado_7390" data-name="Trazado 7390" class="cls-8" d="M745,336.42c40.83,40.83,44.41,103.71,7.92,140.15s-99.32,32.91-140.15-7.93-35.69-95,.79-131.45S704.14,295.58,745,336.42Z" transform="translate(-580.68 -304.36)"/><path id="Trazado_7391" data-name="Trazado 7391" class="cls-9" d="M744.29,336.76c40.52,40.52,44.06,102.94,7.86,139.1S653.59,508.53,613.06,468s-35.54-94.4.63-130.59S703.79,296.25,744.29,336.76Z" transform="translate(-580.68 -304.36)"/><path id="Trazado_7392" data-name="Trazado 7392" class="cls-10" d="M743.65,337.11c40.2,40.2,43.71,102.14,7.8,138s-97.81,32.41-138.05-7.79-35.4-93.79.48-129.74S703.45,296.92,743.65,337.11Z" transform="translate(-580.68 -304.36)"/><path id="Trazado_7393" data-name="Trazado 7393" class="cls-11" d="M743,337.43c39.88,39.91,43.36,101.35,7.73,137s-97.05,32.15-137-7.74A91.38,91.38,0,0,1,743,337.45Z" transform="translate(-580.68 -304.36)"/><path id="Trazado_7394" data-name="Trazado 7394" class="cls-12" d="M742.32,337.77c39.57,39.61,43,100.57,7.67,135.94S653.7,505.64,614.06,466A90.7,90.7,0,0,1,742.32,337.77Z" transform="translate(-580.68 -304.36)"/><path id="Trazado_7395" data-name="Trazado 7395" class="cls-13" d="M741.66,338.11c39.28,39.25,42.7,99.77,7.61,134.83s-95.57,31.68-134.83-7.61A90,90,0,0,1,741.65,338.12Z" transform="translate(-580.68 -304.36)"/><path id="Trazado_7396" data-name="Trazado 7396" class="cls-14" d="M741,338.44c39,39,42.35,99.05,7.54,133.83s-94.84,31.42-133.83-7.55A89.26,89.26,0,1,1,739.48,337c.5.48,1,1,1.46,1.46Z" transform="translate(-580.68 -304.36)"/><path id="Trazado_7397" data-name="Trazado 7397" class="cls-15" d="M740.33,338.78c38.65,38.65,42,98.19,7.48,132.71s-94,31.17-132.71-7.48A88.55,88.55,0,1,1,740.33,338.79Z" transform="translate(-580.68 -304.36)"/><path id="Trazado_7398" data-name="Trazado 7398" class="cls-16" d="M739.67,339.13c38.33,38.34,41.68,97.4,7.37,131.64s-93.29,30.92-131.63-7.38A87.87,87.87,0,0,1,739.67,339.13Z" transform="translate(-580.68 -304.36)"/><path id="Trazado_7399" data-name="Trazado 7399" class="cls-17" d="M739,339.44c38,38.06,41.37,96.64,7.38,130.59s-92.54,30.67-130.6-7.37A87.12,87.12,0,0,1,739,339.45Z" transform="translate(-580.68 -304.36)"/><path id="Trazado_7400" data-name="Trazado 7400" class="cls-18" d="M738.31,339.8c37.74,37.74,41,95.89,7.37,129.52s-91.78,30.41-129.51-7.38A86.43,86.43,0,0,1,738.4,339.7h0Z" transform="translate(-580.68 -304.36)"/><path id="Trazado_7401" data-name="Trazado 7401" class="cls-19" d="M737.64,340.13c37.43,37.43,40.68,95,7.26,128.45s-91,30.16-128.44-7.26A85.69,85.69,0,0,1,736.65,339.14Q737.16,339.64,737.64,340.13Z" transform="translate(-580.68 -304.36)"/><path id="Trazado_7402" data-name="Trazado 7402" class="cls-20" d="M737,340.46c37.11,37.15,40.36,94.27,7.2,127.4s-90.3,29.91-127.4-7.19A85,85,0,1,1,735.07,338.54Q736,339.49,737,340.46Z" transform="translate(-580.68 -304.36)"/><path id="Trazado_7403" data-name="Trazado 7403" class="cls-21" d="M736.32,340.8c36.79,36.8,40,93.48,7.13,126.32S653.88,496.78,617.12,460a84.3,84.3,0,0,1,116.59-121.8Q735,339.47,736.32,340.8Z" transform="translate(-580.68 -304.36)"/><path id="Trazado_7404" data-name="Trazado 7404" class="cls-22" d="M735.66,341.16c36.48,36.48,39.67,92.73,7.07,125.26S654,495.85,617.47,459.35a83.59,83.59,0,0,1,115.67-120.7c.85.82,1.69,1.66,2.51,2.52Z" transform="translate(-580.68 -304.36)"/><path id="Trazado_7405" data-name="Trazado 7405" class="cls-23" d="M735,341.47c36.2,36.2,39.32,91.91,7,124.22s-88,29.18-124.22-7A82.89,82.89,0,1,1,732.65,339.15c.8.76,1.58,1.54,2.34,2.33Z" transform="translate(-580.68 -304.36)"/><path id="Trazado_7406" data-name="Trazado 7406" class="cls-24" d="M734.32,341.81c35.83,35.83,39,91.12,6.95,123.14S654,493.88,618.13,458A82.19,82.19,0,1,1,730.86,338.37q1.78,1.68,3.45,3.45Z" transform="translate(-580.68 -304.36)"/><path id="Trazado_7407" data-name="Trazado 7407" class="cls-25" d="M733.72,342.17c35.57,35.56,38.66,90.33,6.89,122.07s-86.51,28.67-122.07-6.88A81.48,81.48,0,0,1,730.34,338.8c1.16,1.1,2.28,2.22,3.37,3.38Z" transform="translate(-580.68 -304.36)"/><path id="Trazado_7408" data-name="Trazado 7408" class="cls-26" d="M733,342.47c35.25,35.28,38.3,89.57,6.81,121s-85.74,28.45-121-6.82A80.79,80.79,0,1,1,729.6,339.08Q731.34,340.73,733,342.47Z" transform="translate(-580.68 -304.36)"/><path id="Trazado_7409" data-name="Trazado 7409" class="cls-27" d="M732.26,342.82c35,34.93,38,88.75,6.79,120S654,490.94,619.1,456A80.09,80.09,0,1,1,727.62,338.18Q730,340.4,732.26,342.82Z" transform="translate(-580.68 -304.36)"/><path id="Trazado_7410" data-name="Trazado 7410" class="cls-28" d="M731.65,343.18c34.65,34.62,37.68,88,6.72,118.88S654.07,490,619.5,455.33A79.34,79.34,0,1,1,727.87,339.41Q729.82,341.23,731.65,343.18Z" transform="translate(-580.68 -304.36)"/><path id="Trazado_7411" data-name="Trazado 7411" class="cls-29" d="M731,343.5c34.34,34.33,37.34,87.2,6.66,117.83s-83.5,27.66-117.83-6.66A78.66,78.66,0,1,1,726.9,339.42Q729,341.39,731,343.5Z" transform="translate(-580.68 -304.36)"/><path id="Trazado_7412" data-name="Trazado 7412" class="cls-30" d="M730.32,343.83c34,34,37,86.41,6.6,116.76S654.18,488,620.16,454A78,78,0,1,1,725.22,338.74Q727.89,341.17,730.32,343.83Z" transform="translate(-580.68 -304.36)"/><path id="Trazado_7413" data-name="Trazado 7413" class="cls-31" d="M729.66,344.18c33.72,33.72,36.64,85.59,6.53,115.68s-82,27.17-115.68-6.53A77.25,77.25,0,0,1,725,339.48Q727.41,341.73,729.66,344.18Z" transform="translate(-580.68 -304.36)"/><path id="Trazado_7414" data-name="Trazado 7414" class="cls-32" d="M729,344.51c33.39,33.41,36.33,84.83,6.47,114.64s-81.23,26.91-114.64-6.47A76.57,76.57,0,0,1,724.07,339.57Q726.65,341.92,729,344.51Z" transform="translate(-580.68 -304.36)"/><path id="Trazado_7415" data-name="Trazado 7415" class="cls-33" d="M728.33,344.85c33.1,33.09,36,84,6.41,113.57S654.26,485.08,621.16,452A75.87,75.87,0,1,1,722.83,339.37a74.83,74.83,0,0,1,5.49,5.49Z" transform="translate(-580.68 -304.36)"/><path id="Trazado_7416" data-name="Trazado 7416" class="cls-34" d="M727.67,345.19c32.78,32.79,35.62,83.25,6.32,112.5s-79.72,26.44-112.5-6.32A75.15,75.15,0,1,1,727.63,345.22Z" transform="translate(-580.68 -304.36)"/><path id="Trazado_7417" data-name="Trazado 7417" class="cls-35" d="M727,345.51C759.47,378,762.28,428,733.32,457s-79,26.18-111.45-6.33A74.48,74.48,0,1,1,727,345.48Z" transform="translate(-580.68 -304.36)"/><path id="Trazado_7418" data-name="Trazado 7418" class="cls-36" d="M726.35,345.86c32.15,32.15,35,81.67,6.22,110.38S654.33,482.17,622.18,450A73.76,73.76,0,0,1,720.5,340a74.84,74.84,0,0,1,5.84,5.84Z" transform="translate(-580.68 -304.36)"/><path id="Trazado_7419" data-name="Trazado 7419" class="cls-37" d="M725.68,346.2c31.84,31.84,34.62,80.89,6.16,109.31s-77.48,25.68-109.31-6.15A73.07,73.07,0,1,1,725.68,346.2Z" transform="translate(-580.68 -304.36)"/><path id="Trazado_7420" data-name="Trazado 7420" class="cls-38" d="M725,346.52c31.55,31.55,34.3,80.09,6.12,108.27s-76.71,25.42-108.26-6.13A72.37,72.37,0,1,1,725,346.52Z" transform="translate(-580.68 -304.36)"/><path id="Trazado_7421" data-name="Trazado 7421" class="cls-39" d="M724.32,346.87c31.24,31.23,34,79.34,6.06,107.19s-76,25.17-107.19-6.06A71.66,71.66,0,1,1,718.4,340.88a69.83,69.83,0,0,1,6,6Z" transform="translate(-580.68 -304.36)"/><path id="Trazado_7422" data-name="Trazado 7422" class="cls-40" d="M723.66,347.22c30.92,30.91,33.61,78.51,6,106.11s-75.2,24.92-106.12-6A71,71,0,1,1,723.65,347.23Z" transform="translate(-580.68 -304.36)"/><path id="Trazado_7423" data-name="Trazado 7423" class="cls-41" d="M723,347.53c30.56,30.64,33.29,77.76,5.93,105.07s-74.44,24.67-105.07-5.93A70.28,70.28,0,1,1,723,347.53Z" transform="translate(-580.68 -304.36)"/><path id="Trazado_7424" data-name="Trazado 7424" class="cls-42" d="M722.36,347.88c30.29,30.29,32.95,76.93,5.87,104s-73.76,24.41-104-5.87a69.55,69.55,0,0,1,91.4-104.85A67.66,67.66,0,0,1,722.36,347.88Z" transform="translate(-580.68 -304.36)"/><path id="Trazado_7425" data-name="Trazado 7425" class="cls-43" d="M721.63,348.23c30,30,32.59,76.18,5.8,102.93s-72.95,24.16-102.93-5.81-30.82-74.37-4-101.16S691.67,318.18,721.63,348.23Z" transform="translate(-580.68 -304.36)"/><path id="Trazado_7426" data-name="Trazado 7426" class="cls-44" d="M721,348.54c29.68,29.69,32.24,75.39,5.74,101.89s-72.2,23.94-101.89-5.74-30.67-73.76-4.22-100.31S691.32,318.89,721,348.54Z" transform="translate(-580.68 -304.36)"/><path id="Trazado_7427" data-name="Trazado 7427" class="cls-45" d="M720.34,348.89c29.37,29.37,31.93,74.6,5.68,100.82S654.59,473.39,625.21,444s-30.56-73.21-4.33-99.46S691,319.52,720.34,348.89Z" transform="translate(-580.68 -304.36)"/><path id="Trazado_7428" data-name="Trazado 7428" class="cls-46" d="M719.68,349.24c29.05,29.05,31.61,73.76,5.61,99.74s-70.67,23.43-99.74-5.62-30.41-72.63-4.45-98.57S690.63,320.21,719.68,349.24Z" transform="translate(-580.68 -304.36)"/><path id="Trazado_7429" data-name="Trazado 7429" class="cls-47" d="M719,349.56c28.74,28.76,31.24,73,5.57,98.69s-69.93,23.18-98.7-5.55-30.25-72-4.58-97.72S690.25,320.82,719,349.56Z" transform="translate(-580.68 -304.36)"/><path id="Trazado_7430" data-name="Trazado 7430" class="cls-48" d="M718.32,349.89c28.45,28.45,30.92,72.23,5.52,97.62s-69.17,22.93-97.62-5.49-30.13-71.46-4.74-96.86S689.9,321.47,718.32,349.89Z" transform="translate(-580.68 -304.36)"/><path id="Trazado_7431" data-name="Trazado 7431" class="cls-49" d="M717.65,350.24c28.14,28.1,30.56,71.44,5.46,96.55s-68.44,22.67-96.54-5.46-30-70.85-4.87-95.95S689.54,322.1,717.65,350.24Z" transform="translate(-580.68 -304.36)"/><path id="Trazado_7432" data-name="Trazado 7432" class="cls-50" d="M717,350.57c27.82,27.82,30.25,70.68,5.41,95.5s-67.69,22.42-95.51-5.41-29.84-70.27-5-95.09S689.17,322.77,717,350.57Z" transform="translate(-580.68 -304.36)"/><path id="Trazado_7433" data-name="Trazado 7433" class="cls-51" d="M716.34,350.92c27.5,27.5,29.9,69.89,5.33,94.42s-66.93,22.13-94.43-5.34-29.72-69.67-5.15-94.24S688.82,323.4,716.34,350.92Z" transform="translate(-580.68 -304.36)"/><path id="Trazado_7434" data-name="Trazado 7434" d="M715.67,351.26c27.19,27.19,29.56,69.08,5.27,93.36s-66.16,21.91-93.35-5.27S598,370.27,622.32,346,688.48,324,715.67,351.26Z" transform="translate(-580.68 -304.36)"/></g><g id="Grupo_6121" data-name="Grupo 6121"><g id="Grupo_6111" data-name="Grupo 6111"><path id="Trazado_7435" data-name="Trazado 7435" class="cls-52" d="M755.6,394.63a83.44,83.44,0,0,1-4.8,27.91H592.86a83.51,83.51,0,0,1,0-55.85H750.81A83.36,83.36,0,0,1,755.6,394.63Z" transform="translate(-580.68 -304.36)"/><path id="Trazado_7436" data-name="Trazado 7436" class="cls-53" d="M750.85,422.55a83.76,83.76,0,0,1-158,0Z" transform="translate(-580.68 -304.36)"/><path id="Trazado_7437" data-name="Trazado 7437" class="cls-54" d="M750.85,366.71h-158a83.76,83.76,0,0,1,157.95,0Z" transform="translate(-580.68 -304.36)"/></g><g id="Grupo_6120" data-name="Grupo 6120"><g id="Grupo_6112" data-name="Grupo 6112"><path id="Trazado_7438" data-name="Trazado 7438" class="cls-55" d="M663.61,381.76,660,385.39l.55-5.05L656,378.06l5-1.05.75-5,2.53,4.41,5-.84-3.42,3.77,2.35,4.52Z" transform="translate(-580.68 -304.36)"/></g><g id="Grupo_6113" data-name="Grupo 6113"><path id="Trazado_7439" data-name="Trazado 7439" class="cls-55" d="M648.17,387.4,646,392l-1.16-5-5.05-.63,4.35-2.64-1-5,3.86,3.33,4.46-2.46-2,4.69,3.71,3.49Z" transform="translate(-580.68 -304.36)"/></g><g id="Grupo_6114" data-name="Grupo 6114"><path id="Trazado_7440" data-name="Trazado 7440" class="cls-55" d="M635.47,398,635,403l-2.77-4.27-5,1.1,3.16-4-2.59-4.38,4.75,1.83,3.37-3.82-.27,5.08,4.68,2Z" transform="translate(-580.68 -304.36)"/></g><g id="Grupo_6115" data-name="Grupo 6115"><path id="Trazado_7441" data-name="Trazado 7441" class="cls-55" d="M627.33,412.33l1.28,4.93-4.07-3.07-4.29,2.74,1.66-4.81L618,408.88l5.09.1,1.85-4.74,1.49,4.86,5.08.3Z" transform="translate(-580.68 -304.36)"/></g><g id="Grupo_6116" data-name="Grupo 6116"><path id="Trazado_7442" data-name="Trazado 7442" class="cls-55" d="M680.06,381.76l3.57,3.63-.55-5.05,4.56-2.28-5-1.05-.75-5-2.53,4.41-5-.84,3.42,3.77-2.35,4.52Z" transform="translate(-580.68 -304.36)"/></g><g id="Grupo_6117" data-name="Grupo 6117"><path id="Trazado_7443" data-name="Trazado 7443" class="cls-55" d="M695.49,387.4l2.16,4.6,1.16-5,5.05-.63-4.35-2.64,1-5-3.86,3.33-4.46-2.46,2,4.69-3.66,3.5Z" transform="translate(-580.68 -304.36)"/></g><g id="Grupo_6118" data-name="Grupo 6118"><path id="Trazado_7444" data-name="Trazado 7444" class="cls-55" d="M708.19,398l.48,5.06,2.77-4.27,5,1.1-3.16-4,2.59-4.38-4.75,1.83-3.36-3.82.27,5.08-4.68,2Z" transform="translate(-580.68 -304.36)"/></g><g id="Grupo_6119" data-name="Grupo 6119"><path id="Trazado_7445" data-name="Trazado 7445" class="cls-55" d="M716.34,412.33l-1.29,4.93,4.06-3.07,4.29,2.74-1.67-4.81,3.94-3.24-5.09.1-1.85-4.74-1.49,4.86-5.08.3Z" transform="translate(-580.68 -304.36)"/></g></g></g></g></svg>