<svg id="Capa_1" data-name="Capa 1" xmlns="http://www.w3.org/2000/svg" viewBox="0 0 73.7 50"><defs><style>.cls-1{fill:#004a9c;fill-rule:evenodd;}</style></defs><path id="Trazado_10361" data-name="Trazado 10361" class="cls-1" d="M333.42,377.07a2.28,2.28,0,1,1,2.31-2.27,2.29,2.29,0,0,1-2.31,2.27Zm13.82,0h-4.61a2.27,2.27,0,0,1,0-4.54h5.75a5.72,5.72,0,0,1,5.76,5.68v11.36a5.73,5.73,0,0,1-5.76,5.68H336.87a5.73,5.73,0,0,1-5.76-5.68v-5.69a2.31,2.31,0,0,1,4.61,0v4.55a2.29,2.29,0,0,0,2.3,2.27h9.21a2.29,2.29,0,0,0,2.31-2.27h0v-9.09a2.29,2.29,0,0,0-2.31-2.28Zm36.85,27.27a6.64,6.64,0,0,1-.77,0,9.26,9.26,0,0,1-5.38-2.31,2.25,2.25,0,0,1-.68-3.14,2.33,2.33,0,0,1,3.19-.67,2.24,2.24,0,0,1,.38.31,4.64,4.64,0,0,0,2.77,1.26,2.63,2.63,0,0,0,.49.05,2.29,2.29,0,0,0,2.3-2.27h0V370.25a2.29,2.29,0,0,0-2.3-2.27v0a4.69,4.69,0,0,0-3.3,1.34L369.3,380.63a4.49,4.49,0,0,0-1.33,3.53V399.8a9.15,9.15,0,0,1-9.21,9.09H326.51a9.15,9.15,0,0,1-9.21-9.09h0V368a9.15,9.15,0,0,1,9.21-9.09h32.25A9.15,9.15,0,0,1,368,368h0v2.27a2.31,2.31,0,0,1-4.61.12V368a4.56,4.56,0,0,0-4.6-4.54H326.52a4.58,4.58,0,0,0-4.61,4.54h0V399.8a4.57,4.57,0,0,0,4.61,4.54h32.24a4.57,4.57,0,0,0,4.6-4.54h0V383.88h0a9.06,9.06,0,0,1,2.71-6.46l11.46-11.31a9.32,9.32,0,0,1,5.79-2.64,6.45,6.45,0,0,1,.76,0,6.86,6.86,0,0,1,6.91,6.81h0v27.28a6.86,6.86,0,0,1-6.91,6.82Zm-10.36-12.5a2.28,2.28,0,1,1-2.31,2.27A2.29,2.29,0,0,1,373.73,391.84Z" transform="translate(-317.3 -358.89)"/></svg>